<svg width="96" height="96" xmlns="http://www.w3.org/2000/svg" xmlns:xlink="http://www.w3.org/1999/xlink" xml:space="preserve" overflow="hidden"><defs><clipPath id="clip0"><rect x="579" y="234" width="96" height="96"/></clipPath></defs><g clip-path="url(#clip0)" transform="translate(-579 -234)"><path d="M646 249.5C646 253.918 642.418 257.5 638 257.5 633.582 257.5 630 253.918 630 249.5 630 245.082 633.582 241.5 638 241.5 642.418 241.5 646 245.082 646 249.5Z" fill="#123B45"/><path d="M602 288.5C592.6 288.5 585 296.1 585 305.5 585 314.9 592.6 322.5 602 322.5 611.4 322.5 619 314.9 619 305.5 619 296.1 611.4 288.5 602 288.5ZM602 318.5C594.8 318.5 589 312.7 589 305.5 589 298.3 594.8 292.5 602 292.5 609.2 292.5 615 298.3 615 305.5 615 312.7 609.2 318.5 602 318.5Z" fill="#123B45"/><path d="M652 288.5C642.6 288.5 635 296.1 635 305.5 635 314.9 642.6 322.5 652 322.5 661.4 322.5 669 314.9 669 305.5 669 296.1 661.4 288.5 652 288.5ZM652 318.5C644.8 318.5 639 312.7 639 305.5 639 298.3 644.8 292.5 652 292.5 659.2 292.5 665 298.3 665 305.5 665 312.7 659.2 318.5 652 318.5Z" fill="#123B45"/><path d="M634.7 273.8C635.5 274.6 636.5 275 637.5 275L649 275C651.2 275 653 273.2 653 271 653 268.8 651.2 267 649 267L639.2 267C639.2 267 627.8 255.5 627.6 255.4 625.1 253.2 621.3 253.5 619.1 256L605.5 271.5C603.3 274 603.6 277.8 606 280 606.6 280.5 607.2 280.9 607.9 281.1L607.9 281.1 622.9 287.1 622.9 305.4C622.9 307.6 624.7 309.4 626.9 309.4 629.1 309.4 630.9 307.6 630.9 305.4L630.9 284.4C630.9 282.8 629.9 281.3 628.5 280.7L617.4 276 626.5 265.6 634.7 273.8Z" fill="#123B45"/></g></svg>