<?xml version="1.0" encoding="UTF-8"?>
<svg width="214px" height="214px" viewBox="0 0 214 214" version="1.1" xmlns="http://www.w3.org/2000/svg" xmlns:xlink="http://www.w3.org/1999/xlink" style="background: #F2F2F2;">
    <!-- Generator: Sketch 48.1 (47250) - http://www.bohemiancoding.com/sketch -->
    <title>Artboard</title>
    <desc>Created with Sketch.</desc>
    <defs></defs>
    <g id="Page-1" stroke="none" stroke-width="1" fill="none" fill-rule="evenodd">
        <g id="Artboard" fill="#123B45">
            <g id="Group-2" transform="translate(23.000000, 32.000000)">
                <g id="Group-5">
                    <g id="Group">
                        <path d="M83.4276828,83 C98.7951272,83 123.483924,74.8244778 143.88963,66.3257869 C152.231378,62.8515658 164.830796,60.7981343 168,56.9185883 C168,45.5079051 129.755165,39.8 83.4276828,39.8 C37.1002006,39.8 0,45.5079051 0,56.9185883 C2.40673601,61.3897993 15.6575409,62.8386628 23.5493491,66.3257869 C43.4320886,75.1112993 67.9295766,83 83.4276828,83 Z" id="Oval-5" stroke="#123B45"></path>
                        <g id="Group-4" transform="translate(27.035673, 0.000000)">
                            <path d="M2.42586527,11.9692308 L111.502788,11.9692308 C112.607358,11.9692308 113.502788,12.8646613 113.502788,13.9692308 L113.502764,51.5774205 C113.502764,52.3947366 113.005448,53.1298126 112.24679,53.4338587 C96.749661,59.6446196 78.3221732,62.75 56.9643268,62.75 C35.6064836,62.75 17.1789981,59.6446205 1.68187026,53.4338615 L1.68186434,53.4338763 C0.923191175,53.1298241 0.425865274,52.3947331 0.425865274,51.5774004 L0.425865274,13.9692308 C0.425865274,12.8646613 1.32129577,11.9692308 2.42586527,11.9692308 Z" id="Rectangle-4" stroke="#F2F2F2" stroke-width="5"></path>
                            <ellipse id="Oval-4" stroke="#F2F2F2" stroke-width="5" cx="56.9643268" cy="16.3557692" rx="56.5384615" ry="16.3557692"></ellipse>
                            <path d="M2.9259357,16.3581696 C11.0388912,19.9803174 15.3670047,21.8262166 15.9102763,21.8958671 C16.4535478,21.9655176 21.099207,24.0460754 29.8472537,28.1375405 C27.7101479,27.8696109 26.5165264,28.4956751 26.2663892,30.0157332 C26.0162521,31.5357913 27.0813988,32.603703 29.4618293,33.2194684 C22.7554791,33.7847205 17.7833479,33.5834009 14.5454358,32.6155097 C11.3075237,31.6476185 7.434357,28.9157711 2.9259357,24.4199677 C2.9259357,22.5977518 2.9259357,21.3141962 2.9259357,20.569301 C2.9259357,19.8244058 2.9259357,18.4206953 2.9259357,16.3581696 Z" id="Rectangle-8"></path>
                        </g>
                    </g>
                </g>
                <path d="M21,97.9126901 C62.9833774,89.5358106 74.7783944,102.28504 83.9210479,102.28504 C93.0637014,102.28504 102.930382,89.9861016 145,97.3488647 C144.827644,98.8653822 144.722503,99.8017541 144.684577,100.15798 C140.166728,101.83003 137.686653,107.901789 137.244351,118.373257 C137.244351,137.84447 98.7569807,148.054101 94.1397314,118.373257 C85.5678822,97.9126901 74.7774499,113.053299 74.1982505,118.373257 C69.5001586,146.776938 30.8598042,138.852224 30.8598042,118.373257 C30.3388119,106.229739 27.0522105,100.15798 21,100.15798 C21,99.6389722 21,98.8905422 21,97.9126901 Z" id="Path-2" stroke="#123B45"></path>
            </g>
        </g>
    </g>
</svg>