<?xml version="1.0" encoding="UTF-8"?>
<svg width="42px" height="60px" viewBox="0 0 42 60" version="1.1" xmlns="http://www.w3.org/2000/svg" xmlns:xlink="http://www.w3.org/1999/xlink">
    <!-- Generator: Sketch 48.1 (47250) - http://www.bohemiancoding.com/sketch -->
    <title>Group 8 Copy 3</title>
    <desc>Created with Sketch.</desc>
    <defs></defs>
    <g id="TC-Feed-(Menu)" stroke="none" stroke-width="1" fill="none" fill-rule="evenodd" transform="translate(-1349.000000, -881.000000)">
        <g id="Group-8-Copy-3" transform="translate(1334.000000, 882.000000)">
            <g id="Group-2" transform="translate(27.000000, 11.000000)" stroke="#E56841" stroke-linecap="round" stroke-width="2">
                <path d="M9,0.428571429 L9,17.5928438" id="Line-2"></path>
                <path d="M9,0.428571429 L9,17.5928438" id="Line-2-Copy" transform="translate(9.000000, 9.000000) rotate(90.000000) translate(-9.000000, -9.000000) "></path>
            </g>
            <path d="M31.543457,58 L30.7592773,55.8193359 L27.7568359,55.8193359 L26.9887695,58 L25.6352539,58 L28.5732422,50.1152344 L29.9697266,50.1152344 L32.9077148,58 L31.543457,58 Z M30.4208984,54.7128906 L29.6850586,52.5751953 C29.6313474,52.4319654 29.557048,52.2063817 29.4621582,51.8984375 C29.3672684,51.5904933 29.3019208,51.3649096 29.2661133,51.2216797 C29.1694331,51.6621116 29.0279957,52.1437148 28.8417969,52.6665039 L28.1328125,54.7128906 L30.4208984,54.7128906 Z M35.8134766,58.1074219 C35.0722619,58.1074219 34.4939799,57.8388699 34.0786133,57.3017578 C33.6632466,56.7646458 33.4555664,56.0109098 33.4555664,55.0405273 C33.4555664,54.0665641 33.6659321,53.3083523 34.0866699,52.7658691 C34.5074077,52.223386 35.0901655,51.9521484 35.8349609,51.9521484 C36.6155638,51.9521484 37.2099589,52.2403943 37.6181641,52.8168945 L37.6826172,52.8168945 C37.6217445,52.3907856 37.5913086,52.0542005 37.5913086,51.8071289 L37.5913086,49.6425781 L38.8588867,49.6425781 L38.8588867,58 L37.8706055,58 L37.6503906,57.2211914 L37.5913086,57.2211914 C37.1866842,57.8120147 36.5940794,58.1074219 35.8134766,58.1074219 Z M36.1518555,57.0869141 C36.6710638,57.0869141 37.0488269,56.9410008 37.2851562,56.6491699 C37.5214856,56.357339 37.6432291,55.8837923 37.6503906,55.2285156 L37.6503906,55.0512695 C37.6503906,54.3028934 37.5286471,53.7711604 37.2851562,53.4560547 C37.0416654,53.1409489 36.6603216,52.9833984 36.1411133,52.9833984 C35.6971006,52.9833984 35.3551444,53.1633283 35.1152344,53.5231934 C34.8753243,53.8830584 34.7553711,54.3959928 34.7553711,55.0620117 C34.7553711,55.7208692 34.8717436,56.2230614 35.1044922,56.5686035 C35.3372407,56.9141456 35.6863583,57.0869141 36.1518555,57.0869141 Z M42.6669922,58.1074219 C41.9257775,58.1074219 41.3474956,57.8388699 40.9321289,57.3017578 C40.5167622,56.7646458 40.309082,56.0109098 40.309082,55.0405273 C40.309082,54.0665641 40.5194478,53.3083523 40.9401855,52.7658691 C41.3609233,52.223386 41.9436812,51.9521484 42.6884766,51.9521484 C43.4690794,51.9521484 44.0634745,52.2403943 44.4716797,52.8168945 L44.5361328,52.8168945 C44.4752601,52.3907856 44.4448242,52.0542005 44.4448242,51.8071289 L44.4448242,49.6425781 L45.7124023,49.6425781 L45.7124023,58 L44.7241211,58 L44.5039062,57.2211914 L44.4448242,57.2211914 C44.0401998,57.8120147 43.447595,58.1074219 42.6669922,58.1074219 Z M43.0053711,57.0869141 C43.5245794,57.0869141 43.9023426,56.9410008 44.1386719,56.6491699 C44.3750012,56.357339 44.4967448,55.8837923 44.5039062,55.2285156 L44.5039062,55.0512695 C44.5039062,54.3028934 44.3821627,53.7711604 44.1386719,53.4560547 C43.8951811,53.1409489 43.5138372,52.9833984 42.9946289,52.9833984 C42.5506163,52.9833984 42.2086601,53.1633283 41.96875,53.5231934 C41.7288399,53.8830584 41.6088867,54.3959928 41.6088867,55.0620117 C41.6088867,55.7208692 41.7252593,56.2230614 41.9580078,56.5686035 C42.1907564,56.9141456 42.539874,57.0869141 43.0053711,57.0869141 Z" id="Add" fill="#E56841"></path>
            <circle id="Oval-3" stroke="#E56841" stroke-width="2" cx="36" cy="20" r="20"></circle>
        </g>
    </g>
</svg>