<?xml version="1.0" encoding="UTF-8"?>
<svg width="42px" height="62px" viewBox="0 0 42 62" version="1.1" xmlns="http://www.w3.org/2000/svg" xmlns:xlink="http://www.w3.org/1999/xlink">
    <!-- Generator: Sketch 48.1 (47250) - http://www.bohemiancoding.com/sketch -->
    <title>Group 8 Copy 4</title>
    <desc>Created with Sketch.</desc>
    <defs></defs>
    <g id="TC-Feed-(Menu)" stroke="none" stroke-width="1" fill="none" fill-rule="evenodd" transform="translate(-1267.000000, -881.000000)">
        <g id="Group-8-Copy-4" transform="translate(1251.000000, 882.000000)">
            <g id="Logout-Icon-Copy-6" transform="translate(30.000000, 11.000000)">
                <path d="M1,0 L11.2142857,0 C11.7665705,-1.01453063e-16 12.2142857,0.44771525 12.2142857,1 L12.2142857,4.62838309 L12.2142857,13.4020647 L12.2142857,17 C12.2142857,17.5522847 11.7665705,18 11.2142857,18 L1,18 C0.44771525,18 6.76353751e-17,17.5522847 0,17 L0,1 C-6.76353751e-17,0.44771525 0.44771525,1.01453063e-16 1,0 Z" id="Rectangle-4" stroke="#E56841" stroke-width="2"></path>
                <rect id="Rectangle-6" fill="#FFEDA8" x="9.64285714" y="4.5" width="3.85714286" height="8.35714286"></rect>
                <g id="Group-20" transform="translate(4.500000, 5.785714)" stroke="#E56841" stroke-linecap="round" stroke-width="2">
                    <path d="M0.613636364,3.21428571 L12.8863636,3.21428571" id="Line"></path>
                    <path d="M12.8571429,3.21428571 L10.2857143,0.642857143" id="Line-4"></path>
                    <path d="M12.8571429,5.78571429 L10.2857143,3.21428571" id="Line-4-Copy" transform="translate(11.571429, 4.500000) scale(1, -1) translate(-11.571429, -4.500000) "></path>
                </g>
            </g>
            <path d="M18.7495117,58 L18.7495117,50.1474609 L20.0332031,50.1474609 L20.0332031,56.8989258 L23.3579102,56.8989258 L23.3579102,58 L18.7495117,58 Z M29.8461914,55.019043 C29.8461914,55.9894254 29.5973332,56.7467421 29.0996094,57.2910156 C28.6018855,57.8352892 27.9090214,58.1074219 27.0209961,58.1074219 C26.4659803,58.1074219 25.9754253,57.9820976 25.5493164,57.7314453 C25.1232075,57.480793 24.7955741,57.1209333 24.5664062,56.6518555 C24.3372384,56.1827776 24.2226562,55.6385122 24.2226562,55.019043 C24.2226562,54.055822 24.4697241,53.3038764 24.9638672,52.7631836 C25.4580103,52.2224908 26.1544551,51.9521484 27.0532227,51.9521484 C27.912602,51.9521484 28.5929337,52.228757 29.0942383,52.7819824 C29.5955429,53.3352078 29.8461914,54.0808872 29.8461914,55.019043 Z M25.5224609,55.019043 C25.5224609,56.3904691 26.029129,57.0761719 27.0424805,57.0761719 C28.0450896,57.0761719 28.5463867,56.3904691 28.5463867,55.019043 C28.5463867,53.6619398 28.041509,52.9833984 27.0317383,52.9833984 C26.5017877,52.9833984 26.1177584,53.1588524 25.8796387,53.5097656 C25.641519,53.8606788 25.5224609,54.3637663 25.5224609,55.019043 Z M36.3129883,52.0595703 L36.3129883,52.7524414 L35.2978516,52.9404297 C35.390951,53.0657558 35.4679359,53.2197256 35.5288086,53.4023438 C35.5896813,53.5849619 35.6201172,53.7783193 35.6201172,53.9824219 C35.6201172,54.5947296 35.4088563,55.0763329 34.9863281,55.4272461 C34.5638,55.7781593 33.9819373,55.9536133 33.2407227,55.9536133 C33.0509431,55.9536133 32.8790698,55.9392905 32.7250977,55.9106445 C32.4529609,56.0789396 32.3168945,56.2758778 32.3168945,56.5014648 C32.3168945,56.6375332 32.3804518,56.739583 32.5075684,56.8076172 C32.6346849,56.8756514 32.8683251,56.909668 33.2084961,56.909668 L34.2451172,56.909668 C34.9003939,56.909668 35.3981103,57.049315 35.7382812,57.3286133 C36.0784522,57.6079116 36.2485352,58.0107396 36.2485352,58.5371094 C36.2485352,59.2102898 35.9710314,59.7294904 35.4160156,60.0947266 C34.8609998,60.4599628 34.0589245,60.6425781 33.0097656,60.6425781 C32.2005168,60.6425781 31.5828472,60.4993504 31.1567383,60.2128906 C30.7306294,59.9264309 30.5175781,59.5182318 30.5175781,58.9882812 C30.5175781,58.623045 30.6330555,58.3160006 30.8640137,58.0671387 C31.0949719,57.8182768 31.4181294,57.6455083 31.8334961,57.5488281 C31.665201,57.4772132 31.5264491,57.3617358 31.4172363,57.2023926 C31.3080235,57.0430493 31.253418,56.8756519 31.253418,56.7001953 C31.253418,56.478189 31.3160801,56.2902026 31.4414062,56.1362305 C31.5667324,55.9822583 31.7529285,55.8300789 32,55.6796875 C31.6920558,55.5471999 31.4423024,55.3314631 31.2507324,55.0324707 C31.0591625,54.7334783 30.9633789,54.3834655 30.9633789,53.9824219 C30.9633789,53.3378874 31.1665833,52.8383807 31.572998,52.4838867 C31.9794128,52.1293928 32.55859,51.9521484 33.3105469,51.9521484 C33.478842,51.9521484 33.6551911,51.9637857 33.8395996,51.9870605 C34.0240081,52.0103354 34.16276,52.0345051 34.2558594,52.0595703 L36.3129883,52.0595703 Z M31.6455078,58.9238281 C31.6455078,59.1959649 31.7681466,59.4054355 32.0134277,59.5522461 C32.2587089,59.6990567 32.6033506,59.7724609 33.0473633,59.7724609 C33.7348667,59.7724609 34.2469059,59.6739919 34.5834961,59.4770508 C34.9200863,59.2801097 35.0883789,59.0187191 35.0883789,58.6928711 C35.0883789,58.4350573 34.9961761,58.2515468 34.8117676,58.142334 C34.6273591,58.0331212 34.2845077,57.9785156 33.7832031,57.9785156 L32.8271484,57.9785156 C32.465493,57.9785156 32.1781423,58.0635571 31.9650879,58.2336426 C31.7520334,58.4037281 31.6455078,58.6337876 31.6455078,58.9238281 Z M32.1879883,53.9824219 C32.1879883,54.3548196 32.2837718,54.641275 32.4753418,54.8417969 C32.6669118,55.0423187 32.94173,55.1425781 33.2998047,55.1425781 C34.0302771,55.1425781 34.3955078,54.7522825 34.3955078,53.9716797 C34.3955078,53.584959 34.3050953,53.2868663 34.1242676,53.0773926 C33.9434399,52.8679189 33.6686216,52.7631836 33.2998047,52.7631836 C32.9345685,52.7631836 32.6579599,52.8670237 32.4699707,53.074707 C32.2819815,53.2823904 32.1879883,53.584959 32.1879883,53.9824219 Z M42.6831055,55.019043 C42.6831055,55.9894254 42.4342473,56.7467421 41.9365234,57.2910156 C41.4387996,57.8352892 40.7459354,58.1074219 39.8579102,58.1074219 C39.3028944,58.1074219 38.8123394,57.9820976 38.3862305,57.7314453 C37.9601216,57.480793 37.6324881,57.1209333 37.4033203,56.6518555 C37.1741525,56.1827776 37.0595703,55.6385122 37.0595703,55.019043 C37.0595703,54.055822 37.3066382,53.3038764 37.8007812,52.7631836 C38.2949243,52.2224908 38.9913692,51.9521484 39.8901367,51.9521484 C40.749516,51.9521484 41.4298478,52.228757 41.9311523,52.7819824 C42.4324569,53.3352078 42.6831055,54.0808872 42.6831055,55.019043 Z M38.359375,55.019043 C38.359375,56.3904691 38.8660431,57.0761719 39.8793945,57.0761719 C40.8820037,57.0761719 41.3833008,56.3904691 41.3833008,55.019043 C41.3833008,53.6619398 40.878423,52.9833984 39.8686523,52.9833984 C39.3387018,52.9833984 38.9546724,53.1588524 38.7165527,53.5097656 C38.4784331,53.8606788 38.359375,54.3637663 38.359375,55.019043 Z M48.3227539,58 L48.1455078,57.2211914 L48.0810547,57.2211914 C47.9055981,57.4969089 47.6558447,57.7135409 47.3317871,57.8710938 C47.0077295,58.0286466 46.6380229,58.1074219 46.2226562,58.1074219 C45.5029261,58.1074219 44.9658221,57.9283872 44.6113281,57.5703125 C44.2568342,57.2122378 44.0795898,56.6697627 44.0795898,55.9428711 L44.0795898,52.0595703 L45.3525391,52.0595703 L45.3525391,55.7226562 C45.3525391,56.1774111 45.4456371,56.5184722 45.6318359,56.7458496 C45.8180348,56.973227 46.1098613,57.0869141 46.5073242,57.0869141 C47.0372748,57.0869141 47.4266752,56.9284684 47.6755371,56.6115723 C47.924399,56.2946761 48.0488281,55.7638384 48.0488281,55.019043 L48.0488281,52.0595703 L49.3164062,52.0595703 L49.3164062,58 L48.3227539,58 Z M53.3286133,57.0869141 C53.6365575,57.0869141 53.9444972,57.0385747 54.2524414,56.9418945 L54.2524414,57.8925781 C54.1127923,57.9534508 53.9328624,58.0044757 53.7126465,58.0456543 C53.4924305,58.0868329 53.2641613,58.1074219 53.027832,58.1074219 C51.8318625,58.1074219 51.2338867,57.4772198 51.2338867,56.2167969 L51.2338867,53.015625 L50.4228516,53.015625 L50.4228516,52.4570312 L51.2929687,51.9951172 L51.7226562,50.7382812 L52.5014648,50.7382812 L52.5014648,52.0595703 L54.1933594,52.0595703 L54.1933594,53.015625 L52.5014648,53.015625 L52.5014648,56.1953125 C52.5014648,56.499676 52.5775546,56.7243645 52.7297363,56.8693848 C52.8819181,57.014405 53.0815417,57.0869141 53.3286133,57.0869141 Z" id="Logout" fill="#E56841"></path>
            <circle id="Oval-3" stroke="#E56841" stroke-width="2" cx="37" cy="20" r="20"></circle>
        </g>
    </g>
</svg>