<?xml version="1.0" encoding="UTF-8"?>
<svg width="15px" height="15px" viewBox="0 0 15 15" version="1.1" xmlns="http://www.w3.org/2000/svg" xmlns:xlink="http://www.w3.org/1999/xlink">
    <!-- Generator: Sketch 46.2 (44496) - http://www.bohemiancoding.com/sketch -->
    <title>Shape</title>
    <desc>Created with Sketch.</desc>
    <defs></defs>
    <g id="Page-1" stroke="none" stroke-width="1" fill="none" fill-rule="evenodd">
        <g id="Desktop-HD-Copy-5" transform="translate(-978.000000, -517.000000)" fill-rule="nonzero" fill="#A78400">
            <path d="M992.141414,517 C991.92178,517 991.702219,517.083892 991.534345,517.251749 L985.499732,523.285943 L979.466029,517.252677 C979.130261,516.916946 978.587512,516.916946 978.251799,517.252677 C977.916067,517.588391 977.916067,518.130994 978.251799,518.466725 L984.285501,524.500027 L978.251799,530.533384 C977.916067,530.869097 977.916067,531.41181 978.251799,531.747541 C978.419255,531.914998 978.639071,531.99909 978.858905,531.99909 C979.078702,531.99909 979.298573,531.914998 979.466029,531.747541 L985.499732,525.714203 L991.534345,531.748397 C991.701783,531.915853 991.921598,532 992.141414,532 C992.36123,532 992.58019,531.915853 992.748502,531.748397 C993.084252,531.412665 993.084252,530.870026 992.748502,530.534312 L986.713962,524.5001 L992.748502,518.465906 C993.084252,518.130175 993.084252,517.58748 992.748502,517.251749 C992.580627,517.083892 992.360975,517 992.141414,517 Z" id="Shape"></path>
        </g>
    </g>
</svg>