<?xml version="1.0" encoding="UTF-8"?>
<svg width="392px" height="598px" viewBox="0 0 392 598" version="1.1" xmlns="http://www.w3.org/2000/svg" xmlns:xlink="http://www.w3.org/1999/xlink">
    <!-- Generator: Sketch 49 (51002) - http://www.bohemiancoding.com/sketch -->
    <title>PDF</title>
    <desc>Created with Sketch.</desc>
    <defs>
        <rect id="path-1" x="0" y="0" width="262" height="72" rx="6"></rect>
        <polygon id="path-2" points="0 0 307.068101 0 380 0 380 67.1312228 380 492 0 492"></polygon>
        <filter x="-2.1%" y="-1.6%" width="105.3%" height="104.1%" filterUnits="objectBoundingBox" id="filter-3">
            <feOffset dx="2" dy="2" in="SourceAlpha" result="shadowOffsetOuter1"></feOffset>
            <feGaussianBlur stdDeviation="3" in="shadowOffsetOuter1" result="shadowBlurOuter1"></feGaussianBlur>
            <feColorMatrix values="0 0 0 0 0.741176471   0 0 0 0 0.741176471   0 0 0 0 0.741176471  0 0 0 0.5 0" type="matrix" in="shadowBlurOuter1"></feColorMatrix>
        </filter>
    </defs>
    <g id="Page-1" stroke="none" stroke-width="1" fill="none" fill-rule="evenodd">
        <g id="File-Types-and-Previews" transform="translate(-1484.000000, -918.000000)">
            <g id="PDF" transform="translate(1488.000000, 922.000000)">
                <g id="Options" transform="translate(62.000000, 522.000000)">
                    <g id="Rectangle">
                        <use fill="#E56841" fill-rule="evenodd" xlink:href="#path-1"></use>
                        <rect stroke="#E56841" stroke-width="2" x="1" y="1" width="260" height="70" rx="6"></rect>
                    </g>
                    <path d="M65.225411,35.7772843 C65.225411,38.6867743 64.4238189,40.9110541 62.8206107,42.4501904 C61.2174024,43.9893266 58.9083386,44.7588832 55.89335,44.7588832 L51,44.7588832 L51,27.1332487 L56.4078097,27.1332487 C59.1914897,27.1332487 61.3569848,27.8887403 62.90436,29.3997462 C64.4517351,30.9107521 65.225411,33.0365768 65.225411,35.7772843 Z M62.2104375,35.873731 C62.2104375,31.6541667 60.2523194,29.5444162 56.3360247,29.5444162 L53.8594392,29.5444162 L53.8594392,42.3356599 L55.89335,42.3356599 C60.1047627,42.3356599 62.2104375,40.1817051 62.2104375,35.873731 Z M80.4199207,38.0678934 C80.4199207,40.2459923 79.8655859,41.9458484 78.7568996,43.1675127 C77.6482133,44.389177 76.1048494,45 74.1267616,45 C72.8904567,45 71.7977391,44.7186999 70.848576,44.1560914 C69.8994129,43.5934828 69.1696052,42.7857498 68.6591309,41.732868 C68.1486567,40.6799863 67.8934234,39.4583403 67.8934234,38.0678934 C67.8934234,35.9058691 68.4437702,34.2180687 69.5444803,33.0044416 C70.6451905,31.7908146 72.1965304,31.1840102 74.1985467,31.1840102 C76.1128252,31.1840102 77.6282729,31.8048796 78.7449354,33.0466371 C79.8615979,34.2883945 80.4199207,35.9621299 80.4199207,38.0678934 Z M70.7887551,38.0678934 C70.7887551,41.146166 71.9173649,42.6852792 74.1746183,42.6852792 C76.4079432,42.6852792 77.524589,41.146166 77.524589,38.0678934 C77.524589,35.0217699 76.3999672,33.498731 74.15069,33.498731 C72.9702182,33.498731 72.1147878,33.8925511 71.5843732,34.680203 C71.0539585,35.467855 70.7887551,36.5970739 70.7887551,38.0678934 Z M94.0112302,44.7588832 L92.3003523,38.5380711 C92.0929721,37.8790153 91.7180982,36.3479393 91.1757193,33.944797 L91.0680417,33.944797 C90.6054244,36.1148586 90.2385265,37.6539718 89.9673371,38.5621827 L88.2086025,44.7588832 L85.0979154,44.7588832 L81.3890194,31.4251269 L84.2604228,31.4251269 L85.9473723,37.9955584 C86.330228,39.619086 86.6014134,41.009512 86.7609366,42.1668782 L86.8327217,42.1668782 C86.9124833,41.5801578 87.0341179,40.9070469 87.1976292,40.1475254 C87.3611405,39.3880038 87.5027152,38.8193758 87.6223576,38.4416244 L89.63234,31.4251269 L92.7190986,31.4251269 L94.6692601,38.4416244 C94.7889025,38.8354504 94.9384533,39.4382362 95.1179169,40.25 C95.2973805,41.0617638 95.4030631,41.6926796 95.4349677,42.1427665 L95.5306812,42.1427665 C95.6503236,41.1541829 95.929485,39.771794 96.3681738,37.9955584 L98.0790517,31.4251269 L100.902598,31.4251269 L97.1697739,44.7588832 L94.0112302,44.7588832 Z M114.816941,44.7588832 L111.993394,44.7588832 L111.993394,36.5609137 C111.993394,35.5321438 111.788011,34.7645964 111.377239,34.2582487 C110.966466,33.751901 110.314425,33.498731 109.421095,33.498731 C108.232647,33.498731 107.363259,33.8523653 106.812904,34.5596447 C106.262549,35.266924 105.987375,36.4524028 105.987375,38.1161168 L105.987375,44.7588832 L103.175793,44.7588832 L103.175793,31.4251269 L105.377202,31.4251269 L105.77202,33.1732234 L105.91559,33.1732234 C106.314398,32.5382794 106.880697,32.0480136 107.614504,31.7024112 C108.348311,31.3568088 109.161867,31.1840102 110.055197,31.1840102 C113.229709,31.1840102 114.816941,32.8115319 114.816941,36.0666244 L114.816941,44.7588832 Z M121.54081,44.7588832 L118.729228,44.7588832 L118.729228,26 L121.54081,26 L121.54081,44.7588832 Z M137.297637,38.0678934 C137.297637,40.2459923 136.743302,41.9458484 135.634615,43.1675127 C134.525929,44.389177 132.982565,45 131.004477,45 C129.768173,45 128.675455,44.7186999 127.726292,44.1560914 C126.777129,43.5934828 126.047321,42.7857498 125.536847,41.732868 C125.026372,40.6799863 124.771139,39.4583403 124.771139,38.0678934 C124.771139,35.9058691 125.321486,34.2180687 126.422196,33.0044416 C127.522906,31.7908146 129.074246,31.1840102 131.076262,31.1840102 C132.990541,31.1840102 134.505989,31.8048796 135.622651,33.0466371 C136.739314,34.2883945 137.297637,35.9621299 137.297637,38.0678934 Z M127.666471,38.0678934 C127.666471,41.146166 128.795081,42.6852792 131.052334,42.6852792 C133.285659,42.6852792 134.402305,41.146166 134.402305,38.0678934 C134.402305,35.0217699 133.277683,33.498731 131.028406,33.498731 C129.847934,33.498731 128.992504,33.8925511 128.462089,34.680203 C127.931674,35.467855 127.666471,36.5970739 127.666471,38.0678934 Z M148.807179,44.7588832 L148.244862,42.9022843 L148.149149,42.9022843 C147.511056,43.7140481 146.868984,44.2666017 146.222915,44.5599619 C145.576846,44.8533221 144.747338,45 143.734366,45 C142.434252,45 141.4193,44.6463656 140.689482,43.9390863 C139.959663,43.231807 139.594759,42.2311824 139.594759,40.9371827 C139.594759,39.5628104 140.101238,38.5260187 141.11421,37.8267766 C142.127183,37.1275346 143.670546,36.7457702 145.744348,36.6814721 L148.029507,36.6091371 L148.029507,35.8978426 C148.029507,35.0458925 147.8321,34.4089488 147.43728,33.9869924 C147.04246,33.565036 146.430299,33.3540609 145.600778,33.3540609 C144.922804,33.3540609 144.272757,33.4545252 143.650617,33.6554569 C143.028476,33.8563885 142.430273,34.0934843 141.855989,34.3667513 L140.946712,32.3413706 C141.664566,31.9636191 142.450206,31.6762912 143.303655,31.4793782 C144.157104,31.2824652 144.962685,31.1840102 145.72042,31.1840102 C147.40339,31.1840102 148.673574,31.5537188 149.531011,32.2931472 C150.388449,33.0325756 150.817161,34.193943 150.817161,35.7772843 L150.817161,44.7588832 L148.807179,44.7588832 Z M144.619715,42.8299492 C145.640664,42.8299492 146.460202,42.5426213 147.078354,41.9679569 C147.696507,41.3932924 148.005578,40.5875686 148.005578,39.5507614 L148.005578,38.393401 L146.306665,38.465736 C144.982622,38.5139596 144.019515,38.7369904 143.417315,39.134835 C142.815115,39.5326797 142.514019,40.1414934 142.514019,40.9612944 C142.514019,41.556052 142.689492,42.0161786 143.040443,42.3416878 C143.391394,42.6671971 143.917813,42.8299492 144.619715,42.8299492 Z M159.204052,45 C157.552986,45 156.264856,44.3972141 155.339621,43.1916244 C154.414387,41.9860346 153.951776,40.2942156 153.951776,38.1161168 C153.951776,35.9299806 154.420369,34.2281152 155.357568,33.0104695 C156.294766,31.7928239 157.592867,31.1840102 159.251908,31.1840102 C160.990711,31.1840102 162.314734,31.8310003 163.224016,33.125 L163.367587,33.125 C163.231992,32.1685654 163.164196,31.4130738 163.164196,30.8585025 L163.164196,26 L165.987742,26 L165.987742,44.7588832 L163.786333,44.7588832 L163.295802,43.0107868 L163.164196,43.0107868 C162.262889,44.3369356 160.942855,45 159.204052,45 Z M159.957795,42.7093909 C161.114338,42.7093909 161.955811,42.3818772 162.482237,41.7268401 C163.008664,41.071803 163.279849,40.0088906 163.295802,38.5380711 L163.295802,38.1402284 C163.295802,36.46044 163.024616,35.266924 162.482237,34.5596447 C161.939858,33.8523653 161.09041,33.498731 159.933867,33.498731 C158.944823,33.498731 158.183111,33.9025975 157.648708,34.7103426 C157.114305,35.5180878 156.847108,36.6694088 156.847108,38.1643401 C156.847108,39.6431969 157.106329,40.7704064 157.62478,41.5460025 C158.14323,42.3215986 158.920894,42.7093909 159.957795,42.7093909 Z M179.507267,44.7588832 L176.671756,44.7588832 L176.671756,27.1332487 L186.542205,27.1332487 L186.542205,29.5685279 L179.507267,29.5685279 L179.507267,35.0780457 L186.09953,35.0780457 L186.09953,37.5253807 L179.507267,37.5253807 L179.507267,44.7588832 Z M192.225191,44.7588832 L189.413608,44.7588832 L189.413608,31.4251269 L192.225191,31.4251269 L192.225191,44.7588832 Z M189.24611,27.8927665 C189.24611,27.3864188 189.383697,26.9966173 189.658874,26.7233503 C189.934052,26.4500832 190.326872,26.3134518 190.837346,26.3134518 C191.331868,26.3134518 191.716712,26.4500832 191.991889,26.7233503 C192.267067,26.9966173 192.404654,27.3864188 192.404654,27.8927665 C192.404654,28.3750024 192.267067,28.7547575 191.991889,29.0320431 C191.716712,29.3093288 191.331868,29.4479695 190.837346,29.4479695 C190.326872,29.4479695 189.934052,29.3093288 189.658874,29.0320431 C189.383697,28.7547575 189.24611,28.3750024 189.24611,27.8927665 Z M199.056738,44.7588832 L196.245156,44.7588832 L196.245156,26 L199.056738,26 L199.056738,44.7588832 Z M208.855402,45 C206.797553,45 205.188387,44.3952049 204.027855,43.1855964 C202.867324,41.975988 202.287067,40.3102898 202.287067,38.1884518 C202.287067,36.0103529 202.82545,34.2984411 203.902231,33.052665 C204.979013,31.8068889 206.458569,31.1840102 208.340942,31.1840102 C210.087722,31.1840102 211.467577,31.7184803 212.480549,32.7874365 C213.493521,33.8563928 214,35.3271903 214,37.1998731 L214,38.7309645 L205.182399,38.7309645 C205.22228,40.0249642 205.569237,41.0195608 206.223282,41.7147843 C206.877328,42.4100077 207.79856,42.7576142 208.987008,42.7576142 C209.768672,42.7576142 210.496486,42.6832706 211.170471,42.5345812 C211.844457,42.3858918 212.568282,42.1387496 213.34197,41.7931472 L213.34197,44.0958122 C212.65602,44.4253401 211.962105,44.6584173 211.260203,44.7950508 C210.5583,44.9316843 209.756708,45 208.855402,45 Z M208.340942,33.3299492 C207.447612,33.3299492 206.731763,33.6152679 206.193372,34.1859137 C205.654981,34.7565595 205.333946,35.588404 205.230255,36.6814721 L211.236274,36.6814721 C211.220322,35.5803667 210.957113,34.746513 210.446638,34.1798858 C209.936164,33.6132586 209.234272,33.3299492 208.340942,33.3299492 Z" id="Download-File" fill="#FFFFFF"></path>
                </g>
                <g id="Group-16">
                    <g id="Group-15">
                        <g id="Rectangle-12">
                            <use fill="black" fill-opacity="1" filter="url(#filter-3)" xlink:href="#path-2"></use>
                            <use fill="#FFFFFF" fill-rule="evenodd" xlink:href="#path-2"></use>
                        </g>
                        <g id="Group" transform="translate(147.000000, 222.000000)">
                            <path d="M2,1 L69.4576038,1 C69.9608046,1 70.4455138,1.18968374 70.8150594,1.53122007 L86.2805325,15.8245064 C86.6901546,16.2030817 86.9230769,16.7355143 86.9230769,17.2932863 L86.9230769,112 C86.9230769,113.104569 86.0276464,114 84.9230769,114 L2,114 C0.8954305,114 1.3527075e-16,113.104569 0,112 L0,3 C-1.3527075e-16,1.8954305 0.8954305,1 2,1 Z" id="Rectangle-12" fill="#D11717"></path>
                            <path d="M13.5,56.5 L73.5083328,56.5" id="Line" stroke="#FF9494" stroke-width="3" stroke-linecap="round"></path>
                            <path d="M13.5,43.5 L73.5083328,43.5" id="Line-Copy-13" stroke="#FF9494" stroke-width="3" stroke-linecap="round"></path>
                            <path d="M13.5,69.5 L73.5083328,69.5" id="Line-Copy-2" stroke="#FF9494" stroke-width="3" stroke-linecap="round"></path>
                            <path d="M13.5,82.5 L73.5083328,82.5" id="Line-Copy-4" stroke="#FF9494" stroke-width="3" stroke-linecap="round"></path>
                            <path d="M13.5,95.5 L73.5083328,95.5" id="Line-Copy-3" stroke="#FF9494" stroke-width="3" stroke-linecap="round"></path>
                            <path d="M75.4871661,6.80772315 C75.8885126,6.84436508 76.3548361,7.09296229 76.8861366,7.55351476 L86.4136008,17.7704692 C85.9773455,18.2183041 85.6200324,18.4621686 85.3416614,18.5020629 C84.733985,19.0470087 64.1746866,18.7435082 63.5117225,18.7097505 C63.1144322,18.6895208 62.7421696,18.5430202 62.3949348,18.2702488 L74.0334239,7.41718209 C74.6012389,6.97423419 75.0858196,6.77108121 75.4871661,6.80772315 Z" id="Triangle" fill="#FF9494" transform="translate(74.404268, 12.813930) rotate(-137.000000) translate(-74.404268, -12.813930) "></path>
                        </g>
                        <path d="M179.025172,372.054688 C179.025172,374.141938 178.341585,375.741531 176.974391,376.853516 C175.607196,377.9655 173.661252,378.521484 171.1365,378.521484 L169.058375,378.521484 L169.058375,386 L165.790797,386 L165.790797,366.011719 L171.546656,366.011719 C174.044065,366.011719 175.914814,366.52213 177.158961,367.542969 C178.403108,368.563807 179.025172,370.067698 179.025172,372.054688 Z M169.058375,375.773438 L170.794703,375.773438 C172.471795,375.773438 173.702251,375.481774 174.48611,374.898438 C175.269968,374.315101 175.661891,373.403652 175.661891,372.164062 C175.661891,371.015619 175.310983,370.158857 174.609156,369.59375 C173.90733,369.028643 172.813591,368.746094 171.327906,368.746094 L169.058375,368.746094 L169.058375,375.773438 Z M199.612557,375.814453 C199.612557,379.113949 198.696551,381.636385 196.86451,383.381836 C195.03247,385.127287 192.393825,386 188.948495,386 L183.356698,386 L183.356698,366.011719 L189.536385,366.011719 C192.717391,366.011719 195.191976,366.868481 196.960214,368.582031 C198.728452,370.295581 199.612557,372.706365 199.612557,375.814453 Z M196.167245,375.923828 C196.167245,371.138648 193.929637,368.746094 189.454354,368.746094 L186.624276,368.746094 L186.624276,383.251953 L188.948495,383.251953 C193.761019,383.251953 196.167245,380.809269 196.167245,375.923828 Z M207.485099,386 L204.244865,386 L204.244865,366.011719 L215.524161,366.011719 L215.524161,368.773438 L207.485099,368.773438 L207.485099,375.021484 L215.018302,375.021484 L215.018302,377.796875 L207.485099,377.796875 L207.485099,386 Z" id="PDF" fill="#D24122"></path>
                    </g>
                </g>
            </g>
        </g>
    </g>
</svg>