<?xml version="1.0" encoding="UTF-8"?>
<svg width="57px" height="57px" viewBox="0 0 57 57" version="1.1" xmlns="http://www.w3.org/2000/svg" xmlns:xlink="http://www.w3.org/1999/xlink">
    <!-- Generator: Sketch 48.2 (47327) - http://www.bohemiancoding.com/sketch -->
    <title>Helpful (Active)</title>
    <desc>Created with Sketch.</desc>
    <defs></defs>
    <g id="As-of-2/6/18" stroke="none" stroke-width="1" fill="none" fill-rule="evenodd" transform="translate(-16.000000, -160.000000)">
        <g id="Helpful-(Active)" transform="translate(25.000000, 166.000000)" fill="#E56841">
            <path d="M5.676,33.912 L7.2,33.912 L7.2,42 L5.676,42 L5.676,38.604 L2.352,38.604 L2.352,42 L0.84,42 L0.84,33.912 L2.352,33.912 L2.352,37.296 L5.676,37.296 L5.676,33.912 Z M12.48,38.46 L12.48,38.28 C12.4639999,37.887998 12.358001,37.5740012 12.162,37.338 C11.965999,37.1019988 11.6800019,36.984 11.304,36.984 C10.9599983,36.984 10.6620013,37.1099987 10.41,37.362 C10.1579987,37.6140013 9.99600036,37.9799976 9.924,38.46 L12.48,38.46 Z M13.464,40.416 L13.464,41.664 C13.0399979,41.9280013 12.428004,42.06 11.628,42.06 C10.6599952,42.06 9.8960028,41.7720029 9.336,41.196 C8.7759972,40.6199971 8.496,39.8760046 8.496,38.964 C8.496,37.9959952 8.75999736,37.2360028 9.288,36.684 C9.81600264,36.1319972 10.475996,35.856 11.268,35.856 C12.060004,35.856 12.6879977,36.0959976 13.152,36.576 C13.6160023,37.0560024 13.848,37.7559954 13.848,38.676 C13.848,38.9000011 13.8200003,39.1879982 13.764,39.54 L9.948,39.54 C10.0520005,39.9800022 10.2699983,40.3159988 10.602,40.548 C10.9340017,40.7800012 11.3479975,40.896 11.844,40.896 C12.4840032,40.896 13.0239978,40.7360016 13.464,40.416 Z M15.228,42 L15.228,33.516 L16.668,33.516 L16.668,42 L15.228,42 Z M21.24,40.848 C21.6720022,40.848 22.0239986,40.6820017 22.296,40.35 C22.5680014,40.0179983 22.704,39.552003 22.704,38.952 C22.704,38.351997 22.5680014,37.8860017 22.296,37.554 C22.0239986,37.2219983 21.6800021,37.056 21.264,37.056 C20.8479979,37.056 20.4880015,37.2119984 20.184,37.524 C19.8799985,37.8360016 19.728,38.2999969 19.728,38.916 C19.728,39.5320031 19.8759985,40.0079983 20.172,40.344 C20.4680015,40.6800017 20.8239979,40.848 21.24,40.848 Z M19.728,35.916 L19.728,36.852 C20.1600022,36.1719966 20.779996,35.832 21.588,35.832 C22.380004,35.832 23.0099977,36.1159972 23.478,36.684 C23.9460023,37.2520028 24.18,37.9999954 24.18,38.928 C24.18,39.8400046 23.9460023,40.593997 23.478,41.19 C23.0099977,41.786003 22.376004,42.084 21.576,42.084 C20.7599959,42.084 20.1440021,41.7520033 19.728,41.088 L19.728,44.292 L18.288,44.292 L18.288,35.916 L19.728,35.916 Z M28.8,33.492 L28.8,34.704 C28.591999,34.6239996 28.392001,34.584 28.2,34.584 C27.6159971,34.584 27.324,34.9119967 27.324,35.568 L27.324,35.916 L28.536,35.916 L28.536,36.996 L27.324,36.996 L27.324,42 L25.884,42 L25.884,36.996 L24.996,36.996 L24.996,35.916 L25.884,35.916 L25.884,35.556 C25.884,34.8759966 26.0719981,34.3440019 26.448,33.96 C26.8240019,33.5759981 27.3439967,33.384 28.008,33.384 C28.3120015,33.384 28.5759989,33.4199996 28.8,33.492 Z M33.264,35.916 L34.716,35.916 L34.716,42 L33.264,42 L33.264,41.004 C32.9439984,41.7080035 32.3200046,42.06 31.392,42.06 C30.7759969,42.06 30.2960017,41.8840018 29.952,41.532 C29.6079983,41.1799982 29.436,40.6800032 29.436,40.032 L29.436,35.916 L30.876,35.916 L30.876,39.696 C30.876,40.0800019 30.9699991,40.371999 31.158,40.572 C31.3460009,40.772001 31.6039984,40.872 31.932,40.872 C32.3480021,40.872 32.6739988,40.7320014 32.91,40.452 C33.1460012,40.1719986 33.264,39.7480028 33.264,39.18 L33.264,35.916 Z M36.336,42 L36.336,33.516 L37.776,33.516 L37.776,42 L36.336,42 Z" id="Helpful"></path>
            <g id="Like-Button-Copy-3" transform="translate(6.000000, 0.000000)">
                <path d="M25.7058709,14.0237328 C25.9813321,13.7482716 26.2211823,13.2790449 26.1764941,12.1335593 C26.1300602,10.9880736 24.6570934,9.94592959 23.6453234,9.94592959 C22.4886657,9.94592959 21.026871,9.94313658 20.1770959,9.94313658 C19.5266724,9.94313658 18.9659744,9.90927126 18.9659744,9.18762578 C18.9659744,8.60423459 19.6275701,8.01490823 20.1512605,7.18573164 C20.7688662,6.20643044 21.3023322,5.24388734 21.3023322,3.52688082 C21.3023322,2.28154486 20.5806867,0.0900747625 19.0165978,0.0900747625 C17.579242,0.0900747625 17.5394416,2.32099621 17.0063246,3.61276606 C16.2330084,5.48513409 14.0331592,6.63620576 13.2776484,7.78727744 C12.7839829,8.53859871 10.6864279,12.3409407 10.150518,12.3409407 L8.85770078,12.3409407 L8.85770078,12.6286214 C8.8618903,12.6666762 8.86712721,12.7036837 8.86712721,12.7417385 L8.86712721,23.3258722 C8.86712721,23.3723061 8.86328681,23.4173435 8.85770078,23.4623809 L8.85770078,23.5482661 C9.10313705,23.5590891 9.30248856,23.5877175 9.37196483,23.6575429 C9.55455824,23.8401363 9.97874753,24.3215824 10.8952059,24.3215824 L22.6129549,24.3215824 C24.6054226,24.3215824 25.0292628,22.3741521 24.7087642,21.6650752 C24.5698117,21.3581925 24.4905599,21.1371952 24.7785896,20.9884671 C25.4412326,20.6435296 25.7400853,19.270064 25.3853723,18.6060245 C25.1779909,18.2174462 25.145173,17.9870224 25.4318062,17.736 C26.0836263,17.1616862 26.4163443,15.7993927 25.695048,14.9073732 C25.4468187,14.5990941 25.4318062,14.2977975 25.7058709,14.0237328 Z" id="Fill-1"></path>
                <path d="M0.0108229366,11.1284227 L0.0108229366,25.48627 L8.17166625,25.48627 L8.17166625,11.1284227 L0.0108229366,11.1284227 Z M4.09141916,23.6097125 C3.29610788,23.6097125 2.65127034,22.9645258 2.65127034,22.1695637 C2.65127034,21.3746015 3.29610788,20.7294148 4.09141916,20.7294148 C4.8863813,20.7294148 5.53156798,21.3746015 5.53156798,22.1695637 C5.53156798,22.9645258 4.8863813,23.6097125 4.09141916,23.6097125 Z" id="Fill-2"></path>
            </g>
        </g>
    </g>
</svg>