<?xml version="1.0" encoding="UTF-8"?>
<svg width="40px" height="25px" viewBox="0 0 40 25" version="1.1" xmlns="http://www.w3.org/2000/svg" xmlns:xlink="http://www.w3.org/1999/xlink">
    <!-- Generator: Sketch 49 (51002) - http://www.bohemiancoding.com/sketch -->
    <title>Icons</title>
    <desc>Created with Sketch.</desc>
    <defs></defs>
    <g id="Page-1" stroke="none" stroke-width="1" fill="none" fill-rule="evenodd">
        <g id="Icons" transform="translate(-248.000000, -211.000000)" fill="#E56841">
            <g id="Members-Icon" transform="translate(248.000000, 211.000000)">
                <g id="Group-4-Copy" transform="translate(0.000000, 1.000000)">
                    <g id="Group-5-Copy-2" transform="translate(25.000000, 0.000000)">
                        <path d="M0,12.8871381 C0.957374008,11.3522261 2.91370935,10 6.83550758,10 C15.904299,10 14.9729587,17.2440727 14.9729587,17.2440727 C14.9729587,17.2440727 11.3675971,18 6.83550758,18 C6.60760922,18 6.32456916,18 6.16291961,17.9943595 C5.66617487,16.3023493 4.59413128,15.4213798 3.87094703,14.8442123 C3.14776277,14.2670447 1.61777941,13.4263239 0,12.8871381 Z" id="Path-4"></path>
                        <ellipse id="Oval-2" cx="6" cy="4.5" rx="4" ry="4.5"></ellipse>
                    </g>
                    <g id="Group-5-Copy-3" transform="translate(7.500000, 9.000000) scale(-1, 1) translate(-7.500000, -9.000000) ">
                        <path d="M0,12.8871381 C0.957374008,11.3522261 2.91370935,10 6.83550758,10 C15.904299,10 14.9729587,17.2440727 14.9729587,17.2440727 C14.9729587,17.2440727 11.3675971,18 6.83550758,18 C6.60760922,18 6.30154148,18 6.16291961,17.9943595 C5.66617487,16.3023493 4.59413128,15.4213798 3.87094703,14.8442123 C3.14776277,14.2670447 1.61777941,13.4263239 0,12.8871381 Z" id="Path-4"></path>
                        <ellipse id="Oval-2" cx="7" cy="4.5" rx="4" ry="4.5"></ellipse>
                    </g>
                    <path d="M9.21552839,22.9902349 C9.21552839,22.9902349 7.22906179,13.5 19.7308853,13.5 C32.2327089,13.5 30.9488054,23.0078455 30.9488054,23.0078455 C30.9488054,23.0078455 25.9786179,24 19.7308853,24 C13.4831528,24 9.21552839,22.9902349 9.21552839,22.9902349 Z" id="Path-4"></path>
                    <ellipse id="Oval-2" cx="20.0044302" cy="7.35173697" rx="5.00443018" ry="5.64826303"></ellipse>
                </g>
            </g>
        </g>
    </g>
</svg>