<svg width="67" height="61" viewBox="0 0 67 61" fill="none" xmlns="http://www.w3.org/2000/svg">
<path d="M10.0461 60.8377H56.9234C64.6384 60.8377 69.4877 52.3881 65.667 45.7753L42.1549 5.06981C38.3341 -1.68994 28.6354 -1.68994 24.8146 5.06981L1.30247 45.7753C-2.44479 52.4615 2.33112 60.8377 10.0461 60.8377ZM33.5582 51.8002C31.5009 51.8002 29.811 50.1103 29.811 48.053C29.811 45.9957 31.5009 44.3057 33.5582 44.3057C35.6155 44.3057 37.3055 45.9957 37.232 48.1265C37.3055 50.1103 35.5421 51.8002 33.5582 51.8002ZM32.603 18.0015C34.3665 17.5606 36.2033 18.4424 36.9381 20.1323C37.1585 20.7201 37.3055 21.3079 37.3055 21.9692C37.232 23.8061 37.085 25.7164 36.9381 27.5533C36.7911 30.4189 36.5707 33.3579 36.4238 36.2234C36.3503 37.1786 36.3503 37.9868 36.3503 38.942C36.2768 40.485 35.1012 41.6606 33.5582 41.6606C32.0152 41.6606 30.8396 40.5585 30.7662 39.0155C30.5457 34.5335 30.2518 30.0515 30.0314 25.5695C29.9579 24.3939 29.8844 23.2183 29.811 21.9692C29.7375 20.1323 30.8396 18.5158 32.603 18.0015Z" fill="#85CE3B"/>
</svg>
