<?xml version="1.0" encoding="UTF-8"?>
<svg width="14px" height="26px" viewBox="0 0 14 26" version="1.1" xmlns="http://www.w3.org/2000/svg" xmlns:xlink="http://www.w3.org/1999/xlink">
    <!-- Generator: Sketch 50.2 (55047) - http://www.bohemiancoding.com/sketch -->
    <title>Me Too Button Copy 3</title>
    <desc>Created with Sketch.</desc>
    <defs></defs>
    <g id="Page-1" stroke="none" stroke-width="1" fill="none" fill-rule="evenodd">
        <path d="M4.15017448,10.2837797 C2.93607806,7.60667361 0.405694863,6.86134029 0.0119338622,8.27137968 C-0.12916383,8.7767063 1.02071205,8.96749288 1.36150282,9.32047149 C1.57197745,9.54032138 1.62166634,9.72360775 1.89964285,10.1173688 C2.24934012,10.6114451 2.23668352,11.199274 2.37778121,11.5067826 C2.66700804,12.1368002 2.6815397,12.720879 3.0626441,13.2501125 C3.69969314,14.1327934 5.18473464,15.1396966 5.46130486,16.4400454 C5.65349773,17.3447582 5.44114805,18.4121318 5.40270948,19.3074693 C5.30192541,21.6001896 5.14254596,23.8469711 4.68503317,26 L11.9747681,26 C11.6358524,23.9730684 11.5149115,21.5158122 11.256623,19.1884034 C11.1155253,17.9049301 10.9088008,16.8263062 11.3170935,15.7223691 C11.8538272,14.2663909 12.3061836,14.0081025 12.4983765,12.1297687 C12.5658784,11.4650627 12.7346331,10.4323776 12.7510398,9.68891928 C12.776353,8.46357255 13.1077685,6.37804553 13.367932,5.28488999 C13.7509115,3.67187617 13.0365165,3.07842209 12.58041,3.72859651 C11.8683589,4.7448749 11.5828821,8.24934781 11.0606801,8.8503021 C10.8778624,8.30981825 11.478348,3.75578477 11.480223,2.13011435 C11.480223,1.70869633 11.1394323,1.44712652 10.720358,1.44150136 C9.67454758,1.42837599 9.81377022,7.26822665 9.16547085,8.17059561 C8.94046457,6.53367488 9.57376351,2.31668206 9.34688217,0.606634285 C9.14906414,0.0553688833 8.61279916,-0.28729694 8.30294675,0.326313953 C7.60355221,1.71619654 7.50276815,6.57586356 7.17135264,8.1377822 C6.620556,6.67852268 7.79433879,1.57134874 6.76681009,1.07352233 C5.79459542,0.60288418 5.58412079,2.00729842 5.36614595,5.53942835 C4.97426,11.8658551 5.0619187,10.4834727 4.15017448,10.2837797 Z" id="Me-Too-Button-Copy-3" fill="#758282"></path>
    </g>
</svg>