<?xml version="1.0" encoding="UTF-8"?>
<svg width="30px" height="30px" viewBox="0 0 30 30" version="1.1" xmlns="http://www.w3.org/2000/svg" xmlns:xlink="http://www.w3.org/1999/xlink">
    <!-- Generator: Sketch 48.2 (47327) - http://www.bohemiancoding.com/sketch -->
    <title>Group 7 Copy</title>
    <desc>Created with Sketch.</desc>
    <defs></defs>
    <g id="Profile-Buttons" stroke="none" stroke-width="1" fill="none" fill-rule="evenodd" transform="translate(-67.000000, -180.000000)">
        <g id="Follow-Button" transform="translate(52.000000, 170.000000)">
            <g id="Group-7-Copy" transform="translate(15.000000, 11.000000)">
                <g id="Group-5-Copy-2" transform="translate(11.930769, 0.000000)" stroke="#FFFFFF" stroke-width="1.5">
                    <path d="M0.091187807,18.0048561 C0.091187807,18.0048561 -1.43831253,10.6038362 8.1875948,10.6038362 C17.8135021,10.6038362 16.8249475,18.0185898 16.8249475,18.0185898 C16.8249475,18.0185898 12.9981006,18.7923278 8.1875948,18.7923278 C3.37708903,18.7923278 0.091187807,18.0048561 0.091187807,18.0048561 Z" id="Path-4"></path>
                    <ellipse id="Oval-2" cx="8.45628959" cy="4.59833907" rx="4.01665158" ry="4.59220527"></ellipse>
                </g>
                <ellipse id="Oval" fill="#E56841" cx="12.1538462" cy="11.7115385" rx="5.57692308" ry="7.25"></ellipse>
                <ellipse id="Oval-Copy-3" fill="#E56841" cx="11.0576923" cy="21.3653846" rx="10.9423077" ry="4.63461538"></ellipse>
                <g id="Group-5-Copy" transform="translate(1.223077, 6.296526)" fill="#FFFFFF" stroke="#FFFFFF" stroke-width="1.5">
                    <path d="M0.105585882,20.5769784 C0.105585882,20.5769784 -1.66541451,12.11867 9.48037292,12.11867 C20.6261604,12.11867 19.4815181,20.5926741 19.4815181,20.5926741 C19.4815181,20.5926741 15.0504322,21.4769461 9.48037292,21.4769461 C3.91031361,21.4769461 0.105585882,20.5769784 0.105585882,20.5769784 Z" id="Path-4"></path>
                    <ellipse id="Oval-2" cx="9.79149321" cy="5.25524466" rx="4.65085973" ry="5.2482346"></ellipse>
                </g>
            </g>
        </g>
    </g>
</svg>