<?xml version="1.0" encoding="UTF-8"?>
<svg width="40px" height="39px" viewBox="0 0 40 39" version="1.1" xmlns="http://www.w3.org/2000/svg" xmlns:xlink="http://www.w3.org/1999/xlink">
    <!-- Generator: Sketch 48.2 (47327) - http://www.bohemiancoding.com/sketch -->
    <title>Followers Icon</title>
    <desc>Created with Sketch.</desc>
    <defs>
        <path d="M0.128735728,26.4810962 C0.128735728,26.4810962 -2.03055887,15.1848026 11.5589574,15.1848026 C25.1484736,15.1848026 23.752867,26.5020582 23.752867,26.5020582 C23.752867,26.5020582 18.3502596,27.6830267 11.5589574,27.6830267 C4.7676551,27.6830267 0.128735728,26.4810962 0.128735728,26.4810962 Z" id="path-1"></path>
        <ellipse id="path-2" cx="11.9382912" cy="7.01851753" rx="5.67056694" ry="7.00915541"></ellipse>
    </defs>
    <g id="Icons" stroke="none" stroke-width="1" fill="none" fill-rule="evenodd" transform="translate(-32.000000, -117.000000)">
        <g id="Followers-Icon" transform="translate(32.000000, 117.000000)">
            <g id="Group-5-Copy-2" transform="translate(16.000000, 0.000000)">
                <g id="Path-4">
                    <use fill="#E56841" fill-rule="evenodd" xlink:href="#path-1"></use>
                    <path stroke="#E56841" stroke-width="1.5" d="M0.803336294,25.8686533 C0.895848361,25.8889206 0.999016997,25.910996 1.11260763,25.9346544 C1.77524072,26.0726662 2.54365486,26.2110031 3.40806964,26.3403151 C5.88362727,26.7106459 8.62670588,26.9330267 11.5589574,26.9330267 C14.4942918,26.9330267 17.3846226,26.7140732 20.1028747,26.3492089 C21.0536015,26.2215952 21.9143097,26.0849729 22.6692101,25.9485409 C22.8062819,25.9237682 22.9306409,25.9007169 23.0418425,25.8796471 C23.0892627,24.4447008 22.837536,22.7645911 22.0750673,21.1663672 C20.5156207,17.8975839 17.2223663,15.9348026 11.5589574,15.9348026 C5.90779009,15.9348026 2.7704682,17.8793924 1.44163098,21.1176738 C0.795056119,22.6933306 0.652260014,24.3773929 0.803336294,25.8686533 Z"></path>
                </g>
                <g id="Oval-2">
                    <use fill="#E56841" fill-rule="evenodd" xlink:href="#path-2"></use>
                    <ellipse stroke="#E56841" stroke-width="1.5" cx="11.9382912" cy="7.01851753" rx="4.92056694" ry="6.25915541"></ellipse>
                </g>
            </g>
            <ellipse id="Oval" fill="#FFE37A" cx="17" cy="17.5" rx="8" ry="10.5"></ellipse>
            <ellipse id="Oval-Copy-3" fill="#FFE37A" cx="14.5" cy="31" rx="14.5" ry="7"></ellipse>
            <g id="Group-5-Copy" transform="translate(2.000000, 9.000000)" stroke="#E56841" stroke-width="1.5">
                <path d="M0.814727644,27.9802313 C0.936286341,28.0058485 1.0756973,28.0344035 1.23248668,28.0654635 C1.98525712,28.2145872 2.85788202,28.3640081 3.839299,28.5036486 C6.64894784,28.9034182 9.76184687,29.143448 13.0893785,29.143448 C16.4198462,29.143448 19.6987651,28.9071957 22.7825279,28.5134973 C23.8611988,28.3757854 24.8378525,28.2283346 25.6946302,28.0810573 C25.8807344,28.0490666 26.0462675,28.0197218 26.1903709,27.993501 C26.2508597,26.4354542 25.9679348,24.6054215 25.0939778,22.8630261 C23.3156932,19.317686 19.5483369,17.1820641 13.0893785,17.1820641 C6.64287495,17.1820641 3.05107131,19.2995598 1.53542732,22.8125832 C0.795112698,24.5285156 0.636478482,26.3610896 0.814727644,27.9802313 Z" id="Path-4"></path>
                <ellipse id="Oval-2" cx="13.5189367" cy="7.55939075" rx="5.67135747" ry="6.79930715"></ellipse>
            </g>
        </g>
    </g>
</svg>