<?xml version="1.0" encoding="UTF-8"?>
<svg width="92px" height="46px" viewBox="0 0 92 46" version="1.1" xmlns="http://www.w3.org/2000/svg" xmlns:xlink="http://www.w3.org/1999/xlink">
    <!-- Generator: Sketch 49 (51002) - http://www.bohemiancoding.com/sketch -->
    <title>Attach Button (Active)</title>
    <desc>Created with Sketch.</desc>
    <defs></defs>
    <g id="Page-1" stroke="none" stroke-width="1" fill="none" fill-rule="evenodd">
        <g id="Document-Icons" transform="translate(-422.000000, -127.000000)">
            <g id="Attach-Button-(Active)" transform="translate(422.000000, 127.000000)">
                <g id="Photo-Button-(Active)" fill="#FFE37A">
                    <rect id="Rectangle-6" x="0" y="0" width="92" height="46"></rect>
                </g>
                <path d="M29.59375,42 L28.453125,38.828125 L24.0859375,38.828125 L22.96875,42 L21,42 L25.2734375,30.53125 L27.3046875,30.53125 L31.578125,42 L29.59375,42 Z M27.9609375,37.21875 L26.890625,34.109375 C26.8124996,33.9010406 26.7044278,33.5729189 26.5664062,33.125 C26.4283847,32.6770811 26.3333336,32.3489594 26.28125,32.140625 C26.1406243,32.7812532 25.9348972,33.481767 25.6640625,34.2421875 L24.6328125,37.21875 L27.9609375,37.21875 Z M36.109375,40.671875 C36.5572939,40.671875 37.0052061,40.6015632 37.453125,40.4609375 L37.453125,41.84375 C37.249999,41.9322921 36.9882829,42.0065101 36.6679688,42.0664062 C36.3476546,42.1263024 36.0156267,42.15625 35.671875,42.15625 C33.932283,42.15625 33.0625,41.2395925 33.0625,39.40625 L33.0625,34.75 L31.8828125,34.75 L31.8828125,33.9375 L33.1484375,33.265625 L33.7734375,31.4375 L34.90625,31.4375 L34.90625,33.359375 L37.3671875,33.359375 L37.3671875,34.75 L34.90625,34.75 L34.90625,39.375 C34.90625,39.8177105 35.016926,40.1445302 35.2382812,40.3554688 C35.4596365,40.5664073 35.7499982,40.671875 36.109375,40.671875 Z M42.3984375,40.671875 C42.8463564,40.671875 43.2942686,40.6015632 43.7421875,40.4609375 L43.7421875,41.84375 C43.5390615,41.9322921 43.2773454,42.0065101 42.9570312,42.0664062 C42.6367171,42.1263024 42.3046892,42.15625 41.9609375,42.15625 C40.2213455,42.15625 39.3515625,41.2395925 39.3515625,39.40625 L39.3515625,34.75 L38.171875,34.75 L38.171875,33.9375 L39.4375,33.265625 L40.0625,31.4375 L41.1953125,31.4375 L41.1953125,33.359375 L43.65625,33.359375 L43.65625,34.75 L41.1953125,34.75 L41.1953125,39.375 C41.1953125,39.8177105 41.3059885,40.1445302 41.5273438,40.3554688 C41.748699,40.5664073 42.0390607,40.671875 42.3984375,40.671875 Z M50.875,42 L50.5078125,40.796875 L50.4453125,40.796875 C50.0286438,41.3229193 49.6093771,41.6809886 49.1875,41.8710938 C48.7656229,42.0611989 48.2239616,42.15625 47.5625,42.15625 C46.7135374,42.15625 46.0507836,41.9270856 45.5742188,41.46875 C45.0976539,41.0104144 44.859375,40.3619834 44.859375,39.5234375 C44.859375,38.632808 45.1901009,37.9609398 45.8515625,37.5078125 C46.5130241,37.0546852 47.5208266,36.8072919 48.875,36.765625 L50.3671875,36.71875 L50.3671875,36.2578125 C50.3671875,35.7057264 50.2382825,35.2929701 49.9804688,35.0195312 C49.722655,34.7460924 49.3229194,34.609375 48.78125,34.609375 C48.3385395,34.609375 47.9140645,34.6744785 47.5078125,34.8046875 C47.1015605,34.9348965 46.7109394,35.0885408 46.3359375,35.265625 L45.7421875,33.953125 C46.2109398,33.7083321 46.7239555,33.5221361 47.28125,33.3945312 C47.8385445,33.2669264 48.3645809,33.203125 48.859375,33.203125 C49.9583388,33.203125 50.7877576,33.4427059 51.3476562,33.921875 C51.9075549,34.4010441 52.1875,35.1536407 52.1875,36.1796875 L52.1875,42 L50.875,42 Z M48.140625,40.75 C48.807295,40.75 49.3424459,40.5638039 49.7460938,40.1914062 C50.1497416,39.8190086 50.3515625,39.2968784 50.3515625,38.625 L50.3515625,37.875 L49.2421875,37.921875 C48.3775998,37.9531252 47.7486999,38.097655 47.3554688,38.3554688 C46.9622376,38.6132825 46.765625,39.0078098 46.765625,39.5390625 C46.765625,39.9244811 46.8802072,40.2226552 47.109375,40.4335938 C47.3385428,40.6445323 47.6822894,40.75 48.140625,40.75 Z M58.234375,42.15625 C56.9270768,42.15625 55.9335971,41.7747434 55.2539063,41.0117188 C54.5742154,40.2486941 54.234375,39.153653 54.234375,37.7265625 C54.234375,36.2734302 54.5898402,35.1562539 55.3007813,34.375 C56.0117223,33.5937461 57.0390558,33.203125 58.3828125,33.203125 C59.2942754,33.203125 60.1145797,33.3723941 60.84375,33.7109375 L60.2890625,35.1875 C59.513017,34.8854152 58.8723984,34.734375 58.3671875,34.734375 C56.8723884,34.734375 56.125,35.7265526 56.125,37.7109375 C56.125,38.6796923 56.3111961,39.4075496 56.6835938,39.8945312 C57.0559914,40.3815129 57.6015589,40.625 58.3203125,40.625 C59.1380249,40.625 59.9114547,40.421877 60.640625,40.015625 L60.640625,41.6171875 C60.3124984,41.8098968 59.9622414,41.9479162 59.5898438,42.03125 C59.2174461,42.1145838 58.7656277,42.15625 58.234375,42.15625 Z M70.2734375,42 L68.4296875,42 L68.4296875,36.6875 C68.4296875,36.02083 68.2955743,35.5234391 68.0273438,35.1953125 C67.7591132,34.8671859 67.3333363,34.703125 66.75,34.703125 C65.9791628,34.703125 65.4127622,34.9335914 65.0507812,35.3945312 C64.6888003,35.8554711 64.5078125,36.6275988 64.5078125,37.7109375 L64.5078125,42 L62.671875,42 L62.671875,29.84375 L64.5078125,29.84375 L64.5078125,32.9296875 C64.5078125,33.4244816 64.4765628,33.9531222 64.4140625,34.515625 L64.53125,34.515625 C64.7812512,34.0989563 65.128904,33.7760428 65.5742188,33.546875 C66.0195335,33.3177072 66.5390595,33.203125 67.1328125,33.203125 C69.226573,33.203125 70.2734375,34.257802 70.2734375,36.3671875 L70.2734375,42 Z" id="Attach" fill="#A78400"></path>
                <path d="M39.6788849,26 C38.0346629,26 36.3888093,25.3739608 35.1361659,24.1218824 C32.6316947,21.6173176 32.6316947,17.542149 35.1361659,15.0375843 L42.3077639,7.86688627 C43.1749472,7.00021961 44.3268408,6.52222745 45.5521553,6.52222745 C46.7774699,6.52222745 47.930995,7.00021961 48.7961389,7.86688627 C49.6629143,8.73355294 50.1409665,9.88530196 50.1409665,11.1104627 C50.1409665,12.3356235 49.6629143,13.4873725 48.7961389,14.3540392 L43.0566578,20.0944314 C42.6985266,20.4525176 42.1185009,20.4525176 41.7599618,20.0944314 C41.4014227,19.7359373 41.4014227,19.1559843 41.7599618,18.7974902 L47.5006665,13.0575059 C48.019916,12.5379137 48.3070736,11.8466196 48.3070736,11.1104627 C48.3070736,10.3743059 48.019916,9.68464314 47.5006665,9.16382745 C46.9797855,8.64423529 46.2896283,8.35752157 45.5537869,8.35752157 C44.8191692,8.35752157 44.1273804,8.64423529 43.6064994,9.16382745 L36.4349014,16.3345255 C34.645469,18.1233255 34.645469,21.034102 36.4349014,22.8233098 C38.2243338,24.6125176 41.1354756,24.6125176 42.9245001,22.8233098 L56.0807236,9.66710588 C57.870156,7.87789804 57.870156,4.96752941 56.0807236,3.17832157 C55.2139482,2.3116549 54.060423,1.83366275 52.8367401,1.83366275 C51.6097939,1.83366275 50.4595319,2.3116549 49.5911249,3.17832157 L48.0680475,4.70120784 C47.7095084,5.05970196 47.1294827,5.05970196 46.7709436,4.70120784 C46.4124044,4.34271373 46.4124044,3.76316863 46.7709436,3.40467451 L48.294021,1.88138039 C49.5066908,0.667639216 51.1207286,0 52.8367401,0 C54.5527515,0 56.1667893,0.669270588 57.3794591,1.88138039 C59.8839303,4.3859451 59.8839303,8.46111373 57.3794591,10.9656784 L44.221604,24.1218824 C42.9693685,25.3739608 41.3247385,26 39.6788849,26 Z" id="Page-1-Copy-4" fill="#A78400"></path>
            </g>
        </g>
    </g>
</svg>