<?xml version="1.0" encoding="UTF-8"?>
<svg width="27px" height="25px" viewBox="0 0 27 25" version="1.1" xmlns="http://www.w3.org/2000/svg" xmlns:xlink="http://www.w3.org/1999/xlink">
    <!-- Generator: Sketch 46.2 (44496) - http://www.bohemiancoding.com/sketch -->
    <title>Shape</title>
    <desc>Created with Sketch.</desc>
    <defs></defs>
    <g id="Page-1" stroke="none" stroke-width="1" fill="none" fill-rule="evenodd">
        <g id="TC-Welcome-Page-Copy-4" transform="translate(-421.000000, -24.000000)" fill-rule="nonzero" fill="#FFFFFF">
            <g id="Group-7" transform="translate(370.000000, 0.000000)">
                <g id="noun_957270_cc" transform="translate(51.000000, 24.000000)">
                    <path d="M26.205,17.88 L17.334,2.515 C16.545,1.1485 15.0745,0.299 13.4965,0.299 C11.919,0.299 10.449,1.148 9.6595,2.5145 L0.6865,18.0555 C-0.102,19.4215 -0.1015,21.12 0.6865,22.485 C1.476,23.851 2.946,24.701 4.524,24.701 L22.4735,24.701 C22.4855,24.701 22.4985,24.701 22.5115,24.701 C24.938,24.6815 26.905,22.701 26.905,20.2715 C26.9055,19.418 26.663,18.594 26.205,17.88 Z M12.231,6.4295 L14.7685,6.4295 C14.962,6.4295 15.119,6.586 15.119,6.7795 L14.419,16.4045 C14.419,16.598 14.2625,16.7545 14.069,16.7545 L12.9315,16.7545 C12.738,16.7545 12.5815,16.598 12.5815,16.4045 L11.8815,6.7795 C11.8815,6.5865 12.0375,6.4295 12.231,6.4295 Z M13.5,21.37 C12.558,21.37 11.7935,20.6065 11.7935,19.664 C11.7935,18.722 12.5575,17.958 13.5,17.958 C14.4425,17.958 15.206,18.722 15.206,19.664 C15.206,20.6065 14.4425,21.37 13.5,21.37 Z" id="Shape"></path>
                </g>
            </g>
        </g>
    </g>
</svg>