<?xml version="1.0" encoding="UTF-8"?>
<svg width="66px" height="61px" viewBox="0 0 66 61" version="1.1" xmlns="http://www.w3.org/2000/svg" xmlns:xlink="http://www.w3.org/1999/xlink">
    <!-- Generator: Sketch 50.2 (55047) - http://www.bohemiancoding.com/sketch -->
    <title>Group</title>
    <desc>Created with Sketch.</desc>
    <defs></defs>
    <g id="Page-1" stroke="none" stroke-width="1" fill="none" fill-rule="evenodd">
        <g id="Inbox-v2" transform="translate(-617.000000, -107.000000)" fill="#224F59" fill-rule="nonzero">
            <g id="Group" transform="translate(617.000000, 107.000000)">
                <path d="M44.3058093,0 L21.9138517,0 C9.9789383,0 0.268292683,9.7181096 0.268292683,21.667951 L0.268292683,27.5868918 C0.268292683,36.9019461 6.18723348,45.1496505 15.0022008,48.1128529 L15.8680232,48.4039484 L15.41272,49.1951309 C14.2334102,51.225335 12.6361173,54.412457 10.5312733,58.9356324 C10.2774977,59.4805034 10.3894575,60.1298702 10.8149047,60.5553174 C11.2328879,60.9733006 11.8971827,61.0927244 12.4271257,60.8538768 L37.7897497,49.2473788 L44.3058093,49.2473788 C56.2407227,49.2473788 65.9513683,39.5292692 65.9513683,27.5868918 L65.9513683,21.667951 C65.9513683,9.7181096 56.2407227,0 44.3058093,0 Z M16.1904673,29.2035911 C13.940822,29.2035911 12.1106527,27.3734218 12.1106527,25.12303 C12.1106527,22.8733847 13.940822,21.0432154 16.1904673,21.0432154 C18.4401127,21.0432154 20.270282,22.8733847 20.270282,25.12303 C20.270282,27.3734218 18.4401127,29.2035911 16.1904673,29.2035911 Z M33.1098305,29.2035911 C30.8601852,29.2035911 29.0300158,27.3734218 29.0300158,25.12303 C29.0300158,22.8733847 30.8601852,21.0432154 33.1098305,21.0432154 C35.3594759,21.0432154 37.1896452,22.8733847 37.1896452,25.12303 C37.1896452,27.3734218 35.3594759,29.2035911 33.1098305,29.2035911 Z M50.0291937,29.2035911 C47.7795483,29.2035911 45.949379,27.3734218 45.949379,25.12303 C45.949379,22.8733847 47.7795483,21.0432154 50.0291937,21.0432154 C52.278839,21.0432154 54.1090084,22.8733847 54.1090084,25.12303 C54.1097548,27.3734218 52.2795854,29.2035911 50.0291937,29.2035911 Z" id="Shape"></path>
            </g>
        </g>
    </g>
</svg>