<?xml version="1.0" encoding="UTF-8"?>
<svg width="92px" height="46px" viewBox="0 0 92 46" version="1.1" xmlns="http://www.w3.org/2000/svg" xmlns:xlink="http://www.w3.org/1999/xlink">
    <!-- Generator: Sketch 48.1 (47250) - http://www.bohemiancoding.com/sketch -->
    <title>Photo Button (Active)</title>
    <desc>Created with Sketch.</desc>
    <defs></defs>
    <g id="Toolbar-Buttons" stroke="none" stroke-width="1" fill="none" fill-rule="evenodd" transform="translate(-34.000000, -223.000000)">
        <g id="Photo-Button-(Active)" transform="translate(34.000000, 223.000000)">
            <rect id="Rectangle-6" fill="#FADC6E" x="0" y="0" width="92" height="46"></rect>
            <path d="M27.0703125,34.03125 C27.0703125,35.2239643 26.6796914,36.1380177 25.8984375,36.7734375 C25.1171836,37.4088573 24.0052155,37.7265625 22.5625,37.7265625 L21.375,37.7265625 L21.375,42 L19.5078125,42 L19.5078125,30.578125 L22.796875,30.578125 C24.2239655,30.578125 25.2929652,30.8697887 26.0039062,31.453125 C26.7148473,32.0364613 27.0703125,32.8958277 27.0703125,34.03125 Z M21.375,36.15625 L22.3671875,36.15625 C23.3255256,36.15625 24.0286436,35.989585 24.4765625,35.65625 C24.9244814,35.322915 25.1484375,34.8020869 25.1484375,34.09375 C25.1484375,33.4374967 24.9479187,32.9479183 24.546875,32.625 C24.1458313,32.3020817 23.5208376,32.140625 22.671875,32.140625 L21.375,32.140625 L21.375,36.15625 Z M36.7578125,42 L34.9140625,42 L34.9140625,36.6875 C34.9140625,36.02083 34.7799493,35.5234391 34.5117188,35.1953125 C34.2434882,34.8671859 33.8177113,34.703125 33.234375,34.703125 C32.4635378,34.703125 31.8971372,34.9335914 31.5351562,35.3945312 C31.1731753,35.8554711 30.9921875,36.6275988 30.9921875,37.7109375 L30.9921875,42 L29.15625,42 L29.15625,29.84375 L30.9921875,29.84375 L30.9921875,32.9296875 C30.9921875,33.4244816 30.9609378,33.9531222 30.8984375,34.515625 L31.015625,34.515625 C31.2656263,34.0989563 31.613279,33.7760428 32.0585938,33.546875 C32.5039085,33.3177072 33.0234345,33.203125 33.6171875,33.203125 C35.710948,33.203125 36.7578125,34.257802 36.7578125,36.3671875 L36.7578125,42 Z M46.9765625,37.6640625 C46.9765625,39.0755279 46.614587,40.1770794 45.890625,40.96875 C45.166663,41.7604206 44.1588606,42.15625 42.8671875,42.15625 C42.0598918,42.15625 41.3463573,41.9739602 40.7265625,41.609375 C40.1067677,41.2447898 39.63021,40.7213576 39.296875,40.0390625 C38.96354,39.3567674 38.796875,38.5651087 38.796875,37.6640625 C38.796875,36.2630138 39.1562464,35.1692748 39.875,34.3828125 C40.5937536,33.5963502 41.6067643,33.203125 42.9140625,33.203125 C44.1640687,33.203125 45.1536422,33.6054647 45.8828125,34.4101562 C46.6119828,35.2148478 46.9765625,36.2994723 46.9765625,37.6640625 Z M40.6875,37.6640625 C40.6875,39.6588641 41.4244718,40.65625 42.8984375,40.65625 C44.3567781,40.65625 45.0859375,39.6588641 45.0859375,37.6640625 C45.0859375,35.6900943 44.3515698,34.703125 42.8828125,34.703125 C42.1119753,34.703125 41.5533871,34.9583308 41.2070312,35.46875 C40.8606754,35.9791692 40.6875,36.7109327 40.6875,37.6640625 Z M52.3046875,40.671875 C52.7526064,40.671875 53.2005186,40.6015632 53.6484375,40.4609375 L53.6484375,41.84375 C53.4453115,41.9322921 53.1835954,42.0065101 52.8632812,42.0664062 C52.5429671,42.1263024 52.2109392,42.15625 51.8671875,42.15625 C50.1275955,42.15625 49.2578125,41.2395925 49.2578125,39.40625 L49.2578125,34.75 L48.078125,34.75 L48.078125,33.9375 L49.34375,33.265625 L49.96875,31.4375 L51.1015625,31.4375 L51.1015625,33.359375 L53.5625,33.359375 L53.5625,34.75 L51.1015625,34.75 L51.1015625,39.375 C51.1015625,39.8177105 51.2122385,40.1445302 51.4335938,40.3554688 C51.654949,40.5664073 51.9453107,40.671875 52.3046875,40.671875 Z M63.0390625,37.6640625 C63.0390625,39.0755279 62.677087,40.1770794 61.953125,40.96875 C61.229163,41.7604206 60.2213606,42.15625 58.9296875,42.15625 C58.1223918,42.15625 57.4088573,41.9739602 56.7890625,41.609375 C56.1692677,41.2447898 55.69271,40.7213576 55.359375,40.0390625 C55.02604,39.3567674 54.859375,38.5651087 54.859375,37.6640625 C54.859375,36.2630138 55.2187464,35.1692748 55.9375,34.3828125 C56.6562536,33.5963502 57.6692643,33.203125 58.9765625,33.203125 C60.2265687,33.203125 61.2161422,33.6054647 61.9453125,34.4101562 C62.6744828,35.2148478 63.0390625,36.2994723 63.0390625,37.6640625 Z M56.75,37.6640625 C56.75,39.6588641 57.4869718,40.65625 58.9609375,40.65625 C60.4192781,40.65625 61.1484375,39.6588641 61.1484375,37.6640625 C61.1484375,35.6900943 60.4140698,34.703125 58.9453125,34.703125 C58.1744753,34.703125 57.6158871,34.9583308 57.2695312,35.46875 C56.9231754,35.9791692 56.75,36.7109327 56.75,37.6640625 Z M70.953125,39.5390625 C70.953125,40.3828167 70.6458364,41.0299457 70.03125,41.4804688 C69.4166636,41.9309918 68.5364641,42.15625 67.390625,42.15625 C66.2395776,42.15625 65.3151077,41.9817726 64.6171875,41.6328125 L64.6171875,40.046875 C65.6328176,40.5156273 66.5781206,40.75 67.453125,40.75 C68.583339,40.75 69.1484375,40.4088576 69.1484375,39.7265625 C69.1484375,39.5078114 69.0859381,39.3255216 68.9609375,39.1796875 C68.8359369,39.0338534 68.6302098,38.8828133 68.34375,38.7265625 C68.0572902,38.5703117 67.6588567,38.3932302 67.1484375,38.1953125 C66.1536409,37.8098939 65.4804705,37.4244811 65.1289062,37.0390625 C64.777342,36.6536439 64.6015625,36.1536489 64.6015625,35.5390625 C64.6015625,34.7994755 64.8997366,34.2252625 65.4960938,33.8164062 C66.0924509,33.40755 66.9036407,33.203125 67.9296875,33.203125 C68.9453176,33.203125 69.9062455,33.4088521 70.8125,33.8203125 L70.21875,35.203125 C69.2864537,34.8177064 68.5026073,34.625 67.8671875,34.625 C66.8984327,34.625 66.4140625,34.9010389 66.4140625,35.453125 C66.4140625,35.7239597 66.5403633,35.9531241 66.7929688,36.140625 C67.0455742,36.3281259 67.5963499,36.5859359 68.4453125,36.9140625 C69.1588577,37.1901055 69.6770817,37.4427072 70,37.671875 C70.3229183,37.9010428 70.5624992,38.1653631 70.71875,38.4648438 C70.8750008,38.7643244 70.953125,39.1223938 70.953125,39.5390625 Z" id="Photos" fill="#E56841"></path>
            <g id="Camera" transform="translate(29.000000, 0.000000)">
                <path d="M16.5,4 C11.2628205,4 7,8.26282051 7,13.5 C7,18.7371795 11.2628205,23 16.5,23 C21.7371795,23 26,18.7371795 26,13.5 C26,8.26282051 21.7371795,4 16.5,4 Z" id="Fill-1-Copy" fill="#FFE37A"></path>
                <path d="M16.5,10 C14.0192308,10 12,12.0192308 12,14.5 C12,16.9807692 14.0192308,19 16.5,19 C18.9807692,19 21,16.9807692 21,14.5 C21,12.0192308 18.9807692,10 16.5,10 Z" id="Fill-1" fill="#E56841"></path>
                <path d="M28.71,4.22077922 L23.76,4.22077922 C23.76,1.88874459 21.84028,0 19.47,0 L13.53,0 C11.15972,0 9.24,1.88874459 9.24,4.22077922 L4.29,4.22077922 C1.91972,4.22077922 0,6.10952381 0,8.44155844 L0,20.7792208 C0,23.1112554 1.91972,25 4.29,25 L28.71,25 C31.08028,25 33,23.1112554 33,20.7792208 L33,8.44155844 C33,6.10952381 31.08028,4.22077922 28.71,4.22077922 Z M16.5,22.0779221 C12.31472,22.0779221 8.91,18.7281385 8.91,14.6103896 C8.91,10.4926407 12.31472,7.14285714 16.5,7.14285714 C20.68528,7.14285714 24.09,10.4926407 24.09,14.6103896 C24.09,18.7281385 20.68528,22.0779221 16.5,22.0779221 Z" id="Fill-2" fill="#E56841"></path>
            </g>
        </g>
    </g>
</svg>