<?xml version="1.0" encoding="UTF-8"?>
<svg width="92px" height="46px" viewBox="0 0 92 46" version="1.1" xmlns="http://www.w3.org/2000/svg" xmlns:xlink="http://www.w3.org/1999/xlink">
    <!-- Generator: Sketch 48.1 (47250) - http://www.bohemiancoding.com/sketch -->
    <title>Anonymous Button (Active)</title>
    <desc>Created with Sketch.</desc>
    <defs>
        <path d="M16.3875806,16 C19.4061857,16 24.2557708,14.385082 28.2640345,12.7063283 C29.9025921,12.0200624 32.3774779,11.6144463 33,10.8481162 C33,8.59415409 25.4876217,7.46666667 16.3875806,7.46666667 C7.28753941,7.46666667 0,8.59415409 0,10.8481162 C0.472751716,11.7313184 3.0755884,12.0175136 4.62576501,12.7063283 C8.53130312,14.4417381 13.3433097,16 16.3875806,16 Z" id="path-1"></path>
        <path d="M2,2.13333333 L20.0000165,2.13333333 C21.104586,2.13333333 22.0000165,3.02876383 22.0000165,4.13333333 L22.0000326,8.47633827 C22.0000326,9.34172699 21.4434627,10.1089513 20.6208185,10.3775666 C17.8527627,11.2814111 14.6458259,11.7333333 11.0000082,11.7333333 C7.35419757,11.7333333 4.14726616,11.2814129 1.37921399,10.3775719 L1.37921101,10.377581 C0.556568803,10.108967 1.05979275e-16,9.34174483 0,8.47635838 L0,4.13333333 C-1.3527075e-16,3.02876383 0.8954305,2.13333333 2,2.13333333 Z" id="path-2"></path>
        <ellipse id="path-3" cx="11" cy="3.2" rx="11" ry="3.2"></ellipse>
    </defs>
    <g id="Symbols" stroke="none" stroke-width="1" fill="none" fill-rule="evenodd">
        <g id="Anonymous-Button-(Active)">
            <g>
                <g id="Group-7-Copy" fill="#FFE37A">
                    <rect id="Rectangle-6" x="0" y="0" width="92" height="46"></rect>
                </g>
                <path d="M26.5625,34.03125 C26.5625,35.2239643 26.1718789,36.1380177 25.390625,36.7734375 C24.6093711,37.4088573 23.497403,37.7265625 22.0546875,37.7265625 L20.8671875,37.7265625 L20.8671875,42 L19,42 L19,30.578125 L22.2890625,30.578125 C23.716153,30.578125 24.7851527,30.8697887 25.4960938,31.453125 C26.2070348,32.0364613 26.5625,32.8958277 26.5625,34.03125 Z M20.8671875,36.15625 L21.859375,36.15625 C22.8177131,36.15625 23.5208311,35.989585 23.96875,35.65625 C24.4166689,35.322915 24.640625,34.8020869 24.640625,34.09375 C24.640625,33.4374967 24.4401062,32.9479183 24.0390625,32.625 C23.6380188,32.3020817 23.0130251,32.140625 22.1640625,32.140625 L20.8671875,32.140625 L20.8671875,36.15625 Z M33.03125,33.203125 C33.4010435,33.203125 33.705728,33.2291664 33.9453125,33.28125 L33.765625,34.9921875 C33.505207,34.9296872 33.2343764,34.8984375 32.953125,34.8984375 C32.2187463,34.8984375 31.6237002,35.1380184 31.1679688,35.6171875 C30.7122373,36.0963566 30.484375,36.7187462 30.484375,37.484375 L30.484375,42 L28.6484375,42 L28.6484375,33.359375 L30.0859375,33.359375 L30.328125,34.8828125 L30.421875,34.8828125 C30.7083348,34.3671849 31.0820289,33.9583348 31.5429688,33.65625 C32.0039086,33.3541652 32.4999973,33.203125 33.03125,33.203125 Z M37.3828125,42 L35.546875,42 L35.546875,33.359375 L37.3828125,33.359375 L37.3828125,42 Z M35.4375,31.0703125 C35.4375,30.7421859 35.5273429,30.4895842 35.7070312,30.3125 C35.8867196,30.1354158 36.1432275,30.046875 36.4765625,30.046875 C36.7994808,30.046875 37.0507804,30.1354158 37.2304688,30.3125 C37.4101571,30.4895842 37.5,30.7421859 37.5,31.0703125 C37.5,31.3828141 37.4101571,31.6289054 37.2304688,31.8085938 C37.0507804,31.9882821 36.7994808,32.078125 36.4765625,32.078125 C36.1432275,32.078125 35.8867196,31.9882821 35.7070312,31.8085938 C35.5273429,31.6289054 35.4375,31.3828141 35.4375,31.0703125 Z M41.9765625,42 L38.6953125,33.359375 L40.6328125,33.359375 L42.390625,38.3828125 C42.6927098,39.2265667 42.8749997,39.9088516 42.9375,40.4296875 L43,40.4296875 C43.0468752,40.0546856 43.2291651,39.3724008 43.546875,38.3828125 L45.3046875,33.359375 L47.2578125,33.359375 L43.9609375,42 L41.9765625,42 Z M53.9765625,42 L53.609375,40.796875 L53.546875,40.796875 C53.1302063,41.3229193 52.7109396,41.6809886 52.2890625,41.8710938 C51.8671854,42.0611989 51.3255241,42.15625 50.6640625,42.15625 C49.8150999,42.15625 49.1523461,41.9270856 48.6757812,41.46875 C48.1992164,41.0104144 47.9609375,40.3619834 47.9609375,39.5234375 C47.9609375,38.632808 48.2916634,37.9609398 48.953125,37.5078125 C49.6145866,37.0546852 50.6223891,36.8072919 51.9765625,36.765625 L53.46875,36.71875 L53.46875,36.2578125 C53.46875,35.7057264 53.339845,35.2929701 53.0820312,35.0195312 C52.8242175,34.7460924 52.4244819,34.609375 51.8828125,34.609375 C51.440102,34.609375 51.015627,34.6744785 50.609375,34.8046875 C50.203123,34.9348965 49.8125019,35.0885408 49.4375,35.265625 L48.84375,33.953125 C49.3125023,33.7083321 49.825518,33.5221361 50.3828125,33.3945312 C50.940107,33.2669264 51.4661434,33.203125 51.9609375,33.203125 C53.0599013,33.203125 53.8893201,33.4427059 54.4492188,33.921875 C55.0091174,34.4010441 55.2890625,35.1536407 55.2890625,36.1796875 L55.2890625,42 L53.9765625,42 Z M51.2421875,40.75 C51.9088575,40.75 52.4440084,40.5638039 52.8476562,40.1914062 C53.2513041,39.8190086 53.453125,39.2968784 53.453125,38.625 L53.453125,37.875 L52.34375,37.921875 C51.4791623,37.9531252 50.8502624,38.097655 50.4570312,38.3554688 C50.0638001,38.6132825 49.8671875,39.0078098 49.8671875,39.5390625 C49.8671875,39.9244811 49.9817697,40.2226552 50.2109375,40.4335938 C50.4401053,40.6445323 50.7838519,40.75 51.2421875,40.75 Z M61.3359375,42.15625 C60.0286393,42.15625 59.0351596,41.7747434 58.3554688,41.0117188 C57.6757779,40.2486941 57.3359375,39.153653 57.3359375,37.7265625 C57.3359375,36.2734302 57.6914027,35.1562539 58.4023438,34.375 C59.1132848,33.5937461 60.1406183,33.203125 61.484375,33.203125 C62.3958379,33.203125 63.2161422,33.3723941 63.9453125,33.7109375 L63.390625,35.1875 C62.6145795,34.8854152 61.9739609,34.734375 61.46875,34.734375 C59.9739509,34.734375 59.2265625,35.7265526 59.2265625,37.7109375 C59.2265625,38.6796923 59.4127586,39.4075496 59.7851562,39.8945312 C60.1575539,40.3815129 60.7031214,40.625 61.421875,40.625 C62.2395874,40.625 63.0130172,40.421877 63.7421875,40.015625 L63.7421875,41.6171875 C63.4140609,41.8098968 63.0638039,41.9479162 62.6914062,42.03125 C62.3190086,42.1145838 61.8671902,42.15625 61.3359375,42.15625 Z M64.4609375,33.359375 L66.4609375,33.359375 L68.21875,38.2578125 C68.4843763,38.9557327 68.6614579,39.6119761 68.75,40.2265625 L68.8125,40.2265625 C68.8593752,39.9401027 68.9453119,39.59245 69.0703125,39.1835938 C69.1953131,38.7747375 69.8567648,36.8333507 71.0546875,33.359375 L73.0390625,33.359375 L69.34375,43.1484375 C68.6718716,44.9453215 67.5520912,45.84375 65.984375,45.84375 C65.578123,45.84375 65.1822936,45.7994796 64.796875,45.7109375 L64.796875,44.2578125 C65.072918,44.3203128 65.3880191,44.3515625 65.7421875,44.3515625 C66.6276086,44.3515625 67.2499982,43.8385468 67.609375,42.8125 L67.9296875,42 L64.4609375,33.359375 Z" id="Privacy" fill="#A78400"></path>
            </g>
            <g id="Group-5-Copy" transform="translate(29.000000, 0.000000)">
                <g id="Group">
                    <g id="Oval-5">
                        <use fill="#FFE37A" fill-rule="evenodd" xlink:href="#path-1"></use>
                        <path stroke="#A78400" stroke-width="1.5" d="M16.3875806,16.75 C13.4693618,16.75 8.80803824,15.3854124 4.32121756,13.391712 C3.92674921,13.2164316 3.46833539,13.0688849 2.65502198,12.8410266 C2.45117182,12.7841017 2.45117182,12.7841017 2.24619878,12.7269043 C0.415559747,12.2145763 -0.275058394,11.92351 -0.661232198,11.202054 L-0.75,11.0362166 L-0.75,10.8481162 C-0.75,7.9980379 5.97810861,6.71666667 16.3875806,6.71666667 C26.8639869,6.71666667 33.75,8.003666 33.75,10.8481162 L33.75,11.1143565 L33.5821305,11.3210053 C33.1425902,11.8620831 32.439992,12.1593328 30.888095,12.6305566 C30.7473806,12.6732837 30.2553236,12.8208079 30.1718494,12.8460311 C29.4283849,13.0706821 28.963845,13.2263549 28.5537667,13.3981052 C23.6938594,15.433547 19.2080405,16.75 16.3875806,16.75 Z"></path>
                    </g>
                    <g id="Group-4" transform="translate(5.500000, 0.000000)">
                        <g id="Rectangle-4">
                            <use fill="#FFE37A" fill-rule="evenodd" xlink:href="#path-2"></use>
                            <path stroke="#A78400" stroke-width="1.5" d="M2,2.88333333 C1.30964406,2.88333333 0.75,3.4429774 0.75,4.13333333 L0.75,8.47635838 C0.75,9.01722627 1.09785535,9.49673752 1.61201235,9.66461682 C4.30018614,10.5423754 7.42932465,10.9833333 11.0000082,10.9833333 C14.5706987,10.9833333 17.6998423,10.5423737 20.3880196,9.66461176 C20.9021747,9.49672633 21.2500326,9.01720884 21.2500326,8.47634106 L21.2500165,4.13333333 C21.2500165,3.4429774 20.6903724,2.88333333 20.0000165,2.88333333 L2,2.88333333 Z"></path>
                        </g>
                        <g id="Oval-4">
                            <use fill="#FFE37A" fill-rule="evenodd" xlink:href="#path-3"></use>
                            <ellipse stroke="#A78400" stroke-width="1.5" cx="11" cy="3.2" rx="10.25" ry="2.45"></ellipse>
                        </g>
                        <path d="M1.70573425,3.20159936 C2.31547883,3.18412726 2.68811177,3.18412726 2.82363307,3.20159936 C2.95915436,3.21907146 4.22541844,3.6474032 6.6224253,4.48659457 C5.89913563,4.54537422 5.5374908,4.77967034 5.5374908,5.18948292 C5.5374908,5.59929549 5.81652666,5.91235614 6.37459838,6.12866486 C5.04292846,6.00951191 4.04205674,5.86412603 3.37198322,5.69250721 C2.7019097,5.5208884 2.07818527,5.2503057 1.50080993,4.88075912 C1.50212923,4.36376085 1.51867295,4.00554448 1.55044109,3.80610999 C1.58220924,3.6066755 1.63397362,3.40517196 1.70573425,3.20159936 Z" id="Rectangle-8" fill="#FFE37A"></path>
                    </g>
                </g>
                <path d="M4.08106761,18.9869089 C12.3432905,17.3438859 14.6645201,19.844492 16.4637712,19.844492 C18.2630224,19.844492 20.2047603,17.432205 28.4839551,18.8763214 C28.4500358,19.1737678 28.4293443,19.3574258 28.4218806,19.4272952 C27.5327794,19.7552475 27.0447068,20.9461491 26.9576629,23 C26.9576629,26.8190414 19.3834454,28.8215363 18.4747824,23 C17.1212622,18.5630814 14.5503492,21.2744881 14.5503492,23 C13.6257766,28.5710364 6.02145222,27.0167001 6.02145222,23 C5.91892226,20.6181968 5.27212739,19.4272952 4.08106761,19.4272952 C4.08106761,19.3254981 4.08106761,19.1787027 4.08106761,18.9869089 Z" id="Path-2" stroke="#A78400" fill="#A78400"></path>
                <path d="M22.7687799,26.0276998 C24.2641133,26.0276998 24.9817129,25.6460608 25.6060559,25.0790999 C26.7462098,24.0437351 26.9522168,22.4949416 26.9522168,22.2635416 C26.9522168,20.9838887 27.0964565,19.9132759 26.2242438,19.3393599 C25.6097127,18.9349983 24.4811213,18.769189 22.6265704,18.9855031 C20.649589,19.0900055 19.6139004,19.4628731 19.0754153,19.9363376 C18.3599271,20.5654325 18.5223834,21.3977334 18.5223834,22.2635416 C18.5223834,22.7511734 18.7245359,24.1347564 19.7509141,25.0790999 C20.3958203,25.6724611 21.4082702,26.0746521 22.7687799,26.0276998 Z" id="Oval-3-Copy-2" fill="#FFE37A"></path>
                <path d="M10.4350811,26.0309956 C11.9304145,26.0309956 12.4497891,25.6460608 13.0741321,25.0790999 C14.214286,24.0437351 14.43882,22.4949416 14.43882,22.2635416 C14.43882,20.9838887 14.6106811,19.9108588 13.7384684,19.3369427 C13.1239373,18.9325812 11.9581958,18.758553 10.1036449,18.9748672 C8.12666349,19.0793695 7.22372611,19.325132 6.68524099,19.7985965 C5.9697528,20.4276914 6.10939735,21.3977334 6.10939735,22.2635416 C6.10939735,22.7511734 6.38217526,24.1347564 7.40855342,25.0790999 C8.05345967,25.6724611 9.07457145,26.0779479 10.4350811,26.0309956 Z" id="Oval-3-Copy-3" fill="#FFE37A" transform="translate(10.275472, 22.457959) scale(-1, 1) translate(-10.275472, -22.457959) "></path>
            </g>
        </g>
    </g>
</svg>