<?xml version="1.0" encoding="UTF-8"?>
<svg width="26px" height="26px" viewBox="0 0 26 26" version="1.1" xmlns="http://www.w3.org/2000/svg" xmlns:xlink="http://www.w3.org/1999/xlink">
    <!-- Generator: Sketch 49 (51002) - http://www.bohemiancoding.com/sketch -->
    <title>File Icon</title>
    <desc>Created with Sketch.</desc>
    <defs></defs>
    <g id="Page-1" stroke="none" stroke-width="1" fill="none" fill-rule="evenodd">
        <g id="Create-Post-(Desktop)" transform="translate(-939.000000, -483.000000)" fill="#E56841">
            <g id="Group-3" transform="translate(920.000000, 464.000000)">
                <g id="Camera-Button-Copy-4">
                    <path d="M25.4210724,45 C23.7768504,45 22.1309968,44.3739608 20.8783534,43.1218824 C18.3738822,40.6173176 18.3738822,36.542149 20.8783534,34.0375843 L28.0499514,26.8668863 C28.9171347,26.0002196 30.0690283,25.5222275 31.2943428,25.5222275 C32.5196574,25.5222275 33.6731825,26.0002196 34.5383264,26.8668863 C35.4051018,27.7335529 35.883154,28.885302 35.883154,30.1104627 C35.883154,31.3356235 35.4051018,32.4873725 34.5383264,33.3540392 L28.7988453,39.0944314 C28.4407141,39.4525176 27.8606884,39.4525176 27.5021493,39.0944314 C27.1436102,38.7359373 27.1436102,38.1559843 27.5021493,37.7974902 L33.242854,32.0575059 C33.7621035,31.5379137 34.0492611,30.8466196 34.0492611,30.1104627 C34.0492611,29.3743059 33.7621035,28.6846431 33.242854,28.1638275 C32.721973,27.6442353 32.0318158,27.3575216 31.2959744,27.3575216 C30.5613567,27.3575216 29.8695679,27.6442353 29.3486869,28.1638275 L22.1770889,35.3345255 C20.3876565,37.1233255 20.3876565,40.034102 22.1770889,41.8233098 C23.9665213,43.6125176 26.8776631,43.6125176 28.6666876,41.8233098 L41.8229111,28.6671059 C43.6123435,26.877898 43.6123435,23.9675294 41.8229111,22.1783216 C40.9561357,21.3116549 39.8026105,20.8336627 38.5789276,20.8336627 C37.3519814,20.8336627 36.2017194,21.3116549 35.3333124,22.1783216 L33.810235,23.7012078 C33.4516959,24.059702 32.8716702,24.059702 32.5131311,23.7012078 C32.1545919,23.3427137 32.1545919,22.7631686 32.5131311,22.4046745 L34.0362085,20.8813804 C35.2488783,19.6676392 36.8629161,19 38.5789276,19 C40.294939,19 41.9089768,19.6692706 43.1216466,20.8813804 C45.6261178,23.3859451 45.6261178,27.4611137 43.1216466,29.9656784 L29.9637915,43.1218824 C28.711556,44.3739608 27.066926,45 25.4210724,45 Z" id="File-Icon"></path>
                </g>
            </g>
        </g>
    </g>
</svg>