<?xml version="1.0" encoding="UTF-8"?>
<svg width="60px" height="60px" viewBox="0 0 60 60" version="1.1" xmlns="http://www.w3.org/2000/svg" xmlns:xlink="http://www.w3.org/1999/xlink">
    <!-- Generator: Sketch 50.2 (55047) - http://www.bohemiancoding.com/sketch -->
    <title>noun_accepted_464814</title>
    <desc>Created with Sketch.</desc>
    <defs></defs>
    <g id="Page-1" stroke="none" stroke-width="1" fill="none" fill-rule="evenodd">
        <g id="Preapproved-Success-Copy" transform="translate(-646.000000, -131.000000)" fill="#224F59" fill-rule="nonzero">
            <g id="noun_accepted_464814" transform="translate(646.000000, 131.000000)">
                <path d="M30.0003329,0 C13.457975,0 0,13.4586408 0,29.9996671 C0,46.5433564 13.457975,60 30.0003329,60 C46.542025,60 60,46.5433564 60,29.9996671 C60,13.4586408 46.542025,0 30.0003329,0 Z M45.3403606,23.2224133 L27.6509293,40.9151734 C27.0797226,41.4857143 26.3307628,41.7719834 25.5818031,41.7719834 C25.5818031,41.7719834 25.5818031,41.7719834 25.5804716,41.7719834 C25.5791401,41.7719834 25.5791401,41.7719834 25.5791401,41.7719834 C24.8301803,41.7719834 24.0812205,41.4857143 23.5100139,40.9178363 L14.6629681,32.0721221 C13.519889,30.9277115 13.519889,29.0762829 14.6629681,27.9332039 C15.8067129,26.7887933 17.6588072,26.7887933 18.8018863,27.9332039 L25.5804716,34.7091262 L41.2021082,19.0834951 C42.3451872,17.9404161 44.1972816,17.9430791 45.3410264,19.0834951 C46.4834397,20.2279057 46.4834397,22.08 45.3403606,23.2224133 Z" id="Shape"></path>
            </g>
        </g>
    </g>
</svg>