<?xml version="1.0" encoding="UTF-8"?>
<svg width="40px" height="25px" viewBox="0 0 40 25" version="1.1" xmlns="http://www.w3.org/2000/svg" xmlns:xlink="http://www.w3.org/1999/xlink">
    <!-- Generator: Sketch 49 (51002) - http://www.bohemiancoding.com/sketch -->
    <title>Post Icon</title>
    <desc>Created with Sketch.</desc>
    <defs></defs>
    <g id="Page-1" stroke="none" stroke-width="1" fill="none" fill-rule="evenodd">
        <g id="Icons" transform="translate(-248.000000, -153.000000)" fill="#E56841">
            <g id="Group-8" transform="translate(248.000000, 153.000000)">
                <g id="Post-Icon" transform="translate(8.000000, 0.000000)">
                    <path d="M14,11 L14,7.5 C14,6.67157288 13.3284271,6 12.5,6 C11.6715729,6 11,6.67157288 11,7.5 L11,11 L7.5,11 C6.67157288,11 6,11.6715729 6,12.5 C6,13.3284271 6.67157288,14 7.5,14 L11,14 L11,17.5 C11,18.3284271 11.6715729,19 12.5,19 C13.3284271,19 14,18.3284271 14,17.5 L14,14 L17.5,14 C18.3284271,14 19,13.3284271 19,12.5 C19,11.6715729 18.3284271,11 17.5,11 L14,11 Z M12.5,25 C5.59644063,25 0,19.4035594 0,12.5 C0,5.59644063 5.59644063,0 12.5,0 C19.4035594,0 25,5.59644063 25,12.5 C25,19.4035594 19.4035594,25 12.5,25 Z" id="Combined-Shape"></path>
                </g>
            </g>
        </g>
    </g>
</svg>