<?xml version="1.0" encoding="UTF-8"?>
<svg width="26px" height="26px" viewBox="0 0 26 26" version="1.1" xmlns="http://www.w3.org/2000/svg" xmlns:xlink="http://www.w3.org/1999/xlink">
    <!-- Generator: Sketch 50.2 (55047) - http://www.bohemiancoding.com/sketch -->
    <title>Group 2</title>
    <desc>Created with Sketch.</desc>
    <defs></defs>
    <g id="Page-1" stroke="none" stroke-width="1" fill="none" fill-rule="evenodd">
        <g id="Group-2" fill="#758282">
            <path d="M24.7538016,14.0237328 C25.0190605,13.7482716 25.2500274,13.2790449 25.2069943,12.1335593 C25.1622802,10.9880736 23.7438677,9.94592959 22.7695707,9.94592959 C21.6557522,9.94592959 20.248098,9.94313658 19.4297961,9.94313658 C18.8034623,9.94313658 18.2635309,9.90927126 18.2635309,9.18762578 C18.2635309,8.60423459 18.900623,8.01490823 19.4049176,7.18573164 C19.9996489,6.20643044 20.5133569,5.24388734 20.5133569,3.52688082 C20.5133569,2.28154486 19.8184391,0.0900747625 18.3122794,0.0900747625 C16.928159,0.0900747625 16.8898326,2.32099621 16.3764608,3.61276606 C15.6317858,5.48513409 13.5134126,6.63620576 12.7858837,7.78727744 C12.310502,8.53859871 10.2906343,12.3409407 9.7745729,12.3409407 L8.52963779,12.3409407 L8.52963779,12.6286214 C8.53367214,12.6666762 8.53871509,12.7036837 8.53871509,12.7417385 L8.53871509,23.3258722 C8.53871509,23.3723061 8.53501693,23.4173435 8.52963779,23.4623809 L8.52963779,23.5482661 C8.76598382,23.5590891 8.95795195,23.5877175 9.02485502,23.6575429 C9.20068572,23.8401363 9.60916429,24.3215824 10.4916797,24.3215824 L21.7754381,24.3215824 C23.6941107,24.3215824 24.1022531,22.3741521 23.7936248,21.6650752 C23.6598187,21.3581925 23.5835021,21.1371952 23.8608641,20.9884671 C24.4989648,20.6435296 24.7867488,19.270064 24.4451733,18.6060245 C24.2454727,18.2174462 24.2138703,17.9870224 24.4898875,17.736 C25.1175661,17.1616862 25.4379612,15.7993927 24.7433795,14.9073732 C24.5043439,14.5990941 24.4898875,14.2977975 24.7538016,14.0237328 Z" id="Fill-1"></path>
            <path d="M0.0104220871,11.1284227 L0.0104220871,25.48627 L7.86901194,25.48627 L7.86901194,11.1284227 L0.0104220871,11.1284227 Z M3.93988511,23.6097125 C3.17402981,23.6097125 2.55307514,22.9645258 2.55307514,22.1695637 C2.55307514,21.3746015 3.17402981,20.7294148 3.93988511,20.7294148 C4.70540422,20.7294148 5.32669509,21.3746015 5.32669509,22.1695637 C5.32669509,22.9645258 4.70540422,23.6097125 3.93988511,23.6097125 Z" id="Fill-2"></path>
        </g>
    </g>
</svg>