<?xml version="1.0" encoding="UTF-8"?>
<svg width="30px" height="29px" viewBox="0 0 30 29" version="1.1" xmlns="http://www.w3.org/2000/svg" xmlns:xlink="http://www.w3.org/1999/xlink">
    <!-- Generator: Sketch 48.2 (47327) - http://www.bohemiancoding.com/sketch -->
    <title>Like Button Copy 3</title>
    <desc>Created with Sketch.</desc>
    <defs></defs>
    <g id="Icons" stroke="none" stroke-width="1" fill="none" fill-rule="evenodd" transform="translate(-38.000000, -54.000000)">
        <g id="Like-Button-Copy-3" transform="translate(38.000000, 54.000000)" fill="#224F59">
            <path d="M29.4504627,16.1006253 C29.7684704,15.7823243 30.0453668,15.2401233 29.9937762,13.9164914 C29.9401703,12.5928594 28.2396958,11.3886408 27.0716523,11.3886408 C25.7363425,11.3886408 24.0487655,11.3854134 23.067738,11.3854134 C22.3168529,11.3854134 21.6695521,11.3462813 21.6695521,10.5124053 C21.6695521,9.83828487 22.4333348,9.15730628 23.0379122,8.19917586 C23.7509104,7.06757341 24.3667732,5.95533527 24.3667732,3.97129931 C24.3667732,2.53228827 23.5336656,0 21.7279946,0 C20.0686313,0 20.0226834,2.57787511 19.4072237,4.07054145 C18.5144644,6.2341008 15.9748365,7.56418753 15.1026329,8.89427427 C14.532718,9.76244129 12.1111841,14.1561248 11.4925,14.1561248 L10,14.1561248 L10,14.4885457 C10.0048366,14.5325188 10.0108824,14.5752817 10.0108824,14.6192548 L10.0108824,26.8494366 C10.0108824,26.903092 10.0064488,26.9551336 10,27.0071752 L10,27.1064173 C10.2833453,27.1189234 10.5134877,27.1520041 10.593695,27.2326888 C10.8044909,27.4436792 11.2941986,28 12.352209,28 L25.8798288,28 C28.1800441,28 28.6693487,25.7497046 28.2993474,24.9303518 C28.1389329,24.5757427 28.0474402,24.3203758 28.3799577,24.1485174 C29.1449496,23.7499352 29.4899617,22.1628678 29.0804613,21.3955566 C28.8410487,20.9465464 28.8031619,20.680287 29.1340672,20.3902256 C29.8865645,19.7265942 30.2706726,18.1524364 29.4379681,17.1216898 C29.1513984,16.765467 29.1340672,16.4173126 29.4504627,16.1006253 Z" id="Fill-1"></path>
            <path d="M0,12 L0,29 L9,29 L9,12 L0,12 Z M4.50019251,26.7781155 C3.6231016,26.7781155 2.91195722,26.0142006 2.91195722,25.0729483 C2.91195722,24.131696 3.6231016,23.3677812 4.50019251,23.3677812 C5.3768984,23.3677812 6.08842781,24.131696 6.08842781,25.0729483 C6.08842781,26.0142006 5.3768984,26.7781155 4.50019251,26.7781155 Z" id="Fill-2"></path>
        </g>
    </g>
</svg>