<?xml version="1.0" encoding="UTF-8"?>
<svg width="63px" height="60px" viewBox="0 0 63 60" version="1.1" xmlns="http://www.w3.org/2000/svg" xmlns:xlink="http://www.w3.org/1999/xlink">
    <!-- Generator: Sketch 49.2 (51160) - http://www.bohemiancoding.com/sketch -->
    <title>Group 7 Copy 2</title>
    <desc>Created with Sketch.</desc>
    <defs></defs>
    <g id="Page-1" stroke="none" stroke-width="1" fill="none" fill-rule="evenodd">
        <g id="Following-Feed" transform="translate(-688.000000, -120.000000)">
            <g id="Group-7-Copy-2" transform="translate(688.000000, 121.000000)">
                <g id="Group-5-Copy-2" transform="translate(33.597929, 0.000000)" stroke="#224F59" stroke-width="1.5">
                    <ellipse id="Oval-2" cx="9.36940743" cy="10.0596998" rx="9.08335029" ry="10.046281"></ellipse>
                    <path d="M2.5519895,23.5031824 C19.6906606,22.0097743 28.2599962,27.3162304 28.2599962,39.4225507" id="Path-2"></path>
                    <path d="M29.0421715,39.8705 C25.167027,40.1989499 22.1257559,40.4735813 19.9183582,40.694394 C16.6132121,41.0250177 13.105948,41.2549726 9.39656598,41.3842586" id="Path-3"></path>
                </g>
                <g id="Group-5-Copy" transform="translate(0.000000, 12.424504)" fill="#224F59">
                    <path d="M0.904045302,44.4067802 C0.904045302,44.4067802 -2.96440177,25.0879405 21.3816621,25.0879405 C45.727726,25.0879405 43.2274511,44.4426293 43.2274511,44.4426293 C43.2274511,44.4426293 33.5485028,46.4623131 21.3816621,46.4623131 C9.21482145,46.4623131 0.904045302,44.4067802 0.904045302,44.4067802 Z" id="Path-4"></path>
                    <ellipse id="Oval-2" cx="22.0574642" cy="11.655555" rx="9.86524797" ry="11.6403898"></ellipse>
                </g>
            </g>
        </g>
    </g>
</svg>