<?xml version="1.0" encoding="UTF-8"?>
<svg width="92px" height="46px" viewBox="0 0 92 46" version="1.1" xmlns="http://www.w3.org/2000/svg" xmlns:xlink="http://www.w3.org/1999/xlink">
    <!-- Generator: Sketch 48.1 (47250) - http://www.bohemiancoding.com/sketch -->
    <title>Audience Button (Active)</title>
    <desc>Created with Sketch.</desc>
    <defs></defs>
    <g id="Symbols" stroke="none" stroke-width="1" fill="none" fill-rule="evenodd">
        <g id="Audience-Button-(Active)">
            <g>
                <g id="Group-7-Copy">
                    <rect id="Rectangle-6" fill="#FFE37A" x="0" y="0" width="92" height="46"></rect>
                    <g id="Group-5-Copy-2" transform="translate(48.930769, 0.000000)" stroke="#A78400" stroke-width="1.5">
                        <path d="M0.768129217,17.3810712 C0.78558212,17.3844718 0.803423097,17.3879287 0.821650156,17.39144 C1.28796267,17.4812735 1.82914239,17.5713896 2.43824801,17.6556701 C4.18403763,17.8972309 6.11903819,18.0423278 8.1875948,18.0423278 C10.2590085,18.0423278 12.2992031,17.8993746 14.217805,17.6611732 C14.8886789,17.5778817 15.495873,17.4887338 16.0281808,17.3997508 C16.0549486,17.3952762 16.0810234,17.3908886 16.1063985,17.3865917 C16.1055967,16.5406327 15.923617,15.5743739 15.4494267,14.6550127 C14.3891367,12.5993199 12.1298388,11.3538362 8.1875948,11.3538362 C4.25793602,11.3538362 2.11381097,12.583077 1.21523701,14.6084944 C0.810151952,15.5215705 0.698810754,16.4991437 0.768129217,17.3810712 Z" id="Path-4"></path>
                        <ellipse id="Oval-2" cx="7.87211798" cy="4.91945614" rx="3.55288721" ry="4.16945614"></ellipse>
                    </g>
                    <g id="Group-5-Copy-3" transform="translate(34.430769, 9.500000) scale(-1, 1) translate(-34.430769, -9.500000) translate(25.930769, 0.000000)" stroke="#A78400" stroke-width="1.5">
                        <path d="M0.768129217,17.3810712 C0.78558212,17.3844718 0.803423097,17.3879287 0.821650156,17.39144 C1.28796267,17.4812735 1.82914239,17.5713896 2.43824801,17.6556701 C4.18403763,17.8972309 6.11903819,18.0423278 8.1875948,18.0423278 C10.2590085,18.0423278 12.2992031,17.8993746 14.217805,17.6611732 C14.8886789,17.5778817 15.495873,17.4887338 16.0281808,17.3997508 C16.0549486,17.3952762 16.0810234,17.3908886 16.1063985,17.3865917 C16.1055967,16.5406327 15.923617,15.5743739 15.4494267,14.6550127 C14.3891367,12.5993199 12.1298388,11.3538362 8.1875948,11.3538362 C4.25793602,11.3538362 2.11381097,12.583077 1.21523701,14.6084944 C0.810151952,15.5215705 0.698810754,16.4991437 0.768129217,17.3810712 Z" id="Path-4"></path>
                        <ellipse id="Oval-2" cx="8.12788202" cy="4.91945614" rx="3.55288721" ry="4.16945614"></ellipse>
                    </g>
                    <ellipse id="Oval" fill="#FFE37A" cx="45.8653846" cy="7.71153846" rx="6.86538462" ry="7.25"></ellipse>
                    <path d="M46.0576923,23 C49.2329376,23 54.6721266,23.3827575 56.387498,22.2651174 C57.7457593,21.3801502 57.3609892,19.7822294 56.6689102,17.8653846 C55.9768312,15.9485399 52.100962,12.7307692 46.0576923,12.7307692 C40.0144226,12.7307692 36.139041,15.2190812 35.1153846,17.8653846 C34.0917282,20.5116881 34.1394335,21.3663245 35.7871885,22.2651174 C37.793909,23.3597134 42.7392535,23 46.0576923,23 Z" id="Oval-Copy-3" fill="#FFE37A"></path>
                    <g id="Group-5-Copy" transform="translate(36.223077, 1.296526)" fill="#FFE37A" stroke="#A78400" stroke-width="1.5">
                        <path d="M0.105585882,21.5769784 C0.105585882,21.5769784 -1.66541451,13.11867 9.48037292,13.11867 C20.6261604,13.11867 19.4815181,21.5926741 19.4815181,21.5926741 C19.4815181,21.5926741 15.0504322,22.4769461 9.48037292,22.4769461 C3.91031361,22.4769461 0.105585882,21.5769784 0.105585882,21.5769784 Z" id="Path-4"></path>
                        <ellipse id="Oval-2" cx="9.52692928" cy="5.95170854" rx="4.6500001" ry="5.2482346"></ellipse>
                    </g>
                </g>
                <path d="M18.2539062,42 L17.1132812,38.828125 L12.7460938,38.828125 L11.6289062,42 L9.66015625,42 L13.9335938,30.53125 L15.9648438,30.53125 L20.2382812,42 L18.2539062,42 Z M16.6210938,37.21875 L15.5507812,34.109375 C15.4726559,33.9010406 15.364584,33.5729189 15.2265625,33.125 C15.088541,32.6770811 14.9934898,32.3489594 14.9414062,32.140625 C14.8007805,32.7812532 14.5950534,33.481767 14.3242188,34.2421875 L13.2929688,37.21875 L16.6210938,37.21875 Z M27.6445312,42 L27.3867188,40.8671875 L27.2929688,40.8671875 C27.0377591,41.2682312 26.6744815,41.5833322 26.203125,41.8125 C25.7317685,42.0416678 25.1940134,42.15625 24.5898438,42.15625 C23.5429635,42.15625 22.7617213,41.8958359 22.2460938,41.375 C21.7304662,40.8541641 21.4726562,40.0651095 21.4726562,39.0078125 L21.4726562,33.359375 L23.3242188,33.359375 L23.3242188,38.6875 C23.3242188,39.3489616 23.4596341,39.8450504 23.7304688,40.1757812 C24.0013034,40.5065121 24.4257784,40.671875 25.0039062,40.671875 C25.7747434,40.671875 26.341144,40.4414086 26.703125,39.9804688 C27.065106,39.5195289 27.2460938,38.7474012 27.2460938,37.6640625 L27.2460938,33.359375 L29.0898438,33.359375 L29.0898438,42 L27.6445312,42 Z M34.6210938,42.15625 C33.5429634,42.15625 32.7018259,41.7656289 32.0976562,40.984375 C31.4934866,40.2031211 31.1914063,39.1067779 31.1914063,37.6953125 C31.1914063,36.2786387 31.4973928,35.1757852 32.109375,34.3867188 C32.7213572,33.5976523 33.569005,33.203125 34.6523438,33.203125 C35.7877661,33.203125 36.6523408,33.6223916 37.2460938,34.4609375 L37.3398438,34.4609375 C37.2513016,33.8411427 37.2070312,33.3515643 37.2070312,32.9921875 L37.2070312,29.84375 L39.0507812,29.84375 L39.0507812,42 L37.6132812,42 L37.2929688,40.8671875 L37.2070312,40.8671875 C36.6184866,41.7265668 35.7565161,42.15625 34.6210938,42.15625 Z M35.1132812,40.671875 C35.8684934,40.671875 36.417967,40.4596375 36.7617188,40.0351562 C37.1054705,39.610675 37.282552,38.9218798 37.2929688,37.96875 L37.2929688,37.7109375 C37.2929688,36.6223904 37.1158872,35.8489606 36.7617188,35.390625 C36.4075503,34.9322894 35.8528684,34.703125 35.0976562,34.703125 C34.4518197,34.703125 33.9544288,34.9648411 33.6054688,35.4882812 C33.2565087,36.0117214 33.0820312,36.7578077 33.0820312,37.7265625 C33.0820312,38.6849006 33.2513004,39.4153621 33.5898438,39.9179688 C33.9283871,40.4205754 34.4361945,40.671875 35.1132812,40.671875 Z M43.5117188,42 L41.6757812,42 L41.6757812,33.359375 L43.5117188,33.359375 L43.5117188,42 Z M41.5664062,31.0703125 C41.5664062,30.7421859 41.6562491,30.4895842 41.8359375,30.3125 C42.0156259,30.1354158 42.2721338,30.046875 42.6054688,30.046875 C42.928387,30.046875 43.1796866,30.1354158 43.359375,30.3125 C43.5390634,30.4895842 43.6289062,30.7421859 43.6289062,31.0703125 C43.6289062,31.3828141 43.5390634,31.6289054 43.359375,31.8085938 C43.1796866,31.9882821 42.928387,32.078125 42.6054688,32.078125 C42.2721338,32.078125 42.0156259,31.9882821 41.8359375,31.8085938 C41.6562491,31.6289054 41.5664062,31.3828141 41.5664062,31.0703125 Z M49.9101563,42.15625 C48.5663995,42.15625 47.5156288,41.7643268 46.7578125,40.9804688 C45.9999962,40.1966107 45.6210938,39.1171944 45.6210938,37.7421875 C45.6210938,36.3307221 45.9726527,35.2213582 46.6757813,34.4140625 C47.3789098,33.6067668 48.3450459,33.203125 49.5742188,33.203125 C50.7148495,33.203125 51.6158821,33.5494757 52.2773438,34.2421875 C52.9388054,34.9348993 53.2695313,35.8880148 53.2695313,37.1015625 L53.2695313,38.09375 L47.5117188,38.09375 C47.5377605,38.9322959 47.7643208,39.5768207 48.1914063,40.0273438 C48.6184917,40.4778668 49.2200482,40.703125 49.9960938,40.703125 C50.506513,40.703125 50.9817686,40.6549484 51.421875,40.5585938 C51.8619814,40.4622391 52.3346329,40.3020845 52.8398438,40.078125 L52.8398438,41.5703125 C52.3919248,41.7838552 51.9388044,41.9348954 51.4804688,42.0234375 C51.0221331,42.1119796 50.4987009,42.15625 49.9101563,42.15625 Z M49.5742188,34.59375 C48.9908825,34.59375 48.5234393,34.778644 48.171875,35.1484375 C47.8203107,35.518231 47.6106774,36.0572881 47.5429688,36.765625 L51.4648438,36.765625 C51.454427,36.0520798 51.2825537,35.5117206 50.9492188,35.1445312 C50.6158838,34.7773419 50.157555,34.59375 49.5742188,34.59375 Z M62.9570312,42 L61.1132812,42 L61.1132812,36.6875 C61.1132812,36.02083 60.979168,35.5234391 60.7109375,35.1953125 C60.442707,34.8671859 60.01693,34.703125 59.4335938,34.703125 C58.6575482,34.703125 58.0898455,34.9322894 57.7304688,35.390625 C57.371092,35.8489606 57.1914062,36.6171821 57.1914062,37.6953125 L57.1914062,42 L55.3554688,42 L55.3554688,33.359375 L56.7929688,33.359375 L57.0507812,34.4921875 L57.1445312,34.4921875 C57.4049492,34.0807271 57.7747372,33.763022 58.2539062,33.5390625 C58.7330753,33.315103 59.26432,33.203125 59.8476562,33.203125 C61.9205833,33.203125 62.9570312,34.257802 62.9570312,36.3671875 L62.9570312,42 Z M68.9960938,42.15625 C67.6887955,42.15625 66.6953159,41.7747434 66.015625,41.0117188 C65.3359341,40.2486941 64.9960938,39.153653 64.9960938,37.7265625 C64.9960938,36.2734302 65.3515589,35.1562539 66.0625,34.375 C66.7734411,33.5937461 67.8007745,33.203125 69.1445312,33.203125 C70.0559941,33.203125 70.8762984,33.3723941 71.6054688,33.7109375 L71.0507812,35.1875 C70.2747357,34.8854152 69.6341171,34.734375 69.1289062,34.734375 C67.6341071,34.734375 66.8867188,35.7265526 66.8867188,37.7109375 C66.8867188,38.6796923 67.0729148,39.4075496 67.4453125,39.8945312 C67.8177102,40.3815129 68.3632777,40.625 69.0820312,40.625 C69.8997437,40.625 70.6731734,40.421877 71.4023438,40.015625 L71.4023438,41.6171875 C71.0742171,41.8098968 70.7239602,41.9479162 70.3515625,42.03125 C69.9791648,42.1145838 69.5273464,42.15625 68.9960938,42.15625 Z M77.2070312,42.15625 C75.8632745,42.15625 74.8125038,41.7643268 74.0546875,40.9804688 C73.2968712,40.1966107 72.9179688,39.1171944 72.9179688,37.7421875 C72.9179688,36.3307221 73.2695277,35.2213582 73.9726562,34.4140625 C74.6757848,33.6067668 75.6419209,33.203125 76.8710938,33.203125 C78.0117245,33.203125 78.9127571,33.5494757 79.5742188,34.2421875 C80.2356804,34.9348993 80.5664062,35.8880148 80.5664062,37.1015625 L80.5664062,38.09375 L74.8085938,38.09375 C74.8346355,38.9322959 75.0611958,39.5768207 75.4882812,40.0273438 C75.9153667,40.4778668 76.5169232,40.703125 77.2929688,40.703125 C77.803388,40.703125 78.2786436,40.6549484 78.71875,40.5585938 C79.1588564,40.4622391 79.6315079,40.3020845 80.1367188,40.078125 L80.1367188,41.5703125 C79.6887998,41.7838552 79.2356794,41.9348954 78.7773438,42.0234375 C78.3190081,42.1119796 77.7955759,42.15625 77.2070312,42.15625 Z M76.8710938,34.59375 C76.2877575,34.59375 75.8203143,34.778644 75.46875,35.1484375 C75.1171857,35.518231 74.9075524,36.0572881 74.8398438,36.765625 L78.7617188,36.765625 C78.751302,36.0520798 78.5794288,35.5117206 78.2460938,35.1445312 C77.9127587,34.7773419 77.45443,34.59375 76.8710938,34.59375 Z" id="Audience" fill="#A78400"></path>
            </g>
        </g>
    </g>
</svg>