<?xml version="1.0" encoding="UTF-8"?>
<svg width="140px" height="127px" viewBox="0 0 140 127" version="1.1" xmlns="http://www.w3.org/2000/svg" xmlns:xlink="http://www.w3.org/1999/xlink">
    <!-- Generator: Sketch 46.2 (44496) - http://www.bohemiancoding.com/sketch -->
    <title>icon-alert</title>
    <desc>Created with Sketch.</desc>
    <defs></defs>
    <g id="Page-1" stroke="none" stroke-width="1" fill="none" fill-rule="evenodd">
        <g id="Email-Already-Exists" transform="translate(-374.000000, -342.000000)" fill-rule="nonzero" fill="#CA461C">
            <g id="icon-alert" transform="translate(374.000000, 342.000000)">
                <path d="M135.809916,91.5001639 L89.6672818,11.533153 C85.5632869,4.42121547 77.91446,0 69.7064702,0 C61.5010812,0 53.854855,4.41861323 49.7482593,11.5305508 L3.07507039,92.4135522 C-1.02632374,99.5228875 -1.02372298,108.362716 3.07507039,115.466847 C7.18166603,122.576182 14.8278922,127 23.035882,127 L116.400465,127 C116.462883,127 116.530503,127 116.598123,127 C129.219598,126.898512 139.450976,116.591017 139.450976,103.946705 C139.453577,99.5046717 138.19221,95.2161708 135.809916,91.5001639 Z M62.8915845,32.372549 L76.5540117,32.372549 C77.5958559,32.372549 78.4411765,33.1840635 78.4411765,34.1874377 L74.6722311,84.096876 C74.6722311,85.1002502 73.8296025,85.9117647 72.7877583,85.9117647 L66.663222,85.9117647 C65.6213778,85.9117647 64.7787493,85.1002502 64.7787493,84.096876 L61.0098039,34.1874377 C61.0098039,33.1866562 61.8497403,32.372549 62.8915845,32.372549 Z M69.7267672,109.568627 C64.9149422,109.568627 61.0098039,105.668026 61.0098039,100.852941 C61.0098039,96.040411 64.9123881,92.1372549 69.7267672,92.1372549 C74.5411463,92.1372549 78.4411765,96.040411 78.4411765,100.852941 C78.4411765,105.668026 74.5411463,109.568627 69.7267672,109.568627 Z" id="Shape"></path>
            </g>
        </g>
    </g>
</svg>