<?xml version="1.0" encoding="UTF-8"?>
<svg width="92px" height="46px" viewBox="0 0 92 46" version="1.1" xmlns="http://www.w3.org/2000/svg" xmlns:xlink="http://www.w3.org/1999/xlink">
    <!-- Generator: Sketch 49 (51002) - http://www.bohemiancoding.com/sketch -->
    <title>Attach Button (Inactive)</title>
    <desc>Created with Sketch.</desc>
    <defs></defs>
    <g id="Page-1" stroke="none" stroke-width="1" fill="none" fill-rule="evenodd">
        <g id="Document-Icons" transform="translate(-422.000000, -52.000000)" fill="#E56841">
            <g id="Attach-Button-(Inactive)" transform="translate(422.000000, 52.000000)">
                <g transform="translate(21.000000, 0.000000)">
                    <path d="M8.59375,42 L7.453125,38.828125 L3.0859375,38.828125 L1.96875,42 L0,42 L4.2734375,30.53125 L6.3046875,30.53125 L10.578125,42 L8.59375,42 Z M6.9609375,37.21875 L5.890625,34.109375 C5.81249961,33.9010406 5.70442777,33.5729189 5.56640625,33.125 C5.42838473,32.6770811 5.33333359,32.3489594 5.28125,32.140625 C5.1406243,32.7812532 4.93489719,33.481767 4.6640625,34.2421875 L3.6328125,37.21875 L6.9609375,37.21875 Z M15.109375,40.671875 C15.5572939,40.671875 16.0052061,40.6015632 16.453125,40.4609375 L16.453125,41.84375 C16.249999,41.9322921 15.9882829,42.0065101 15.6679688,42.0664062 C15.3476546,42.1263024 15.0156267,42.15625 14.671875,42.15625 C12.932283,42.15625 12.0625,41.2395925 12.0625,39.40625 L12.0625,34.75 L10.8828125,34.75 L10.8828125,33.9375 L12.1484375,33.265625 L12.7734375,31.4375 L13.90625,31.4375 L13.90625,33.359375 L16.3671875,33.359375 L16.3671875,34.75 L13.90625,34.75 L13.90625,39.375 C13.90625,39.8177105 14.016926,40.1445302 14.2382812,40.3554688 C14.4596365,40.5664073 14.7499982,40.671875 15.109375,40.671875 Z M21.3984375,40.671875 C21.8463564,40.671875 22.2942686,40.6015632 22.7421875,40.4609375 L22.7421875,41.84375 C22.5390615,41.9322921 22.2773454,42.0065101 21.9570312,42.0664062 C21.6367171,42.1263024 21.3046892,42.15625 20.9609375,42.15625 C19.2213455,42.15625 18.3515625,41.2395925 18.3515625,39.40625 L18.3515625,34.75 L17.171875,34.75 L17.171875,33.9375 L18.4375,33.265625 L19.0625,31.4375 L20.1953125,31.4375 L20.1953125,33.359375 L22.65625,33.359375 L22.65625,34.75 L20.1953125,34.75 L20.1953125,39.375 C20.1953125,39.8177105 20.3059885,40.1445302 20.5273438,40.3554688 C20.748699,40.5664073 21.0390607,40.671875 21.3984375,40.671875 Z M29.875,42 L29.5078125,40.796875 L29.4453125,40.796875 C29.0286438,41.3229193 28.6093771,41.6809886 28.1875,41.8710938 C27.7656229,42.0611989 27.2239616,42.15625 26.5625,42.15625 C25.7135374,42.15625 25.0507836,41.9270856 24.5742188,41.46875 C24.0976539,41.0104144 23.859375,40.3619834 23.859375,39.5234375 C23.859375,38.632808 24.1901009,37.9609398 24.8515625,37.5078125 C25.5130241,37.0546852 26.5208266,36.8072919 27.875,36.765625 L29.3671875,36.71875 L29.3671875,36.2578125 C29.3671875,35.7057264 29.2382825,35.2929701 28.9804688,35.0195312 C28.722655,34.7460924 28.3229194,34.609375 27.78125,34.609375 C27.3385395,34.609375 26.9140645,34.6744785 26.5078125,34.8046875 C26.1015605,34.9348965 25.7109394,35.0885408 25.3359375,35.265625 L24.7421875,33.953125 C25.2109398,33.7083321 25.7239555,33.5221361 26.28125,33.3945312 C26.8385445,33.2669264 27.3645809,33.203125 27.859375,33.203125 C28.9583388,33.203125 29.7877576,33.4427059 30.3476562,33.921875 C30.9075549,34.4010441 31.1875,35.1536407 31.1875,36.1796875 L31.1875,42 L29.875,42 Z M27.140625,40.75 C27.807295,40.75 28.3424459,40.5638039 28.7460938,40.1914062 C29.1497416,39.8190086 29.3515625,39.2968784 29.3515625,38.625 L29.3515625,37.875 L28.2421875,37.921875 C27.3775998,37.9531252 26.7486999,38.097655 26.3554688,38.3554688 C25.9622376,38.6132825 25.765625,39.0078098 25.765625,39.5390625 C25.765625,39.9244811 25.8802072,40.2226552 26.109375,40.4335938 C26.3385428,40.6445323 26.6822894,40.75 27.140625,40.75 Z M37.234375,42.15625 C35.9270768,42.15625 34.9335971,41.7747434 34.2539063,41.0117188 C33.5742154,40.2486941 33.234375,39.153653 33.234375,37.7265625 C33.234375,36.2734302 33.5898402,35.1562539 34.3007813,34.375 C35.0117223,33.5937461 36.0390558,33.203125 37.3828125,33.203125 C38.2942754,33.203125 39.1145797,33.3723941 39.84375,33.7109375 L39.2890625,35.1875 C38.513017,34.8854152 37.8723984,34.734375 37.3671875,34.734375 C35.8723884,34.734375 35.125,35.7265526 35.125,37.7109375 C35.125,38.6796923 35.3111961,39.4075496 35.6835938,39.8945312 C36.0559914,40.3815129 36.6015589,40.625 37.3203125,40.625 C38.1380249,40.625 38.9114547,40.421877 39.640625,40.015625 L39.640625,41.6171875 C39.3124984,41.8098968 38.9622414,41.9479162 38.5898438,42.03125 C38.2174461,42.1145838 37.7656277,42.15625 37.234375,42.15625 Z M49.2734375,42 L47.4296875,42 L47.4296875,36.6875 C47.4296875,36.02083 47.2955743,35.5234391 47.0273438,35.1953125 C46.7591132,34.8671859 46.3333363,34.703125 45.75,34.703125 C44.9791628,34.703125 44.4127622,34.9335914 44.0507812,35.3945312 C43.6888003,35.8554711 43.5078125,36.6275988 43.5078125,37.7109375 L43.5078125,42 L41.671875,42 L41.671875,29.84375 L43.5078125,29.84375 L43.5078125,32.9296875 C43.5078125,33.4244816 43.4765628,33.9531222 43.4140625,34.515625 L43.53125,34.515625 C43.7812513,34.0989563 44.128904,33.7760428 44.5742188,33.546875 C45.0195335,33.3177072 45.5390595,33.203125 46.1328125,33.203125 C48.226573,33.203125 49.2734375,34.257802 49.2734375,36.3671875 L49.2734375,42 Z" id="Attach"></path>
                    <path d="M18.6788849,26 C17.0346629,26 15.3888093,25.3739608 14.1361659,24.1218824 C11.6316947,21.6173176 11.6316947,17.542149 14.1361659,15.0375843 L21.3077639,7.86688627 C22.1749472,7.00021961 23.3268408,6.52222745 24.5521553,6.52222745 C25.7774699,6.52222745 26.930995,7.00021961 27.7961389,7.86688627 C28.6629143,8.73355294 29.1409665,9.88530196 29.1409665,11.1104627 C29.1409665,12.3356235 28.6629143,13.4873725 27.7961389,14.3540392 L22.0566578,20.0944314 C21.6985266,20.4525176 21.1185009,20.4525176 20.7599618,20.0944314 C20.4014227,19.7359373 20.4014227,19.1559843 20.7599618,18.7974902 L26.5006665,13.0575059 C27.019916,12.5379137 27.3070736,11.8466196 27.3070736,11.1104627 C27.3070736,10.3743059 27.019916,9.68464314 26.5006665,9.16382745 C25.9797855,8.64423529 25.2896283,8.35752157 24.5537869,8.35752157 C23.8191692,8.35752157 23.1273804,8.64423529 22.6064994,9.16382745 L15.4349014,16.3345255 C13.645469,18.1233255 13.645469,21.034102 15.4349014,22.8233098 C17.2243338,24.6125176 20.1354756,24.6125176 21.9245001,22.8233098 L35.0807236,9.66710588 C36.870156,7.87789804 36.870156,4.96752941 35.0807236,3.17832157 C34.2139482,2.3116549 33.060423,1.83366275 31.8367401,1.83366275 C30.6097939,1.83366275 29.4595319,2.3116549 28.5911249,3.17832157 L27.0680475,4.70120784 C26.7095084,5.05970196 26.1294827,5.05970196 25.7709436,4.70120784 C25.4124044,4.34271373 25.4124044,3.76316863 25.7709436,3.40467451 L27.294021,1.88138039 C28.5066908,0.667639216 30.1207286,0 31.8367401,0 C33.5527515,0 35.1667893,0.669270588 36.3794591,1.88138039 C38.8839303,4.3859451 38.8839303,8.46111373 36.3794591,10.9656784 L23.221604,24.1218824 C21.9693685,25.3739608 20.3247385,26 18.6788849,26 Z" id="Page-1-Copy-4"></path>
                </g>
            </g>
        </g>
    </g>
</svg>