<?xml version="1.0" encoding="UTF-8"?>
<svg width="41px" height="32px" viewBox="0 0 41 32" version="1.1" xmlns="http://www.w3.org/2000/svg" xmlns:xlink="http://www.w3.org/1999/xlink">
    <!-- Generator: Sketch 47.1 (45422) - http://www.bohemiancoding.com/sketch -->
    <title>Camera</title>
    <desc>Created with Sketch.</desc>
    <defs>
        <path d="M33.93,5.06493506 L28.08,5.06493506 C28.08,2.26649351 25.81124,0 23.01,0 L15.99,0 C13.18876,0 10.92,2.26649351 10.92,5.06493506 L5.07,5.06493506 C2.26876,5.06493506 0,7.33142857 0,10.1298701 L0,24.9350649 C0,27.7335065 2.26876,30 5.07,30 L33.93,30 C36.73124,30 39,27.7335065 39,24.9350649 L39,10.1298701 C39,7.33142857 36.73124,5.06493506 33.93,5.06493506 Z M19.5,26.4935065 C14.55376,26.4935065 10.53,22.4737662 10.53,17.5324675 C10.53,12.5911688 14.55376,8.57142857 19.5,8.57142857 C24.44624,8.57142857 28.47,12.5911688 28.47,17.5324675 C28.47,22.4737662 24.44624,26.4935065 19.5,26.4935065 Z" id="path-1"></path>
    </defs>
    <g id="Page-1" stroke="none" stroke-width="1" fill="none" fill-rule="evenodd">
        <g id="User's-Profile-Copy-4" transform="translate(-429.000000, -343.000000)">
            <g id="Natasha-Grace" transform="translate(323.000000, 229.000000)">
                <g id="Camera" transform="translate(107.000000, 115.000000)">
                    <path d="M19.5,8 C13.7115385,8 9,12.4871795 9,18 C9,23.5128205 13.7115385,28 19.5,28 C25.2884615,28 30,23.5128205 30,18 C30,12.4871795 25.2884615,8 19.5,8 Z" id="Fill-1-Copy" fill="#FFFFFF"></path>
                    <path d="M19.5,12 C16.4679487,12 14,14.4679487 14,17.5 C14,20.5320513 16.4679487,23 19.5,23 C22.5320513,23 25,20.5320513 25,17.5 C25,14.4679487 22.5320513,12 19.5,12 Z" id="Fill-1" fill="#E56841"></path>
                    <g id="Fill-2">
                        <use fill="#E56841" fill-rule="evenodd" xlink:href="#path-1"></use>
                        <path stroke="#FFFFFF" stroke-width="1" d="M10.4421521,4.56493506 C10.695014,1.72473554 13.0813977,-0.5 15.99,-0.5 L23.01,-0.5 C25.9186023,-0.5 28.304986,1.72473554 28.5578479,4.56493506 L33.93,4.56493506 C37.0072706,4.56493506 39.5,7.05517426 39.5,10.1298701 L39.5,24.9350649 C39.5,28.0097608 37.0072706,30.5 33.93,30.5 L5.07,30.5 C1.99272944,30.5 -0.5,28.0097608 -0.5,24.9350649 L-0.5,10.1298701 C-0.5,7.05517426 1.99272944,4.56493506 5.07,4.56493506 L10.4421521,4.56493506 Z M19.5,25.9935065 C24.1702094,25.9935065 27.97,22.1975119 27.97,17.5324675 C27.97,12.8674231 24.1702094,9.07142857 19.5,9.07142857 C14.8297906,9.07142857 11.03,12.8674231 11.03,17.5324675 C11.03,22.1975119 14.8297906,25.9935065 19.5,25.9935065 Z"></path>
                    </g>
                </g>
            </g>
        </g>
    </g>
</svg>