<?xml version="1.0" encoding="UTF-8"?>
<svg width="26px" height="26px" viewBox="0 0 26 26" version="1.1" xmlns="http://www.w3.org/2000/svg" xmlns:xlink="http://www.w3.org/1999/xlink">
    <!-- Generator: Sketch 49 (51002) - http://www.bohemiancoding.com/sketch -->
    <title>Page 1 Copy 5</title>
    <desc>Created with Sketch.</desc>
    <defs></defs>
    <g id="Page-1" stroke="none" stroke-width="1" fill="none" fill-rule="evenodd">
        <g id="Cards-with-Attachments" transform="translate(-234.000000, -503.000000)" fill="#838383">
            <g id="Posted-to-Loyola-Copy-14" transform="translate(140.000000, 465.000000)">
                <g id="Group-Copy-5">
                    <g id="Group-2">
                        <g transform="translate(20.000000, 20.000000)" id="39">
                            <g>
                                <path d="M80.4210724,44 C78.7768504,44 77.1309968,43.3739608 75.8783534,42.1218824 C73.3738822,39.6173176 73.3738822,35.542149 75.8783534,33.0375843 L83.0499514,25.8668863 C83.9171347,25.0002196 85.0690283,24.5222275 86.2943428,24.5222275 C87.5196574,24.5222275 88.6731825,25.0002196 89.5383264,25.8668863 C90.4051018,26.7335529 90.883154,27.885302 90.883154,29.1104627 C90.883154,30.3356235 90.4051018,31.4873725 89.5383264,32.3540392 L83.7988453,38.0944314 C83.4407141,38.4525176 82.8606884,38.4525176 82.5021493,38.0944314 C82.1436102,37.7359373 82.1436102,37.1559843 82.5021493,36.7974902 L88.242854,31.0575059 C88.7621035,30.5379137 89.0492611,29.8466196 89.0492611,29.1104627 C89.0492611,28.3743059 88.7621035,27.6846431 88.242854,27.1638275 C87.721973,26.6442353 87.0318158,26.3575216 86.2959744,26.3575216 C85.5613567,26.3575216 84.8695679,26.6442353 84.3486869,27.1638275 L77.1770889,34.3345255 C75.3876565,36.1233255 75.3876565,39.034102 77.1770889,40.8233098 C78.9665213,42.6125176 81.8776631,42.6125176 83.6666876,40.8233098 L96.8229111,27.6671059 C98.6123435,25.877898 98.6123435,22.9675294 96.8229111,21.1783216 C95.9561357,20.3116549 94.8026105,19.8336627 93.5789276,19.8336627 C92.3519814,19.8336627 91.2017194,20.3116549 90.3333124,21.1783216 L88.810235,22.7012078 C88.4516959,23.059702 87.8716702,23.059702 87.5131311,22.7012078 C87.1545919,22.3427137 87.1545919,21.7631686 87.5131311,21.4046745 L89.0362085,19.8813804 C90.2488783,18.6676392 91.8629161,18 93.5789276,18 C95.294939,18 96.9089768,18.6692706 98.1216466,19.8813804 C100.626118,22.3859451 100.626118,26.4611137 98.1216466,28.9656784 L84.9637915,42.1218824 C83.711556,43.3739608 82.066926,44 80.4210724,44 Z" id="Page-1-Copy-5"></path>
                            </g>
                        </g>
                    </g>
                </g>
            </g>
        </g>
    </g>
</svg>