<?xml version="1.0" encoding="UTF-8"?>
<svg width="28px" height="40px" viewBox="0 0 28 40" version="1.1" xmlns="http://www.w3.org/2000/svg" xmlns:xlink="http://www.w3.org/1999/xlink">
    <!-- Generator: Sketch 50.2 (55047) - http://www.bohemiancoding.com/sketch -->
    <title>Shape</title>
    <desc>Created with Sketch.</desc>
    <defs></defs>
    <g id="Page-1" stroke="none" stroke-width="1" fill="none" fill-rule="evenodd">
        <g id="Icons" transform="translate(-98.000000, -320.000000)" fill="#224F59" fill-rule="nonzero">
            <g id="noun_padlock_1027949" transform="translate(98.000000, 320.000000)">
                <path d="M25.2765957,16.2839248 L25.2765957,11.1064718 C25.1914894,4.92693111 20.1702128,0 13.9574468,0 C7.74468085,0 2.72340426,4.92693111 2.72340426,11.0229645 L2.72340426,16.2004175 C1.19148936,16.2004175 0,17.3695198 0,18.8726514 L0,37.3277662 C0,38.8308977 1.19148936,40 2.72340426,40 L25.2765957,40 C26.8085106,40 28,38.8308977 28,37.3277662 L28,18.9561587 C27.9148936,17.4530271 26.7234043,16.2839248 25.2765957,16.2839248 Z M16.5106383,33.0688935 L11.4042553,33.0688935 L12.1702128,28.4759916 C11.4893617,27.9749478 11.0638298,27.1398747 11.0638298,26.2212944 C11.0638298,24.6346555 12.4255319,23.2985386 14.0425532,23.2985386 C15.6595745,23.2985386 17.0212766,24.6346555 17.0212766,26.2212944 C17.0212766,27.1398747 16.5957447,27.9749478 15.9148936,28.4759916 L16.5106383,33.0688935 Z M21.6170213,16.2839248 L6.29787234,16.2839248 L6.29787234,11.1064718 C6.29787234,7.01461378 9.70212766,3.5908142 13.9574468,3.5908142 C18.1276596,3.5908142 21.6170213,6.93110647 21.6170213,11.1064718 L21.6170213,16.2839248 Z" id="Shape"></path>
            </g>
        </g>
    </g>
</svg>