<?xml version="1.0" encoding="UTF-8"?>
<svg width="26px" height="26px" viewBox="0 0 26 26" version="1.1" xmlns="http://www.w3.org/2000/svg" xmlns:xlink="http://www.w3.org/1999/xlink">
    <!-- Generator: Sketch 50.2 (55047) - http://www.bohemiancoding.com/sketch -->
    <title>Shape</title>
    <desc>Created with Sketch.</desc>
    <defs></defs>
    <g id="Page-1" stroke="none" stroke-width="1" fill="none" fill-rule="evenodd">
        <path d="M17.4318182,0 L8.56818182,0 C3.84386364,0 0,4.14380194 0,9.2392143 L0,11.7630507 C0,15.7349898 2.34295455,19.251811 5.83227273,20.5153205 L6.175,20.6394436 L5.99477273,20.9768038 C5.52795455,21.8424829 4.89568182,23.2014717 4.0625,25.1301537 C3.96204545,25.3624867 4.00636364,25.6393766 4.17477273,25.8207873 C4.34022727,25.9990154 4.60318182,26.0499377 4.81295455,25.9480931 L14.8525,20.9990823 L17.4318182,20.9990823 C22.1561364,20.9990823 26,16.8552804 26,11.7630507 L26,9.2392143 C26,4.14380194 22.1561364,0 17.4318182,0 Z" id="Shape" fill="#758282" fill-rule="nonzero" transform="translate(13.000000, 13.000000) scale(-1, 1) translate(-13.000000, -13.000000) "></path>
    </g>
</svg>