<?xml version="1.0" encoding="UTF-8"?>
<svg width="26px" height="26px" viewBox="0 0 26 26" version="1.1" xmlns="http://www.w3.org/2000/svg" xmlns:xlink="http://www.w3.org/1999/xlink">
    <!-- Generator: Sketch 50.2 (55047) - http://www.bohemiancoding.com/sketch -->
    <title>Page 1 Copy 7</title>
    <desc>Created with Sketch.</desc>
    <defs></defs>
    <g id="Page-1" stroke="none" stroke-width="1" fill="none" fill-rule="evenodd">
        <path d="M6.42107245,26 C4.77685043,26 3.13099683,25.3739608 1.87835336,24.1218824 C-0.626117787,21.6173176 -0.626117787,17.542149 1.87835336,15.0375843 L9.04995137,7.86688627 C9.9171347,7.00021961 11.0690283,6.52222745 12.2943428,6.52222745 C13.5196574,6.52222745 14.6731825,7.00021961 15.5383264,7.86688627 C16.4051018,8.73355294 16.883154,9.88530196 16.883154,11.1104627 C16.883154,12.3356235 16.4051018,13.4873725 15.5383264,14.3540392 L9.79884535,20.0944314 C9.44071413,20.4525176 8.8606884,20.4525176 8.50214929,20.0944314 C8.14361018,19.7359373 8.14361018,19.1559843 8.50214929,18.7974902 L14.242854,13.0575059 C14.7621035,12.5379137 15.0492611,11.8466196 15.0492611,11.1104627 C15.0492611,10.3743059 14.7621035,9.68464314 14.242854,9.16382745 C13.721973,8.64423529 13.0318158,8.35752157 12.2959744,8.35752157 C11.5613567,8.35752157 10.8695679,8.64423529 10.3486869,9.16382745 L3.17708889,16.3345255 C1.38765649,18.1233255 1.38765649,21.034102 3.17708889,22.8233098 C4.96652129,24.6125176 7.87766308,24.6125176 9.66668758,22.8233098 L22.8229111,9.66710588 C24.6123435,7.87789804 24.6123435,4.96752941 22.8229111,3.17832157 C21.9561357,2.3116549 20.8026105,1.83366275 19.5789276,1.83366275 C18.3519814,1.83366275 17.2017194,2.3116549 16.3333124,3.17832157 L14.810235,4.70120784 C14.4516959,5.05970196 13.8716702,5.05970196 13.5131311,4.70120784 C13.1545919,4.34271373 13.1545919,3.76316863 13.5131311,3.40467451 L15.0362085,1.88138039 C16.2488783,0.667639216 17.8629161,0 19.5789276,0 C21.294939,0 22.9089768,0.669270588 24.1216466,1.88138039 C26.6261178,4.3859451 26.6261178,8.46111373 24.1216466,10.9656784 L10.9637915,24.1218824 C9.71155596,25.3739608 8.06692605,26 6.42107245,26 Z" id="Page-1-Copy-7" fill="#758282"></path>
    </g>
</svg>