<?xml version="1.0" encoding="UTF-8"?>
<svg width="92px" height="46px" viewBox="0 0 92 46" version="1.1" xmlns="http://www.w3.org/2000/svg" xmlns:xlink="http://www.w3.org/1999/xlink">
    <!-- Generator: Sketch 48.1 (47250) - http://www.bohemiancoding.com/sketch -->
    <title>Anonymous Button (Inactive)</title>
    <desc>Created with Sketch.</desc>
    <defs>
        <path d="M2.50640922,1.96923077 L21.4935887,1.96923077 C22.5981582,1.96923077 23.4935887,2.86466127 23.4935887,3.96923077 L23.4935821,8.66188173 C23.4935821,9.52502205 22.9398469,10.2907838 22.120158,10.5611933 C19.2125334,11.5203978 15.8391471,12 11.999999,12 C8.16084583,12 4.78745572,11.5203965 1.87982863,10.5611896 L1.87983123,10.5611817 C1.06014349,10.2907721 0.506409218,9.52501125 0.506409218,8.66187203 L0.506409218,3.96923077 C0.506409218,2.86466127 1.40183972,1.96923077 2.50640922,1.96923077 Z" id="path-1"></path>
        <ellipse id="path-2" cx="12" cy="3.23076923" rx="11.1057692" ry="3.23076923"></ellipse>
    </defs>
    <g id="Toolbar-Buttons" stroke="none" stroke-width="1" fill="none" fill-rule="evenodd" transform="translate(-33.000000, -355.000000)">
        <g id="Anonymous-Button-(Inactive)" transform="translate(33.000000, 355.000000)">
            <g>
                <g id="Group-7-Copy" fill="#FADC6E">
                    <rect id="Rectangle-6" x="0" y="0" width="92" height="46"></rect>
                </g>
                <path d="M26.5625,34.03125 C26.5625,35.2239643 26.1718789,36.1380177 25.390625,36.7734375 C24.6093711,37.4088573 23.497403,37.7265625 22.0546875,37.7265625 L20.8671875,37.7265625 L20.8671875,42 L19,42 L19,30.578125 L22.2890625,30.578125 C23.716153,30.578125 24.7851527,30.8697887 25.4960938,31.453125 C26.2070348,32.0364613 26.5625,32.8958277 26.5625,34.03125 Z M20.8671875,36.15625 L21.859375,36.15625 C22.8177131,36.15625 23.5208311,35.989585 23.96875,35.65625 C24.4166689,35.322915 24.640625,34.8020869 24.640625,34.09375 C24.640625,33.4374967 24.4401062,32.9479183 24.0390625,32.625 C23.6380188,32.3020817 23.0130251,32.140625 22.1640625,32.140625 L20.8671875,32.140625 L20.8671875,36.15625 Z M33.03125,33.203125 C33.4010435,33.203125 33.705728,33.2291664 33.9453125,33.28125 L33.765625,34.9921875 C33.505207,34.9296872 33.2343764,34.8984375 32.953125,34.8984375 C32.2187463,34.8984375 31.6237002,35.1380184 31.1679688,35.6171875 C30.7122373,36.0963566 30.484375,36.7187462 30.484375,37.484375 L30.484375,42 L28.6484375,42 L28.6484375,33.359375 L30.0859375,33.359375 L30.328125,34.8828125 L30.421875,34.8828125 C30.7083348,34.3671849 31.0820289,33.9583348 31.5429688,33.65625 C32.0039086,33.3541652 32.4999973,33.203125 33.03125,33.203125 Z M37.3828125,42 L35.546875,42 L35.546875,33.359375 L37.3828125,33.359375 L37.3828125,42 Z M35.4375,31.0703125 C35.4375,30.7421859 35.5273429,30.4895842 35.7070312,30.3125 C35.8867196,30.1354158 36.1432275,30.046875 36.4765625,30.046875 C36.7994808,30.046875 37.0507804,30.1354158 37.2304688,30.3125 C37.4101571,30.4895842 37.5,30.7421859 37.5,31.0703125 C37.5,31.3828141 37.4101571,31.6289054 37.2304688,31.8085938 C37.0507804,31.9882821 36.7994808,32.078125 36.4765625,32.078125 C36.1432275,32.078125 35.8867196,31.9882821 35.7070312,31.8085938 C35.5273429,31.6289054 35.4375,31.3828141 35.4375,31.0703125 Z M41.9765625,42 L38.6953125,33.359375 L40.6328125,33.359375 L42.390625,38.3828125 C42.6927098,39.2265667 42.8749997,39.9088516 42.9375,40.4296875 L43,40.4296875 C43.0468752,40.0546856 43.2291651,39.3724008 43.546875,38.3828125 L45.3046875,33.359375 L47.2578125,33.359375 L43.9609375,42 L41.9765625,42 Z M53.9765625,42 L53.609375,40.796875 L53.546875,40.796875 C53.1302063,41.3229193 52.7109396,41.6809886 52.2890625,41.8710938 C51.8671854,42.0611989 51.3255241,42.15625 50.6640625,42.15625 C49.8150999,42.15625 49.1523461,41.9270856 48.6757812,41.46875 C48.1992164,41.0104144 47.9609375,40.3619834 47.9609375,39.5234375 C47.9609375,38.632808 48.2916634,37.9609398 48.953125,37.5078125 C49.6145866,37.0546852 50.6223891,36.8072919 51.9765625,36.765625 L53.46875,36.71875 L53.46875,36.2578125 C53.46875,35.7057264 53.339845,35.2929701 53.0820312,35.0195312 C52.8242175,34.7460924 52.4244819,34.609375 51.8828125,34.609375 C51.440102,34.609375 51.015627,34.6744785 50.609375,34.8046875 C50.203123,34.9348965 49.8125019,35.0885408 49.4375,35.265625 L48.84375,33.953125 C49.3125023,33.7083321 49.825518,33.5221361 50.3828125,33.3945312 C50.940107,33.2669264 51.4661434,33.203125 51.9609375,33.203125 C53.0599013,33.203125 53.8893201,33.4427059 54.4492188,33.921875 C55.0091174,34.4010441 55.2890625,35.1536407 55.2890625,36.1796875 L55.2890625,42 L53.9765625,42 Z M51.2421875,40.75 C51.9088575,40.75 52.4440084,40.5638039 52.8476562,40.1914062 C53.2513041,39.8190086 53.453125,39.2968784 53.453125,38.625 L53.453125,37.875 L52.34375,37.921875 C51.4791623,37.9531252 50.8502624,38.097655 50.4570312,38.3554688 C50.0638001,38.6132825 49.8671875,39.0078098 49.8671875,39.5390625 C49.8671875,39.9244811 49.9817697,40.2226552 50.2109375,40.4335938 C50.4401053,40.6445323 50.7838519,40.75 51.2421875,40.75 Z M61.3359375,42.15625 C60.0286393,42.15625 59.0351596,41.7747434 58.3554688,41.0117188 C57.6757779,40.2486941 57.3359375,39.153653 57.3359375,37.7265625 C57.3359375,36.2734302 57.6914027,35.1562539 58.4023438,34.375 C59.1132848,33.5937461 60.1406183,33.203125 61.484375,33.203125 C62.3958379,33.203125 63.2161422,33.3723941 63.9453125,33.7109375 L63.390625,35.1875 C62.6145795,34.8854152 61.9739609,34.734375 61.46875,34.734375 C59.9739509,34.734375 59.2265625,35.7265526 59.2265625,37.7109375 C59.2265625,38.6796923 59.4127586,39.4075496 59.7851562,39.8945312 C60.1575539,40.3815129 60.7031214,40.625 61.421875,40.625 C62.2395874,40.625 63.0130172,40.421877 63.7421875,40.015625 L63.7421875,41.6171875 C63.4140609,41.8098968 63.0638039,41.9479162 62.6914062,42.03125 C62.3190086,42.1145838 61.8671902,42.15625 61.3359375,42.15625 Z M64.4609375,33.359375 L66.4609375,33.359375 L68.21875,38.2578125 C68.4843763,38.9557327 68.6614579,39.6119761 68.75,40.2265625 L68.8125,40.2265625 C68.8593752,39.9401027 68.9453119,39.59245 69.0703125,39.1835938 C69.1953131,38.7747375 69.8567648,36.8333507 71.0546875,33.359375 L73.0390625,33.359375 L69.34375,43.1484375 C68.6718716,44.9453215 67.5520912,45.84375 65.984375,45.84375 C65.578123,45.84375 65.1822936,45.7994796 64.796875,45.7109375 L64.796875,44.2578125 C65.072918,44.3203128 65.3880191,44.3515625 65.7421875,44.3515625 C66.6276086,44.3515625 67.2499982,43.8385468 67.609375,42.8125 L67.9296875,42 L64.4609375,33.359375 Z" id="Privacy" fill="#E56841"></path>
            </g>
            <g id="Group-5" transform="translate(29.000000, 0.000000)">
                <g id="Group">
                    <path d="M16.3875806,16 C19.4061857,16 24.2557708,14.385082 28.2640345,12.7063283 C29.9025921,12.0200624 32.3774779,11.6144463 33,10.8481162 C33,8.59415409 25.4876217,7.46666667 16.3875806,7.46666667 C7.28753941,7.46666667 0,8.59415409 0,10.8481162 C0.472751716,11.7313184 3.0755884,12.0175136 4.62576501,12.7063283 C8.53130312,14.4417381 13.3433097,16 16.3875806,16 Z" id="Oval-5" stroke="#E56841" fill="#E56841"></path>
                    <g id="Group-4" transform="translate(4.500000, 0.000000)">
                        <g id="Rectangle-4">
                            <use fill="#E56841" fill-rule="evenodd" xlink:href="#path-1"></use>
                            <path stroke="#FFDB51" stroke-width="1" d="M2.50640922,2.46923077 C1.67798209,2.46923077 1.00640922,3.14080364 1.00640922,3.96923077 L1.00640922,8.66187203 C1.00640922,9.30922512 1.42170949,9.88354766 2.03647171,10.0863602 C4.89036147,11.0278395 8.21139953,11.5 11.999999,11.5 C15.7885935,11.5 19.1096279,11.0278408 21.9635151,10.0863638 C22.5782811,9.88355695 22.9935821,9.30923625 22.9935821,8.66188103 L22.9935887,3.96923077 C22.9935887,3.14080364 22.3220158,2.46923077 21.4935887,2.46923077 L2.50640922,2.46923077 Z"></path>
                        </g>
                        <g id="Oval-4">
                            <use fill="#E56841" fill-rule="evenodd" xlink:href="#path-2"></use>
                            <ellipse stroke="#FFDB51" stroke-width="1" cx="12" cy="3.23076923" rx="10.6057692" ry="2.73076923"></ellipse>
                        </g>
                        <path d="M1.88389985,3.09279026 C3.47125962,2.98501698 4.32748779,2.93919439 4.45258437,2.95532249 C4.57768095,2.97145058 5.61976402,3.73717413 7.57883358,5.25249313 C7.09110613,5.13191137 6.83215951,5.25443782 6.80199372,5.62007248 C6.77182793,5.98570715 6.94960204,6.17888515 7.33531603,6.1996065 C5.88406026,6.20629183 4.78564298,6.09757327 4.04006419,5.87345083 C3.2944854,5.6493284 2.42506409,5.10212781 1.43180026,4.23184908 C1.45019493,4.01442378 1.48939126,3.82994636 1.54938926,3.67841683 C1.60938725,3.5268873 1.72089078,3.33167844 1.88389985,3.09279026 Z" id="Rectangle-8" fill="#E56841"></path>
                    </g>
                </g>
            </g>
            <path d="M33.0810676,18.9869089 C41.3432905,17.3438859 43.6645201,19.844492 45.4637712,19.844492 C47.2630224,19.844492 49.2047603,17.432205 57.4839551,18.8763214 C57.4500358,19.1737678 57.4293443,19.3574258 57.4218806,19.4272952 C56.5327794,19.7552475 56.0447068,20.9461491 55.9576629,23 C55.9576629,26.8190414 48.3834454,28.8215363 47.4747824,23 C46.1212622,18.5630814 43.5503492,21.2744881 43.5503492,23 C42.6257766,28.5710364 35.0214522,27.0167001 35.0214522,23 C34.9189223,20.6181968 34.2721274,19.4272952 33.0810676,19.4272952 C33.0810676,19.3254981 33.0810676,19.1787027 33.0810676,18.9869089 Z" id="Path-2" stroke="#E56841" fill="#E56841"></path>
        </g>
    </g>
</svg>