<?xml version="1.0" encoding="UTF-8"?>
<svg width="51px" height="45px" viewBox="0 0 51 45" version="1.1" xmlns="http://www.w3.org/2000/svg" xmlns:xlink="http://www.w3.org/1999/xlink">
    <!-- Generator: Sketch 47.1 (45422) - http://www.bohemiancoding.com/sketch -->
    <title>Search</title>
    <desc>Created with Sketch.</desc>
    <defs></defs>
    <g id="Page-1" stroke="none" stroke-width="1" fill="none" fill-rule="evenodd">
        <g id="TC-Mobile" transform="translate(-268.000000, -14.000000)">
            <g id="Search" transform="translate(268.000000, 14.000000)">
                <g id="Group-6" transform="translate(25.000000, 13.500000) scale(-1, 1) translate(-25.000000, -13.500000) translate(11.000000, 0.000000)" stroke="#E56841" stroke-width="3">
                    <circle id="Oval-2" cx="17.5" cy="10.5" r="9"></circle>
                    <path d="M10.5,17.5 L0.837176099,26.1965415" id="Line-2" stroke-linecap="round"></path>
                </g>
                <path d="M8.09375,40.8984375 C8.09375,41.9140676 7.72656617,42.7109346 6.9921875,43.2890625 C6.25780883,43.8671904 5.24479812,44.15625 3.953125,44.15625 C2.66145187,44.15625 1.60417078,43.9557312 0.78125,43.5546875 L0.78125,41.7890625 C1.30208594,42.0338554 1.85546582,42.2265618 2.44140625,42.3671875 C3.02734668,42.5078132 3.57291414,42.578125 4.078125,42.578125 C4.81771203,42.578125 5.36327949,42.4375014 5.71484375,42.15625 C6.06640801,41.8749986 6.2421875,41.4973982 6.2421875,41.0234375 C6.2421875,40.596352 6.08073078,40.2343765 5.7578125,39.9375 C5.43489422,39.6406235 4.76823422,39.2890645 3.7578125,38.8828125 C2.71614062,38.4609354 1.98177297,37.9791694 1.5546875,37.4375 C1.12760203,36.8958306 0.9140625,36.2447955 0.9140625,35.484375 C0.9140625,34.5312452 1.25260078,33.7812527 1.9296875,33.234375 C2.60677422,32.6874973 3.5156193,32.4140625 4.65625,32.4140625 C5.75000547,32.4140625 6.83853625,32.6536434 7.921875,33.1328125 L7.328125,34.65625 C6.31249492,34.2291645 5.40625398,34.015625 4.609375,34.015625 C4.00520531,34.015625 3.54687656,34.1471341 3.234375,34.4101562 C2.92187344,34.6731784 2.765625,35.0208312 2.765625,35.453125 C2.765625,35.7500015 2.82812437,36.0039052 2.953125,36.2148438 C3.07812562,36.4257823 3.28385273,36.6249991 3.5703125,36.8125 C3.85677227,37.0000009 4.37239211,37.2473943 5.1171875,37.5546875 C5.95573336,37.9036476 6.57031055,38.2291652 6.9609375,38.53125 C7.35156445,38.8333348 7.63801992,39.1744773 7.8203125,39.5546875 C8.00260508,39.9348977 8.09375,40.3828099 8.09375,40.8984375 Z M13.8828125,44.15625 C12.5390558,44.15625 11.488285,43.7643268 10.7304688,42.9804688 C9.97265246,42.1966107 9.59375,41.1171944 9.59375,39.7421875 C9.59375,38.3307221 9.94530898,37.2213582 10.6484375,36.4140625 C11.351566,35.6067668 12.3177022,35.203125 13.546875,35.203125 C14.6875057,35.203125 15.5885384,35.5494757 16.25,36.2421875 C16.9114616,36.9348993 17.2421875,37.8880148 17.2421875,39.1015625 L17.2421875,40.09375 L11.484375,40.09375 C11.5104168,40.9322959 11.736977,41.5768207 12.1640625,42.0273438 C12.591148,42.4778668 13.1927045,42.703125 13.96875,42.703125 C14.4791692,42.703125 14.9544249,42.6549484 15.3945312,42.5585938 C15.8346376,42.4622391 16.3072891,42.3020845 16.8125,42.078125 L16.8125,43.5703125 C16.3645811,43.7838552 15.9114606,43.9348954 15.453125,44.0234375 C14.9947894,44.1119796 14.4713571,44.15625 13.8828125,44.15625 Z M13.546875,36.59375 C12.9635387,36.59375 12.4960955,36.778644 12.1445312,37.1484375 C11.792967,37.518231 11.5833337,38.0572881 11.515625,38.765625 L15.4375,38.765625 C15.4270833,38.0520798 15.25521,37.5117206 14.921875,37.1445312 C14.58854,36.7773419 14.1302113,36.59375 13.546875,36.59375 Z M24.734375,44 L24.3671875,42.796875 L24.3046875,42.796875 C23.8880188,43.3229193 23.4687521,43.6809886 23.046875,43.8710938 C22.6249979,44.0611989 22.0833366,44.15625 21.421875,44.15625 C20.5729124,44.15625 19.9101586,43.9270856 19.4335938,43.46875 C18.9570289,43.0104144 18.71875,42.3619834 18.71875,41.5234375 C18.71875,40.632808 19.0494759,39.9609398 19.7109375,39.5078125 C20.3723991,39.0546852 21.3802016,38.8072919 22.734375,38.765625 L24.2265625,38.71875 L24.2265625,38.2578125 C24.2265625,37.7057264 24.0976575,37.2929701 23.8398438,37.0195312 C23.58203,36.7460924 23.1822944,36.609375 22.640625,36.609375 C22.1979145,36.609375 21.7734395,36.6744785 21.3671875,36.8046875 C20.9609355,36.9348965 20.5703144,37.0885408 20.1953125,37.265625 L19.6015625,35.953125 C20.0703148,35.7083321 20.5833305,35.5221361 21.140625,35.3945312 C21.6979195,35.2669264 22.2239559,35.203125 22.71875,35.203125 C23.8177138,35.203125 24.6471326,35.4427059 25.2070312,35.921875 C25.7669299,36.4010441 26.046875,37.1536407 26.046875,38.1796875 L26.046875,44 L24.734375,44 Z M22,42.75 C22.66667,42.75 23.2018209,42.5638039 23.6054688,42.1914062 C24.0091166,41.8190086 24.2109375,41.2968784 24.2109375,40.625 L24.2109375,39.875 L23.1015625,39.921875 C22.2369748,39.9531252 21.6080749,40.097655 21.2148438,40.3554688 C20.8216126,40.6132825 20.625,41.0078098 20.625,41.5390625 C20.625,41.9244811 20.7395822,42.2226552 20.96875,42.4335938 C21.1979178,42.6445323 21.5416644,42.75 22,42.75 Z M32.9921875,35.203125 C33.361981,35.203125 33.6666655,35.2291664 33.90625,35.28125 L33.7265625,36.9921875 C33.4661445,36.9296872 33.1953139,36.8984375 32.9140625,36.8984375 C32.1796838,36.8984375 31.5846377,37.1380184 31.1289062,37.6171875 C30.6731748,38.0963566 30.4453125,38.7187462 30.4453125,39.484375 L30.4453125,44 L28.609375,44 L28.609375,35.359375 L30.046875,35.359375 L30.2890625,36.8828125 L30.3828125,36.8828125 C30.6692723,36.3671849 31.0429664,35.9583348 31.5039062,35.65625 C31.9648461,35.3541652 32.4609348,35.203125 32.9921875,35.203125 Z M38.671875,44.15625 C37.3645768,44.15625 36.3710971,43.7747434 35.6914062,43.0117188 C35.0117154,42.2486941 34.671875,41.153653 34.671875,39.7265625 C34.671875,38.2734302 35.0273402,37.1562539 35.7382812,36.375 C36.4492223,35.5937461 37.4765558,35.203125 38.8203125,35.203125 C39.7317754,35.203125 40.5520797,35.3723941 41.28125,35.7109375 L40.7265625,37.1875 C39.950517,36.8854152 39.3098984,36.734375 38.8046875,36.734375 C37.3098884,36.734375 36.5625,37.7265526 36.5625,39.7109375 C36.5625,40.6796923 36.7486961,41.4075496 37.1210938,41.8945312 C37.4934914,42.3815129 38.0390589,42.625 38.7578125,42.625 C39.5755249,42.625 40.3489547,42.421877 41.078125,42.015625 L41.078125,43.6171875 C40.7499984,43.8098968 40.3997414,43.9479162 40.0273438,44.03125 C39.6549461,44.1145838 39.2031277,44.15625 38.671875,44.15625 Z M50.7109375,44 L48.8671875,44 L48.8671875,38.6875 C48.8671875,38.02083 48.7330743,37.5234391 48.4648438,37.1953125 C48.1966132,36.8671859 47.7708363,36.703125 47.1875,36.703125 C46.4166628,36.703125 45.8502622,36.9335914 45.4882812,37.3945312 C45.1263003,37.8554711 44.9453125,38.6275988 44.9453125,39.7109375 L44.9453125,44 L43.109375,44 L43.109375,31.84375 L44.9453125,31.84375 L44.9453125,34.9296875 C44.9453125,35.4244816 44.9140628,35.9531222 44.8515625,36.515625 L44.96875,36.515625 C45.2187512,36.0989563 45.566404,35.7760428 46.0117188,35.546875 C46.4570335,35.3177072 46.9765595,35.203125 47.5703125,35.203125 C49.664073,35.203125 50.7109375,36.257802 50.7109375,38.3671875 L50.7109375,44 Z" fill="#E56841"></path>
            </g>
        </g>
    </g>
</svg>