<svg width="24" height="26" viewBox="0 0 24 26" fill="none" xmlns="http://www.w3.org/2000/svg">
<path d="M10.2656 8.24769C10.0992 8.41397 10.1493 8.51781 10.178 8.57498C10.2778 8.77116 10.3855 9.01664 10.4524 9.25126C10.4788 9.34426 10.5265 9.50429 10.6926 9.33802C10.8589 9.17207 12.2252 7.80965 12.2252 7.80965L15.8201 4.22321C16.2514 3.79306 16.7847 3.53083 17.3221 3.48416C17.7553 3.4467 18.1747 3.55186 18.5394 3.78188L18.5806 3.74114C18.8777 3.44473 19.0652 3.10626 19.1087 2.78883C19.1568 2.43787 18.9914 2.07903 18.6857 1.77408C18.407 1.4964 18.0047 1.31501 17.5662 1.4251C17.1705 1.52499 16.738 1.78032 16.4098 2.10762L16.1453 2.37116C16.1008 2.42177 16.056 2.47238 16.0069 2.52101L11.4885 7.02789C11.4885 7.02789 10.432 8.08141 10.2656 8.24769Z" fill="#758282"/>
<path d="M3.46505 19.1352C3.72795 18.8733 3.90091 18.7004 3.90091 18.7004C3.90091 18.7004 4.08343 18.52 4.08343 18.175C4.08343 17.83 4.08343 14.8633 4.08343 14.8633C4.08343 14.7174 4.08277 14.5784 4.08178 14.4456C4.07289 12.983 4.06729 12.1 5.34522 10.825L7.88527 8.29174L7.89746 8.27958L8.60611 7.57274C8.78104 7.39858 9.05547 7.3736 9.2594 7.51359C9.26731 7.51885 9.30586 7.54579 9.3645 7.59279C9.45114 7.67954 9.59742 7.70188 9.75127 7.54777C9.90545 7.39398 10.8576 6.44462 10.8576 6.44462L10.8516 6.43871L15.486 1.81616C15.8523 1.37648 15.9927 0.770521 15.5206 0.299624C15.0037 -0.215636 14.323 0.000589363 13.8783 0.444212L7.18882 7.11729L6.75263 7.55204L6.52564 7.77845L6.09175 8.21123L5.76065 8.54181C5.56035 8.74128 5.23617 8.74128 5.0362 8.54181C4.83589 8.34202 4.83589 8.01834 5.0362 7.81887L6.41725 6.44134C6.77305 6.06639 6.86892 5.58958 6.83235 5.18736C6.79875 4.82064 6.62381 4.50977 6.4436 4.28073C6.42713 4.2597 6.31841 4.13976 6.19882 4.25904C6.07923 4.37833 3.40345 7.04697 3.40345 7.04697C2.42828 8.01998 2.43157 8.54247 2.44014 9.9384C2.44113 10.0728 2.44211 10.2138 2.44211 10.3623V14.2294C2.44211 14.3648 2.38808 14.4952 2.29189 14.5909C2.29189 14.5909 0.395906 16.4823 0.133335 16.7446C-0.129236 17.0065 0.0769995 17.1484 0.0769995 17.1484L2.92047 19.147C2.91982 19.147 3.20215 19.3971 3.46505 19.1352Z" fill="#758282"/>
<path d="M22.5951 13.0881C22.352 13.1348 22.0785 13.2991 21.8021 13.5626L19.018 16.3394L17.9047 17.4498L17.4442 17.9092C17.344 18.009 17.2132 18.059 17.0818 18.059C16.951 18.059 16.8199 18.009 16.7194 17.9092C16.5194 17.7097 16.5194 17.3863 16.7194 17.1865L16.7906 17.1156L17.0198 16.8872L18.5531 15.3578L21.0717 12.8456L22.6366 11.2844C23.0817 10.8408 23.2991 10.1622 22.7816 9.64626C22.3227 9.18818 21.7356 9.30845 21.2984 9.65119C21.2632 9.6788 21.2289 9.70804 21.1956 9.73827C21.1762 9.75602 21.1574 9.77278 21.1389 9.79151L16.9523 13.9675L16.9085 14.0115L16.7336 14.186L16.692 14.2271L16.3992 14.5195L15.6576 15.2592C15.6339 15.2829 15.6078 15.3036 15.5808 15.3214C15.4645 15.3996 15.3235 15.4249 15.1904 15.3973C15.0962 15.3775 15.0059 15.3322 14.9328 15.2589C14.7328 15.0594 14.7328 14.7358 14.9328 14.5363L15.5732 13.8975L16.0233 13.4486L16.0279 13.444L16.5115 12.9616L20.4148 9.06857C20.4296 9.05378 20.4451 9.04096 20.4603 9.0265L20.9844 8.50369L21.247 8.24178C21.5442 7.94538 21.732 7.60691 21.7754 7.2898C21.8232 6.93852 21.698 6.61944 21.3923 6.31449C21.1136 6.03649 20.7647 5.95565 20.3262 6.06606C19.9305 6.16596 19.498 6.42096 19.1695 6.74858L18.9053 7.01213L18.7732 7.14357L14.2423 11.6633L12.6757 13.2367C12.5759 13.3346 12.4468 13.3835 12.317 13.3835C12.1862 13.3835 12.0547 13.3339 11.9546 13.234C11.8488 13.1282 11.8004 12.9879 11.8066 12.8492C11.8122 12.7263 11.8603 12.6051 11.9546 12.5111L12.9647 11.5036L13.4644 11.0051C13.4806 10.983 13.4974 10.9604 13.5175 10.9407L18.1518 6.3181C18.3976 6.02301 18.5412 5.65366 18.4665 5.29941C18.4322 5.13642 18.3505 4.97738 18.2125 4.83016C18.2036 4.82063 18.196 4.81044 18.1868 4.80091C18.0573 4.6721 17.9179 4.58896 17.7749 4.54394C17.344 4.4079 16.8779 4.61295 16.5441 4.94583L12.9492 8.53195L11.1362 10.3406L9.85466 11.6186L9.41847 12.0533L9.19148 12.2797L8.7576 12.7128L8.4265 13.0431C8.2262 13.2426 7.90202 13.2426 7.70171 13.0431C7.50174 12.8436 7.50174 12.52 7.70171 12.3205L9.08276 10.943C9.44483 10.5733 9.53444 10.0909 9.49787 9.68898C9.48238 9.52008 9.43692 9.36333 9.37498 9.22038C9.30679 9.0643 9.21883 8.92562 9.12823 8.80699C9.08079 8.74522 8.97503 8.64959 8.78132 8.84314C8.58727 9.03636 6.06863 11.5479 6.06863 11.5479C5.09346 12.5213 5.09676 13.0434 5.10532 14.4394C5.10631 14.5738 5.10697 14.7147 5.10697 14.8633L5.1073 18.7307C5.1073 18.8657 5.05327 18.9962 4.95707 19.0921L4.08206 19.9649L3.71439 20.3313L3.3464 20.6981C3.3464 20.6981 3.10096 20.9425 2.81236 21.2307C2.52343 21.5189 2.80544 21.6934 2.80544 21.6934L8.79515 25.9042C8.79515 25.9042 9.12098 26.1303 9.36411 25.8878C9.60725 25.6453 10.7122 24.5431 10.7122 24.5431C10.8196 24.436 10.9705 24.3821 11.1207 24.3956C11.1395 24.3972 13.1834 24.5592 14.3418 23.4045L19.3171 18.4412L19.3178 18.4451L19.3771 18.386L19.4568 18.3068L22.9578 14.815C23.5505 14.2231 23.6484 13.7204 23.2478 13.3211C22.9783 13.053 22.746 13.0599 22.5951 13.0881Z" fill="#758282"/>
</svg>
