<?xml version="1.0" encoding="UTF-8"?>
<svg width="40px" height="25px" viewBox="0 0 40 25" version="1.1" xmlns="http://www.w3.org/2000/svg" xmlns:xlink="http://www.w3.org/1999/xlink">
    <!-- Generator: Sketch 49 (51002) - http://www.bohemiancoding.com/sketch -->
    <title>Icons</title>
    <desc>Created with Sketch.</desc>
    <defs></defs>
    <g id="Page-1" stroke="none" stroke-width="1" fill="none" fill-rule="evenodd">
        <g id="Icons" transform="translate(-248.000000, -182.000000)">
            <g id="Question-Icon" transform="translate(248.000000, 182.000000)">
                <g transform="translate(2.000000, 0.000000)">
                    <path d="M4.47426526,20.6780793 L3.00002415,20.6780752 C1.3431715,20.6780752 2.6415405e-05,19.334932 2.41518116e-05,17.6780793 L0,5.9999943 C-2.02906125e-16,4.34314005 1.34314575,2.9999943 3,2.9999943 L13,2.9999984 C14.6568542,2.9999984 16,4.34314415 16,5.9999984 L16,17.6780793 C16,19.3349336 14.6568542,20.6780793 13,20.6780793 L8.6429275,20.6780793 L4.47426526,24.9999984 L4.47426526,20.6780793 Z M8,8.34146341 C9.12,8.34146341 9.6,9.17073171 9.6,9.70731707 C9.6,10.9073171 6.77,11.1707317 6.77,13.1804878 L6.77,14 L9.23,14 L9.23,13.4731707 C9.23,12.195122 12,12.0878049 12,9.41463415 C12,7.53170732 10.45,6 8,6 C5.76,6 4,7.42439024 4,9.70731707 L4.5,9.70731707 L5.9,9.70731707 L6.4,9.70731707 C6.4,9.17073171 6.88,8.34146341 8,8.34146341 Z M8,18 C8.6875,18 9.25,17.4375 9.25,16.75 C9.25,16.0625 8.6875,15.5 8,15.5 C7.3125,15.5 6.75,16.0625 6.75,16.75 C6.75,17.4375 7.3125,18 8,18 Z" id="Combined-Shape" fill="#E56841"></path>
                    <g id="Group-4" transform="translate(4.000000, 6.000000)"></g>
                    <path d="M30.5257521,17.6780794 L30.5257521,22 L26.3570836,17.6780794 L22,17.6780794 C20.3431458,17.6780794 19,16.3349337 19,14.6780794 L19,3 C19,1.34314575 20.3431458,-3.04359188e-16 22,0 L32,0 C33.6568542,3.04359188e-16 35,1.34314575 35,3 L35,14.6780794 C35,16.3349337 33.6568542,17.6780794 32,17.6780794 L30.5257521,17.6780794 Z M23,10 C23.5522847,10 24,9.55228475 24,9 C24,8.44771525 23.5522847,8 23,8 C22.4477153,8 22,8.44771525 22,9 C22,9.55228475 22.4477153,10 23,10 Z M27,10 C27.5522847,10 28,9.55228475 28,9 C28,8.44771525 27.5522847,8 27,8 C26.4477153,8 26,8.44771525 26,9 C26,9.55228475 26.4477153,10 27,10 Z M31,10 C31.5522847,10 32,9.55228475 32,9 C32,8.44771525 31.5522847,8 31,8 C30.4477153,8 30,8.44771525 30,9 C30,9.55228475 30.4477153,10 31,10 Z" id="Combined-Shape" fill="#E56841"></path>
                </g>
            </g>
        </g>
    </g>
</svg>