<svg width="68" height="86" viewBox="0 0 68 86" fill="none" xmlns="http://www.w3.org/2000/svg">
<path d="M35.1477 33.6534C35.1477 32.8278 34.4791 32.157 33.6535 32.157C32.8278 32.157 32.1593 32.8256 32.1593 33.6534C32.1593 48.8446 21.287 61.5812 6.31125 63.9392C5.4946 64.0693 4.93819 64.8299 5.06608 65.651C5.18274 66.3847 5.81542 66.9141 6.54009 66.9141C6.61637 66.9141 6.69489 66.9052 6.77341 66.8917C23.2164 64.3027 35.1477 50.3275 35.1477 33.6534Z" fill="#A02E0A"/>
<path d="M33.6533 0C15.0969 0 0 15.0969 0 33.6533C0 34.479 0.668579 35.1475 1.49645 35.1475C2.32208 35.1475 2.99066 34.479 2.99066 33.6533C2.99066 16.7437 16.7459 2.98842 33.6556 2.98842C50.563 2.98842 64.3205 16.7437 64.3205 33.6533C64.3205 40.5276 63.2122 47.2874 61.0225 53.7421C60.7577 54.5251 61.175 55.371 61.9603 55.6357C62.1173 55.6896 62.2811 55.7142 62.4382 55.7142C63.0596 55.7142 63.6429 55.3238 63.8561 54.7001C66.1468 47.9358 67.3089 40.8574 67.3089 33.6533C67.3067 15.0969 52.2098 0 33.6533 0Z" fill="#A02E0A"/>
<path d="M41.5776 33.6534C41.5776 29.283 38.0216 25.7292 33.6534 25.7292C29.2807 25.7292 25.7247 29.283 25.7247 33.6534C25.7247 46.1747 16.3354 56.5399 3.88588 57.7649C3.06474 57.8479 2.46571 58.5771 2.54648 59.4005C2.62725 60.2194 3.35415 60.8162 4.17978 60.7421C18.1661 59.3646 28.7131 47.7183 28.7131 33.6557C28.7131 30.9342 30.9297 28.7198 33.6534 28.7198C36.3748 28.7198 38.5892 30.9342 38.5892 33.6557C38.5892 50.8121 26.4471 66.0279 9.72137 69.8353C8.91818 70.017 8.41338 70.8179 8.59511 71.6234C8.7544 72.3166 9.36914 72.79 10.0512 72.79C10.1611 72.79 10.2733 72.7766 10.3855 72.7474C28.4595 68.6327 41.5776 52.1942 41.5776 33.6534Z" fill="#A02E0A"/>
<path d="M35.0085 81.0642C34.9614 81.0103 34.9076 80.9498 34.8627 80.8914C34.3915 80.2385 33.4874 80.077 32.8188 80.5235C31.4637 81.4299 30.149 82.2376 28.8028 82.9779C28.0804 83.3795 27.8202 84.2882 28.2195 85.0106C28.6166 85.7308 29.5275 85.9933 30.2499 85.5939C31.2999 85.0151 32.3297 84.4026 33.3707 83.7362C33.9137 84.3442 34.4925 84.9612 35.0982 85.5625C35.3922 85.8564 35.7736 86 36.155 86C36.5386 86 36.9223 85.8564 37.2139 85.5625C37.7972 84.9792 37.7972 84.0324 37.2139 83.4513C36.4219 82.6706 35.6905 81.8741 35.0085 81.0642Z" fill="#A02E0A"/>
<path d="M41.1513 67.255C40.0812 65.1573 39.2824 62.907 38.7776 60.5714C38.652 60.0016 38.21 59.5551 37.6402 59.4295C37.0703 59.2993 36.478 59.5147 36.1235 59.9791C30.5617 67.2886 23.0189 72.5677 14.3049 75.2533C13.5175 75.4956 13.0755 76.3324 13.3178 77.1221C13.5601 77.9119 14.3969 78.3539 15.1867 78.1071C23.5529 75.5315 30.9117 70.7145 36.6283 64.1028C37.1286 65.6576 37.7479 67.1652 38.4837 68.6146C40.8799 73.3193 44.4875 77.3577 48.9096 80.3035C49.1541 80.465 49.448 80.5525 49.7419 80.5525C50.5675 80.5525 51.2339 79.8817 51.2361 79.0583C51.2361 78.5221 50.9512 78.0532 50.5294 77.7885C46.5516 75.1276 43.3074 71.4886 41.1513 67.255Z" fill="#A02E0A"/>
<path d="M59.2389 67.9954C54.1729 65.4669 51.0252 60.3943 51.0252 54.754C51.0252 53.5312 51.1755 52.304 51.4784 51.1172C52.6697 47.7294 53.5066 44.2182 53.9755 40.6802C54.2829 38.4186 54.4399 36.0562 54.4399 33.6578C54.4399 22.1955 45.1112 12.869 33.6489 12.869C22.1865 12.869 12.8601 22.1955 12.8601 33.6578C12.8601 39.8725 7.80983 44.9698 1.59967 45.0169C0.774041 45.0259 0.109958 45.7012 0.116689 46.5246C0.12342 47.348 0.792 48.0098 1.6109 48.0098C1.61539 48.0098 1.61986 48.0098 1.62435 48.0098C9.46782 47.9448 15.8485 41.5058 15.8485 33.6578C15.8485 23.8422 23.8333 15.8574 33.6489 15.8574C43.4644 15.8574 51.4515 23.8422 51.4515 33.6578C51.4515 35.9216 51.3057 38.1494 51.014 40.283C50.5698 43.6439 49.7688 46.9756 48.6381 50.1883C48.6246 50.2287 48.6112 50.2691 48.5999 50.3095C48.223 51.7611 48.0323 53.2553 48.0323 54.7562C48.0323 61.5362 51.8194 67.6365 57.904 70.672C58.1193 70.7797 58.3437 70.8268 58.5703 70.8268C59.1177 70.8268 59.645 70.5239 59.9097 69.9989C60.2799 69.2563 59.9792 68.3589 59.2389 67.9954Z" fill="#A02E0A"/>
<path d="M55.389 73.2364C48.7278 69.4762 44.5907 62.3956 44.5907 54.754C44.5907 52.9143 44.8308 51.0723 45.3087 49.282C46.0266 47.2718 46.6189 45.1493 47.0653 42.9821C47.6891 39.9241 48.0077 36.7854 48.0077 33.6578C48.0077 25.7426 41.5664 19.3036 33.6511 19.3036C25.7336 19.3036 19.2901 25.7448 19.2901 33.6578C19.2901 43.1862 11.846 50.9961 2.34006 51.438C1.51668 51.4784 0.879502 52.1739 0.917642 52.9973C0.955783 53.8229 1.66925 54.4601 2.47917 54.422C13.5825 53.906 22.2808 44.7859 22.2808 33.6601C22.2808 27.3916 27.3804 22.2942 33.6511 22.2942C39.9196 22.2942 45.0192 27.3938 45.0192 33.6601C45.0192 36.5879 44.7208 39.5225 44.1375 42.3808C43.7135 44.4381 43.1526 46.4529 42.4638 48.3621C42.4414 48.4227 42.4212 48.49 42.4122 48.5551C41.8738 50.5832 41.6023 52.6697 41.6023 54.7607C41.6023 63.4792 46.3227 71.556 53.9194 75.8412C54.1527 75.9736 54.404 76.0341 54.6508 76.0341C55.1691 76.0341 55.6806 75.7627 55.9521 75.2713C56.3627 74.5512 56.1091 73.638 55.389 73.2364Z" fill="#A02E0A"/>
<path d="M62.2385 62.299C59.3309 60.9236 57.4553 57.9599 57.4553 54.7539C57.4553 54.1369 57.5248 53.5132 57.6684 52.9052L57.6931 52.8446C57.702 52.8199 57.711 52.7997 57.72 52.7796C58.6713 49.9953 59.4117 47.1303 59.9187 44.2832C60.4751 41.2342 60.7914 38.1134 60.852 35.0375C60.87 34.5843 60.8767 34.1266 60.8767 33.6622C60.8767 18.6506 48.6673 6.4389 33.6534 6.4389C18.6417 6.4389 6.43007 18.6506 6.43007 33.6622C6.43007 36.3455 4.24485 38.5621 1.56155 38.598C0.735926 38.6093 0.0763256 39.2868 0.0875433 40.1124C0.0987611 40.9381 0.756113 41.5707 1.60193 41.5865C5.9118 41.5281 9.41849 37.9721 9.41849 33.6622C9.41849 20.2996 20.2885 9.42732 33.6534 9.42732C47.016 9.42732 57.886 20.2996 57.886 33.6622C57.886 34.0885 57.8815 34.5058 57.8636 34.95C57.8075 37.8936 57.5069 40.8528 56.9751 43.756C56.4973 46.4505 55.7995 49.1517 54.8976 51.7834C54.8662 51.8597 54.8415 51.9337 54.8146 52.0145C54.8011 52.0571 54.7877 52.093 54.7787 52.1334C54.5701 52.9994 54.4624 53.8811 54.4624 54.7651C54.4624 59.1176 57.0133 63.1403 60.9575 65.0069C61.1639 65.1034 61.3793 65.1483 61.5946 65.1483C62.1555 65.1483 62.6872 64.8297 62.9475 64.2935C63.302 63.5374 62.9834 62.6489 62.2385 62.299Z" fill="#A02E0A"/>
<path d="M39.924 76.9159C38.5689 75.3229 37.3642 73.6246 36.3523 71.8746C36.128 71.4887 35.7465 71.2239 35.3046 71.1499C34.8693 71.0804 34.4161 71.197 34.0818 71.4909C30.0143 74.9999 25.4464 77.8178 20.5038 79.8594C19.9183 80.0613 19.4987 80.6177 19.4987 81.2751C19.4987 82.0985 20.1718 82.7693 20.9952 82.7693C21.1904 82.7693 21.3833 82.7289 21.565 82.6549C26.2944 80.7097 30.703 78.0937 34.6898 74.8742C35.5783 76.2473 36.5677 77.5777 37.6491 78.8476C39.1545 80.6222 40.8551 82.2712 42.7038 83.7542C42.9775 83.9763 43.3118 84.0818 43.6371 84.0818C44.0724 84.0818 44.5099 83.8933 44.806 83.5254C45.3198 82.8815 45.2188 81.9392 44.5727 81.4209C42.8676 80.0636 41.3083 78.5514 39.924 76.9159Z" fill="#A02E0A"/>
</svg>
