<?xml version="1.0" encoding="UTF-8"?>
<svg width="39px" height="39px" viewBox="0 0 39 39" version="1.1" xmlns="http://www.w3.org/2000/svg" xmlns:xlink="http://www.w3.org/1999/xlink">
    <!-- Generator: Sketch 48.2 (47327) - http://www.bohemiancoding.com/sketch -->
    <title>Following Icon</title>
    <desc>Created with Sketch.</desc>
    <defs>
        <path d="M0.139038908,28.618378 C0.139038908,28.618378 -2.19307175,16.4435401 12.484062,16.4435401 C27.1611958,16.4435401 25.6538939,28.6409703 25.6538939,28.6409703 C25.6538939,28.6409703 19.8188965,29.9137861 12.484062,29.9137861 C5.14922757,29.9137861 0.139038908,28.618378 0.139038908,28.618378 Z" id="path-1"></path>
        <ellipse id="path-2" cx="12.8937553" cy="7.56436731" rx="6.12440268" ry="7.55427707"></ellipse>
    </defs>
    <g id="Icons" stroke="none" stroke-width="1" fill="none" fill-rule="evenodd" transform="translate(-34.000000, -177.000000)">
        <g id="Following-Icon" transform="translate(34.000000, 177.000000)">
            <g id="Group-5-Copy-2" transform="translate(13.759850, 0.000000)" stroke="#E56841" stroke-width="1.5">
                <path d="M1.51167579,24.6825649 C1.60433721,24.7019008 1.70757808,24.7229448 1.82116701,24.7454855 C2.48743311,24.8776998 3.25998252,25.0102123 4.12899486,25.1340721 C6.61749451,25.4887565 9.37483372,25.7017356 12.3223315,25.7017356 C15.2727702,25.7017356 18.1778236,25.4920608 20.9099232,25.1426584 C21.8655114,25.0204503 22.7306486,24.889611 23.4894806,24.7589458 C23.6261993,24.7354038 23.7503498,24.7134828 23.8614964,24.6934255 C23.9040718,23.3362418 23.6509313,21.7506632 22.895282,20.2415437 C21.3326144,17.1207148 18.0206793,15.2400293 12.3223315,15.2400293 C6.63643065,15.2400293 3.48171447,17.1030468 2.15115107,20.1923897 C1.51006211,21.6808897 1.36541954,23.2715919 1.51167579,24.6825649 Z" id="Path-4"></path>
                <ellipse id="Oval-2" cx="12.7033786" cy="6.71723001" rx="4.94617828" ry="5.95826978"></ellipse>
            </g>
            <ellipse id="Oval" fill="#FFE37A" cx="15.7598499" cy="17.2" rx="7.50469043" ry="10.8"></ellipse>
            <ellipse id="Oval-Copy-3" fill="#FFE37A" cx="13.8836773" cy="31.2" rx="13.8836773" ry="7.2"></ellipse>
            <g id="Group-5-Copy" transform="translate(1.500938, 8.800000)">
                <g id="Path-4">
                    <use fill="#E56841" fill-rule="evenodd" xlink:href="#path-1"></use>
                    <path stroke="#E56841" stroke-width="1.5" d="M0.812226541,28.0059431 C0.922917025,28.030324 1.04866975,28.0572894 1.18910749,28.0864782 C1.90589001,28.2354557 2.73694731,28.384757 3.67172179,28.5243018 C6.34829878,28.9238659 9.31393429,29.1637861 12.484062,29.1637861 C15.6572664,29.1637861 18.7816061,28.9276009 21.7199702,28.5340171 C22.7477368,28.3963513 23.6782459,28.2489586 24.4944537,28.1017554 C24.6622236,28.0714981 24.8124115,28.043615 24.9443225,28.0185121 C25.002889,26.4535146 24.7325582,24.6150678 23.896253,22.8657435 C22.2019631,19.3217468 18.6236592,17.1935401 12.484062,17.1935401 C6.35671492,17.1935401 2.94583238,19.3032641 1.50126844,22.8161944 C0.792759721,24.5391654 0.64121337,26.3798866 0.812226541,28.0059431 Z"></path>
                </g>
                <g id="Oval-2">
                    <use fill="#E56841" fill-rule="evenodd" xlink:href="#path-2"></use>
                    <ellipse stroke="#E56841" stroke-width="1.5" cx="12.8937553" cy="7.56436731" rx="5.37440268" ry="6.80427707"></ellipse>
                </g>
            </g>
        </g>
    </g>
</svg>