<svg width="26" height="22" viewBox="0 0 26 22" fill="none" xmlns="http://www.w3.org/2000/svg">
<path fill-rule="evenodd" clip-rule="evenodd" d="M0.303502 10.0595C8.55876 0.408897 17.5424 0.490681 25.6358 10.0595C26.1214 10.6319 26.1214 11.4498 25.6358 11.9405C17.4615 21.6728 8.47782 21.5911 0.303502 11.9405C-0.101167 11.4498 -0.101167 10.6319 0.303502 10.0595ZM13.0101 5.72488C15.9237 5.72488 18.2708 8.09663 18.2708 11.0409C18.2708 13.9033 15.9237 16.2751 13.0101 16.2751C10.0965 16.2751 7.74942 13.9033 7.74942 11.0409C7.74942 8.09663 10.0965 5.72488 13.0101 5.72488Z" fill="#758282"/>
<path fill-rule="evenodd" clip-rule="evenodd" d="M13.0101 8.26019C14.5478 8.26019 15.7618 9.48696 15.7618 11.0409C15.7618 12.513 14.5478 13.8215 13.0101 13.8215C11.4723 13.8215 10.2583 12.513 10.2583 11.0409C10.2583 9.48696 11.4723 8.26019 13.0101 8.26019Z" fill="#758282"/>
</svg>
