<?xml version="1.0" encoding="UTF-8"?>
<svg width="94px" height="80px" viewBox="0 0 94 80" version="1.1" xmlns="http://www.w3.org/2000/svg" xmlns:xlink="http://www.w3.org/1999/xlink">
    <!-- Generator: Sketch 50.2 (55047) - http://www.bohemiancoding.com/sketch -->
    <title>knock icon</title>
    <desc>Created with Sketch.</desc>
    <defs></defs>
    <g id="Page-1" stroke="none" stroke-width="1" fill="none" fill-rule="evenodd">
        <g id="Knock-Successful" transform="translate(-630.000000, -130.000000)" fill="#224F59" fill-rule="nonzero">
            <g id="knock-icon" transform="translate(630.000000, 130.000000)">
                <path d="M63.4998157,36.9552561 L70.1848618,53.0242588 C70.3104839,53.3261456 70.5021659,54.0075472 70.7328341,54.9175202 C70.7328341,54.9175202 73.555,67.2743935 73.5961521,67.496496 C73.854977,68.9326146 73.085,70.4075472 71.6739171,70.9897574 L50.6343779,79.6657682 C49.1085023,80.2954178 47.4201843,79.2657682 46.3144931,78.3568733 C46.231106,78.2889488 34.2417742,67.6981132 34.2417742,67.6981132 C33.7468664,67.232345 32.9151613,66.5185984 32.4895622,65.496496 C31.6242857,63.4167116 25.7676959,49.3401617 25.0150461,47.5320755 C24.6143548,46.5681941 24.225576,44.8948787 26.1120737,44.116442 C28.8042857,43.0059299 32.109447,46.8657682 33.0126267,49.0350404 C33.0126267,49.0350404 34.737765,53.180593 35.057235,53.948248 C35.3767051,54.7148248 36.1326037,55.0781671 36.7986175,54.8032345 C37.4635484,54.5293801 37.5837558,53.7121294 37.2978571,53.0242588 L31.8766129,39.993531 C30.9701843,37.8145553 32.0087327,35.316442 34.1984562,34.4140162 C36.3881797,33.5115903 38.8962903,34.5466307 39.8027189,36.7256065 L39.8038018,36.7363881 C40.2315668,35.7563342 41.0253687,34.9315364 42.0964055,34.4894879 C44.2850461,33.587062 46.7942396,34.6210243 47.7017512,36.8021563 C48.131682,35.8199461 48.9244009,34.9962264 49.9943548,34.5541779 C52.1829954,33.651752 54.6943548,34.6857143 55.6018664,36.8657682 C56.0296313,35.8857143 56.8245161,35.0598383 57.89447,34.6188679 C60.0831106,33.716442 62.5858065,34.7536388 63.492235,36.9336927 C63.4911521,36.9336927 63.4998157,36.9552561 63.4998157,36.9552561 Z" id="Shape"></path>
                <g id="Group">
                    <path d="M46.7725807,19.6226415 C47.484671,19.6226415 48.0612904,19.0147858 48.0612904,18.2591924 L48.0612904,1.36271406 C48.0612904,0.60932576 47.484671,0 46.7725807,0 C46.0604904,0 45.483871,0.610060773 45.483871,1.36344908 L45.483871,18.2591924 C45.4845657,19.0162558 46.0604904,19.6226415 46.7725807,19.6226415 Z" id="Shape"></path>
                    <path d="M65.0857986,22.6415094 C65.4472427,22.6415094 65.8071681,22.5046593 66.0812886,22.2302031 L78.4258205,9.94091268 C78.9763394,9.39275619 78.9763394,8.50512072 78.4258205,7.95772031 C77.8753016,7.41107598 76.9838407,7.40956383 76.4340811,7.95772031 L64.0903085,20.2470107 C63.5397896,20.7951672 63.5397896,21.6820466 64.0903085,22.2302031 C64.3651883,22.5046593 64.7251138,22.6415094 65.0857986,22.6415094 Z" id="Shape"></path>
                    <path d="M74.2903226,32.9811324 C74.2903226,33.6928446 74.9030434,34.264151 75.6597166,34.264151 L92.630606,34.264151 C93.3872792,34.264151 94,33.692153 94,32.9811324 C94,32.2742618 93.3872792,31.6981138 92.630606,31.6981138 L75.6589784,31.6981138 C74.9023051,31.6974222 74.2903226,32.2742618 74.2903226,32.9811324 Z" id="Shape"></path>
                    <path d="M27.9186212,22.2301979 C28.1942706,22.5046576 28.5542096,22.6415094 28.9141486,22.6415094 C29.2740875,22.6415094 29.6355452,22.5046576 29.909676,22.2301979 C30.4602155,21.6820345 30.4602155,20.7943879 29.909676,20.2469807 L17.5654399,7.95829233 C17.0149003,7.41012897 16.1234059,7.41012897 15.5736257,7.95829233 C15.0246048,8.50645569 15.0230861,9.39410228 15.5736257,9.94150955 L27.9186212,22.2301979 Z" id="Shape"></path>
                    <path d="M19.7096774,32.9811321 C19.7096774,32.2742613 19.0969796,31.6981132 18.3403347,31.6981132 L1.36934276,31.6981132 C0.612697837,31.6981132 0,32.274953 0,32.9811321 C0,33.6928445 0.612697837,34.264151 1.36934276,34.264151 L18.3395965,34.264151 C19.0962414,34.2634594 19.7096774,33.6914612 19.7096774,32.9811321 Z" id="Shape"></path>
                </g>
            </g>
        </g>
    </g>
</svg>