<?xml version="1.0" encoding="UTF-8" standalone="no"?><!DOCTYPE svg PUBLIC "-//W3C//DTD SVG 1.1//EN" "http://www.w3.org/Graphics/SVG/1.1/DTD/svg11.dtd"><svg width="100%" height="100%" viewBox="0 0 30 38" version="1.1" xmlns="http://www.w3.org/2000/svg" xmlns:xlink="http://www.w3.org/1999/xlink" xml:space="preserve" style="fill-rule:evenodd;clip-rule:evenodd;stroke-linejoin:round;stroke-miterlimit:1.41421;"><g><path d="M15.1,9.6c2.6,0 4.6,2 4.6,4.6c0,0.5 -0.1,1.2 -0.4,1.6l2.7,2.7c1.4,-1.2 2.5,-2.7 3.1,-4.3c-1.6,-4 -5.5,-6.9 -10.1,-6.9c-1.3,0 -2.5,0.3 -3.7,0.6l2,2c0.6,-0.2 1.2,-0.3 1.8,-0.3Zm-9.2,-2.5l2.5,2.5c-1.6,1.2 -2.7,2.7 -3.4,4.6c1.6,4 5.5,6.9 10.1,6.9c1.4,0 2.7,-0.3 4,-0.7l3,3l1.2,-1.2l-16.2,-16.2l-1.2,1.1Zm5,5.1l1.4,1.4l0,0.6c0,1.6 1.2,2.7 2.7,2.7c0.2,0 0.4,0 0.6,-0.1l1.4,1.4c-0.6,0.4 -1.3,0.5 -2,0.5c-2.6,0 -4.6,-2 -4.6,-4.6c0.1,-0.7 0.3,-1.3 0.5,-1.9Z" style="fill:#d4aa07;fill-rule:nonzero;"/><path d="M17.6,14.2c0,-0.5 -0.1,-1 -0.3,-1.4l-0.7,0.4l1,1Z" style="fill:#d4aa07;fill-rule:nonzero;"/><path d="M15.8,12.3l0.4,-0.7c-0.4,-0.2 -0.9,-0.3 -1.4,-0.3l1,1Z" style="fill:#d4aa07;fill-rule:nonzero;"/></g></svg>