<?xml version="1.0" encoding="UTF-8"?>
<svg width="99px" height="60px" viewBox="0 0 99 60" version="1.1" xmlns="http://www.w3.org/2000/svg" xmlns:xlink="http://www.w3.org/1999/xlink">
    <!-- Generator: Sketch 49 (51002) - http://www.bohemiancoding.com/sketch -->
    <title>TClogo Copy</title>
    <desc>Created with Sketch.</desc>
    <defs>
        <path d="M29.8382908,59.4029337 C27.8740561,59.4029337 25.9085663,58.6575253 24.4134337,57.1692061 L9.7130051,42.5344745 L10.5997959,41.6517245 L25.3002245,56.2864515 C26.5068673,57.4875964 28.118648,58.149349 29.8382908,58.149349 C31.5592041,58.149349 33.1709694,57.4875964 34.3776122,56.2864515 L56.5449031,34.2188724 C57.7515459,33.0177245 58.4175765,31.4132908 58.4175765,29.7002143 C58.4175765,27.9884082 57.7515459,26.3839592 56.5449031,25.1828112 L34.3776122,3.1152398 C33.1709694,1.91409184 31.5592041,1.25233163 29.8382908,1.25233163 C28.118648,1.25233163 26.5068673,1.91409184 25.3002245,3.1152398 L3.13167857,25.1828112 C1.92503571,26.3839592 1.2602602,27.9884082 1.2602602,29.7002143 C1.2602602,31.4132908 1.92503571,33.0177245 3.13167857,34.2188724 L5.77951531,36.854648 L4.89272449,37.737398 L2.24363265,35.1016224 C-0.747872449,32.1224847 -0.747872449,27.2779592 2.24363265,24.3000612 L24.4134337,2.23247449 C27.4049541,-0.744153061 32.272898,-0.744153061 35.2644031,2.23247449 L57.432949,24.3000612 C60.4232143,27.2779592 60.4232143,32.1224847 57.432949,35.1016224 L35.2644031,57.1692061 C33.7680306,58.6575253 31.8037806,59.4029337 29.8382908,59.4029337 Z" id="path-1"></path>
        <path d="M29.8382908,59.3929449 C27.7824949,59.3929449 25.8571378,58.6013386 24.4134337,57.1642117 L2.24363418,35.0966327 C-0.747877959,32.1187347 -0.747877959,27.2729541 2.24363418,24.2950714 L24.4134337,2.22748469 C25.8571378,0.790362245 27.7824949,0 29.8382908,0 C31.8928469,0 33.8194439,0.790362245 35.263148,2.22748469 L42.7902245,9.72027551 L41.9034337,10.6030255 L34.3763571,3.11023469 C33.1697296,1.90910204 31.557949,1.24859694 29.8382908,1.24859694 C28.1173929,1.24859694 26.5068673,1.90910204 25.3002245,3.11023469 L3.1316801,25.1778214 C1.92504184,26.3789694 1.26026066,27.9834031 1.26026066,29.6964796 C1.26026066,31.4082857 1.92504184,33.0127347 3.1316801,34.2138673 L25.3002245,56.2814571 C26.5068673,57.482602 28.1173929,58.1443546 29.8382908,58.1443546 C31.557949,58.1443546 33.1697296,57.482602 34.3763571,56.2814571 L56.5449031,34.2138673 C57.7515459,33.0127347 58.4163214,31.4082857 58.4163214,29.6964796 C58.4163214,27.9834031 57.7515459,26.3789694 56.5449031,25.1778214 L53.8958265,22.539551 L54.7826173,21.656801 L57.432949,24.2950714 C60.4244694,27.2729541 60.4244694,32.1187347 57.432949,35.0966327 L35.263148,57.1642117 C33.8194439,58.6013386 31.8928469,59.3929449 29.8382908,59.3929449 Z" id="path-3"></path>
    </defs>
    <g id="Page-1" stroke="none" stroke-width="1" fill="none" fill-rule="evenodd">
        <g id="TClogo-Copy">
            <g id="Group-3" transform="translate(39.030612, 0.000000)">
                <mask id="mask-2" fill="white">
                    <use xlink:href="#path-1"></use>
                </mask>
                <g id="Clip-2"></g>
                <polygon id="Fill-1" fill="#171616" mask="url(#mask-2)" points="-2.29591837 -2.29591837 61.9715663 -2.29591837 61.9715663 61.6988526 -2.29591837 61.6988526"></polygon>
            </g>
            <g id="Group-6" transform="translate(0.000000, 0.459184)">
                <mask id="mask-4" fill="white">
                    <use xlink:href="#path-3"></use>
                </mask>
                <g id="Clip-5"></g>
                <polygon id="Fill-4" fill="#171616" mask="url(#mask-4)" points="-2.29591837 -2.29591837 61.9725 -2.29591837 61.9725 61.6888638 -2.29591837 61.6888638"></polygon>
            </g>
            <polygon id="T" fill="#E56841" points="24.5365 24.771 19.105 24.771 19.105 21.15 33.895 21.15 33.895 24.771 28.4635 24.771 28.4635 39 24.5365 39"></polygon>
            <path d="M74.5965,39.306 C73.2874935,39.306 72.0720056,39.0680024 70.95,38.592 C69.8279944,38.1159976 68.8590041,37.4657541 68.043,36.64125 C67.2269959,35.8167459 66.5895023,34.8435056 66.1305,33.7215 C65.6714977,32.5994944 65.442,31.4010064 65.442,30.126 L65.442,30.075 C65.442,28.7999936 65.6714977,27.6057556 66.1305,26.49225 C66.5895023,25.3787444 67.2269959,24.4012542 68.043,23.55975 C68.8590041,22.7182458 69.8364943,22.0552524 70.9755,21.57075 C72.1145057,21.0862476 73.3724931,20.844 74.7495,20.844 C75.5825042,20.844 76.3432466,20.9119993 77.03175,21.048 C77.7202534,21.1840007 78.3449972,21.3709988 78.906,21.609 C79.4670028,21.8470012 79.9854976,22.1359983 80.4615,22.476 C80.9375024,22.8160017 81.379498,23.189998 81.7875,23.598 L79.2885,26.4795 C78.5914965,25.8504969 77.8817536,25.3575018 77.15925,25.0005 C76.4367464,24.6434982 75.6250045,24.465 74.724,24.465 C73.9759963,24.465 73.2832532,24.6094986 72.64575,24.8985 C72.0082468,25.1875014 71.4600023,25.5869974 71.001,26.097 C70.5419977,26.6070025 70.1850013,27.1977466 69.93,27.86925 C69.6749987,28.5407534 69.5475,29.2589962 69.5475,30.024 L69.5475,30.075 C69.5475,30.8400038 69.6749987,31.5624966 69.93,32.2425 C70.1850013,32.9225034 70.5377477,33.5174975 70.98825,34.0275 C71.4387523,34.5375025 71.9827468,34.9412485 72.62025,35.23875 C73.2577532,35.5362515 73.9589962,35.685 74.724,35.685 C75.7440051,35.685 76.6067465,35.4980019 77.31225,35.124 C78.0177535,34.7499981 78.7189965,34.2400032 79.416,33.594 L81.915,36.1185 C81.4559977,36.6115025 80.9800025,37.053498 80.487,37.4445 C79.9939975,37.835502 79.4542529,38.1712486 78.86775,38.45175 C78.2812471,38.7322514 77.6395035,38.9447493 76.9425,39.08925 C76.2454965,39.2337507 75.4635043,39.306 74.5965,39.306 Z" id="C" fill="#E56841"></path>
        </g>
    </g>
</svg>