<svg width="80" height="48" viewBox="0 0 80 48" fill="none" xmlns="http://www.w3.org/2000/svg">
<path d="M4.44873 40.7407H7.33838V44.6831C6.86572 44.8371 6.41097 44.9463 5.97412 45.0107C5.54085 45.0752 5.07178 45.1074 4.56689 45.1074C3.37809 45.1074 2.46143 44.7565 1.81689 44.0547C1.17236 43.3493 0.850098 42.3556 0.850098 41.0737C0.850098 39.8097 1.21354 38.8215 1.94043 38.1089C2.66732 37.3927 3.66813 37.0347 4.94287 37.0347C5.76286 37.0347 6.53988 37.1922 7.27393 37.5073L6.82275 38.5762C6.18538 38.2826 5.54801 38.1357 4.91064 38.1357C4.07275 38.1357 3.41032 38.3989 2.92334 38.9253C2.43636 39.4517 2.19287 40.1714 2.19287 41.0845C2.19287 42.0441 2.4113 42.7746 2.84814 43.2759C3.28857 43.7736 3.92057 44.0225 4.74414 44.0225C5.15951 44.0225 5.60352 43.9705 6.07617 43.8667V41.8418H4.44873V40.7407ZM14.3638 42.019C14.3638 42.9894 14.1149 43.7467 13.6172 44.291C13.1195 44.8353 12.4266 45.1074 11.5386 45.1074C10.9836 45.1074 10.493 44.9821 10.0669 44.7314C9.64079 44.4808 9.31315 44.1209 9.08398 43.6519C8.85482 43.1828 8.74023 42.6385 8.74023 42.019C8.74023 41.0558 8.9873 40.3039 9.48145 39.7632C9.97559 39.2225 10.672 38.9521 11.5708 38.9521C12.4302 38.9521 13.1105 39.2297 13.6118 39.7847C14.1131 40.3361 14.3638 41.0809 14.3638 42.019ZM10.04 42.019C10.04 43.3905 10.5467 44.0762 11.5601 44.0762C12.5627 44.0762 13.064 43.3905 13.064 42.019C13.064 40.6619 12.5591 39.9834 11.5493 39.9834C11.0194 39.9834 10.6344 40.1589 10.3945 40.5098C10.1582 40.8607 10.04 41.3638 10.04 42.019ZM21.0884 42.019C21.0884 42.9894 20.8395 43.7467 20.3418 44.291C19.8441 44.8353 19.1512 45.1074 18.2632 45.1074C17.7082 45.1074 17.2176 44.9821 16.7915 44.7314C16.3654 44.4808 16.0378 44.1209 15.8086 43.6519C15.5794 43.1828 15.4648 42.6385 15.4648 42.019C15.4648 41.0558 15.7119 40.3039 16.2061 39.7632C16.7002 39.2225 17.3966 38.9521 18.2954 38.9521C19.1548 38.9521 19.8351 39.2297 20.3364 39.7847C20.8377 40.3361 21.0884 41.0809 21.0884 42.019ZM16.7646 42.019C16.7646 43.3905 17.2713 44.0762 18.2847 44.0762C19.2873 44.0762 19.7886 43.3905 19.7886 42.019C19.7886 40.6619 19.2837 39.9834 18.2739 39.9834C17.744 39.9834 17.359 40.1589 17.1191 40.5098C16.8828 40.8607 16.7646 41.3638 16.7646 42.019ZM24.5474 45.1074C23.8062 45.1074 23.2279 44.8389 22.8125 44.3018C22.3971 43.7646 22.1895 43.0109 22.1895 42.0405C22.1895 41.0666 22.3989 40.3092 22.8179 39.7686C23.2404 39.2243 23.8241 38.9521 24.5688 38.9521C25.3494 38.9521 25.9438 39.2404 26.3521 39.8169H26.4165C26.3556 39.3908 26.3252 39.0542 26.3252 38.8071V36.6426H27.5928V45H26.6045L26.3843 44.2212H26.3252C25.9206 44.812 25.328 45.1074 24.5474 45.1074ZM24.8857 44.0869C25.4049 44.0869 25.7827 43.9419 26.019 43.6519C26.2554 43.3582 26.3771 42.8838 26.3843 42.2285V42.0513C26.3843 41.3029 26.2625 40.7712 26.019 40.4561C25.7756 40.141 25.3942 39.9834 24.875 39.9834C24.431 39.9834 24.089 40.1642 23.8491 40.5259C23.6092 40.884 23.4893 41.396 23.4893 42.062C23.4893 42.7209 23.6056 43.224 23.8384 43.5713C24.0711 43.915 24.4202 44.0869 24.8857 44.0869ZM39.3608 41.063C39.3608 42.0155 39.1782 42.8175 38.813 43.4692C38.4513 44.1209 37.9232 44.5793 37.2285 44.8442L39.1084 46.8691H37.3789L35.8965 45.1074H35.687C34.5018 45.1074 33.5905 44.7565 32.9531 44.0547C32.3193 43.3493 32.0024 42.3485 32.0024 41.0522C32.0024 39.756 32.3211 38.7606 32.9585 38.0659C33.5994 37.3713 34.5125 37.0239 35.6978 37.0239C36.8651 37.0239 37.7674 37.3766 38.4048 38.082C39.0422 38.7874 39.3608 39.7811 39.3608 41.063ZM33.3667 41.063C33.3667 42.0298 33.5618 42.7638 33.9521 43.2651C34.3424 43.7629 34.9207 44.0117 35.687 44.0117C36.4497 44.0117 37.0244 43.7646 37.4111 43.2705C37.8014 42.7764 37.9966 42.0405 37.9966 41.063C37.9966 40.0998 37.8032 39.3693 37.4165 38.8716C37.0334 38.3739 36.4604 38.125 35.6978 38.125C34.9279 38.125 34.346 38.3739 33.9521 38.8716C33.5618 39.3693 33.3667 40.0998 33.3667 41.063ZM45.1025 45L44.9253 44.2212H44.8608C44.6854 44.4969 44.4347 44.7135 44.1089 44.8711C43.7866 45.0286 43.4178 45.1074 43.0024 45.1074C42.2827 45.1074 41.7456 44.9284 41.3911 44.5703C41.0366 44.2122 40.8594 43.6698 40.8594 42.9429V39.0596H42.1323V42.7227C42.1323 43.1774 42.2254 43.5194 42.4116 43.7485C42.5978 43.9741 42.8896 44.0869 43.2871 44.0869C43.8171 44.0869 44.2056 43.9294 44.4526 43.6143C44.7033 43.2956 44.8286 42.7638 44.8286 42.019V39.0596H46.0962V45H45.1025ZM50.4897 45.1074C49.5659 45.1074 48.8426 44.8389 48.3198 44.3018C47.8006 43.7611 47.541 43.0181 47.541 42.0728C47.541 41.1024 47.7827 40.3397 48.2661 39.7847C48.7495 39.2297 49.4137 38.9521 50.2588 38.9521C51.043 38.9521 51.6624 39.1903 52.1172 39.6665C52.5719 40.1427 52.7993 40.798 52.7993 41.6323V42.3145H48.8408C48.8587 42.891 49.0145 43.335 49.3081 43.6465C49.6017 43.9544 50.0153 44.1084 50.5488 44.1084C50.8997 44.1084 51.2256 44.0762 51.5264 44.0117C51.8307 43.9437 52.1566 43.8327 52.5039 43.6787V44.7046C52.196 44.8514 51.8844 44.9552 51.5693 45.0161C51.2542 45.077 50.8944 45.1074 50.4897 45.1074ZM50.2588 39.9082C49.8577 39.9082 49.5355 40.0353 49.292 40.2896C49.0521 40.5438 48.9089 40.9144 48.8623 41.4014H51.5586C51.5514 40.9108 51.4333 40.5402 51.2041 40.2896C50.9749 40.0353 50.6598 39.9082 50.2588 39.9082ZM58.2241 43.3081C58.2241 43.8882 58.0129 44.334 57.5903 44.6455C57.1678 44.9535 56.5627 45.1074 55.7749 45.1074C54.9836 45.1074 54.348 44.9875 53.8682 44.7476V43.6572C54.5664 43.9795 55.2163 44.1406 55.8179 44.1406C56.5949 44.1406 56.9834 43.9061 56.9834 43.437C56.9834 43.2866 56.9404 43.1613 56.8545 43.061C56.7686 42.9608 56.6271 42.8569 56.4302 42.7495C56.2332 42.6421 55.9593 42.5203 55.6084 42.3843C54.9245 42.1193 54.4608 41.8543 54.2173 41.5894C53.9774 41.3244 53.8574 40.9806 53.8574 40.5581C53.8574 40.0496 54.0615 39.6558 54.4697 39.3765C54.8815 39.0936 55.4401 38.9521 56.1455 38.9521C56.8438 38.9521 57.5044 39.0936 58.1274 39.3765L57.7192 40.3271C57.0783 40.0622 56.5394 39.9297 56.1025 39.9297C55.4365 39.9297 55.1035 40.1195 55.1035 40.499C55.1035 40.6852 55.1895 40.8428 55.3613 40.9717C55.5368 41.1006 55.9163 41.2778 56.5 41.5034C56.9906 41.6932 57.3468 41.8669 57.5688 42.0244C57.7909 42.182 57.9556 42.3646 58.063 42.5723C58.1704 42.7764 58.2241 43.0216 58.2241 43.3081ZM61.8066 44.0869C62.1146 44.0869 62.4225 44.0386 62.7305 43.9419V44.8926C62.5908 44.9535 62.41 45.0036 62.188 45.043C61.9696 45.0859 61.7422 45.1074 61.5059 45.1074C60.3099 45.1074 59.7119 44.4772 59.7119 43.2168V40.0156H58.9009V39.457L59.771 38.9951L60.2007 37.7383H60.9795V39.0596H62.6714V40.0156H60.9795V43.1953C60.9795 43.4997 61.0547 43.7253 61.2051 43.8721C61.359 44.0153 61.5596 44.0869 61.8066 44.0869ZM65.1851 45H63.9229V39.0596H65.1851V45ZM63.8477 37.4858C63.8477 37.2603 63.9085 37.0866 64.0303 36.9648C64.1556 36.8431 64.3328 36.7822 64.562 36.7822C64.784 36.7822 64.9559 36.8431 65.0776 36.9648C65.203 37.0866 65.2656 37.2603 65.2656 37.4858C65.2656 37.7007 65.203 37.8708 65.0776 37.9961C64.9559 38.1178 64.784 38.1787 64.562 38.1787C64.3328 38.1787 64.1556 38.1178 64.0303 37.9961C63.9085 37.8708 63.8477 37.7007 63.8477 37.4858ZM72.2642 42.019C72.2642 42.9894 72.0153 43.7467 71.5176 44.291C71.0199 44.8353 70.327 45.1074 69.439 45.1074C68.884 45.1074 68.3934 44.9821 67.9673 44.7314C67.5412 44.4808 67.2135 44.1209 66.9844 43.6519C66.7552 43.1828 66.6406 42.6385 66.6406 42.019C66.6406 41.0558 66.8877 40.3039 67.3818 39.7632C67.876 39.2225 68.5724 38.9521 69.4712 38.9521C70.3306 38.9521 71.0109 39.2297 71.5122 39.7847C72.0135 40.3361 72.2642 41.0809 72.2642 42.019ZM67.9404 42.019C67.9404 43.3905 68.4471 44.0762 69.4604 44.0762C70.4631 44.0762 70.9644 43.3905 70.9644 42.019C70.9644 40.6619 70.4595 39.9834 69.4497 39.9834C68.9198 39.9834 68.5348 40.1589 68.2949 40.5098C68.0586 40.8607 67.9404 41.3638 67.9404 42.019ZM78.9458 45H77.6782V41.3477C77.6782 40.8893 77.5851 40.5474 77.3989 40.3218C77.2163 40.0962 76.9245 39.9834 76.5234 39.9834C75.9899 39.9834 75.5996 40.141 75.3525 40.4561C75.1055 40.7712 74.9819 41.2993 74.9819 42.0405V45H73.7197V39.0596H74.708L74.8853 39.8384H74.9497C75.1287 39.5555 75.383 39.3371 75.7124 39.1831C76.0418 39.0291 76.4071 38.9521 76.8081 38.9521C78.2332 38.9521 78.9458 39.6772 78.9458 41.1274V45Z" fill="#224F59"/>
<path d="M38.4005 14.0149C38.2319 14.1834 38.2826 14.2886 38.3117 14.3465C38.4128 14.5452 38.5219 14.7939 38.5897 15.0316C38.6164 15.1258 38.6648 15.288 38.833 15.1195C39.0016 14.9514 40.3857 13.5711 40.3857 13.5711L44.0278 9.93764C44.4647 9.50185 45.0051 9.23618 45.5495 9.1889C45.9884 9.15095 46.4133 9.25748 46.7827 9.49053L46.8245 9.44924C47.1255 9.14895 47.3154 8.80604 47.3595 8.48445C47.4082 8.12889 47.2407 7.76534 46.9309 7.45639C46.6486 7.17507 46.241 6.9913 45.7968 7.10283C45.3959 7.20404 44.9577 7.46272 44.6253 7.7943L44.3572 8.06131C44.3122 8.11257 44.2668 8.16384 44.2171 8.21312L39.6394 12.7791C39.6394 12.7791 38.569 13.8464 38.4005 14.0149Z" fill="#224F59"/>
<path d="M31.5105 25.0452C31.7768 24.7799 31.9521 24.6047 31.9521 24.6047C31.9521 24.6047 32.137 24.422 32.137 24.0724C32.137 23.7228 32.137 20.7172 32.137 20.7172C32.137 20.5694 32.1363 20.4286 32.1353 20.2941C32.1263 18.8123 32.1206 17.9177 33.4153 16.626L35.9887 14.0595L36.001 14.0472L36.719 13.3311C36.8962 13.1547 37.1742 13.1294 37.3808 13.2712C37.3888 13.2765 37.4279 13.3038 37.4873 13.3514C37.5751 13.4393 37.7233 13.4619 37.8791 13.3058C38.0354 13.15 38.9999 12.1882 38.9999 12.1882L38.9939 12.1822L43.6891 7.49903C44.0602 7.05359 44.2024 6.43968 43.7241 5.96261C43.2004 5.44059 42.5109 5.65965 42.0603 6.1091L35.2831 12.8697L34.8412 13.3101L34.6112 13.5395L34.1716 13.978L33.8362 14.3129C33.6333 14.515 33.3048 14.515 33.1022 14.3129C32.8993 14.1105 32.8993 13.7825 33.1022 13.5805L34.5014 12.1849C34.8619 11.805 34.959 11.3219 34.922 10.9144C34.8879 10.5429 34.7107 10.228 34.5281 9.99592C34.5114 9.97462 34.4013 9.8531 34.2801 9.97395C34.159 10.0948 31.4481 12.7984 31.4481 12.7984C30.4601 13.7842 30.4635 14.3135 30.4721 15.7278C30.4731 15.864 30.4741 16.0068 30.4741 16.1573V20.075C30.4741 20.2122 30.4194 20.3444 30.3219 20.4413C30.3219 20.4413 28.4011 22.3575 28.1351 22.6232C27.8691 22.8885 28.078 23.0324 28.078 23.0324L30.9588 25.0572C30.9581 25.0572 31.2441 25.3105 31.5105 25.0452Z" fill="#224F59"/>
<path d="M50.8919 18.9188C50.6456 18.966 50.3685 19.1325 50.0885 19.3995L47.2678 22.2127L46.14 23.3376L45.6734 23.803C45.5719 23.9042 45.4394 23.9548 45.3063 23.9548C45.1738 23.9548 45.0409 23.9042 44.9391 23.803C44.7365 23.6009 44.7365 23.2734 44.9391 23.0709L45.0112 22.999L45.2435 22.7676L46.7969 21.2182L49.3485 18.6731L50.934 17.0914C51.3849 16.6419 51.6052 15.9545 51.0808 15.4318C50.6159 14.9677 50.0211 15.0895 49.5782 15.4368C49.5425 15.4647 49.5078 15.4944 49.474 15.525C49.4544 15.543 49.4353 15.56 49.4166 15.5789L45.1751 19.8097L45.1307 19.8543L44.9535 20.0311L44.9114 20.0727L44.6147 20.369L43.8634 21.1184C43.8394 21.1423 43.813 21.1633 43.7856 21.1813C43.6678 21.2605 43.5249 21.2862 43.3901 21.2582C43.2946 21.2382 43.2032 21.1923 43.1291 21.118C42.9265 20.916 42.9265 20.588 43.1291 20.3859L43.7779 19.7388L44.2339 19.284L44.2385 19.2793L44.7285 18.7906L48.683 14.8465C48.698 14.8315 48.7137 14.8185 48.7291 14.8039L49.2601 14.2742L49.5261 14.0089C49.8272 13.7086 50.0174 13.3657 50.0615 13.0444C50.1099 12.6885 49.983 12.3653 49.6733 12.0563C49.3909 11.7747 49.0375 11.6928 48.5932 11.8046C48.1924 11.9058 47.7541 12.1642 47.4214 12.4961L47.1537 12.7631L47.0198 12.8963L42.4295 17.4752L40.8424 19.0693C40.7413 19.1685 40.6105 19.2181 40.479 19.2181C40.3465 19.2181 40.2133 19.1678 40.1118 19.0666C40.0047 18.9594 39.9556 18.8172 39.962 18.6767C39.9676 18.5522 40.0164 18.4294 40.1118 18.3342L41.1352 17.3134L41.6415 16.8084C41.6578 16.7861 41.6749 16.7631 41.6952 16.7431L46.3903 12.06C46.6393 11.761 46.7849 11.3868 46.7091 11.0279C46.6744 10.8628 46.5916 10.7017 46.4518 10.5525C46.4428 10.5429 46.4351 10.5325 46.4257 10.5229C46.2946 10.3924 46.1534 10.3082 46.0085 10.2625C45.5719 10.1247 45.0997 10.3325 44.7616 10.6697L41.1195 14.3029L39.2827 16.1352L37.9844 17.43L37.5425 17.8704L37.3125 18.0998L36.8729 18.5386L36.5375 18.8732C36.3345 19.0752 36.0061 19.0752 35.8032 18.8732C35.6006 18.6711 35.6006 18.3432 35.8032 18.1411L37.2023 16.7455C37.5692 16.3709 37.6599 15.8822 37.6229 15.4751C37.6072 15.3039 37.5611 15.1451 37.4984 15.0003C37.4293 14.8422 37.3402 14.7017 37.2484 14.5815C37.2003 14.5189 37.0932 14.422 36.8969 14.6181C36.7004 14.8139 34.1487 17.3584 34.1487 17.3584C33.1607 18.3445 33.1641 18.8735 33.1727 20.2877C33.1737 20.4239 33.1744 20.5667 33.1744 20.7172L33.1747 24.6353C33.1747 24.7722 33.12 24.9043 33.0226 25.0015L32.1361 25.8858L31.7636 26.257L31.3908 26.6285C31.3908 26.6285 31.1421 26.8762 30.8497 27.1682C30.557 27.4601 30.8427 27.6369 30.8427 27.6369L36.911 31.9029C36.911 31.9029 37.2411 32.132 37.4874 31.8863C37.7337 31.6406 38.8532 30.524 38.8532 30.524C38.962 30.4155 39.1148 30.3609 39.267 30.3745C39.2861 30.3762 41.3568 30.5403 42.5303 29.3704L47.5709 24.342L47.5716 24.346L47.6316 24.2861L47.7124 24.2059L51.2594 20.6683C51.8598 20.0687 51.959 19.5593 51.5531 19.1548C51.2801 18.8832 51.0448 18.8901 50.8919 18.9188Z" fill="#224F59"/>
<path d="M38.9689 4.59263C39.0703 4.69384 39.2032 4.74411 39.336 4.74411C39.4688 4.74411 39.6017 4.69384 39.7028 4.59263C39.9054 4.39055 39.9054 4.06263 39.7028 3.86055L38.319 2.47993C38.1164 2.27785 37.7877 2.27785 37.5851 2.47993C37.3825 2.68201 37.3825 3.00994 37.5851 3.21202L38.9689 4.59263Z" fill="#224F59"/>
<path d="M36.0104 7.54393C36.1118 7.64514 36.2447 7.69541 36.3775 7.69541C36.5104 7.69541 36.6432 7.64514 36.7447 7.54393C36.9476 7.34185 36.9476 7.01392 36.7447 6.81184L35.3605 5.43122C35.1579 5.22914 34.8292 5.22914 34.6266 5.43122C34.424 5.63331 34.424 5.96123 34.6266 6.16331L36.0104 7.54393Z" fill="#224F59"/>
<path d="M47.177 4.74408C47.3098 4.74408 47.4426 4.69381 47.5441 4.5926L48.9686 3.17137C49.1712 2.96929 49.1712 2.64136 48.9686 2.43928C48.766 2.2372 48.4373 2.2372 48.2347 2.43928L46.8102 3.86051C46.6076 4.06259 46.6076 4.39052 46.8102 4.5926C46.9113 4.69381 47.0438 4.74408 47.177 4.74408Z" fill="#224F59"/>
<path d="M49.8498 8.29101C49.9823 8.29101 50.1155 8.24041 50.217 8.1392L51.6415 6.71831C51.8441 6.51622 51.8441 6.1883 51.6415 5.98622C51.4389 5.78414 51.1101 5.78414 50.9075 5.98622L49.483 7.40711C49.2804 7.6092 49.2804 7.93712 49.483 8.1392C49.5845 8.24041 49.717 8.29101 49.8498 8.29101Z" fill="#224F59"/>
<path d="M53.8479 9.3777C53.6453 9.17561 53.3165 9.17561 53.1139 9.3777L51.6891 10.7989C51.4865 11.001 51.4865 11.3289 51.6891 11.531C51.7909 11.6322 51.9234 11.6825 52.0562 11.6825C52.189 11.6825 52.3219 11.6322 52.4237 11.531L53.8482 10.1098C54.0505 9.9077 54.0505 9.57978 53.8479 9.3777Z" fill="#224F59"/>
<path d="M43.4163 3.12711C43.7027 3.12711 43.9353 2.8954 43.9353 2.60909V0.518022C43.9353 0.231712 43.7027 0 43.4163 0C43.1296 0 42.897 0.231712 42.897 0.518022V2.60909C42.897 2.89506 43.1296 3.12711 43.4163 3.12711Z" fill="#224F59"/>
</svg>
