<?xml version="1.0" encoding="UTF-8"?>
<svg width="57px" height="57px" viewBox="0 0 57 57" version="1.1" xmlns="http://www.w3.org/2000/svg" xmlns:xlink="http://www.w3.org/1999/xlink">
    <!-- Generator: Sketch 48.2 (47327) - http://www.bohemiancoding.com/sketch -->
    <title>Same Here (Inactive)</title>
    <desc>Created with Sketch.</desc>
    <defs></defs>
    <g id="As-of-2/6/18" stroke="none" stroke-width="1" fill="none" fill-rule="evenodd" transform="translate(-76.000000, -219.000000)">
        <g id="Same-Here-(Inactive)" transform="translate(76.000000, 222.000000)" fill="#224F59">
            <path d="M24.9271625,12.6569596 C23.4857652,9.36205983 20.4816483,8.4447265 20.0141681,10.1801596 C19.8466544,10.8021001 21.2118079,11.0369143 21.6164009,11.4713495 C21.8662802,11.741934 21.9252717,11.9675172 22.2552905,12.4521462 C22.6704574,13.0602401 22.6554313,13.7837218 22.822945,14.1621939 C23.1663204,14.9376002 23.1835726,15.6564665 23.6360267,16.3078308 C24.3923429,17.3942073 26.1554111,18.6334727 26.4837603,20.233902 C26.7119352,21.3473947 26.4598298,22.6610852 26.4141948,23.7630391 C26.2945421,26.5848487 26.1053239,29.3501183 25.5621565,32 L34.2166621,32 C33.8142952,29.5053149 33.670712,26.4809997 33.3640673,23.6164965 C33.1965535,22.036837 32.9511264,20.7092999 33.4358589,19.3506081 C34.0730789,17.558635 34.6101246,17.2407415 34.8382995,14.9289461 C34.918439,14.1108463 35.1187876,12.8398493 35.138266,11.9248237 C35.1683183,10.4167047 35.5617808,7.84990219 35.8706516,6.50447999 C36.3253318,4.51923222 35.4771891,3.78882719 34.9356912,4.58904186 C34.0903312,5.83984603 33.751408,10.1530435 33.1314402,10.8926795 C32.9143958,10.2274686 33.6273031,4.62250433 33.6295292,2.6216792 C33.6295292,2.10301086 33.2249362,1.78107879 32.7274037,1.77415552 C31.4857986,1.75800122 31.6510862,8.94550973 30.8814134,10.0561177 C30.6142819,8.04144601 31.3661459,2.851301 31.0967882,0.746626812 C30.8619351,0.068146318 30.2252716,-0.353596234 29.8574092,0.401617173 C29.0270753,2.11224189 28.9074226,8.09337053 28.5139601,10.0157319 C27.8600443,8.21972022 29.2535805,1.93396768 28.0336798,1.32125825 C26.8794489,0.742011299 26.6295696,2.47052113 26.3707859,6.81775797 C25.9055318,14.6041294 26.0096018,12.9027357 24.9271625,12.6569596 Z" id="Me-Too-Button-Copy-5"></path>
            <path d="M5.484,37.248 L5.484,38.712 C4.883997,38.3519982 4.2440034,38.172 3.564,38.172 C3.18799812,38.172 2.89400106,38.2559992 2.682,38.424 C2.46999894,38.5920008 2.364,38.8079987 2.364,39.072 C2.364,39.3360013 2.47799886,39.5539991 2.706,39.726 C2.93400114,39.8980009 3.27599772,40.087999 3.732,40.296 C4.0520016,40.4400007 4.311999,40.5659995 4.512,40.674 C4.712001,40.7820005 4.92999882,40.931999 5.166,41.124 C5.40200118,41.316001 5.57799942,41.5459987 5.694,41.814 C5.81000058,42.0820013 5.868,42.3879983 5.868,42.732 C5.868,43.4520036 5.61000258,44.0259979 5.094,44.454 C4.57799742,44.8820021 3.9000042,45.096 3.06,45.096 C2.14799544,45.096 1.392003,44.9240017 0.792,44.58 L0.792,43.032 C1.48000344,43.5280025 2.23199592,43.776 3.048,43.776 C3.41600184,43.776 3.71199888,43.6860009 3.936,43.506 C4.16000112,43.3259991 4.272,43.0840015 4.272,42.78 C4.272,42.6359993 4.24400028,42.5080006 4.188,42.396 C4.13199972,42.2839994 4.01800086,42.1720006 3.846,42.06 C3.67399914,41.9479994 3.54200046,41.8680002 3.45,41.82 C3.35799954,41.7719998 3.16800144,41.6840006 2.88,41.556 C2.7999996,41.5159998 2.7400002,41.4880001 2.7,41.472 C2.40399852,41.3359993 2.16400092,41.2140005 1.98,41.106 C1.79599908,40.9979995 1.59600108,40.8520009 1.38,40.668 C1.16399892,40.4839991 1.00200054,40.2640013 0.894,40.008 C0.78599946,39.7519987 0.732,39.4600016 0.732,39.132 C0.732,38.4439966 0.98599746,37.8920021 1.494,37.476 C2.00200254,37.0599979 2.6759958,36.852 3.516,36.852 C4.2760038,36.852 4.93199724,36.9839987 5.484,37.248 Z M10.248,42.384 L9.504,42.384 C9.12799812,42.384 8.840001,42.4619992 8.64,42.618 C8.439999,42.7740008 8.34,42.9719988 8.34,43.212 C8.34,43.7240026 8.63599704,43.98 9.228,43.98 C9.5480016,43.98 9.7979991,43.8860009 9.978,43.698 C10.1580009,43.5099991 10.248,43.2640015 10.248,42.96 L10.248,42.384 Z M7.296,40.56 L7.296,39.228 C7.75200228,38.9479986 8.40799572,38.808 9.264,38.808 C10.9120082,38.808 11.736,39.5759923 11.736,41.112 L11.736,45 L10.308,45 L10.308,44.268 C10.0279986,44.7880026 9.50000388,45.048 8.724,45.048 C8.14799712,45.048 7.6900017,44.8800017 7.35,44.544 C7.0099983,44.2079983 6.84,43.7840026 6.84,43.272 C6.84,42.6959971 7.05599784,42.2440016 7.488,41.916 C7.92000216,41.5879984 8.54399592,41.424 9.36,41.424 L10.248,41.424 L10.248,41.052 C10.248,40.7159983 10.1600009,40.4600009 9.984,40.284 C9.80799912,40.1079991 9.50800212,40.02 9.084,40.02 C8.43599676,40.02 7.84000272,40.1999982 7.296,40.56 Z M14.664,38.916 L14.664,39.876 C15.0080017,39.1879966 15.579996,38.844 16.38,38.844 C17.2680044,38.844 17.8439987,39.2279962 18.108,39.996 C18.2680008,39.6279982 18.5079984,39.344001 18.828,39.144 C19.1480016,38.943999 19.511998,38.844 19.92,38.844 C20.5360031,38.844 21.0119983,39.0299981 21.348,39.402 C21.6840017,39.7740019 21.852,40.3039966 21.852,40.992 L21.852,45 L20.4,45 L20.4,41.268 C20.4,40.4519959 20.0880031,40.044 19.464,40.044 C19.1519984,40.044 18.8740012,40.1799986 18.63,40.452 C18.3859988,40.7240014 18.264,41.1519971 18.264,41.736 L18.264,45 L16.812,45 L16.812,41.268 C16.812,40.4519959 16.5000031,40.044 15.876,40.044 C15.5639984,40.044 15.2840012,40.1799986 15.036,40.452 C14.7879988,40.7240014 14.664,41.1519971 14.664,41.736 L14.664,45 L13.224,45 L13.224,38.916 L14.664,38.916 Z M27,41.46 L27,41.28 C26.9839999,40.887998 26.878001,40.5740012 26.682,40.338 C26.485999,40.1019988 26.2000019,39.984 25.824,39.984 C25.4799983,39.984 25.1820013,40.1099987 24.93,40.362 C24.6779987,40.6140013 24.5160004,40.9799976 24.444,41.46 L27,41.46 Z M27.984,43.416 L27.984,44.664 C27.5599979,44.9280013 26.948004,45.06 26.148,45.06 C25.1799952,45.06 24.4160028,44.7720029 23.856,44.196 C23.2959972,43.6199971 23.016,42.8760046 23.016,41.964 C23.016,40.9959952 23.2799974,40.2360028 23.808,39.684 C24.3360026,39.1319972 24.995996,38.856 25.788,38.856 C26.580004,38.856 27.2079977,39.0959976 27.672,39.576 C28.1360023,40.0560024 28.368,40.7559954 28.368,41.676 C28.368,41.9000011 28.3400003,42.1879982 28.284,42.54 L24.468,42.54 C24.5720005,42.9800022 24.7899983,43.3159988 25.122,43.548 C25.4540017,43.7800012 25.8679975,43.896 26.364,43.896 C27.0040032,43.896 27.5439978,43.7360016 27.984,43.416 Z M37.56,36.912 L39.084,36.912 L39.084,45 L37.56,45 L37.56,41.604 L34.236,41.604 L34.236,45 L32.724,45 L32.724,36.912 L34.236,36.912 L34.236,40.296 L37.56,40.296 L37.56,36.912 Z M44.364,41.46 L44.364,41.28 C44.3479999,40.887998 44.242001,40.5740012 44.046,40.338 C43.849999,40.1019988 43.5640019,39.984 43.188,39.984 C42.8439983,39.984 42.5460013,40.1099987 42.294,40.362 C42.0419987,40.6140013 41.8800004,40.9799976 41.808,41.46 L44.364,41.46 Z M45.348,43.416 L45.348,44.664 C44.9239979,44.9280013 44.312004,45.06 43.512,45.06 C42.5439952,45.06 41.7800028,44.7720029 41.22,44.196 C40.6599972,43.6199971 40.38,42.8760046 40.38,41.964 C40.38,40.9959952 40.6439974,40.2360028 41.172,39.684 C41.7000026,39.1319972 42.359996,38.856 43.152,38.856 C43.944004,38.856 44.5719977,39.0959976 45.036,39.576 C45.5000023,40.0560024 45.732,40.7559954 45.732,41.676 C45.732,41.9000011 45.7040003,42.1879982 45.648,42.54 L41.832,42.54 C41.9360005,42.9800022 42.1539983,43.3159988 42.486,43.548 C42.8180017,43.7800012 43.2319975,43.896 43.728,43.896 C44.3680032,43.896 44.9079978,43.7360016 45.348,43.416 Z M48.492,38.916 L48.492,39.996 C48.7720014,39.2439962 49.2839963,38.868 50.028,38.868 C50.1960008,38.868 50.3319995,38.8799999 50.436,38.904 L50.436,40.296 C50.2519991,40.2159996 50.0480011,40.176 49.824,40.176 C49.431998,40.176 49.1120012,40.3359984 48.864,40.656 C48.6159988,40.9760016 48.492,41.3759976 48.492,41.856 L48.492,45 L47.04,45 L47.052,38.916 L48.492,38.916 Z M54.948,41.46 L54.948,41.28 C54.9319999,40.887998 54.826001,40.5740012 54.63,40.338 C54.433999,40.1019988 54.1480019,39.984 53.772,39.984 C53.4279983,39.984 53.1300013,40.1099987 52.878,40.362 C52.6259987,40.6140013 52.4640004,40.9799976 52.392,41.46 L54.948,41.46 Z M55.932,43.416 L55.932,44.664 C55.5079979,44.9280013 54.896004,45.06 54.096,45.06 C53.1279952,45.06 52.3640028,44.7720029 51.804,44.196 C51.2439972,43.6199971 50.964,42.8760046 50.964,41.964 C50.964,40.9959952 51.2279974,40.2360028 51.756,39.684 C52.2840026,39.1319972 52.943996,38.856 53.736,38.856 C54.528004,38.856 55.1559977,39.0959976 55.62,39.576 C56.0840023,40.0560024 56.316,40.7559954 56.316,41.676 C56.316,41.9000011 56.2880003,42.1879982 56.232,42.54 L52.416,42.54 C52.5200005,42.9800022 52.7379983,43.3159988 53.07,43.548 C53.4020017,43.7800012 53.8159975,43.896 54.312,43.896 C54.9520032,43.896 55.4919978,43.7360016 55.932,43.416 Z" id="Same-Here"></path>
        </g>
    </g>
</svg>