<?xml version="1.0" encoding="UTF-8"?>
<svg width="58px" height="58px" viewBox="0 0 58 58" version="1.1" xmlns="http://www.w3.org/2000/svg" xmlns:xlink="http://www.w3.org/1999/xlink">
    <!-- Generator: Sketch 46.2 (44496) - http://www.bohemiancoding.com/sketch -->
    <title>Robot Profile Image</title>
    <desc>Created with Sketch.</desc>
    <defs>
        <rect id="path-1" x="0" y="0" width="58" height="58"></rect>
    </defs>
    <g id="Page-1" stroke="none" stroke-width="1" fill="none" fill-rule="evenodd">
        <g id="Robot-Profile-Image">
            <g id="r1eiPbNP">
                <g id="Bitmap">
                    <mask id="mask-2" fill="white">
                        <use xlink:href="#path-1"></use>
                    </mask>
                    <use id="Mask" fill="#D8D8D8" xlink:href="#path-1"></use>
                    <g id="noun_835634" mask="url(#mask-2)">
                        <g transform="translate(7.000000, 13.000000)" id="Group">
                            <g>
                                <path d="M42.846,10.286 L41.826,11.847 C42.6455,12.3825 43.135,13.283 43.135,14.2565 C43.135,15.8505 41.8395,17.148 40.2475,17.148 C38.6535,17.148 37.3565,15.851 37.3565,14.2565 C37.3565,13.283 37.8455,12.382 38.665,11.847 L37.645,10.286 C36.2965,11.167 35.4915,12.651 35.4915,14.257 C35.4915,16.5595 37.1365,18.4845 39.313,18.92 L39.313,23.987 C39.313,25.1695 38.351,26.1315 37.168,26.1315 L31.6655,26.1315 C30.9215,23.8995 28.888,22.2575 26.452,22.087 L26.452,18.817 C31.7805,17.5565 35.4375,13.9535 35.4375,9.864 C35.4375,4.6655 29.555,0.436 22.324,0.436 C15.093,0.436 9.2105,4.665 9.2105,9.864 C9.2105,13.9535 12.8675,17.5565 18.196,18.817 L18.196,22.087 C15.76,22.2575 13.7265,23.8995 12.9825,26.1315 L7.8315,26.1315 C6.6485,26.1315 5.6865,25.1695 5.6865,23.987 L5.6865,18.9195 C7.863,18.484 9.508,16.5595 9.508,14.2565 C9.508,12.651 8.7025,11.1665 7.354,10.2855 L6.334,11.8465 C7.1535,12.382 7.643,13.2825 7.643,14.256 C7.643,15.85 6.346,17.1475 4.752,17.1475 C3.16,17.1475 1.8645,15.8505 1.8645,14.256 C1.8645,13.2825 2.354,12.382 3.1735,11.8465 L2.1535,10.2855 C0.8055,11.167 0,12.6515 0,14.2565 C0,16.56 1.6455,18.4855 3.8215,18.92 L3.8215,23.9865 C3.8215,26.1975 5.6205,27.996 7.831,27.996 L12.6755,27.996 C12.6755,27.998 12.675,28 12.675,28.0025 L12.675,32.564 L31.972,32.564 L31.972,28.0025 C31.972,28.0005 31.9715,27.9985 31.9715,27.996 L37.168,27.996 C39.379,27.996 41.1775,26.1975 41.1775,23.9865 L41.1775,18.92 C43.3545,18.4855 45,16.5605 45,14.2565 C45,12.6515 44.1945,11.167 42.846,10.286 Z M11.0755,9.864 C11.0755,5.6935 16.122,2.301 22.324,2.301 C28.526,2.301 33.5725,5.694 33.5725,9.864 C33.5725,13.235 30.1895,16.2295 25.346,17.146 L24.587,17.2895 L24.587,22.0655 L20.0605,22.0655 L20.0605,17.2895 L19.3015,17.146 C14.458,16.2295 11.0755,13.235 11.0755,9.864 Z M30.1075,30.6995 L14.5405,30.6995 L14.5405,28.0025 C14.5405,25.7575 16.367,23.9305 18.6125,23.9305 L26.0355,23.9305 C28.281,23.9305 30.1075,25.7575 30.1075,28.0025 L30.1075,30.6995 Z" id="Shape" fill="#000000" fill-rule="nonzero"></path>
                                <path d="M26.1465,15.129 C29.241,15.129 31.759,12.6115 31.759,9.5165 C31.759,6.4215 29.2415,3.904 26.1465,3.904 C23.0515,3.904 20.534,6.4215 20.534,9.5165 C20.534,12.6115 23.052,15.129 26.1465,15.129 Z M23.3725,8.917 L21.779,8.917 C21.884,8.1485 22.187,7.444 22.6355,6.8535 L23.761,7.979 C23.878,8.096 24.0315,8.1545 24.185,8.1545 C24.3385,8.1545 24.492,8.096 24.609,7.979 C24.8435,7.745 24.8435,7.365 24.609,7.131 L23.484,6.006 C24.074,5.5575 24.7785,5.2545 25.547,5.1495 L25.547,6.7425 C25.547,7.0735 25.8155,7.342 26.1465,7.342 C26.4775,7.342 26.746,7.0735 26.746,6.7425 L26.746,5.1495 C27.5145,5.2545 28.219,5.5575 28.8095,6.006 L27.6845,7.131 C27.45,7.365 27.45,7.745 27.6845,7.979 C27.8015,8.096 27.955,8.1545 28.1085,8.1545 C28.262,8.1545 28.4155,8.096 28.5325,7.979 L29.6575,6.854 C30.106,7.444 30.409,8.1485 30.514,8.917 L28.921,8.917 C28.59,8.917 28.3215,9.1855 28.3215,9.5165 C28.3215,9.8475 28.59,10.116 28.921,10.116 L30.514,10.116 C30.409,10.8845 30.106,11.589 29.6575,12.179 L28.5325,11.054 C28.2985,10.82 27.919,10.82 27.685,11.054 C27.4505,11.288 27.4505,11.668 27.685,11.902 L28.81,13.027 C28.22,13.476 27.515,13.7785 26.7465,13.8835 L26.7465,12.29 C26.7465,11.959 26.478,11.6905 26.147,11.6905 C25.816,11.6905 25.5475,11.959 25.5475,12.29 L25.5475,13.8835 C24.779,13.7785 24.0745,13.4755 23.4845,13.027 L24.6095,11.902 C24.844,11.668 24.844,11.288 24.6095,11.054 C24.3755,10.82 23.996,10.82 23.762,11.054 L22.6365,12.1795 C22.1875,11.5895 21.885,10.8845 21.78,10.116 L23.3735,10.116 C23.7045,10.116 23.973,9.8475 23.973,9.5165 C23.973,9.1855 23.7035,8.917 23.3725,8.917 Z" id="Shape" fill="#000000" fill-rule="nonzero"></path>
                                <circle id="Oval" fill="#000000" fill-rule="nonzero" cx="26.613" cy="9.5165" r="1.2865"></circle>
                                <rect id="Rectangle-path" fill="#000000" fill-rule="nonzero" x="24.7325" y="26.4495" width="1.8935" height="1.9975"></rect>
                                <rect id="Rectangle-path" fill="#000000" fill-rule="nonzero" x="21.553" y="26.4495" width="1.8935" height="1.9975"></rect>
                                <rect id="Rectangle-path" fill="#000000" fill-rule="nonzero" x="18.374" y="26.4495" width="1.8935" height="1.9975"></rect>
                            </g>
                        </g>
                    </g>
                </g>
            </g>
        </g>
    </g>
</svg>