<?xml version="1.0" encoding="UTF-8"?>
<svg width="20px" height="20px" viewBox="0 0 20 20" version="1.1" xmlns="http://www.w3.org/2000/svg" xmlns:xlink="http://www.w3.org/1999/xlink">
    <!-- Generator: Sketch 46.2 (44496) - http://www.bohemiancoding.com/sketch -->
    <title>Magnifying Glass</title>
    <desc>Created with Sketch.</desc>
    <defs></defs>
    <g id="Page-1" stroke="none" stroke-width="1" fill="none" fill-rule="evenodd">
        <g id="TCAC-Members-v1-Filters" transform="translate(-34.000000, -246.000000)" fill="#A78400">
            <g id="Search/Filter" transform="translate(0.000000, 220.000000)">
                <g id="Search" transform="translate(34.000000, 26.000000)">
                    <path d="M8.24842609,0 C3.71089177,0 0,3.71109278 0,8.24887289 C0,12.786653 3.71089177,16.4977458 8.24842609,16.4977458 C9.97770898,16.4977458 11.5816622,15.9547322 12.9122901,15.0367093 L17.4358248,19.560489 C18.0214744,20.1465037 18.9747799,20.1465037 19.5607628,19.560489 C20.1464124,18.9744744 20.1464124,18.0291174 19.5607628,17.4431027 L15.0372281,12.9209897 C15.9565346,11.5912898 16.4981855,9.97958282 16.4981855,8.24887289 C16.4981855,3.71109278 12.7872937,0 8.24975938,0 L8.24842609,0 Z M8.33333333,3 C11.2962963,3 13.6666667,5.36901587 13.6666667,8.33333333 C13.6666667,11.2962963 11.2976508,13.6666667 8.33333333,13.6666667 C5.37037037,13.6666667 3,11.2976508 3,8.33333333 C3,5.37037037 5.36901587,3 8.33333333,3 Z" id="Magnifying-Glass"></path>
                </g>
            </g>
        </g>
    </g>
</svg>