<?xml version="1.0" encoding="UTF-8" standalone="no"?><!DOCTYPE svg PUBLIC "-//W3C//DTD SVG 1.1//EN" "http://www.w3.org/Graphics/SVG/1.1/DTD/svg11.dtd"><svg width="100%" height="100%" viewBox="0 0 72 72" version="1.1" xmlns="http://www.w3.org/2000/svg" xmlns:xlink="http://www.w3.org/1999/xlink" xml:space="preserve" xmlns:serif="http://www.serif.com/" style="fill-rule:evenodd;clip-rule:evenodd;stroke-linejoin:round;stroke-miterlimit:1.41421;"><path d="M46.655,21.179l-5.031,0c-1.777,0 -2.147,0.728 -2.147,2.565l0,4.44l7.178,0l-0.691,7.794l-6.487,0l0,23.282l-9.297,0l0,-23.184l-4.835,0l0,-7.892l4.835,0l0,-6.215c0,-5.833 3.12,-8.879 10.038,-8.879l6.437,0l0,8.089Zm-10.655,-21.179c-19.883,0 -36,16.117 -36,36c0,19.883 16.117,36 36,36c19.882,0 36,-16.117 36,-36c0,-19.883 -16.118,-36 -36,-36" style="fill:#3b5998;fill-rule:nonzero;"/></svg>