<?xml version="1.0" encoding="UTF-8" standalone="no"?><!DOCTYPE svg PUBLIC "-//W3C//DTD SVG 1.1//EN" "http://www.w3.org/Graphics/SVG/1.1/DTD/svg11.dtd"><svg width="100%" height="100%" viewBox="0 0 72 72" version="1.1" xmlns="http://www.w3.org/2000/svg" xmlns:xlink="http://www.w3.org/1999/xlink" xml:space="preserve" xmlns:serif="http://www.serif.com/" style="fill-rule:evenodd;clip-rule:evenodd;stroke-linejoin:round;stroke-miterlimit:1.41421;"><path d="M56.016,53.404l-7.866,0l0,-13.404c0,-3.677 -1.397,-5.729 -4.304,-5.729c-3.163,0 -4.816,2.138 -4.816,5.729l0,13.404l-7.581,0l0,-25.536l7.581,0l0,3.439c0,0 2.28,-4.218 7.695,-4.218c5.415,0 9.291,3.306 9.291,10.146l0,16.169Zm-33.611,-28.88c-2.581,0 -4.674,-2.11 -4.674,-4.712c0,-2.602 2.093,-4.712 4.674,-4.712c2.582,0 4.674,2.11 4.674,4.712c0,2.602 -2.092,4.712 -4.674,4.712m3.99,28.88l-7.904,0l0,-25.536l7.904,0l0,25.536Zm9.604,-53.404c-19.881,0 -35.999,16.117 -35.999,36c0,19.883 16.118,36 35.999,36c19.883,0 36,-16.117 36,-36c0,-19.883 -16.117,-36 -36,-36" style="fill:#0875b7;fill-rule:nonzero;"/></svg>