<?xml version="1.0" encoding="UTF-8" standalone="no"?><!DOCTYPE svg PUBLIC "-//W3C//DTD SVG 1.1//EN" "http://www.w3.org/Graphics/SVG/1.1/DTD/svg11.dtd"><svg width="100%" height="100%" viewBox="0 0 73 73" version="1.1" xmlns="http://www.w3.org/2000/svg" xmlns:xlink="http://www.w3.org/1999/xlink" xml:space="preserve" xmlns:serif="http://www.serif.com/" style="fill-rule:evenodd;clip-rule:evenodd;stroke-linejoin:round;stroke-miterlimit:1.41421;"><path d="M36.191,0c-19.987,0 -36.191,16.204 -36.191,36.191c0,19.987 16.204,36.19 36.191,36.19c19.988,0 36.191,-16.203 36.191,-36.19c0,-19.987 -16.203,-36.191 -36.191,-36.191Zm-6.375,36.689l-13.868,13.92l42.052,0l-13.868,-13.92l-6.401,5.919c-0.422,0.4 -1.092,0.4 -1.514,0l-6.401,-5.919Zm-15.416,-14.298l0,26.652l13.816,-13.851l-13.816,-12.801Zm45.149,0l-13.817,12.801l13.817,13.851l0,-26.652Zm-1.635,-1.514l-41.88,0l20.94,19.408l20.94,-19.408Z" style="fill:#72868d;"/></svg>