<?xml version="1.0" encoding="UTF-8" standalone="no"?><!DOCTYPE svg PUBLIC "-//W3C//DTD SVG 1.1//EN" "http://www.w3.org/Graphics/SVG/1.1/DTD/svg11.dtd"><svg width="100%" height="100%" viewBox="0 0 72 72" version="1.1" xmlns="http://www.w3.org/2000/svg" xmlns:xlink="http://www.w3.org/1999/xlink" xml:space="preserve" xmlns:serif="http://www.serif.com/" style="fill-rule:evenodd;clip-rule:evenodd;stroke-linejoin:round;stroke-miterlimit:1.41421;"><path d="M54.105,29.797c0.527,11.744 -8.23,24.838 -23.733,24.838c-4.715,0 -9.104,-1.383 -12.799,-3.752c4.429,0.522 8.851,-0.706 12.361,-3.458c-3.653,-0.067 -6.737,-2.481 -7.799,-5.798c1.308,0.25 2.595,0.177 3.77,-0.142c-4.016,-0.808 -6.787,-4.425 -6.697,-8.293c1.126,0.625 2.414,1.001 3.783,1.043c-3.719,-2.484 -4.772,-7.394 -2.584,-11.147c4.117,5.052 10.269,8.376 17.209,8.725c-1.217,-5.224 2.745,-10.253 8.134,-10.253c2.402,0 4.572,1.013 6.094,2.636c1.902,-0.374 3.689,-1.069 5.302,-2.026c-0.623,1.95 -1.947,3.587 -3.671,4.619c1.689,-0.201 3.298,-0.65 4.796,-1.314c-1.119,1.675 -2.535,3.145 -4.166,4.322m-18.105,-29.797c-19.882,0 -36,16.117 -36,36c0,19.883 16.118,36 36,36c19.882,0 36,-16.117 36,-36c0,-19.883 -16.118,-36 -36,-36" style="fill:#4bc9f2;fill-rule:nonzero;"/></svg>