<?xml version="1.0" encoding="UTF-8"?>
<svg width="51px" height="45px" viewBox="0 0 51 45" version="1.1" xmlns="http://www.w3.org/2000/svg" xmlns:xlink="http://www.w3.org/1999/xlink">
    <!-- Generator: Sketch 47.1 (45422) - http://www.bohemiancoding.com/sketch -->
    <title>Menu</title>
    <desc>Created with Sketch.</desc>
    <defs></defs>
    <g id="Page-1" stroke="none" stroke-width="1" fill="none" fill-rule="evenodd">
        <g id="TC-Mobile" transform="translate(-317.000000, -14.000000)">
            <g id="Menu" transform="translate(317.000000, 14.000000)">
                <rect id="Rectangle-2" fill="#F9CE28" x="0" y="0" width="51" height="45"></rect>
                <path d="M9.296875,44 L5.984375,34.4609375 L5.921875,34.4609375 C6.01041711,35.8776113 6.0546875,37.205723 6.0546875,38.4453125 L6.0546875,44 L4.359375,44 L4.359375,32.578125 L6.9921875,32.578125 L10.1640625,41.6640625 L10.2109375,41.6640625 L13.4765625,32.578125 L16.1171875,32.578125 L16.1171875,44 L14.3203125,44 L14.3203125,38.3515625 C14.3203125,37.7838513 14.3346353,37.0442754 14.3632812,36.1328125 C14.3919272,35.2213496 14.4166666,34.6692718 14.4375,34.4765625 L14.375,34.4765625 L10.9453125,44 L9.296875,44 Z M22.703125,44.15625 C21.3593683,44.15625 20.3085975,43.7643268 19.5507812,42.9804688 C18.792965,42.1966107 18.4140625,41.1171944 18.4140625,39.7421875 C18.4140625,38.3307221 18.7656215,37.2213582 19.46875,36.4140625 C20.1718785,35.6067668 21.1380147,35.203125 22.3671875,35.203125 C23.5078182,35.203125 24.4088509,35.5494757 25.0703125,36.2421875 C25.7317741,36.9348993 26.0625,37.8880148 26.0625,39.1015625 L26.0625,40.09375 L20.3046875,40.09375 C20.3307293,40.9322959 20.5572895,41.5768207 20.984375,42.0273438 C21.4114605,42.4778668 22.013017,42.703125 22.7890625,42.703125 C23.2994817,42.703125 23.7747374,42.6549484 24.2148438,42.5585938 C24.6549501,42.4622391 25.1276016,42.3020845 25.6328125,42.078125 L25.6328125,43.5703125 C25.1848936,43.7838552 24.7317731,43.9348954 24.2734375,44.0234375 C23.8151019,44.1119796 23.2916696,44.15625 22.703125,44.15625 Z M22.3671875,36.59375 C21.7838512,36.59375 21.316408,36.778644 20.9648438,37.1484375 C20.6132795,37.518231 20.4036462,38.0572881 20.3359375,38.765625 L24.2578125,38.765625 C24.2473958,38.0520798 24.0755225,37.5117206 23.7421875,37.1445312 C23.4088525,36.7773419 22.9505237,36.59375 22.3671875,36.59375 Z M35.75,44 L33.90625,44 L33.90625,38.6875 C33.90625,38.02083 33.7721368,37.5234391 33.5039062,37.1953125 C33.2356757,36.8671859 32.8098988,36.703125 32.2265625,36.703125 C31.450517,36.703125 30.8828143,36.9322894 30.5234375,37.390625 C30.1640607,37.8489606 29.984375,38.6171821 29.984375,39.6953125 L29.984375,44 L28.1484375,44 L28.1484375,35.359375 L29.5859375,35.359375 L29.84375,36.4921875 L29.9375,36.4921875 C30.197918,36.0807271 30.5677059,35.763022 31.046875,35.5390625 C31.5260441,35.315103 32.0572887,35.203125 32.640625,35.203125 C34.713552,35.203125 35.75,36.257802 35.75,38.3671875 L35.75,44 Z M44.3984375,44 L44.140625,42.8671875 L44.046875,42.8671875 C43.7916654,43.2682312 43.4283878,43.5833322 42.9570312,43.8125 C42.4856747,44.0416678 41.9479197,44.15625 41.34375,44.15625 C40.2968698,44.15625 39.5156276,43.8958359 39,43.375 C38.4843724,42.8541641 38.2265625,42.0651095 38.2265625,41.0078125 L38.2265625,35.359375 L40.078125,35.359375 L40.078125,40.6875 C40.078125,41.3489616 40.2135403,41.8450504 40.484375,42.1757812 C40.7552097,42.5065121 41.1796846,42.671875 41.7578125,42.671875 C42.5286497,42.671875 43.0950503,42.4414086 43.4570312,41.9804688 C43.8190122,41.5195289 44,40.7474012 44,39.6640625 L44,35.359375 L45.84375,35.359375 L45.84375,44 L44.3984375,44 Z" fill="#E56841"></path>
                <path d="M12.3214286,7.5 L38.6785714,7.5" id="Line-5" stroke="#E56841" stroke-width="2" stroke-linecap="round"></path>
                <path d="M12.3214286,15.5 L38.6785714,15.5" id="Line-5-Copy" stroke="#E56841" stroke-width="2" stroke-linecap="round"></path>
                <path d="M12.3214286,23.5 L38.6785714,23.5" id="Line-5-Copy-2" stroke="#E56841" stroke-width="2" stroke-linecap="round"></path>
            </g>
        </g>
    </g>
</svg>