<?xml version="1.0" encoding="UTF-8"?>
<svg width="990px" height="443px" viewBox="0 0 990 443" version="1.1" xmlns="http://www.w3.org/2000/svg" xmlns:xlink="http://www.w3.org/1999/xlink">
    <!-- Generator: Sketch 49.2 (51160) - http://www.bohemiancoding.com/sketch -->
    <title>TC Logo Vert</title>
    <desc>Created with Sketch.</desc>
    <defs></defs>
    <g id="Page-1" stroke="none" stroke-width="1" fill="none" fill-rule="evenodd">
        <g id="TC-Logo-Vertical" transform="translate(-152.000000, -78.000000)">
            <g id="TC-Logo-Vert" transform="translate(152.000000, 78.000000)">
                <g id="TC-Logo" transform="translate(238.000000, 0.000000)">
                    <path d="M356.942308,160.562722 L356.942308,160.288256 C356.942308,133.290292 377.955973,111.170732 408.09263,111.170732 C426.594653,111.170732 437.665386,117.141095 446.773137,125.826601 L433.041404,141.158304 C425.475997,134.512106 417.761233,130.436441 407.955465,130.436441 C391.419472,130.436441 379.507461,143.740641 379.507461,160.016742 L379.507461,160.288256 C379.507461,176.570259 391.139046,190.143022 407.955465,190.143022 C419.160315,190.143022 426.033801,185.801745 433.74247,179.013888 L447.471154,192.447943 C437.38496,202.901243 426.177062,209.414634 407.2544,209.414634 C378.382708,209.414634 356.942308,187.841053 356.942308,160.562722 Z" id="Combined-Shape" fill="#E56841"></path>
                    <path d="M375.05036,315.414634 C364.321617,315.414634 353.586785,311.45744 345.421492,303.554836 L265.141631,225.845906 L269.982352,221.160918 L350.265258,298.866902 C356.856555,305.246147 365.658143,308.758415 375.05036,308.758415 C384.448666,308.758415 393.250255,305.246147 399.841551,298.866902 L520.902207,181.6921 C527.490459,175.315802 531.128611,166.797373 531.128611,157.701424 C531.128611,148.611368 527.490459,140.092939 520.902207,133.713694 L399.841551,16.5418395 C393.250255,10.1625943 384.448666,6.6503263 375.05036,6.6503263 C365.658143,6.6503263 356.856555,10.1625943 350.265258,16.5418395 L229.198514,133.713694 C222.607217,140.092939 218.978198,148.611368 218.978198,157.701424 C218.978198,166.797373 222.607217,175.315802 229.198514,181.6921 L243.659788,195.688135 L238.816022,200.37607 L224.348659,186.380035 C208.011986,170.563043 208.011986,144.839805 224.348659,129.025759 L345.421492,11.8539046 C361.76121,-3.95130154 388.345599,-3.95130154 404.682273,11.8539046 L525.752062,129.025759 C542.082646,144.839805 542.082646,170.563043 525.752062,186.380035 L404.682273,303.554836 C396.510891,311.45744 385.785193,315.414634 375.05036,315.414634 Z" id="Combined-Shape" fill="#000000" opacity="0.8"></path>
                    <path d="M132.904255,133.156504 L103.461538,133.156504 L103.461538,113.756098 L183.644231,113.756098 L183.644231,133.156504 L154.201514,133.156504 L154.201514,209.414634 L132.904255,209.414634 L132.904255,133.156504 Z" id="Combined-Shape" fill="#E56841"></path>
                    <path d="M1.95429954e-11,164.105707 L0,156.473765 C0.879194576,147.393185 4.90415611,138.546674 12.0748846,131.609248 L133.216682,14.4147408 C141.106175,6.78193534 151.62753,2.58536585 162.858635,2.58536585 C174.086694,2.58536585 184.614141,6.78193534 192.503634,14.4147408 L233.632568,54.2055282 L228.786165,58.8942515 L187.657231,19.1034641 C181.065392,12.7231461 172.255966,9.21618141 162.858635,9.21618141 C153.455212,9.21618141 144.65797,12.7231461 138.063085,19.1034641 L16.9273798,136.295025 C10.3355407,142.675343 6.70454616,151.195204 6.70454616,160.292683 C6.70454616,169.384268 10.3355407,177.904129 16.9273798,184.284447 L138.063085,301.476008 C144.65797,307.856326 153.458258,311.369184 162.858635,311.369184 C172.255966,311.369184 181.065392,307.856326 187.657231,301.476008 L308.792937,184.284447 C315.384776,177.904129 319.018816,169.384268 319.018816,160.292683 C319.018816,151.195204 315.384776,142.675343 308.792937,136.295025 L294.317697,122.284848 L299.161053,117.599072 L313.642386,131.609248 C329.991,147.423007 329.991,173.156465 313.642386,188.970223 L192.503634,306.164731 C184.614141,313.797536 174.086694,318 162.858635,318 C151.62753,318 141.106175,313.797536 133.216682,306.164731 L12.0748846,188.970223 C4.90415611,182.032797 0.879194576,173.186287 0,164.105706 Z" id="Combined-Shape" fill="#000000" opacity="0.8"></path>
                </g>
                <g id="Group-7-Copy" transform="translate(0.000000, 377.000000)">
                    <g id="TC-Logo">
                        <path d="M985.619132,10.08 C983.463132,10.08 981.791132,8.342 981.791132,6.252 L981.791132,6.23 C981.791132,4.14 983.485132,2.38 985.619132,2.38 C987.775132,2.38 989.447132,4.118 989.447132,6.208 L989.447132,6.23 C989.447132,8.32 987.753132,10.08 985.619132,10.08 Z M985.619132,9.662 C987.533132,9.662 989.007132,8.1 989.007132,6.23 L989.007132,6.208 C989.007132,4.338 987.555132,2.798 985.619132,2.798 C983.705132,2.798 982.231132,4.36 982.231132,6.23 L982.231132,6.252 C982.231132,8.122 983.683132,9.662 985.619132,9.662 Z M984.123132,8.1 L984.123132,4.206 L985.883132,4.206 C986.741132,4.206 987.379132,4.624 987.379132,5.438 C987.379132,6.076 987.005132,6.472 986.477132,6.626 L987.511132,8.1 L986.609132,8.1 L985.685132,6.758 L984.871132,6.758 L984.871132,8.1 L984.123132,8.1 Z M984.871132,6.142 L985.817132,6.142 C986.323132,6.142 986.609132,5.878 986.609132,5.504 C986.609132,5.086 986.323132,4.866 985.817132,4.866 L984.871132,4.866 L984.871132,6.142 Z" id="®" fill="#312908"></path>
                        <path d="M937.853725,14.3006064 L918.711722,14.3006064 L918.711722,1.56867571 L970.840999,1.56867571 L970.840999,14.3006064 L951.698996,14.3006064 L951.698996,64.3446182 L937.852368,64.3446182 L937.852368,14.3006064 L937.853725,14.3006064 Z" id="Combined-Shape" fill="#000000" opacity="0.8"></path>
                        <path d="M854.133905,33.1332538 L854.133905,32.9532637 C854.133905,15.1098851 867.613043,0.488735168 886.934044,0.488735168 C898.795414,0.488735168 905.895692,4.43633739 911.734844,10.1716607 L902.932723,20.3065915 C898.082132,15.9137506 893.133905,13.2206658 886.843189,13.2206658 C876.238877,13.2206658 868.602959,22.0158207 868.602959,32.7732736 L868.602959,32.9532637 C868.602959,43.7174831 876.059879,52.6872149 886.844545,52.6872149 C894.035678,52.6872149 898.436061,49.8195532 903.384288,45.3319807 L912.185053,54.2110408 C905.716694,61.1169764 898.526916,65.4245588 886.394336,65.4245588 C867.877472,65.4245588 854.133905,51.163389 854.133905,33.1332538 Z" id="Combined-Shape" fill="#000000" opacity="0.8"></path>
                        <path d="M796.728237,1.5659691 L844.173717,1.5659691 L844.173717,13.8486012 L810.475873,13.8486012 L810.475873,26.5913583 L840.127264,26.5913583 L840.127264,38.8739904 L810.475873,38.8739904 L810.475873,52.0552196 L844.623926,52.0552196 L844.623926,64.3432649 L796.726881,64.3432649 L796.726881,1.5659691 L796.728237,1.5659691 Z" id="Combined-Shape" fill="#000000" opacity="0.8"></path>
                        <path d="M725.767493,1.5659691 L738.525212,1.5659691 L768.000316,40.2178262 L768.000316,1.5659691 L781.666589,1.5659691 L781.666589,64.3432649 L769.894718,64.3432649 L739.425629,24.4314772 L739.425629,64.3432649 L725.767493,64.3432649 L725.767493,1.5659691 Z" id="Combined-Shape" fill="#000000" opacity="0.8"></path>
                        <path d="M654.798612,1.5659691 L667.554975,1.5659691 L697.031436,40.2178262 L697.031436,1.5659691 L710.696352,1.5659691 L710.696352,64.3432649 L698.924481,64.3432649 L668.456748,24.4314772 L668.456748,64.3432649 L654.797256,64.3432649 L654.797256,1.5659691 L654.798612,1.5659691 Z" id="Combined-Shape" fill="#000000" opacity="0.8"></path>
                        <path d="M628.046456,33.1332538 L628.046456,32.9532637 C628.046456,22.1903976 620.139328,13.2206658 609.000733,13.2206658 C597.852645,13.2206658 590.127228,22.0158207 590.127228,32.7732736 L590.127228,32.9532637 C590.127228,43.7174831 598.034356,52.6872149 609.175663,52.6872149 C620.321039,52.6872149 628.046456,43.8974732 628.046456,33.1332538 L628.047812,33.1332538 L628.046456,33.1332538 Z M575.658174,33.1332538 L575.658174,32.9532637 C575.658174,15.1098851 589.761094,0.488735168 609.174307,0.488735168 C628.58752,0.488735168 642.516866,14.929895 642.516866,32.7732736 L642.516866,32.9532637 C642.516866,50.8034088 628.407165,65.4245588 609.000733,65.4245588 C589.58074,65.4245588 575.658174,50.9833989 575.658174,33.1332538 Z" id="Combined-Shape" fill="#000000" opacity="0.8"></path>
                        <path d="M511.16172,33.1332538 L511.160364,32.9532637 C511.160364,15.1098851 524.639502,0.488735168 543.961859,0.488735168 C555.823229,0.488735168 562.923507,4.43633739 568.761303,10.1716607 L559.959182,20.3065915 C555.107235,15.9137506 550.160364,13.2206658 543.871004,13.2206658 C533.266692,13.2206658 525.630774,22.0158207 525.630774,32.7732736 L525.630774,32.9532637 C525.630774,43.7174831 533.086337,52.6872149 543.871004,52.6872149 C551.062137,52.6872149 555.46252,49.8195532 560.410747,45.3319807 L569.211512,54.2110408 C562.743153,61.1169764 555.552019,65.4245588 543.420795,65.4245588 C524.903931,65.4245588 511.160364,51.163389 511.160364,33.1332538 L511.16172,33.1332538 Z" id="Combined-Shape" fill="#000000" opacity="0.8"></path>
                        <path d="M445.942492,55.1948964 L450.342874,49.9995433 C456.902088,55.9094435 463.196873,58.8731901 471.913563,58.8731901 C480.361755,58.8731901 485.933764,54.3910309 485.933764,48.2050556 L485.933764,48.0196523 C485.933764,42.1936572 482.79044,38.8753437 469.575732,36.0915872 C455.10939,32.9532637 448.45932,28.2911143 448.45932,17.9775468 L448.45932,17.7975567 C448.45932,7.92787449 457.177366,0.66872526 469.124168,0.66872526 C478.291066,0.66872526 484.85028,3.26707845 491.237276,8.37852638 L487.098611,13.8499545 C481.256748,9.09307351 475.417596,7.03469058 468.949237,7.03469058 C460.766831,7.03469058 455.554174,11.5168498 455.554174,17.1736813 L455.554174,17.3482581 C455.554174,23.2703381 458.795134,26.5872984 472.634981,29.5456317 C486.655183,32.5932835 493.124898,37.7060847 493.124898,47.3051052 L493.124898,47.4850953 C493.124898,58.2439014 484.135642,65.2391554 471.636928,65.2391554 C461.668604,65.2391554 453.492978,61.9208419 445.942492,55.1948964 L445.943848,55.1948964 L445.942492,55.1948964 Z" id="Combined-Shape" fill="#000000" opacity="0.8"></path>
                        <path d="M411.558486,33.581199 C420.99795,33.581199 427.732095,28.7404129 427.732095,20.6692783 L427.732095,20.4892882 C427.732095,12.7740739 421.803444,8.11192451 411.647985,8.11192451 L392.234772,8.11192451 L392.234772,33.581199 L411.558486,33.581199 Z M385.137206,1.5659691 L412.183625,1.5659691 C419.915822,1.5659691 426.114327,3.89501381 430.068569,7.84261603 C433.125106,10.8902678 434.920516,15.2817554 434.920516,20.2199797 L434.920516,20.3999698 C434.920516,30.8042091 427.730739,36.8995126 417.84649,38.6940003 L437.170204,64.3432649 L428.453514,64.3432649 L410.211928,39.9539309 L392.236128,39.9539309 L392.236128,64.3432649 L385.13585,64.3432649 L385.13585,1.5659691 L385.137206,1.5659691 Z" id="Combined-Shape" fill="#000000" opacity="0.8"></path>
                        <path d="M324.944855,1.5659691 L370.413214,1.5659691 L370.413214,8.02260612 L332.043778,8.02260612 L332.043778,29.4536067 L366.372185,29.4536067 L366.372185,35.915657 L332.043778,35.915657 L332.043778,57.8866279 L370.863423,57.8866279 L370.863423,64.3432649 L324.943499,64.3432649 L324.943499,1.5659691 L324.944855,1.5659691 Z" id="Combined-Shape" fill="#000000" opacity="0.8"></path>
                        <path d="M256.66909,1.5659691 L263.769368,1.5659691 L263.769368,29.4536067 L300.070829,29.4536067 L300.070829,1.5659691 L307.171107,1.5659691 L307.171107,64.3432649 L300.070829,64.3432649 L300.070829,36.0956471 L263.769368,36.0956471 L263.769368,64.3432649 L256.66909,64.3432649 L256.66909,1.5659691 Z" id="Combined-Shape" fill="#000000" opacity="0.8"></path>
                        <path d="M187.59868,33.1332538 L187.597323,32.9532637 C187.597323,15.1937903 200.896107,0.488735168 219.407546,0.488735168 C230.817351,0.488735168 237.6532,4.52024255 243.94256,10.4423225 L239.083833,15.6444422 C233.787101,10.6223126 227.859806,7.03469058 219.316691,7.03469058 C205.387344,7.03469058 194.967456,18.337527 194.967456,32.7732736 L194.967456,32.9532637 C194.967456,47.4850953 205.476844,58.8731901 219.316691,58.8731901 C227.943881,58.8731901 233.606746,55.5548766 239.631677,49.8195532 L244.301913,54.3910309 C237.742699,61.0263047 230.552922,65.4245588 219.14176,65.4245588 C200.985606,65.4245588 187.597323,51.163389 187.597323,33.1332538 L187.59868,33.1332538 Z" id="Combined-Shape" fill="#000000" opacity="0.8"></path>
                        <path d="M163.89628,41.3857318 L149.604869,9.37050184 L135.225314,41.3857318 L163.89628,41.3857318 Z M146.369333,1.12073045 L153.024827,1.12073045 L181.683589,64.3473248 L174.049027,64.3473248 L166.677539,47.7571104 L132.439987,47.7571104 L124.984423,64.3473248 L117.698366,64.3473248 L146.369333,1.12073045 Z" id="Combined-Shape" fill="#000000" opacity="0.8"></path>
                        <path d="M62.9098751,1.5659691 L108.37959,1.5659691 L108.37959,8.02260612 L70.0087972,8.02260612 L70.0087972,29.4536067 L104.337205,29.4536067 L104.337205,35.915657 L70.0087972,35.915657 L70.0087972,57.8866279 L108.828443,57.8866279 L108.828443,64.3432649 L62.908519,64.3432649 L62.908519,1.5659691 L62.9098751,1.5659691 Z" id="Combined-Shape" fill="#000000" opacity="0.8"></path>
                        <path d="M21.3198193,8.1105712 L0.200695411,8.1105712 L0.200695411,1.56461579 L49.6314328,1.56461579 L49.6314328,8.1105712 L28.5109528,8.1105712 L28.5109528,64.3473248 L21.3198193,64.3473248 L21.3198193,8.1105712 Z" id="Combined-Shape" fill="#000000" opacity="0.8"></path>
                    </g>
                </g>
            </g>
        </g>
    </g>
</svg>