<?xml version="1.0" encoding="UTF-8"?>
<svg width="1024px" height="1024px" viewBox="0 0 1024 1024" version="1.1" xmlns="http://www.w3.org/2000/svg" xmlns:xlink="http://www.w3.org/1999/xlink">
    <!-- Generator: Sketch 47.1 (45422) - http://www.bohemiancoding.com/sketch -->
    <title>TC App Icon (No Background)</title>
    <desc>Created with Sketch.</desc>
    <defs></defs>
    <g id="Page-1" stroke="none" stroke-width="1" fill="none" fill-rule="evenodd">
        <g id="TC-App-Icon-(No-Background)">
            <g id="TC-Logo" transform="translate(46.000000, 235.000000)">
                <path d="M619.674217,277.458417 L619.674217,276.98074 C619.674217,229.993762 656.018034,191.497106 708.140362,191.497106 C740.140213,191.497106 759.287406,201.887865 775.039556,217.00403 L751.290079,243.687169 C738.205461,232.120195 724.862525,225.026948 707.903131,225.026948 C679.303593,225.026948 658.701383,248.181441 658.701383,276.5082 L658.701383,276.98074 C658.701383,305.317772 678.818587,328.939669 707.903131,328.939669 C727.282283,328.939669 739.170201,321.384154 752.502594,309.570638 L776.2468,332.951128 C758.8024,351.143944 739.417976,362.479784 706.690616,362.479784 C656.756087,362.479784 619.674217,324.933346 619.674217,277.458417 Z" id="Combined-Shape" fill="#E56841"></path>
                <path d="M650.240137,549.821614 C631.662299,549.821614 613.073918,542.923547 598.934939,529.147959 L459.922736,393.688013 L468.304905,385.521278 L607.32238,520.976088 C618.735836,532.096202 633.976621,538.218686 650.240137,538.218686 C666.514197,538.218686 681.754982,532.096202 693.168438,520.976088 L902.796458,316.720383 C914.204642,305.605405 920.504448,290.756328 920.504448,274.900534 C920.504448,259.055013 914.204642,244.205936 902.796458,233.085821 L693.168438,28.8352534 C681.754982,17.7151388 666.514197,11.5926553 650.240137,11.5926553 C633.976621,11.5926553 618.735836,17.7151388 607.32238,28.8352534 L397.683817,233.085821 C386.270361,244.205936 379.98637,259.055013 379.98637,274.900534 C379.98637,290.756328 386.270361,305.605405 397.683817,316.720383 L422.724886,341.117864 L414.337446,349.289735 L389.285833,324.892255 C360.997332,297.320534 360.997332,252.480534 389.285833,224.91395 L598.934939,20.6633817 C627.228712,-6.88779388 673.262106,-6.88779388 701.550607,20.6633817 L911.194442,224.91395 C939.472399,252.480534 939.472399,297.320534 911.194442,324.892255 L701.550607,529.147959 C687.401085,542.923547 668.828519,549.821614 650.240137,549.821614 Z" id="Combined-Shape" fill="#000000" opacity="0.8"></path>
                <path d="M231.25296,230.707709 L179.631454,230.707709 L179.631454,197.183003 L320.214655,197.183003 L320.214655,230.707709 L268.593149,230.707709 L268.593149,362.48492 L231.25296,362.48492 L231.25296,230.707709 Z" id="Combined-Shape" fill="#E56841"></path>
                <path d="M0.316308248,285.727126 L0.316308248,285.727126 L0.316308248,272.425585 C1.83788871,256.599243 8.80369924,241.180857 21.2137398,229.089771 L230.868118,24.8340667 C244.522091,11.5310196 262.730903,4.21691184 282.168044,4.21691184 C301.599914,4.21691184 319.81927,11.5310196 333.473242,24.8340667 L404.653142,94.1845462 L396.265701,102.356418 L325.085802,33.0059385 C313.677618,21.8858238 298.43156,15.773613 282.168044,15.773613 C265.893985,15.773613 250.669015,21.8858238 239.255559,33.0059385 L29.6117238,237.256506 C18.2035397,248.376621 11.9195491,263.225698 11.9195491,279.081492 C11.9195491,294.927013 18.2035397,309.77609 29.6117238,320.896205 L239.255559,525.146773 C250.669015,536.266887 265.899257,542.389371 282.168044,542.389371 C298.43156,542.389371 313.677618,536.266887 325.085802,525.146773 L534.729637,320.896205 C546.137821,309.77609 552.427083,294.927013 552.427083,279.081492 C552.427083,263.225698 546.137821,248.376621 534.729637,237.256506 L509.678024,212.838481 L518.060192,204.671745 L543.122349,229.089771 C571.416122,256.651219 571.416122,301.501492 543.122349,329.06294 L333.473242,533.318645 C319.81927,546.621692 301.599914,553.946072 282.168044,553.946072 C262.730903,553.946072 244.522091,546.621692 230.868118,533.318645 L21.2137398,329.06294 C8.80369924,316.971855 1.83788871,301.553468 0.316308248,285.727126 Z" id="Combined-Shape" fill="#000000" opacity="0.8"></path>
            </g>
        </g>
    </g>
</svg>