<?xml version="1.0" encoding="UTF-8"?>
<svg width="265px" height="30px" viewBox="0 0 265 30" version="1.1" xmlns="http://www.w3.org/2000/svg" xmlns:xlink="http://www.w3.org/1999/xlink">
    <!-- Generator: Sketch 46.2 (44496) - http://www.bohemiancoding.com/sketch -->
    <title>TC Logo FINAL</title>
    <desc>Created with Sketch.</desc>
    <defs>
        <path d="M0.274673913,4.91207826 L0.274673913,4.88640435 C0.274673913,2.36107826 2.17777826,0.292065217 4.9071087,0.292065217 C6.58274783,0.292065217 7.58536957,0.850517391 8.41021304,1.66293913 L7.16659565,3.09703043 C6.48143478,2.47536087 5.78274783,2.09413478 4.89468696,2.09413478 C3.3971,2.09413478 2.31828696,3.33857826 2.31828696,4.8610087 L2.31828696,4.88640435 C2.31828696,6.40938696 3.37170435,7.67895217 4.89468696,7.67895217 C5.90945652,7.67895217 6.53195217,7.27287826 7.2300913,6.63795652 L8.47343043,7.89454783 C7.55997391,8.87232609 6.54492609,9.48157391 4.83119565,9.48157391 C2.21642609,9.48157391 0.274673913,7.46363043 0.274673913,4.91207826 Z" id="path-1"></path>
        <path d="M14.9187043,29.5503104 C13.9458957,29.5503104 12.9725348,29.1795722 12.2321609,28.4391996 L4.95293478,21.1588696 L5.39185652,20.7199435 L12.6713609,28 C13.269013,28.5976535 14.0670826,28.9267083 14.9187043,28.9267083 C15.7708783,28.9267083 16.5689435,28.5976535 17.1665957,28 L28.1435652,17.0222217 C28.740913,16.4248435 29.0708261,15.6267783 29.0708261,14.7746043 C29.0708261,13.9229826 28.740913,13.124913 28.1435652,12.5272609 L17.1665957,1.54975652 C16.5689435,0.952104348 15.7708783,0.623052174 14.9187043,0.623052174 C14.0670826,0.623052174 13.269013,0.952104348 12.6713609,1.54975652 L1.69385652,12.5272609 C1.09620435,13.124913 0.767147826,13.9229826 0.767147826,14.7746043 C0.767147826,15.6267783 1.09620435,16.4248435 1.69385652,17.0222217 L3.0051087,18.3334696 L2.5659087,18.7726696 L1.25410435,17.4614217 C-0.227191304,15.9795739 -0.227191304,13.5696348 1.25410435,12.0880609 L12.2321609,1.11056087 C13.7137348,-0.370186957 16.1242217,-0.370186957 17.6055217,1.11056087 L28.5833043,12.0880609 C30.0640435,13.5696348 30.0640435,15.9795739 28.5833043,17.4614217 L17.6055217,28.4391996 C16.8645957,29.1795722 15.8920652,29.5503104 14.9187043,29.5503104 Z" id="path-3"></path>
        <polygon id="path-5" points="2.97888261 1.96466522 0.275778261 1.96466522 0.275778261 0.162869565 7.63726522 0.162869565 7.63726522 1.96466522 4.93416087 1.96466522 4.93416087 9.04706522 2.97888261 9.04706522"></polygon>
        <path d="M0.0165631478,15.3564826 L0.0165631478,14.641587 C0.096239087,13.7909957 0.460996522,12.9623304 1.11083522,12.3124913 L12.0891652,1.33471304 C12.8041391,0.61973913 13.7576261,0.22663913 14.7754304,0.22663913 C15.7929609,0.22663913 16.747,0.61973913 17.4619739,1.33471304 L21.1892348,5.06197391 L20.7500348,5.50117391 L17.0227739,1.77391304 C16.4253957,1.17626087 15.6270522,0.847756522 14.7754304,0.847756522 C13.9232565,0.847756522 13.1260174,1.17626087 12.5283652,1.77391304 L1.55058652,12.751413 C0.95320913,13.3490696 0.624154783,14.1471348 0.624154783,14.9993087 C0.624154783,15.8509304 0.95320913,16.649 1.55058652,17.2466522 L12.5283652,28.2241548 C13.1260174,28.8218083 13.9235348,29.1508626 14.7754304,29.1508626 C15.6270522,29.1508626 16.4253957,28.8218083 17.0227739,28.2241548 L28.0005522,17.2466522 C28.5979304,16.649 28.9272609,15.8509304 28.9272609,14.9993087 C28.9272609,14.1471348 28.5979304,13.3490696 28.0005522,12.751413 L26.6887522,11.4390609 L27.1276739,11.0001391 L28.4400261,12.3124913 C29.9216,13.793787 29.9216,16.2042783 28.4400261,17.6855783 L17.4619739,28.6633539 C16.747,29.37833 15.7929609,29.7719807 14.7754304,29.7719807 C13.7576261,29.7719807 12.8041391,29.37833 12.0891652,28.6633539 L1.11083522,17.6855783 C0.460996522,17.0357391 0.096239087,16.2070739 0.0165631478,15.3564826 Z" id="path-7"></path>
        <polygon id="path-9" points="3.96330435 2.80331304 0.0665217391 2.80331304 0.0665217391 0.206213043 10.6785217 0.206213043 10.6785217 2.80331304 6.78178261 2.80331304 6.78178261 13.0114565 3.963 13.0114565 3.963 2.80331304"></polygon>
        <path d="M0.398608696,7.07963913 L0.398608696,7.04292609 C0.398608696,3.40317391 3.14256522,0.420704348 7.07578261,0.420704348 C9.4903913,0.420704348 10.9358261,1.22594783 12.1244783,2.39586087 L10.3326522,4.46321739 C9.34521739,3.56714783 8.33786957,3.01780435 7.05726087,3.01780435 C4.89856522,3.01780435 3.34408696,4.81186957 3.34408696,7.00621304 L3.34408696,7.04292609 C3.34408696,9.23864783 4.86213043,11.0683217 7.05756522,11.0683217 C8.52147826,11.0683217 9.41726087,10.4833696 10.4245652,9.56797826 L12.2161304,11.3791565 C10.8993913,12.7878522 9.43573913,13.6665304 6.96591304,13.6665304 C3.1963913,13.6665304 0.398608696,10.757487 0.398608696,7.07963913 Z" id="path-11"></path>
        <polygon id="path-13" points="0.016826087 0.20566087 9.67534783 0.20566087 9.67534783 2.71111304 2.81547826 2.71111304 2.81547826 5.31042174 8.8516087 5.31042174 8.8516087 7.81587391 2.81547826 7.81587391 2.81547826 10.5046217 9.767 10.5046217 9.767 13.0111783 0.0165652174 13.0111783 0.0165652174 0.20566087"></polygon>
        <polygon id="path-15" points="0.353913043 0.20566087 2.951 0.20566087 8.95126087 8.0899913 8.95126087 0.20566087 11.7333478 0.20566087 11.7333478 13.0111783 9.33691304 13.0111783 3.13430435 4.86983913 3.13430435 13.0111783 0.353913043 13.0111783"></polygon>
        <polygon id="path-17" points="0.254521739 0.20566087 2.85134783 0.20566087 8.85191304 8.0899913 8.85191304 0.20566087 11.6336957 0.20566087 11.6336957 13.0111783 9.23726087 13.0111783 3.03491304 4.86983913 3.03491304 13.0111783 0.25426087 13.0111783 0.25426087 0.20566087"></polygon>
        <path d="M10.8955217,7.07963913 L10.8955217,7.04292609 C10.8955217,4.84748261 9.28586957,3.01780435 7.01834783,3.01780435 C4.74891304,3.01780435 3.17626087,4.81186957 3.17626087,7.00621304 L3.17626087,7.04292609 C3.17626087,9.23864783 4.78591304,11.0683217 7.05395652,11.0683217 C9.32282609,11.0683217 10.8955217,9.27536087 10.8955217,7.07963913 L10.8957826,7.07963913 L10.8955217,7.07963913 Z M0.230782609,7.07963913 L0.230782609,7.04292609 C0.230782609,3.40317391 3.10173913,0.420704348 7.05369565,0.420704348 C11.0056522,0.420704348 13.8412609,3.36646087 13.8412609,7.00621304 L13.8412609,7.04292609 C13.8412609,10.6840565 10.9689565,13.6665304 7.01834783,13.6665304 C3.065,13.6665304 0.230782609,10.7207739 0.230782609,7.07963913 Z" id="path-19"></path>
        <path d="M0.144652174,7.07963913 L0.144391304,7.04292609 C0.144391304,3.40317391 2.88834783,0.420704348 6.82182609,0.420704348 C9.23643478,0.420704348 10.6818696,1.22594783 11.8702609,2.39586087 L10.0783913,4.46321739 C9.09069565,3.56714783 8.08365217,3.01780435 6.80330435,3.01780435 C4.64456522,3.01780435 3.09013043,4.81186957 3.09013043,7.00621304 L3.09013043,7.04292609 C3.09013043,9.23864783 4.60786957,11.0683217 6.80330435,11.0683217 C8.26721739,11.0683217 9.163,10.4833696 10.1703043,9.56797826 L11.961913,11.3791565 C10.6451304,12.7878522 9.18121739,13.6665304 6.71165217,13.6665304 C2.94217391,13.6665304 0.144391304,10.757487 0.144391304,7.07963913 L0.144652174,7.07963913 Z" id="path-21"></path>
        <path d="M0.346173913,11.1450652 L1.24195652,10.0853 C2.57721739,11.2908217 3.85865217,11.8953783 5.63313043,11.8953783 C7.35291304,11.8953783 8.48721739,10.9810913 8.48721739,9.71925652 L8.48721739,9.68143478 C8.48721739,8.49303043 7.84734783,7.81614783 5.15721739,7.2483087 C2.21230435,6.60814348 0.858521739,5.65714348 0.858521739,3.55334783 L0.858521739,3.51663043 C0.858521739,1.50338261 2.63326087,0.0226347826 5.06530435,0.0226347826 C6.9313913,0.0226347826 8.26665217,0.552656522 9.56686957,1.5953087 L8.72434783,2.71138696 C7.53513043,1.74106087 6.34643478,1.32118696 5.02969565,1.32118696 C3.36395652,1.32118696 2.30282609,2.23547391 2.30282609,3.38937391 L2.30282609,3.42498261 C2.30282609,4.63298696 2.9626087,5.3095913 5.78,5.91304348 C8.63408696,6.53471304 9.95113043,7.57763913 9.95113043,9.53567826 L9.95113043,9.57239565 C9.95113043,11.767013 8.12117391,13.1939261 5.57682609,13.1939261 C3.54756522,13.1939261 1.88321739,12.5170478 0.346173913,11.1450652 L0.346434783,11.1450652 L0.346173913,11.1450652 Z" id="path-23"></path>
        <path d="M5.52047826,6.73623043 C7.44208696,6.73623043 8.81295652,5.7487913 8.81295652,4.10241739 L8.81295652,4.0657 C8.81295652,2.49192609 7.60608696,1.54092609 5.53869565,1.54092609 L1.58673913,1.54092609 L1.58673913,6.73623043 L5.52047826,6.73623043 Z M0.141869565,0.20566087 L5.64773913,0.20566087 C7.22182609,0.20566087 8.48365217,0.680743478 9.2886087,1.4859913 C9.91082609,2.10766087 10.2763478,3.00345217 10.2763478,4.01076522 L10.2763478,4.04748261 C10.2763478,6.16977391 8.81269565,7.41311304 6.80056522,7.77915652 L10.7343043,13.0111783 L8.95982609,13.0111783 L5.2463913,8.03616087 L1.58704348,8.03616087 L1.58704348,13.0111783 L0.141608696,13.0111783 L0.141608696,0.20566087 L0.141869565,0.20566087 Z" id="path-25"></path>
        <polygon id="path-27" points="0.0623913043 0.20566087 9.31843478 0.20566087 9.31843478 1.52270435 1.50752174 1.52270435 1.50752174 5.89427391 8.49578261 5.89427391 8.49578261 7.21242174 1.50752174 7.21242174 1.50752174 11.6941348 9.41008696 11.6941348 9.41008696 13.0111783 0.0621304348 13.0111783 0.0621304348 0.20566087"></polygon>
        <polygon id="path-29" points="0.0764782609 0.20566087 1.52186957 0.20566087 1.52186957 5.89427391 8.91178261 5.89427391 8.91178261 0.20566087 10.3572174 0.20566087 10.3572174 13.0111783 8.91178261 13.0111783 8.91178261 7.24913913 1.52186957 7.24913913 1.52186957 13.0111783 0.0764782609 13.0111783"></polygon>
        <path d="M0.363565217,7.07963913 L0.363304348,7.04292609 C0.363304348,3.4202913 3.07052174,0.420704348 6.83891304,0.420704348 C9.1616087,0.420704348 10.5532174,1.24306522 11.8335217,2.45106957 L10.8444348,3.51221739 C9.76617391,2.48778261 8.55956522,1.75596957 6.82043478,1.75596957 C3.98482609,1.75596957 1.8636087,4.06156087 1.8636087,7.00621304 L1.8636087,7.04292609 C1.8636087,10.0071783 4.00304348,12.3301609 6.82043478,12.3301609 C8.57665217,12.3301609 9.72947826,11.6532783 10.9559565,10.4833696 L11.9066957,11.4158739 C10.5714348,12.7693565 9.10778261,13.6665304 6.78482609,13.6665304 C3.08873913,13.6665304 0.363304348,10.757487 0.363304348,7.07963913 L0.363565217,7.07963913 Z" id="path-31"></path>
        <path d="M9.45147826,8.32822609 L6.54217391,1.79765217 L3.61491304,8.32822609 L9.45147826,8.32822609 Z M5.88352174,0.11483913 L7.2383913,0.11483913 L13.0724783,13.0120087 L11.5183043,13.0120087 L10.0176522,9.62788261 L3.04791304,9.62788261 L1.53017391,13.0120087 L0.0469130435,13.0120087 L5.88352174,0.11483913 Z" id="path-33"></path>
        <polygon id="path-35" points="0.197913043 0.20566087 9.45426087 0.20566087 9.45426087 1.52270435 1.64304348 1.52270435 1.64304348 5.89427391 8.63134783 5.89427391 8.63134783 7.21242174 1.64304348 7.21242174 1.64304348 11.6941348 9.5456087 11.6941348 9.5456087 13.0111783 0.197652174 13.0111783 0.197652174 0.20566087"></polygon>
        <polygon id="path-37" points="4.34008696 1.54064783 0.0408695652 1.54064783 0.0408695652 0.205382609 10.1035217 0.205382609 10.1035217 1.54064783 5.804 1.54064783 5.804 13.0120087 4.34008696 13.0120087"></polygon>
    </defs>
    <g id="Page-1" stroke="none" stroke-width="1" fill="none" fill-rule="evenodd">
        <g id="TCAC-Members-v4" transform="translate(-28.000000, -17.000000)">
            <g id="Header" transform="translate(-1.000000, -2.000000)">
                <g id="TC-Logo-FINAL" transform="translate(29.000000, 19.000000)">
                    <path d="M261.112174,10.8173543 C259.322609,10.8173543 257.934783,9.3747456 257.934783,7.63996299 L257.934783,7.62170212 C257.934783,5.88691952 259.34087,4.42604995 261.112174,4.42604995 C262.901739,4.42604995 264.289565,5.86865865 264.289565,7.60344125 L264.289565,7.62170212 C264.289565,9.35648473 262.883478,10.8173543 261.112174,10.8173543 Z M261.112174,10.4703978 C262.70087,10.4703978 263.924348,9.17387604 263.924348,7.62170212 L263.924348,7.60344125 C263.924348,6.05126734 262.71913,4.77300647 261.112174,4.77300647 C259.523478,4.77300647 258.3,6.06952821 258.3,7.62170212 L258.3,7.63996299 C258.3,9.19213691 259.505217,10.4703978 261.112174,10.4703978 Z M259.870435,9.17387604 L259.870435,5.94170212 L261.331304,5.94170212 C262.043478,5.94170212 262.573043,6.28865865 262.573043,6.96431082 C262.573043,7.49387604 262.262609,7.82257169 261.824348,7.95039778 L262.682609,9.17387604 L261.933913,9.17387604 L261.166957,8.05996299 L260.491304,8.05996299 L260.491304,9.17387604 L259.870435,9.17387604 Z M260.491304,7.54865865 L261.276522,7.54865865 C261.696522,7.54865865 261.933913,7.32952821 261.933913,7.01909343 C261.933913,6.67213691 261.696522,6.48952821 261.276522,6.48952821 L260.491304,6.48952821 L260.491304,7.54865865 Z" id="®" fill="#312908"></path>
                    <g id="Group-4" transform="translate(32.173913, 10.000000)">
                        <mask id="mask-2" fill="white">
                            <use xlink:href="#path-1"></use>
                        </mask>
                        <g id="Clip-3"></g>
                        <polygon id="Fill-2" fill="#E56841" mask="url(#mask-2)" points="-1.89923913 11.655487 10.6473435 11.655487 10.6473435 -1.88184783 -1.89923913 -1.88184783"></polygon>
                    </g>
                    <g id="Group-7" transform="translate(19.130435, 0.000000)">
                        <mask id="mask-4" fill="white">
                            <use xlink:href="#path-3"></use>
                        </mask>
                        <g id="Clip-6"></g>
                        <polygon id="Fill-5" fill-opacity="0.8" fill="#000000" mask="url(#mask-4)" points="-2.03077826 31.7242235 31.8677739 31.7242235 31.8677739 -2.1739113 -2.03077826 -2.1739113"></polygon>
                    </g>
                    <g id="Group-10" transform="translate(9.130435, 10.434783)">
                        <mask id="mask-6" fill="white">
                            <use xlink:href="#path-5"></use>
                        </mask>
                        <g id="Clip-9"></g>
                        <polygon id="Fill-8" fill="#E56841" mask="url(#mask-6)" points="-1.89813478 11.2209783 9.81118261 11.2209783 9.81118261 -2.01104348 -1.89813478 -2.01104348"></polygon>
                    </g>
                    <g id="Group-13">
                        <mask id="mask-8" fill="white">
                            <use xlink:href="#path-7"></use>
                        </mask>
                        <g id="Clip-12"></g>
                        <polygon id="Fill-11" fill-opacity="0.8" fill="#000000" mask="url(#mask-8)" points="-2.15735 31.9458939 31.7251196 31.9458939 31.7251196 -1.94727565 -2.15735 -1.94727565"></polygon>
                    </g>
                    <g id="Group-16" transform="translate(243.913043, 7.826087)">
                        <mask id="mask-10" fill="white">
                            <use xlink:href="#path-9"></use>
                        </mask>
                        <g id="Clip-15"></g>
                        <polygon id="Fill-14" fill-opacity="0.8" fill="#000000" mask="url(#mask-10)" points="-2.1073913 15.1853696 12.8524435 15.1853696 12.8524435 -1.9677 -2.1073913 -1.9677"></polygon>
                    </g>
                    <g id="Group-19" transform="translate(230.434783, 7.391304)">
                        <mask id="mask-12" fill="white">
                            <use xlink:href="#path-11"></use>
                        </mask>
                        <g id="Clip-18"></g>
                        <polygon id="Fill-17" fill-opacity="0.8" fill="#000000" mask="url(#mask-12)" points="-1.77530435 15.8404435 14.3900522 15.8404435 14.3900522 -1.7532087 -1.77530435 -1.7532087"></polygon>
                    </g>
                    <g id="Group-22" transform="translate(219.130435, 7.826087)">
                        <mask id="mask-14" fill="white">
                            <use xlink:href="#path-13"></use>
                        </mask>
                        <g id="Clip-21"></g>
                        <polygon id="Fill-20" fill-opacity="0.8" fill="#000000" mask="url(#mask-14)" points="-2.15734783 15.1850913 11.9409261 15.1850913 11.9409261 -1.96825652 -2.15734783 -1.96825652"></polygon>
                    </g>
                    <g id="Group-25" transform="translate(204.347826, 7.826087)">
                        <mask id="mask-16" fill="white">
                            <use xlink:href="#path-15"></use>
                        </mask>
                        <g id="Clip-24"></g>
                        <polygon id="Fill-23" fill-opacity="0.8" fill="#000000" mask="url(#mask-16)" points="-1.82 15.1850913 13.9072609 15.1850913 13.9072609 -1.96825652 -1.82 -1.96825652"></polygon>
                    </g>
                    <g id="Group-28" transform="translate(190.000000, 7.826087)">
                        <mask id="mask-18" fill="white">
                            <use xlink:href="#path-17"></use>
                        </mask>
                        <g id="Clip-27"></g>
                        <polygon id="Fill-26" fill-opacity="0.8" fill="#000000" mask="url(#mask-18)" points="-1.91965217 15.1850913 13.8076087 15.1850913 13.8076087 -1.96825652 -1.91965217 -1.96825652"></polygon>
                    </g>
                    <g id="Group-31" transform="translate(173.913043, 7.391304)">
                        <mask id="mask-20" fill="white">
                            <use xlink:href="#path-19"></use>
                        </mask>
                        <g id="Clip-30"></g>
                        <polygon id="Fill-29" fill-opacity="0.8" fill="#000000" mask="url(#mask-20)" points="-1.94313043 15.8404435 16.015187 15.8404435 16.015187 -1.7532087 -1.94313043 -1.7532087"></polygon>
                    </g>
                    <g id="Group-34" transform="translate(160.869565, 7.391304)">
                        <mask id="mask-22" fill="white">
                            <use xlink:href="#path-21"></use>
                        </mask>
                        <g id="Clip-33"></g>
                        <polygon id="Fill-32" fill-opacity="0.8" fill="#000000" mask="url(#mask-22)" points="-2.02952174 15.8404435 14.1358348 15.8404435 14.1358348 -1.7532087 -2.02952174 -1.7532087"></polygon>
                    </g>
                    <g id="Group-37" transform="translate(147.391304, 7.826087)">
                        <mask id="mask-24" fill="white">
                            <use xlink:href="#path-23"></use>
                        </mask>
                        <g id="Clip-36"></g>
                        <polygon id="Fill-35" fill-opacity="0.8" fill="#000000" mask="url(#mask-24)" points="-1.82773913 15.3678391 12.1250565 15.3678391 12.1250565 -2.15127826 -1.82773913 -2.15127826"></polygon>
                    </g>
                    <g id="Group-40" transform="translate(135.217391, 7.826087)">
                        <mask id="mask-26" fill="white">
                            <use xlink:href="#path-25"></use>
                        </mask>
                        <g id="Clip-39"></g>
                        <polygon id="Fill-38" fill-opacity="0.8" fill="#000000" mask="url(#mask-26)" points="-2.03230435 15.1850913 12.9082043 15.1850913 12.9082043 -1.96825652 -2.03230435 -1.96825652"></polygon>
                    </g>
                    <g id="Group-43" transform="translate(123.043478, 7.826087)">
                        <mask id="mask-28" fill="white">
                            <use xlink:href="#path-27"></use>
                        </mask>
                        <g id="Clip-42"></g>
                        <polygon id="Fill-41" fill-opacity="0.8" fill="#000000" mask="url(#mask-28)" points="-2.11178261 15.1850913 11.5840087 15.1850913 11.5840087 -1.96825652 -2.11178261 -1.96825652"></polygon>
                    </g>
                    <g id="Group-46" transform="translate(109.130435, 7.826087)">
                        <mask id="mask-30" fill="white">
                            <use xlink:href="#path-29"></use>
                        </mask>
                        <g id="Clip-45"></g>
                        <polygon id="Fill-44" fill-opacity="0.8" fill="#000000" mask="url(#mask-30)" points="-2.09743478 15.1850913 12.5311348 15.1850913 12.5311348 -1.96825652 -2.09743478 -1.96825652"></polygon>
                    </g>
                    <g id="Group-49" transform="translate(94.782609, 7.391304)">
                        <mask id="mask-32" fill="white">
                            <use xlink:href="#path-31"></use>
                        </mask>
                        <g id="Clip-48"></g>
                        <polygon id="Fill-47" fill-opacity="0.8" fill="#000000" mask="url(#mask-32)" points="-1.8106087 15.8404435 14.0806261 15.8404435 14.0806261 -1.7532087 -1.8106087 -1.7532087"></polygon>
                    </g>
                    <g id="Group-52" transform="translate(80.869565, 7.826087)">
                        <mask id="mask-34" fill="white">
                            <use xlink:href="#path-33"></use>
                        </mask>
                        <g id="Clip-51"></g>
                        <polygon id="Fill-50" fill-opacity="0.8" fill="#000000" mask="url(#mask-34)" points="-2.127 15.1859217 15.2463609 15.1859217 15.2463609 -2.05907391 -2.127 -2.05907391"></polygon>
                    </g>
                    <g id="Group-55" transform="translate(69.565217, 7.826087)">
                        <mask id="mask-36" fill="white">
                            <use xlink:href="#path-35"></use>
                        </mask>
                        <g id="Clip-54"></g>
                        <polygon id="Fill-53" fill-opacity="0.8" fill="#000000" mask="url(#mask-36)" points="-1.97626087 15.1850913 11.7195304 15.1850913 11.7195304 -1.96825652 -1.97626087 -1.96825652"></polygon>
                    </g>
                    <g id="Group-58" transform="translate(56.956522, 7.826087)">
                        <mask id="mask-38" fill="white">
                            <use xlink:href="#path-37"></use>
                        </mask>
                        <g id="Clip-57"></g>
                        <polygon id="Fill-56" fill-opacity="0.8" fill="#000000" mask="url(#mask-38)" points="-2.13304348 15.1859217 12.2774478 15.1859217 12.2774478 -1.96853043 -2.13304348 -1.96853043"></polygon>
                    </g>
                </g>
            </g>
        </g>
    </g>
</svg>