<?xml version="1.0" encoding="utf-8"?>
<!-- Generator: Adobe Illustrator 26.0.0, SVG Export Plug-In . SVG Version: 6.00 Build 0)  -->
<svg version="1.1" id="Layer_1" xmlns="http://www.w3.org/2000/svg" xmlns:xlink="http://www.w3.org/1999/xlink" x="0px" y="0px"
	 viewBox="0 0 777.9 131.4" style="enable-background:new 0 0 777.9 131.4;" xml:space="preserve">
<style type="text/css">
	.st0{clip-path:url(#SVGID_00000148632309369934843650000013953568908300218033_);fill:#4E4D4C;}
	.st1{clip-path:url(#SVGID_00000059309782085077367850000002660859370019179170_);fill:#4E4D4C;}
	.st2{clip-path:url(#SVGID_00000083055479952144294770000007867303066674761650_);fill:#4E4D4C;}
	.st3{clip-path:url(#SVGID_00000085240936057299123650000015886599645762476672_);fill:#4E4D4C;}
	.st4{clip-path:url(#SVGID_00000067938105173025358970000001114223560398247093_);fill:#4E4D4C;}
	.st5{clip-path:url(#SVGID_00000041270212299526197340000018063086046441933470_);fill:#4E4D4C;}
	.st6{clip-path:url(#SVGID_00000134939103455745667620000015353259974706914471_);fill:#4E4D4C;}
	.st7{clip-path:url(#SVGID_00000118369674441627460580000001008155799350217113_);fill:#4E4D4C;}
	.st8{clip-path:url(#SVGID_00000180336487981534765000000005974254274828523400_);fill:#4E4D4C;}
	.st9{clip-path:url(#SVGID_00000166639551221538115240000011083950682926401156_);fill:#4E4D4C;}
	.st10{clip-path:url(#SVGID_00000171678197938101224990000007543943486408347566_);fill:#4E4D4C;}
	.st11{clip-path:url(#SVGID_00000061450993540324141120000008429928489013991057_);fill:#4E4D4C;}
	.st12{clip-path:url(#SVGID_00000101104351909608889300000000847031431224690826_);fill:#4E4D4C;}
	.st13{clip-path:url(#SVGID_00000120532475537742307820000006487537773281734328_);fill:#4E4D4C;}
	.st14{fill:#4E4D4C;}
	.st15{clip-path:url(#SVGID_00000042708330429326071890000009373102138125311914_);fill:#4E4D4C;}
	.st16{clip-path:url(#SVGID_00000150791308295343003830000013304566769079471292_);fill:#4E4D4C;}
	.st17{clip-path:url(#SVGID_00000110437700521217978660000008644762757713140653_);fill:#4E4D4C;}
	.st18{clip-path:url(#SVGID_00000179625707474562585880000012559778811947483266_);fill:#4E4D4C;}
	.st19{clip-path:url(#SVGID_00000021078391558795297370000018160900371302730126_);fill:#4E4D4C;}
	.st20{clip-path:url(#SVGID_00000059994026546468512560000007591674833768294034_);fill:#4E4D4C;}
	.st21{clip-path:url(#SVGID_00000052071597139135385620000004664505707268524953_);fill:#4E4D4C;}
	.st22{clip-path:url(#SVGID_00000029021124629783159150000018303764941512112777_);fill:#4E4D4C;}
	.st23{clip-path:url(#SVGID_00000150092188698370534310000007680982179366984593_);fill:#4E4D4C;}
	.st24{clip-path:url(#SVGID_00000005953760516522058510000015012807400441559959_);fill:#4E4D4C;}
	.st25{clip-path:url(#SVGID_00000062182632971258573310000009084732296619796102_);fill:#4E4D4C;}
	.st26{clip-path:url(#SVGID_00000119813954095824567000000006336385298732474815_);fill:#4E4D4C;}
	.st27{clip-path:url(#SVGID_00000167371453899122036720000018038866841272199097_);fill:#4E4D4C;}
	.st28{clip-path:url(#SVGID_00000061439807601507121260000004693537131312280766_);fill:#4E4D4C;}
	.st29{clip-path:url(#SVGID_00000021838720966876183520000014061255140231201930_);fill:#4E4D4C;}
	.st30{clip-path:url(#SVGID_00000046314925822909588290000000242863368044421567_);fill:#4E4D4C;}
	.st31{clip-path:url(#SVGID_00000134221919698706743870000010837376297716318868_);fill:#4E4D4C;}
	.st32{clip-path:url(#SVGID_00000140697578643588058100000014817563038563453315_);fill:#4E4D4C;}
	.st33{clip-path:url(#SVGID_00000141449041483226604790000002064453937029218751_);fill:#4E4D4C;}
	.st34{clip-path:url(#SVGID_00000007388210821652936500000016601203133207807641_);fill:#4E4D4C;}
	.st35{clip-path:url(#SVGID_00000116234194501506818620000001338992325225494203_);fill:#4E4D4C;}
	.st36{clip-path:url(#SVGID_00000009565575984884600340000007918589522786939302_);fill:#4E4D4C;}
	.st37{clip-path:url(#SVGID_00000083068911277006515740000006994482289022401719_);fill:#4E4D4C;}
	.st38{clip-path:url(#SVGID_00000021815598339377481360000007652596624011278992_);fill:#4E4D4C;}
	.st39{clip-path:url(#SVGID_00000153696133382787210760000000694858708816618637_);fill:#4E4D4C;}
	.st40{clip-path:url(#SVGID_00000134220794242238939510000014352104521039665847_);fill:#4E4D4C;}
	.st41{clip-path:url(#SVGID_00000001648455796328307770000017890117451116110468_);fill:#4E4D4C;}
	.st42{clip-path:url(#SVGID_00000065066723108520301700000016500085130428709055_);fill:#4E4D4C;}
	.st43{clip-path:url(#SVGID_00000142173084148288711900000009474966105388616860_);fill:#4E4D4C;}
	.st44{clip-path:url(#SVGID_00000000940919546714278060000001598325784398809756_);fill:#4E4D4C;}
	.st45{clip-path:url(#SVGID_00000030457242353463929020000010276967806364572809_);fill:#6C7B77;}
	.st46{clip-path:url(#SVGID_00000138531477272990307720000008881311008665626810_);fill:#6C7B77;}
	.st47{clip-path:url(#SVGID_00000170276223738007758520000005811692804640644534_);fill:#D4613F;}
	.st48{clip-path:url(#SVGID_00000046308715079584928650000011488998111574899623_);fill:#D4613F;}
	.st49{clip-path:url(#SVGID_00000035513611841937663270000015746496802638875032_);fill:#6C7B77;}
	.st50{clip-path:url(#SVGID_00000087393883551466707910000002419582156243449481_);fill:#6C7B77;}
	.st51{clip-path:url(#SVGID_00000165942473843633033820000007370093082064333484_);fill:#D4613F;}
	.st52{clip-path:url(#SVGID_00000142168639603427190280000003893414278716222606_);fill:#D4613F;}
	.st53{clip-path:url(#SVGID_00000072271598348578579300000010599778972740185754_);fill:#6C7B77;}
	.st54{clip-path:url(#SVGID_00000120550942122680346510000007591842646811536800_);fill:#6C7B77;}
	.st55{clip-path:url(#SVGID_00000169525696531875678250000009537517018295653006_);fill:#D4613F;}
	.st56{clip-path:url(#SVGID_00000171689691023596101490000012387973197195633319_);fill:#D4613F;}
	.st57{clip-path:url(#SVGID_00000049187655326746849400000015394026534862764471_);fill:#6C7B77;}
	.st58{clip-path:url(#SVGID_00000142889576769528480380000003585117338778224813_);fill:#6C7B77;}
	.st59{clip-path:url(#SVGID_00000085227662615293735210000004264744716198411920_);fill:#D4613F;}
	.st60{clip-path:url(#SVGID_00000011753359910697772710000013548448307382036135_);fill:#D4613F;}
	.st61{clip-path:url(#SVGID_00000168834514733589728490000011055068037240134530_);fill:#4E4D4C;}
	.st62{clip-path:url(#SVGID_00000058553893312315611770000005796239324992534436_);fill:#4E4D4C;}
	.st63{clip-path:url(#SVGID_00000062156336274978936330000010383665764376102583_);fill:#4E4D4C;}
	.st64{clip-path:url(#SVGID_00000053529511697418838200000017782455135634431150_);fill:#4E4D4C;}
	.st65{clip-path:url(#SVGID_00000029019831929895797310000004585197303945575307_);fill:#4E4D4C;}
	.st66{clip-path:url(#SVGID_00000078761097249936717600000016962232122606640572_);fill:#4E4D4C;}
	.st67{clip-path:url(#SVGID_00000120545141399968280580000012703372361952545711_);fill:#4E4D4C;}
	.st68{clip-path:url(#SVGID_00000030477474779978114460000009354706079700995754_);fill:#4E4D4C;}
	.st69{clip-path:url(#SVGID_00000119840367231643126270000007990298785365000891_);fill:#4E4D4C;}
	.st70{clip-path:url(#SVGID_00000081616131745175432000000011807650052738676122_);fill:#4E4D4C;}
	.st71{clip-path:url(#SVGID_00000028319003715838600950000007083981023204878742_);fill:#4E4D4C;}
	.st72{clip-path:url(#SVGID_00000124842129275881210110000009166719819653541550_);fill:#4E4D4C;}
	.st73{clip-path:url(#SVGID_00000155845305833542923640000005914640371445862025_);fill:#6C7B77;}
	.st74{clip-path:url(#SVGID_00000142855678875609546960000002028052875550954131_);fill:#6C7B77;}
	.st75{clip-path:url(#SVGID_00000177475514646066281560000008268824851872362685_);fill:#D4613F;}
	.st76{clip-path:url(#SVGID_00000050633722809220930590000003807063919432048318_);fill:#D4613F;}
	.st77{clip-path:url(#SVGID_00000031179200094002808310000000638745639354844596_);fill:#4E4D4C;}
	.st78{clip-path:url(#SVGID_00000049202995998397170420000016737703757485543337_);fill:#4E4D4C;}
	.st79{clip-path:url(#SVGID_00000157998581755112117400000012049116221052600491_);fill:#4E4D4C;}
</style>
<g>
	<g>
		<defs>
			<path id="SVGID_1_" d="M335.7,67.8L335.7,67.8c0-9.6,7.1-17.4,16.9-17.4c6.1,0,9.7,2.2,13.1,5.3l-2.6,2.8
				c-2.8-2.7-6-4.6-10.5-4.6c-7.4,0-13,6-13,13.7v0.1c0,7.8,5.6,13.8,13,13.8c4.6,0,7.6-1.8,10.8-4.8l2.5,2.4
				c-3.5,3.5-7.3,5.9-13.4,5.9C342.8,85,335.7,77.4,335.7,67.8"/>
		</defs>
		<use xlink:href="#SVGID_1_"  style="overflow:visible;fill-rule:evenodd;clip-rule:evenodd;fill:#4E4D4C;"/>
		<clipPath id="SVGID_00000071537467255814555810000001447966784550097308_">
			<use xlink:href="#SVGID_1_"  style="overflow:visible;"/>
		</clipPath>
		
			<rect x="320.7" y="35.4" style="clip-path:url(#SVGID_00000071537467255814555810000001447966784550097308_);fill:#4E4D4C;" width="60.2" height="64.6"/>
	</g>
	<g>
		<defs>
			<path id="SVGID_00000133493151047518568910000014027283786117437627_" d="M372.4,51h3.8v14.9h19.3V51h3.8v33.5h-3.8V69.4h-19.3
				v15.1h-3.8V51L372.4,51z M372.4,51"/>
		</defs>
		
			<use xlink:href="#SVGID_00000133493151047518568910000014027283786117437627_"  style="overflow:visible;fill-rule:evenodd;clip-rule:evenodd;fill:#4E4D4C;"/>
		<clipPath id="SVGID_00000110450172522136148460000001890156863306261395_">
			<use xlink:href="#SVGID_00000133493151047518568910000014027283786117437627_"  style="overflow:visible;"/>
		</clipPath>
		
			<rect x="357.4" y="36" style="clip-path:url(#SVGID_00000110450172522136148460000001890156863306261395_);fill:#4E4D4C;" width="56.9" height="63.5"/>
	</g>
	<g>
		<defs>
			<path id="SVGID_00000166643862040274730910000017149438556764587930_" d="M408.8,51H433v3.4h-20.4v11.4h18.3v3.4h-18.3V81h20.7
				v3.4h-24.4V51L408.8,51z M408.8,51"/>
		</defs>
		
			<use xlink:href="#SVGID_00000166643862040274730910000017149438556764587930_"  style="overflow:visible;fill-rule:evenodd;clip-rule:evenodd;fill:#4E4D4C;"/>
		<clipPath id="SVGID_00000082336272473899696390000001354845191922939018_">
			<use xlink:href="#SVGID_00000166643862040274730910000017149438556764587930_"  style="overflow:visible;"/>
		</clipPath>
		
			<rect x="393.8" y="36" style="clip-path:url(#SVGID_00000082336272473899696390000001354845191922939018_);fill:#4E4D4C;" width="54.4" height="63.5"/>
	</g>
	<g>
		<defs>
			<path id="SVGID_00000067209155951396520420000009181363301281832374_" d="M454.9,68.1c5,0,8.6-2.6,8.6-6.9v-0.1
				c0-4.1-3.2-6.6-8.6-6.6h-10.3v13.6H454.9L454.9,68.1z M440.8,51h14.4c4.1,0,7.4,1.2,9.5,3.3c1.6,1.6,2.6,4,2.6,6.6V61
				c0,5.5-3.8,8.8-9.1,9.8l10.3,13.7h-4.6l-9.7-13h-9.6v13h-3.8V51L440.8,51z M440.8,51"/>
		</defs>
		
			<use xlink:href="#SVGID_00000067209155951396520420000009181363301281832374_"  style="overflow:visible;fill-rule:evenodd;clip-rule:evenodd;fill:#4E4D4C;"/>
		<clipPath id="SVGID_00000080906461494492114750000016491464558043220133_">
			<use xlink:href="#SVGID_00000067209155951396520420000009181363301281832374_"  style="overflow:visible;"/>
		</clipPath>
		
			<rect x="425.8" y="36" style="clip-path:url(#SVGID_00000080906461494492114750000016491464558043220133_);fill:#4E4D4C;" width="57.7" height="63.5"/>
	</g>
	<g>
		<defs>
			<path id="SVGID_00000065792507807463297200000003689790264870597546_" d="M473.2,79.6l2.3-2.8c3.5,3.2,6.8,4.7,11.5,4.7
				c4.5,0,7.5-2.4,7.5-5.7v-0.1c0-3.1-1.7-4.9-8.7-6.4c-7.7-1.7-11.2-4.2-11.2-9.7v-0.1c0-5.3,4.6-9.1,11-9.1
				c4.9,0,8.4,1.4,11.8,4.1l-2.2,2.9c-3.1-2.5-6.2-3.6-9.7-3.6c-4.4,0-7.1,2.4-7.1,5.4v0.1c0,3.2,1.7,4.9,9.1,6.5
				c7.5,1.6,10.9,4.4,10.9,9.5v0.1c0,5.7-4.8,9.5-11.4,9.5C481.6,84.9,477.2,83.2,473.2,79.6"/>
		</defs>
		
			<use xlink:href="#SVGID_00000065792507807463297200000003689790264870597546_"  style="overflow:visible;fill-rule:evenodd;clip-rule:evenodd;fill:#4E4D4C;"/>
		<clipPath id="SVGID_00000132776429411565972530000012058042420426566560_">
			<use xlink:href="#SVGID_00000065792507807463297200000003689790264870597546_"  style="overflow:visible;"/>
		</clipPath>
		
			<rect x="458.2" y="35.5" style="clip-path:url(#SVGID_00000132776429411565972530000012058042420426566560_);fill:#4E4D4C;" width="55.1" height="64.4"/>
	</g>
	<g>
		<defs>
			<path id="SVGID_00000157998892037433354700000011989617594682273443_" d="M518.2,67.8L518.2,67.8c0-9.6,7.2-17.4,17.5-17.4
				c6.3,0,10.1,2.1,13.2,5.2l-4.7,5.4c-2.6-2.3-5.2-3.8-8.6-3.8c-5.6,0-9.7,4.7-9.7,10.4v0.1c0,5.7,4,10.5,9.7,10.5
				c3.8,0,6.2-1.5,8.8-3.9l4.7,4.7c-3.4,3.7-7.3,6-13.7,6C525.5,85,518.2,77.4,518.2,67.8"/>
		</defs>
		
			<use xlink:href="#SVGID_00000157998892037433354700000011989617594682273443_"  style="overflow:visible;fill-rule:evenodd;clip-rule:evenodd;fill:#4E4D4C;"/>
		<clipPath id="SVGID_00000066503463375549138930000006973175514231314846_">
			<use xlink:href="#SVGID_00000157998892037433354700000011989617594682273443_"  style="overflow:visible;"/>
		</clipPath>
		
			<rect x="503.2" y="35.4" style="clip-path:url(#SVGID_00000066503463375549138930000006973175514231314846_);fill:#4E4D4C;" width="60.9" height="64.6"/>
	</g>
	<g>
		<defs>
			<path id="SVGID_00000154407743525409139700000000464254964110480059_" d="M580.4,67.8L580.4,67.8c0-5.8-4.2-10.6-10.1-10.6
				c-5.9,0-10,4.7-10,10.4v0.1c0,5.7,4.2,10.5,10.1,10.5C576.3,78.3,580.4,73.6,580.4,67.8 M552.5,67.8L552.5,67.8
				c0-9.6,7.5-17.4,17.8-17.4c10.3,0,17.8,7.7,17.8,17.2v0.1c0,9.5-7.5,17.3-17.8,17.3C559.9,85,552.5,77.3,552.5,67.8"/>
		</defs>
		
			<use xlink:href="#SVGID_00000154407743525409139700000000464254964110480059_"  style="overflow:visible;fill-rule:evenodd;clip-rule:evenodd;fill:#4E4D4C;"/>
		<clipPath id="SVGID_00000042727900764706987160000013062693391492006537_">
			<use xlink:href="#SVGID_00000154407743525409139700000000464254964110480059_"  style="overflow:visible;"/>
		</clipPath>
		
			<rect x="537.5" y="35.4" style="clip-path:url(#SVGID_00000042727900764706987160000013062693391492006537_);fill:#4E4D4C;" width="65.6" height="64.6"/>
	</g>
	<g>
		<defs>
			<path id="SVGID_00000057858836357621993430000016116397733174377101_" d="M594.6,51h6.8l15.7,20.6V51h7.3v33.5h-6.3l-16.2-21.3
				v21.3h-7.3V51L594.6,51z M594.6,51"/>
		</defs>
		
			<use xlink:href="#SVGID_00000057858836357621993430000016116397733174377101_"  style="overflow:visible;fill-rule:evenodd;clip-rule:evenodd;fill:#4E4D4C;"/>
		<clipPath id="SVGID_00000178182813868934200300000014254986241395363216_">
			<use xlink:href="#SVGID_00000057858836357621993430000016116397733174377101_"  style="overflow:visible;"/>
		</clipPath>
		
			<rect x="579.6" y="36" style="clip-path:url(#SVGID_00000178182813868934200300000014254986241395363216_);fill:#4E4D4C;" width="59.8" height="63.5"/>
	</g>
	<g>
		<defs>
			<path id="SVGID_00000031919229412357012500000007582353006594386871_" d="M632.4,51h6.8l15.7,20.6V51h7.3v33.5h-6.3l-16.2-21.3
				v21.3h-7.3V51L632.4,51z M632.4,51"/>
		</defs>
		
			<use xlink:href="#SVGID_00000031919229412357012500000007582353006594386871_"  style="overflow:visible;fill-rule:evenodd;clip-rule:evenodd;fill:#4E4D4C;"/>
		<clipPath id="SVGID_00000137843763565621714120000009902751808427781795_">
			<use xlink:href="#SVGID_00000031919229412357012500000007582353006594386871_"  style="overflow:visible;"/>
		</clipPath>
		
			<rect x="617.4" y="36" style="clip-path:url(#SVGID_00000137843763565621714120000009902751808427781795_);fill:#4E4D4C;" width="59.8" height="63.5"/>
	</g>
	<g>
		<defs>
			<path id="SVGID_00000041293365946490672740000018206489294493146018_" d="M670.2,51h25.3v6.6h-17.9v6.8h15.8v6.6h-15.8v7h18.2
				v6.6h-25.5V51L670.2,51z M670.2,51"/>
		</defs>
		
			<use xlink:href="#SVGID_00000041293365946490672740000018206489294493146018_"  style="overflow:visible;fill-rule:evenodd;clip-rule:evenodd;fill:#4E4D4C;"/>
		<clipPath id="SVGID_00000015356318437724763850000016691432432262136976_">
			<use xlink:href="#SVGID_00000041293365946490672740000018206489294493146018_"  style="overflow:visible;"/>
		</clipPath>
		
			<rect x="655.2" y="36" style="clip-path:url(#SVGID_00000015356318437724763850000016691432432262136976_);fill:#4E4D4C;" width="55.5" height="63.5"/>
	</g>
	<g>
		<defs>
			<path id="SVGID_00000155850957055880431180000017802443853284655540_" d="M700.8,67.8L700.8,67.8c0-9.6,7.2-17.4,17.5-17.4
				c6.3,0,10.1,2.1,13.2,5.2l-4.7,5.4c-2.6-2.3-5.2-3.8-8.6-3.8c-5.6,0-9.7,4.7-9.7,10.4v0.1c0,5.7,4,10.5,9.7,10.5
				c3.8,0,6.2-1.5,8.8-3.9l4.7,4.7c-3.4,3.7-7.3,6-13.7,6C708.1,85,700.8,77.4,700.8,67.8"/>
		</defs>
		
			<use xlink:href="#SVGID_00000155850957055880431180000017802443853284655540_"  style="overflow:visible;fill-rule:evenodd;clip-rule:evenodd;fill:#4E4D4C;"/>
		<clipPath id="SVGID_00000052796315540564444970000005674412131408001930_">
			<use xlink:href="#SVGID_00000155850957055880431180000017802443853284655540_"  style="overflow:visible;"/>
		</clipPath>
		
			<rect x="685.8" y="35.4" style="clip-path:url(#SVGID_00000052796315540564444970000005674412131408001930_);fill:#4E4D4C;" width="60.9" height="64.6"/>
	</g>
	<g>
		<defs>
			<path id="SVGID_00000014618404363573271770000013025965650814496685_" d="M745.3,57.8h-10.2V51h27.8v6.8h-10.2v26.7h-7.4V57.8
				L745.3,57.8z M745.3,57.8"/>
		</defs>
		
			<use xlink:href="#SVGID_00000014618404363573271770000013025965650814496685_"  style="overflow:visible;fill-rule:evenodd;clip-rule:evenodd;fill:#4E4D4C;"/>
		<clipPath id="SVGID_00000028311515504087822150000015753058695150935733_">
			<use xlink:href="#SVGID_00000014618404363573271770000013025965650814496685_"  style="overflow:visible;"/>
		</clipPath>
		
			<rect x="720.1" y="36" style="clip-path:url(#SVGID_00000028311515504087822150000015753058695150935733_);fill:#4E4D4C;" width="57.8" height="63.5"/>
	</g>
	<g>
		<defs>
			<path id="SVGID_00000148629492079315077910000009032126524324896685_" d="M323.1,72.2l-7.6-17.1l-7.7,17.1H323.1L323.1,72.2z
				 M313.7,50.7h3.5l15.3,33.7h-4.1l-3.9-8.9h-18.2l-4,8.9h-3.9L313.7,50.7L313.7,50.7z M313.7,50.7"/>
		</defs>
		
			<use xlink:href="#SVGID_00000148629492079315077910000009032126524324896685_"  style="overflow:visible;fill-rule:evenodd;clip-rule:evenodd;fill:#4E4D4C;"/>
		<clipPath id="SVGID_00000057131875704871809450000001102827873584847253_">
			<use xlink:href="#SVGID_00000148629492079315077910000009032126524324896685_"  style="overflow:visible;"/>
		</clipPath>
		
			<rect x="283.5" y="35.7" style="clip-path:url(#SVGID_00000057131875704871809450000001102827873584847253_);fill:#4E4D4C;" width="64.1" height="63.7"/>
	</g>
	<g>
		<defs>
			<path id="SVGID_00000102535155536221221670000001697536782510014639_" d="M269.3,51h24.2v3.4h-20.4v11.4h18.3v3.4h-18.3V81h20.7
				v3.4h-24.4V51L269.3,51z M269.3,51"/>
		</defs>
		
			<use xlink:href="#SVGID_00000102535155536221221670000001697536782510014639_"  style="overflow:visible;fill-rule:evenodd;clip-rule:evenodd;fill:#4E4D4C;"/>
		<clipPath id="SVGID_00000183965621061024712050000016624312346595050883_">
			<use xlink:href="#SVGID_00000102535155536221221670000001697536782510014639_"  style="overflow:visible;"/>
		</clipPath>
		
			<rect x="254.3" y="36" style="clip-path:url(#SVGID_00000183965621061024712050000016624312346595050883_);fill:#4E4D4C;" width="54.4" height="63.5"/>
	</g>
	<g>
		<defs>
			<path id="SVGID_00000134249169877335263500000009849276965329774009_" d="M247.2,54.5h-11.2V51h26.3v3.5H251v30h-3.8V54.5
				L247.2,54.5z M247.2,54.5"/>
		</defs>
		
			<use xlink:href="#SVGID_00000134249169877335263500000009849276965329774009_"  style="overflow:visible;fill-rule:evenodd;clip-rule:evenodd;fill:#4E4D4C;"/>
		<clipPath id="SVGID_00000182492946790449194760000006900006849891740545_">
			<use xlink:href="#SVGID_00000134249169877335263500000009849276965329774009_"  style="overflow:visible;"/>
		</clipPath>
	</g>
	<g>
		<path class="st14" d="M517.9,124.4l2.1-15.1h1.3l-0.9,6.3c1.1-0.8,2.3-1.6,3.9-1.6c1.8,0,3.1,1.1,3.1,3.9c0,4.8-2.4,6.8-4.9,6.8
			c-1.2,0-2.3-0.4-3.2-1.1l-0.2,0.9H517.9z M519.5,122.3c0.4,0.4,1.4,1.2,2.9,1.2c2.7,0,3.6-2.9,3.6-5.6c0-2-0.7-2.7-1.9-2.7
			c-1.3,0-3,1.1-3.8,1.8L519.5,122.3z"/>
		<path class="st14" d="M529.1,114.2h1.4l1.6,8.6l4.1-8.6h1.4l-5.4,10.8c-1.5,2.9-2.1,3.9-3.8,3.9c-0.7,0-1.3-0.2-1.6-0.3l0.3-1
			c0.3,0.1,0.8,0.3,1.4,0.3c1,0,1.6-0.8,2.8-3.4L529.1,114.2z"/>
		<path class="st14" d="M544.5,124.4h-1.3l2-14.5h3.9c3.2,0,4.5,1.6,4.5,3.6c0,3.7-2.3,5.4-5.9,5.4h-2.3L544.5,124.4z M547.7,117.7
			c2.5,0,4.5-0.9,4.5-4.1c0-2-1.4-2.6-3.8-2.6h-2.1l-0.9,6.7H547.7z"/>
		<path class="st14" d="M562.4,114.2h1.3l-1.4,10.2H561l0.2-1.4c-0.8,0.7-2.4,1.6-4,1.6c-2,0-3-1.2-2.6-3.5l1-6.9h1.3l-1,6.8
			c-0.1,0.6-0.1,1,0,1.4c0.1,0.7,0.6,1.1,1.6,1.1c1.4,0,2.8-0.8,3.8-1.7L562.4,114.2z"/>
		<path class="st14" d="M565.8,124.4l2.1-15.1h1.3l-0.9,6.3c1.1-0.8,2.3-1.6,3.9-1.6c1.8,0,3.1,1.1,3.1,3.9c0,4.8-2.4,6.8-4.9,6.8
			c-1.2,0-2.3-0.4-3.2-1.1l-0.2,0.9H565.8z M567.5,122.3c0.4,0.4,1.4,1.2,2.9,1.2c2.7,0,3.6-2.9,3.6-5.6c0-2-0.7-2.7-1.9-2.7
			c-1.3,0-3,1.1-3.8,1.8L567.5,122.3z"/>
		<path class="st14" d="M579.5,109.3h1.3l-2.1,15.1h-1.3L579.5,109.3z"/>
		<path class="st14" d="M583.5,124.4h-1.3l1.4-10.2h1.3L583.5,124.4z M584.6,111.9c-0.6,0-0.9-0.3-0.9-0.9c0-0.8,0.5-1.2,1.2-1.2
			c0.6,0,0.9,0.3,0.9,0.9C585.9,111.4,585.4,111.9,584.6,111.9z"/>
		<path class="st14" d="M587,120.4c0-4.1,2.4-6.4,5.5-6.4c2.3,0,3.6,1.7,3.3,3.9l-1.3,0.1c0.1-1.8-0.4-2.9-2.2-2.9
			c-1.8,0-3.9,1.2-3.9,5.1c0,2.4,1.2,3.2,2.7,3.2c1.5,0,2.6-0.7,3.1-2.3l1.2,0.3c-0.6,2.2-2.4,3.2-4.4,3.2
			C588.1,124.6,587,122.9,587,120.4z"/>
		<path class="st14" d="M613.3,120.5c-0.9,3.1-3.3,4.1-5.9,4.1c-3.6,0-5.2-2.3-5.2-5.8c0-5.8,3.2-9.2,7.5-9.2c2.9,0,4.7,1.7,4.5,4.9
			l-1.2,0.1c0-2.4-0.8-3.9-3.4-3.9c-3.5,0-6,2.8-6,7.9c0,3.4,1.5,4.8,4.1,4.8c2.3,0,3.6-1,4.4-3.3L613.3,120.5z"/>
		<path class="st14" d="M615.4,120.5c0-0.5,0-0.9,0.1-1.3c0.4-3.1,2.2-5.2,5.4-5.2c2.8,0,3.9,1.8,3.9,4.1c0,0.5,0,0.9-0.1,1.3
			c-0.4,3.3-2.3,5.2-5.3,5.2C616.6,124.6,615.4,123,615.4,120.5z M623.4,119.3c0-0.4,0.1-0.8,0.1-1.2c0-2-0.9-2.9-2.7-2.9
			c-2.1,0-3.6,1.4-3.9,4.1c0,0.3-0.1,0.7-0.1,1.1c0,2,0.9,3.1,2.8,3.1C621.6,123.5,623.1,122.1,623.4,119.3z"/>
		<path class="st14" d="M628.3,124.4h-1.3l1.4-10.2h1.3l-0.2,1.4c0.8-0.7,2.4-1.6,4-1.6c2,0,3,1.2,2.7,3.5l-1,6.9h-1.3l1-6.8
			c0.2-1.7-0.3-2.5-1.5-2.5c-1.5,0-3,1.1-3.9,1.7L628.3,124.4z"/>
		<path class="st14" d="M646.3,117.2l-1.1,0.1c0-1.3-0.6-2.3-2.3-2.3c-1.8,0-2.4,0.9-2.4,1.8c0,2.7,5.2,1.1,5.2,4.7
			c0,2-1.5,3.1-3.9,3.1c-2.2,0-3.5-1-3.7-3.1l1.1-0.2c0.2,1.3,0.7,2.3,2.6,2.3c1.1,0,2.5-0.4,2.5-1.9c0-2.7-5.2-1.1-5.2-4.7
			c0-2.1,1.8-3,3.6-3C645.3,114,646.3,115.4,646.3,117.2z"/>
		<path class="st14" d="M656.1,114.2h1.3l-1.4,10.2h-1.2l0.2-1.4c-0.8,0.7-2.4,1.6-4,1.6c-2,0-3-1.2-2.6-3.5l1-6.9h1.3l-1,6.8
			c-0.1,0.6-0.1,1,0,1.4c0.1,0.7,0.6,1.1,1.6,1.1c1.4,0,2.8-0.8,3.8-1.7L656.1,114.2z"/>
		<path class="st14" d="M661.6,109.3h1.3l-2.1,15.1h-1.3L661.6,109.3z"/>
		<path class="st14" d="M669.8,124c-0.6,0.3-1.5,0.6-2.3,0.6c-1.8,0-2.7-0.8-2.4-2.7l0.9-6.7h-1.6l0.1-1.1h1.6l0.4-2.9l1.4-0.2
			l-0.4,3.1h2.9l-0.1,1.1h-2.9l-0.9,6.5c-0.2,1.2-0.1,1.9,1.3,1.9c0.7,0,1.4-0.3,1.9-0.5L669.8,124z"/>
		<path class="st14" d="M673,124.4h-1.3l1.4-10.2h1.3L673,124.4z M674.1,111.9c-0.6,0-0.9-0.3-0.9-0.9c0-0.8,0.5-1.2,1.2-1.2
			c0.6,0,0.9,0.3,0.9,0.9C675.4,111.4,674.9,111.9,674.1,111.9z"/>
		<path class="st14" d="M677.9,124.4h-1.3l1.4-10.2h1.3l-0.2,1.4c0.8-0.7,2.4-1.6,4-1.6c2,0,3,1.2,2.7,3.5l-1,6.9h-1.3l1-6.8
			c0.2-1.7-0.3-2.5-1.5-2.5c-1.5,0-3,1.1-3.9,1.7L677.9,124.4z"/>
		<path class="st14" d="M695.1,122.9c-0.9,1-2.4,1.5-3.7,1.5c-1.9,0-3.2-1.1-3.2-3.9c0-2.9,1.3-6.5,5-6.5c1.2,0,2.3,0.6,2.9,1.1
			l0.2-0.9h1.2l-1.6,11.1c-0.3,2.2-1.8,3.5-4.5,3.5c-2.2,0-3.7-0.8-3.9-3.1l1.2-0.2c0.1,1.2,0.7,2.2,2.6,2.2c1.6,0,3-0.7,3.3-2.5
			L695.1,122.9z M689.5,120.4c0,2.2,0.9,2.8,2.1,2.8c1.2,0,2.2-0.3,3.6-1.7l0.7-5.3c-0.6-0.6-1.7-1.1-2.8-1.1
			C690.3,115.1,689.5,118.2,689.5,120.4z"/>
		<path class="st14" d="M714.7,124.4h-1l0.1-2c-0.6,1.2-2.6,2.2-4.6,2.2c-3.6,0-5.1-2.4-5.1-5.9c0-5.8,3.1-9,7.5-9
			c2.9,0,4.7,1.5,4.5,4.7l-1.2,0.1c0.1-2.7-1.1-3.7-3.4-3.7c-3.6,0-6,2.9-6,7.9c0,3.8,1.8,4.9,4.1,4.9c2.7,0,4.4-2.1,4.7-4l0.2-1.6
			h-4.2l0.2-1.1h5.3L714.7,124.4z"/>
		<path class="st14" d="M719.3,124.4H718l1.4-10.2h1.3l-0.2,1.7c1.2-1.2,2-1.9,3.3-1.9c0.1,0,0.3,0,0.4,0l-0.2,1.4
			c-1.3-0.1-2.4,0.5-3.7,1.6L719.3,124.4z"/>
		<path class="st14" d="M724.7,120.5c0-0.5,0-0.9,0.1-1.3c0.4-3.1,2.2-5.2,5.4-5.2c2.8,0,3.9,1.8,3.9,4.1c0,0.5,0,0.9-0.1,1.3
			c-0.4,3.3-2.3,5.2-5.3,5.2C725.9,124.6,724.7,123,724.7,120.5z M732.6,119.3c0-0.4,0.1-0.8,0.1-1.2c0-2-0.9-2.9-2.7-2.9
			c-2.1,0-3.6,1.4-3.9,4.1c0,0.3-0.1,0.7-0.1,1.1c0,2,0.9,3.1,2.8,3.1C730.9,123.5,732.3,122.1,732.6,119.3z"/>
		<path class="st14" d="M744.3,114.2h1.3l-1.4,10.2H743l0.2-1.4c-0.8,0.7-2.4,1.6-4,1.6c-2,0-3-1.2-2.6-3.5l1-6.9h1.3l-1,6.8
			c-0.1,0.6-0.1,1,0,1.4c0.1,0.7,0.6,1.1,1.6,1.1c1.4,0,2.8-0.8,3.8-1.7L744.3,114.2z"/>
		<path class="st14" d="M750.3,115.6c1-0.8,2.3-1.7,3.9-1.7c1.8,0,3.1,1.1,3.1,3.9c0,4.8-2.4,6.8-5,6.8c-1.3,0-2.4-0.6-3.1-1.1
			l-0.7,5.1h-1.3l2-14.5h1.3L750.3,115.6z M754,115.1c-1.4,0-3.1,1.1-3.8,1.7l-0.8,5.4c0.4,0.4,1.5,1.2,2.8,1.2
			c2.9,0,3.7-2.9,3.7-5.6C755.9,115.9,755.3,115.1,754,115.1z"/>
	</g>
</g>
<g>
	<g>
		<defs>
			<path id="SVGID_00000000902111871335345420000007369365079162928053_" d="M147.4,129.9c-4.2,0-8.4-1.6-11.5-4.8l-31.3-31.3
				l1.9-1.9l31.3,31.3c2.6,2.6,6,4,9.6,4c3.7,0,7.1-1.4,9.7-4l47.1-47.1c2.6-2.6,4-6,4-9.7c0-3.7-1.4-7.1-4-9.6L157,9.6
				c-2.6-2.6-6-4-9.7-4c-3.7,0-7.1,1.4-9.6,4L90.6,56.8c-2.6,2.6-4,6-4,9.6c0,3.7,1.4,7.1,4,9.7l5.6,5.6l-1.9,1.9L88.7,78
				c-6.4-6.4-6.4-16.7,0-23.1l47.1-47.1c6.4-6.4,16.7-6.4,23.1,0l47.1,47.1c6.4,6.4,6.4,16.7,0,23.1l-47.1,47.1
				C155.7,128.3,151.6,129.9,147.4,129.9"/>
		</defs>
		<clipPath id="SVGID_00000101815189638277100580000016039440191949687433_">
			<use xlink:href="#SVGID_00000000902111871335345420000007369365079162928053_"  style="overflow:visible;"/>
		</clipPath>
		
			<rect x="70.6" y="-10.4" style="clip-path:url(#SVGID_00000101815189638277100580000016039440191949687433_);fill:#6C7B77;" width="153.6" height="153.6"/>
	</g>
	<g>
		<defs>
			<path id="SVGID_00000167355743383184026720000017734701468277575316_" d="M64.6,130.8c-4.4,0-8.5-1.7-11.5-4.8L6,78.9
				c-6.4-6.4-6.4-16.7,0-23.1L53.1,8.7C56.2,5.6,60.3,4,64.6,4c4.4,0,8.5,1.7,11.5,4.8l16,16l-1.9,1.9l-16-16c-2.6-2.6-6-4-9.6-4
				c-3.7,0-7.1,1.4-9.6,4L7.8,57.7c-2.6,2.6-4,6-4,9.7c0,3.7,1.4,7.1,4,9.6L55,124.2c2.6,2.6,6,4,9.6,4c3.7,0,7.1-1.4,9.6-4
				L121.4,77c2.6-2.6,4-6,4-9.6c0-3.7-1.4-7.1-4-9.7l-5.6-5.6l1.9-1.9l5.6,5.6c6.4,6.4,6.4,16.7,0,23.1l-47.1,47.1
				C73.1,129.1,69,130.8,64.6,130.8"/>
		</defs>
		<clipPath id="SVGID_00000025419874514737711730000001319151193928588676_">
			<use xlink:href="#SVGID_00000167355743383184026720000017734701468277575316_"  style="overflow:visible;"/>
		</clipPath>
		
			<rect x="-12.1" y="-9.4" style="clip-path:url(#SVGID_00000025419874514737711730000001319151193928588676_);fill:#6C7B77;" width="153.6" height="153.5"/>
	</g>
	<g>
		<defs>
			<path id="SVGID_00000173877008824266923250000004018983011018334336_" d="M53.2,56.2H41.6v-7.7h31.6v7.7H61.6v30.4h-8.4V56.2
				L53.2,56.2z M53.2,56.2"/>
		</defs>
		<clipPath id="SVGID_00000139289547007454474620000013907306351452214167_">
			<use xlink:href="#SVGID_00000173877008824266923250000004018983011018334336_"  style="overflow:visible;"/>
		</clipPath>
		
			<rect x="28.2" y="35.1" style="clip-path:url(#SVGID_00000139289547007454474620000013907306351452214167_);fill:#D4613F;" width="58.3" height="64.8"/>
	</g>
	<g>
		<defs>
			<path id="SVGID_00000021797827254151770750000016314374618007177386_" d="M140.5,67v-0.1c0-10.8,8.2-19.7,19.9-19.7
				c7.2,0,11.5,2.4,15,5.9l-5.3,6.2c-2.9-2.7-5.9-4.3-9.8-4.3c-6.4,0-11.1,5.3-11.1,11.9v0.1c0,6.5,4.5,12,11.1,12
				c4.4,0,7-1.7,10-4.5l5.3,5.4c-3.9,4.2-8.3,6.8-15.6,6.8C148.9,86.6,140.5,78,140.5,67"/>
		</defs>
		<clipPath id="SVGID_00000142168650164011966700000010875740064686975633_">
			<use xlink:href="#SVGID_00000021797827254151770750000016314374618007177386_"  style="overflow:visible;"/>
		</clipPath>
		
			<rect x="127.2" y="33.8" style="clip-path:url(#SVGID_00000142168650164011966700000010875740064686975633_);fill:#D4613F;" width="61.9" height="66.1"/>
	</g>
</g>
</svg>
