<?xml version="1.0" encoding="UTF-8"?>
<svg width="91px" height="91px" viewBox="0 0 91 91" version="1.1" xmlns="http://www.w3.org/2000/svg" xmlns:xlink="http://www.w3.org/1999/xlink">
    <!-- Generator: Sketch 49 (51002) - http://www.bohemiancoding.com/sketch -->
    <title>TeachersConnect Tile</title>
    <desc>Created with Sketch.</desc>
    <defs>
        <filter x="-5.9%" y="-4.7%" width="111.8%" height="111.8%" filterUnits="objectBoundingBox" id="filter-1">
            <feOffset dx="0" dy="1" in="SourceAlpha" result="shadowOffsetOuter1"></feOffset>
            <feGaussianBlur stdDeviation="1.5" in="shadowOffsetOuter1" result="shadowBlurOuter1"></feGaussianBlur>
            <feColorMatrix values="0 0 0 0 0.454901961   0 0 0 0 0.454901961   0 0 0 0 0.454901961  0 0 0 0.5 0" type="matrix" in="shadowBlurOuter1" result="shadowMatrixOuter1"></feColorMatrix>
            <feMerge>
                <feMergeNode in="shadowMatrixOuter1"></feMergeNode>
                <feMergeNode in="SourceGraphic"></feMergeNode>
            </feMerge>
        </filter>
    </defs>
    <g id="Page-1" stroke="none" stroke-width="1" fill="none" fill-rule="evenodd">
        <g id="Tiles" transform="translate(-92.000000, -174.000000)">
            <g id="TeachersConnect-Tile" filter="url(#filter-1)" transform="translate(95.000000, 176.000000)">
                <rect id="Rectangle" fill="#FFFFFF" x="0" y="0" width="85" height="85" rx="4"></rect>
                <g id="TC-Logo" transform="translate(11.000000, 10.000000)">
                    <path d="M42,18.5302352 L42,18.4995043 C42,15.4766439 44.0890909,13 47.0851515,13 C48.9245455,13 50.0251515,13.6684791 50.9306061,14.6409625 L49.5654545,16.3575956 C48.8133333,15.6134459 48.0463636,15.157109 47.0715152,15.157109 C45.4275758,15.157109 44.2433333,16.6467302 44.2433333,18.4691039 L44.2433333,18.4995043 C44.2433333,20.322539 45.399697,21.8422302 47.0715152,21.8422302 C48.1854545,21.8422302 48.8687879,21.3561537 49.6351515,20.5961429 L51,22.1003034 C49.9972727,23.2707201 48.8830303,24 47.0018182,24 C44.1315152,24 42,21.5844874 42,18.5302352 Z" id="Combined-Shape" fill="#E56841"></path>
                    <path d="M44.0002662,37 C42.7493076,37 41.4976389,36.5357977 40.5455756,35.6087757 L31.1850394,26.4930591 L31.7494617,25.9434822 L41.1103529,35.0588532 C41.8788902,35.8071764 42.9051449,36.2191861 44.0002662,36.2191861 C45.0960975,36.2191861 46.1223522,35.8071764 46.8908896,35.0588532 L61.0064177,21.3135568 C61.7746001,20.5655793 62.1988043,19.5663173 62.1988043,18.4993087 C62.1988043,17.4329914 61.7746001,16.4337294 61.0064177,15.6854063 L46.8908896,1.94045551 C46.1223522,1.19213235 45.0960975,0.780122564 44.0002662,0.780122564 C42.9051449,0.780122564 41.8788902,1.19213235 41.1103529,1.94045551 L26.9941148,15.6854063 C26.2255774,16.4337294 25.8024382,17.4329914 25.8024382,18.4993087 C25.8024382,19.5663173 26.2255774,20.5655793 26.9941148,21.3135568 L28.6802821,22.9553743 L28.1155048,23.5052968 L26.4286275,21.8634793 C24.5237908,20.0080526 24.5237908,16.9905648 26.4286275,15.1354838 L40.5455756,1.39053304 C42.4507672,-0.463511014 45.5504753,-0.463511014 47.4553119,1.39053304 L61.571905,15.1354838 C63.4760317,16.9905648 63.4760317,20.0080526 61.571905,21.8634793 L47.4553119,35.6087757 C46.5025386,36.5357977 45.2519349,37 44.0002662,37 Z" id="Combined-Shape" fill="#000000" opacity="0.8"></path>
                    <path d="M15.6719541,15.2308983 L12,15.2308983 L12,13 L22,13 L22,15.2308983 L18.3280459,15.2308983 L18.3280459,24 L15.6719541,24 L15.6719541,15.2308983 Z" id="Combined-Shape" fill="#E56841"></path>
                    <path d="M2.27868997e-12,18.9472902 L0,18.0520184 C0.10251304,16.9868126 0.571818756,15.9490647 1.40791715,15.1352637 L15.5329063,1.38765557 C16.4528118,0.492282393 17.6795893,0 18.9891227,0 C20.298301,0 21.5257888,0.492282393 22.4456943,1.38765557 L27.2412789,6.05535 L26.6761941,6.60536495 L21.8806095,1.93767052 C21.1120089,1.18922151 20.0848403,0.777833838 18.9891227,0.777833838 C17.8926948,0.777833838 16.8669469,1.18922151 16.0979912,1.93767052 L1.97371231,15.6849329 C1.20511173,16.4333819 0.781742091,17.432812 0.781742091,18.5 C0.781742091,19.5664966 1.20511173,20.5659267 1.97371231,21.3143757 L16.0979912,35.0616381 C16.8669469,35.8100871 17.89305,36.2221662 18.9891227,36.2221662 C20.0848403,36.2221662 21.1120089,35.8100871 21.8806095,35.0616381 L36.0048883,21.3143757 C36.7734889,20.5659267 37.1972137,19.5664966 37.1972137,18.5 C37.1972137,17.432812 36.7734889,16.4333819 36.0048883,15.6849329 L34.3170926,14.0414564 L34.8818222,13.4917872 L36.5703283,15.1352637 C38.4765572,16.9903109 38.4765572,20.0089976 36.5703283,21.8640449 L22.4456943,35.611653 C21.5257888,36.5070262 20.298301,37 18.9891227,37 C17.6795893,37 16.4528118,36.5070262 15.5329063,35.611653 L1.40791715,21.8640449 C0.571818756,21.0502439 0.10251304,20.012496 0,18.9472902 Z" id="Combined-Shape" fill="#000000" opacity="0.8"></path>
                </g>
                <path d="M23.9944962,63 L22.5941056,63 L22.5941056,55.6347656 L20.0745744,55.6347656 L20.0745744,54.4335938 L26.5140275,54.4335938 L26.5140275,55.6347656 L23.9944962,55.6347656 L23.9944962,63 Z M28.9065167,63.1171875 C27.8986992,63.1171875 27.1106211,62.8232451 26.5422589,62.2353516 C25.9738967,61.647458 25.6897198,60.8378958 25.6897198,59.8066406 C25.6897198,58.7480416 25.9533891,57.9160187 26.4807355,57.3105469 C27.0080818,56.7050751 27.732684,56.4023438 28.6545636,56.4023438 C29.5100366,56.4023438 30.1858111,56.6621068 30.6819073,57.1816406 C31.1780036,57.7011745 31.426048,58.4160111 31.426048,59.3261719 L31.426048,60.0703125 L27.1076886,60.0703125 C27.1272199,60.6992219 27.2971401,61.1826155 27.6174542,61.5205078 C27.9377683,61.8584001 28.3889357,62.0273438 28.9709698,62.0273438 C29.3537842,62.0273438 29.710226,61.9912113 30.0403058,61.9189453 C30.3703855,61.8466793 30.7248742,61.7265633 31.1037823,61.5585938 L31.1037823,62.6777344 C30.7678431,62.8378914 30.4280028,62.9511715 30.0842511,63.0175781 C29.7404994,63.0839847 29.3479252,63.1171875 28.9065167,63.1171875 Z M28.6545636,57.4453125 C28.2170614,57.4453125 27.866479,57.583983 27.6028058,57.8613281 C27.3391326,58.1386733 27.1819076,58.5429661 27.1311261,59.0742188 L30.0725323,59.0742188 C30.0647198,58.5390598 29.9358148,58.1337904 29.6858136,57.8583984 C29.4358123,57.5830064 29.0920658,57.4453125 28.6545636,57.4453125 Z M36.2794747,63 L36.0040841,62.0976562 L35.9572091,62.0976562 C35.6447075,62.4921895 35.3302575,62.7607415 35.0138497,62.9033203 C34.6974418,63.0458992 34.2911959,63.1171875 33.7950997,63.1171875 C33.1583777,63.1171875 32.6613124,62.9453142 32.3038887,62.6015625 C31.9464651,62.2578108 31.7677559,61.7714875 31.7677559,61.1425781 C31.7677559,60.474606 32.0158003,59.9707048 32.5118966,59.6308594 C33.0079928,59.2910139 33.7638446,59.1054689 34.7794747,59.0742188 L35.8986153,59.0390625 L35.8986153,58.6933594 C35.8986153,58.2792948 35.8019366,57.9697276 35.6085762,57.7646484 C35.4152159,57.5595693 35.1154142,57.4570312 34.7091622,57.4570312 C34.3771293,57.4570312 34.0587731,57.5058589 33.7540841,57.6035156 C33.449395,57.7011724 33.1564292,57.8164056 32.8751778,57.9492188 L32.4298653,56.9648438 C32.7814296,56.7812491 33.1661913,56.641602 33.5841622,56.5458984 C34.002133,56.4501948 34.3966603,56.4023438 34.7677559,56.4023438 C35.5919788,56.4023438 36.2140429,56.5820295 36.6339669,56.9414062 C37.0538908,57.300783 37.2638497,57.8652305 37.2638497,58.6347656 L37.2638497,63 L36.2794747,63 Z M34.2286934,62.0625 C34.7286959,62.0625 35.1300591,61.922853 35.432795,61.6435547 C35.7355309,61.3642564 35.8868966,60.9726588 35.8868966,60.46875 L35.8868966,59.90625 L35.0548653,59.9414062 C34.4064246,59.9648439 33.9347496,60.0732412 33.6398262,60.2666016 C33.3449029,60.4599619 33.1974434,60.7558574 33.1974434,61.1542969 C33.1974434,61.4433608 33.2833801,61.6669914 33.4552559,61.8251953 C33.6271318,61.9833992 33.8849417,62.0625 34.2286934,62.0625 Z M41.033292,63.1171875 C40.0528184,63.1171875 39.3077086,62.8310575 38.7979405,62.2587891 C38.2881723,61.6865206 38.033292,60.8652397 38.033292,59.7949219 C38.033292,58.7050727 38.2998909,57.8671904 38.8330967,57.28125 C39.3663025,56.6953096 40.1368026,56.4023438 41.1446202,56.4023438 C41.8282173,56.4023438 42.4434455,56.5292956 42.9903233,56.7832031 L42.5743077,57.890625 C41.9922735,57.6640614 41.5118095,57.5507812 41.1329014,57.5507812 C40.011802,57.5507812 39.4512608,58.2949144 39.4512608,59.7832031 C39.4512608,60.5097693 39.5909078,61.0556622 39.8702061,61.4208984 C40.1495044,61.7861346 40.55868,61.96875 41.0977452,61.96875 C41.7110295,61.96875 42.2911018,61.8164078 42.8379795,61.5117188 L42.8379795,62.7128906 C42.5918845,62.8574226 42.3291919,62.9609372 42.0498936,63.0234375 C41.7705953,63.0859378 41.4317315,63.1171875 41.033292,63.1171875 Z M49.296875,63 L47.9140625,63 L47.9140625,59.015625 C47.9140625,58.5156225 47.8134776,58.1425794 47.6123047,57.8964844 C47.4111318,57.6503894 47.0917991,57.5273438 46.6542969,57.5273438 C46.076169,57.5273438 45.6513685,57.7001936 45.3798828,58.0458984 C45.1083971,58.3916033 44.9726562,58.9706991 44.9726562,59.7832031 L44.9726562,63 L43.5957031,63 L43.5957031,53.8828125 L44.9726562,53.8828125 L44.9726562,56.1972656 C44.9726562,56.5683612 44.949219,56.9648416 44.9023438,57.3867188 L44.9902344,57.3867188 C45.1777353,57.0742172 45.4384749,56.8320321 45.7724609,56.6601562 C46.106447,56.4882804 46.4960915,56.4023438 46.9414062,56.4023438 C48.5117266,56.4023438 49.296875,57.1933515 49.296875,58.7753906 L49.296875,63 Z M53.2772548,63.1171875 C52.2694373,63.1171875 51.4813593,62.8232451 50.912997,62.2353516 C50.3446348,61.647458 50.060458,60.8378958 50.060458,59.8066406 C50.060458,58.7480416 50.3241272,57.9160187 50.8514736,57.3105469 C51.37882,56.7050751 52.1034221,56.4023438 53.0253017,56.4023438 C53.8807748,56.4023438 54.5565492,56.6621068 55.0526455,57.1816406 C55.5487417,57.7011745 55.7967861,58.4160111 55.7967861,59.3261719 L55.7967861,60.0703125 L51.4784267,60.0703125 C51.4979581,60.6992219 51.6678782,61.1826155 51.9881923,61.5205078 C52.3085065,61.8584001 52.7596738,62.0273438 53.341708,62.0273438 C53.7245224,62.0273438 54.0809641,61.9912113 54.4110439,61.9189453 C54.7411237,61.8466793 55.0956123,61.7265633 55.4745205,61.5585938 L55.4745205,62.6777344 C55.1385813,62.8378914 54.7987409,62.9511715 54.4549892,63.0175781 C54.1112375,63.0839847 53.7186633,63.1171875 53.2772548,63.1171875 Z M53.0253017,57.4453125 C52.5877995,57.4453125 52.2372171,57.583983 51.9735439,57.8613281 C51.7098707,58.1386733 51.5526457,58.5429661 51.5018642,59.0742188 L54.4432705,59.0742188 C54.4354579,58.5390598 54.306553,58.1337904 54.0565517,57.8583984 C53.8065505,57.5830064 53.4628039,57.4453125 53.0253017,57.4453125 Z M59.8826347,56.4023438 C60.1599798,56.4023438 60.3884932,56.4218748 60.5681816,56.4609375 L60.433416,57.7441406 C60.2381025,57.6972654 60.0349795,57.6738281 59.824041,57.6738281 C59.2732569,57.6738281 58.8269723,57.8535138 58.4851738,58.2128906 C58.1433752,58.5722674 57.9724785,59.0390596 57.9724785,59.6132812 L57.9724785,63 L56.5955253,63 L56.5955253,56.5195312 L57.6736503,56.5195312 L57.855291,57.6621094 L57.9256035,57.6621094 C58.1404483,57.2753887 58.4207189,56.9687511 58.7664238,56.7421875 C59.1121286,56.5156239 59.4841952,56.4023438 59.8826347,56.4023438 Z M65.3571552,61.1542969 C65.3571552,61.7871125 65.1266887,62.2724592 64.6657489,62.6103516 C64.2048091,62.9482439 63.5446595,63.1171875 62.6852802,63.1171875 C61.8219946,63.1171875 61.1286422,62.9863294 60.6052021,62.7246094 L60.6052021,61.5351562 C61.3669246,61.8867205 62.0759019,62.0625 62.7321552,62.0625 C63.5798157,62.0625 64.0036396,61.8066432 64.0036396,61.2949219 C64.0036396,61.1308586 63.956765,60.9941412 63.8630146,60.8847656 C63.7692641,60.7753901 63.6149687,60.66211 63.4001239,60.5449219 C63.1852791,60.4277338 62.886454,60.2949226 62.5036396,60.1464844 C61.7575421,59.8574204 61.2526643,59.5683608 60.9889911,59.2792969 C60.7253179,58.9902329 60.5934833,58.6152367 60.5934833,58.1542969 C60.5934833,57.5996066 60.8171139,57.1689468 61.2643817,56.8623047 C61.7116496,56.5556625 62.320042,56.4023438 63.0895771,56.4023438 C63.8512996,56.4023438 64.5719955,56.5566391 65.2516864,56.8652344 L64.8063739,57.9023438 C64.1071517,57.6132798 63.5192669,57.46875 63.0427021,57.46875 C62.3161359,57.46875 61.9528583,57.6757792 61.9528583,58.0898438 C61.9528583,58.2929698 62.0475839,58.464843 62.237038,58.6054688 C62.4264921,58.7460945 62.8395739,58.9394519 63.4762958,59.1855469 C64.0114547,59.3925792 64.4001227,59.5820304 64.6423114,59.7539062 C64.8845001,59.9257821 65.0641858,60.1240223 65.1813739,60.3486328 C65.298562,60.5732433 65.3571552,60.8417953 65.3571552,61.1542969 Z M26.0842955,69.5117188 C25.279604,69.5117188 24.6467978,69.7968721 24.185858,70.3671875 C23.7249182,70.9375029 23.4944518,71.7246044 23.4944518,72.7285156 C23.4944518,73.7793021 23.7161292,74.5742161 24.1594908,75.1132812 C24.6028524,75.6523464 25.2444476,75.921875 26.0842955,75.921875 C26.4475786,75.921875 26.7991376,75.8857425 27.138983,75.8134766 C27.4788285,75.7412106 27.8323406,75.6484381 28.1995299,75.5351562 L28.1995299,76.7363281 C27.5276515,76.9902356 26.7659404,77.1171875 25.9143737,77.1171875 C24.6604611,77.1171875 23.6975801,76.7373085 23.0257018,75.9775391 C22.3538234,75.2177696 22.0178893,74.1308664 22.0178893,72.7167969 C22.0178893,71.8261674 22.1809736,71.0468783 22.5071471,70.3789062 C22.8333206,69.7109342 23.3049956,69.1992205 23.9221862,68.84375 C24.5393767,68.4882795 25.2639789,68.3105469 26.0960143,68.3105469 C26.9710187,68.3105469 27.7796043,68.4941388 28.5217955,68.8613281 L28.0178893,70.0273438 C27.7288253,69.8906243 27.4231643,69.7705083 27.1008971,69.6669922 C26.7786299,69.563476 26.4397661,69.5117188 26.0842955,69.5117188 Z M34.8810816,73.7480469 C34.8810816,74.8066459 34.6096,75.6328095 34.0666285,76.2265625 C33.523657,76.8203155 32.7678052,77.1171875 31.7990504,77.1171875 C31.1935786,77.1171875 30.6584277,76.9804701 30.1935816,76.7070312 C29.7287356,76.4335924 29.3713173,76.0410182 29.121316,75.5292969 C28.8713148,75.0175756 28.746316,74.4238315 28.746316,73.7480469 C28.746316,72.6972604 29.0158446,71.8769561 29.5549098,71.2871094 C30.0939749,70.6972627 30.853733,70.4023438 31.8342066,70.4023438 C32.7717113,70.4023438 33.5138914,70.7040985 34.0607691,71.3076172 C34.6076469,71.9111358 34.8810816,72.7246043 34.8810816,73.7480469 Z M30.1642848,73.7480469 C30.1642848,75.2441481 30.7170136,75.9921875 31.8224879,75.9921875 C32.9162433,75.9921875 33.4631129,75.2441481 33.4631129,73.7480469 C33.4631129,72.2675707 32.9123371,71.5273438 31.8107691,71.5273438 C31.2326412,71.5273438 30.8137001,71.7187481 30.5539332,72.1015625 C30.2941663,72.4843769 30.1642848,73.0331996 30.1642848,73.7480469 Z M41.3985709,77 L40.0157584,77 L40.0157584,73.015625 C40.0157584,72.5156225 39.9151734,72.1425794 39.7140005,71.8964844 C39.5128277,71.6503894 39.1934949,71.5273438 38.7559927,71.5273438 C38.1739586,71.5273438 37.7481816,71.699217 37.478649,72.0429688 C37.2091164,72.3867205 37.0743521,72.9628866 37.0743521,73.7714844 L37.0743521,77 L35.697399,77 L35.697399,70.5195312 L36.775524,70.5195312 L36.9688834,71.3691406 L37.0391959,71.3691406 C37.2345093,71.0605453 37.5118503,70.8222665 37.8712271,70.6542969 C38.2306039,70.4863273 38.6290374,70.4023438 39.0665396,70.4023438 C40.6212349,70.4023438 41.3985709,71.1933515 41.3985709,72.7753906 L41.3985709,77 Z M48.2500445,77 L46.867232,77 L46.867232,73.015625 C46.867232,72.5156225 46.766647,72.1425794 46.5654741,71.8964844 C46.3643013,71.6503894 46.0449685,71.5273438 45.6074663,71.5273438 C45.0254322,71.5273438 44.5996552,71.699217 44.3301226,72.0429688 C44.06059,72.3867205 43.9258257,72.9628866 43.9258257,73.7714844 L43.9258257,77 L42.5488726,77 L42.5488726,70.5195312 L43.6269976,70.5195312 L43.820357,71.3691406 L43.8906695,71.3691406 C44.0859829,71.0605453 44.3633239,70.8222665 44.7227007,70.6542969 C45.0820775,70.4863273 45.480511,70.4023438 45.9180132,70.4023438 C47.4727085,70.4023438 48.2500445,71.1933515 48.2500445,72.7753906 L48.2500445,77 Z M52.2304243,77.1171875 C51.2226068,77.1171875 50.4345287,76.8232451 49.8661665,76.2353516 C49.2978043,75.647458 49.0136274,74.8378958 49.0136274,73.8066406 C49.0136274,72.7480416 49.2772967,71.9160187 49.8046431,71.3105469 C50.3319894,70.7050751 51.0565916,70.4023438 51.9784712,70.4023438 C52.8339442,70.4023438 53.5097187,70.6621068 54.0058149,71.1816406 C54.5019112,71.7011745 54.7499555,72.4160111 54.7499556,73.3261719 L54.7499556,74.0703125 L50.4315962,74.0703125 C50.4511275,74.6992219 50.6210477,75.1826155 50.9413618,75.5205078 C51.2616759,75.8584001 51.7128433,76.0273438 52.2948774,76.0273438 C52.6776918,76.0273438 53.0341336,75.9912113 53.3642134,75.9189453 C53.6942931,75.8466793 54.0487818,75.7265633 54.4276899,75.5585938 L54.4276899,76.6777344 C54.0917507,76.8378914 53.7519104,76.9511715 53.4081587,77.0175781 C53.064407,77.0839847 52.6718328,77.1171875 52.2304243,77.1171875 Z M51.9784712,71.4453125 C51.540969,71.4453125 51.1903866,71.583983 50.9267134,71.8613281 C50.6630402,72.1386733 50.5058152,72.5429661 50.4550337,73.0742188 L53.3964399,73.0742188 C53.3886274,72.5390598 53.2597224,72.1337904 53.0097212,71.8583984 C52.7597199,71.5830064 52.4159734,71.4453125 51.9784712,71.4453125 Z M58.161976,77.1171875 C57.1815024,77.1171875 56.4363926,76.8310575 55.9266245,76.2587891 C55.4168563,75.6865206 55.161976,74.8652397 55.161976,73.7949219 C55.161976,72.7050727 55.4285749,71.8671904 55.9617807,71.28125 C56.4949865,70.6953096 57.2654866,70.4023438 58.2733042,70.4023438 C58.9569013,70.4023438 59.5721295,70.5292956 60.1190073,70.7832031 L59.7029917,71.890625 C59.1209575,71.6640614 58.6404935,71.5507812 58.2615854,71.5507812 C57.140486,71.5507812 56.5799448,72.2949144 56.5799448,73.7832031 C56.5799448,74.5097693 56.7195918,75.0556622 56.9988901,75.4208984 C57.2781884,75.7861346 57.687364,75.96875 58.2264292,75.96875 C58.8397135,75.96875 59.4197858,75.8164078 59.9666635,75.5117188 L59.9666635,76.7128906 C59.7205685,76.8574226 59.4578759,76.9609372 59.1785776,77.0234375 C58.8992793,77.0859378 58.5604155,77.1171875 58.161976,77.1171875 Z M63.1384496,76.0039062 C63.4743888,76.0039062 63.8103229,75.9511724 64.1462621,75.8457031 L64.1462621,76.8828125 C63.9939176,76.9492191 63.7976305,77.0048826 63.5573949,77.0498047 C63.3171594,77.0947268 63.0681384,77.1171875 62.8103246,77.1171875 C61.5056306,77.1171875 60.8532934,76.4296944 60.8532934,75.0546875 L60.8532934,71.5625 L59.9685278,71.5625 L59.9685278,70.953125 L60.9177465,70.4492188 L61.3864965,69.078125 L62.2361059,69.078125 L62.2361059,70.5195312 L64.081809,70.5195312 L64.081809,71.5625 L62.2361059,71.5625 L62.2361059,75.03125 C62.2361059,75.3632829 62.3191129,75.6083976 62.4851293,75.7666016 C62.6511458,75.9248055 62.868917,76.0039062 63.1384496,76.0039062 Z" id="Teachers-Connect" fill="#123B45"></path>
            </g>
        </g>
    </g>
</svg>