<?xml version="1.0" encoding="UTF-8"?>
<svg width="91px" height="91px" viewBox="0 0 91 91" version="1.1" xmlns="http://www.w3.org/2000/svg" xmlns:xlink="http://www.w3.org/1999/xlink">
    <!-- Generator: Sketch 49 (51002) - http://www.bohemiancoding.com/sketch -->
    <title>Profile Tile</title>
    <desc>Created with Sketch.</desc>
    <defs>
        <filter x="-5.9%" y="-4.7%" width="111.8%" height="111.8%" filterUnits="objectBoundingBox" id="filter-1">
            <feOffset dx="0" dy="1" in="SourceAlpha" result="shadowOffsetOuter1"></feOffset>
            <feGaussianBlur stdDeviation="1.5" in="shadowOffsetOuter1" result="shadowBlurOuter1"></feGaussianBlur>
            <feColorMatrix values="0 0 0 0 0.454901961   0 0 0 0 0.454901961   0 0 0 0 0.454901961  0 0 0 0.5 0" type="matrix" in="shadowBlurOuter1" result="shadowMatrixOuter1"></feColorMatrix>
            <feMerge>
                <feMergeNode in="shadowMatrixOuter1"></feMergeNode>
                <feMergeNode in="SourceGraphic"></feMergeNode>
            </feMerge>
        </filter>
    </defs>
    <g id="Page-1" stroke="none" stroke-width="1" fill="none" fill-rule="evenodd">
        <g id="Tiles" transform="translate(-92.000000, -59.000000)">
            <g id="Profile-Tile" filter="url(#filter-1)" transform="translate(95.000000, 61.000000)">
                <rect id="Rectangle" fill="#FFFFFF" x="0" y="0" width="85" height="85" rx="4"></rect>
                <g id="Profile-Icon" transform="translate(24.000000, 13.000000)" fill="#4671AD">
                    <path d="M13.3272069,22.9962182 C15.1037789,23.0407599 16.8229241,23.0630307 18.4846423,23.0630307 C20.1555477,23.0630307 21.8845166,23.040513 23.6715492,22.9954774 L23.6715493,22.9954792 C30.8489712,22.8145987 36.8140539,28.4864161 36.9949344,35.663838 C37.0037786,36.0147804 36.9984038,36.3659369 36.9788233,36.7164442 L36.7215716,41.3214604 C28.8976664,41.7738201 22.81869,42 18.4846423,42 C14.1505947,42 8.0842966,41.7569002 0.285748094,41.2707006 L0.0231978983,36.7450465 C-0.392623839,29.5773961 5.08081476,23.4297773 12.2484652,23.0139555 C12.6076454,22.9931182 12.9675358,22.9872006 13.3272069,22.9962182 Z" id="Rectangle-11-Copy-2"></path>
                    <ellipse id="Oval-3" cx="18.5" cy="10.5" rx="9.5" ry="10.5"></ellipse>
                </g>
                <path d="M32.794212,68.0234375 C32.794212,68.9179732 32.5012462,69.6035132 31.9153058,70.0800781 C31.3293653,70.556643 30.4953893,70.7949219 29.4133526,70.7949219 L28.5227276,70.7949219 L28.5227276,74 L27.122337,74 L27.122337,65.4335938 L29.5891339,65.4335938 C30.6594517,65.4335938 31.4612015,65.6523416 31.9944073,66.0898438 C32.5276131,66.5273459 32.794212,67.1718707 32.794212,68.0234375 Z M28.5227276,69.6171875 L29.2668683,69.6171875 C29.9856219,69.6171875 30.5129603,69.4921887 30.8488995,69.2421875 C31.1848387,68.9921863 31.3528058,68.6015652 31.3528058,68.0703125 C31.3528058,67.5781225 31.2024166,67.2109387 30.9016339,66.96875 C30.6008511,66.7265613 30.1321058,66.6054688 29.4953839,66.6054688 L28.5227276,66.6054688 L28.5227276,69.6171875 Z M36.8800606,67.4023438 C37.1574057,67.4023438 37.3859191,67.4218748 37.5656075,67.4609375 L37.4308419,68.7441406 C37.2355284,68.6972654 37.0324054,68.6738281 36.8214669,68.6738281 C36.2706829,68.6738281 35.8243983,68.8535138 35.4825997,69.2128906 C35.1408011,69.5722674 34.9699044,70.0390596 34.9699044,70.6132812 L34.9699044,74 L33.5929512,74 L33.5929512,67.5195312 L34.6710762,67.5195312 L34.8527169,68.6621094 L34.9230294,68.6621094 C35.1378742,68.2753887 35.4181448,67.9687511 35.7638497,67.7421875 C36.1095545,67.5156239 36.4816211,67.4023438 36.8800606,67.4023438 Z M43.508878,70.7480469 C43.508878,71.8066459 43.2373963,72.6328095 42.6944248,73.2265625 C42.1514534,73.8203155 41.3956016,74.1171875 40.4268467,74.1171875 C39.8213749,74.1171875 39.286224,73.9804701 38.821378,73.7070312 C38.3565319,73.4335924 37.9991136,73.0410182 37.7491123,72.5292969 C37.4991111,72.0175756 37.3741123,71.4238315 37.3741123,70.7480469 C37.3741123,69.6972604 37.6436409,68.8769561 38.1827061,68.2871094 C38.7217713,67.6972627 39.4815293,67.4023438 40.462003,67.4023438 C41.3995077,67.4023438 42.1416877,67.7040985 42.6885655,68.3076172 C43.2354432,68.9111358 43.508878,69.7246043 43.508878,70.7480469 Z M38.7920811,70.7480469 C38.7920811,72.2441481 39.3448099,72.9921875 40.4502842,72.9921875 C41.5440397,72.9921875 42.0909092,72.2441481 42.0909092,70.7480469 C42.0909092,69.2675707 41.5401335,68.5273438 40.4385655,68.5273438 C39.8604376,68.5273438 39.4414964,68.7187481 39.1817295,69.1015625 C38.9219626,69.4843769 38.7920811,70.0331996 38.7920811,70.7480469 Z M47.5771484,68.5625 L45.9951172,68.5625 L45.9951172,74 L44.6123047,74 L44.6123047,68.5625 L43.5458984,68.5625 L43.5458984,67.9179688 L44.6123047,67.4960938 L44.6123047,67.0742188 C44.6123047,66.3085899 44.7919904,65.7412128 45.1513672,65.3720703 C45.510744,65.0029278 46.0595666,64.8183594 46.7978516,64.8183594 C47.282229,64.8183594 47.7587867,64.8984367 48.2275391,65.0585938 L47.8642578,66.1015625 C47.5244124,65.992187 47.2001969,65.9375 46.8916016,65.9375 C46.5791,65.9375 46.3515632,66.0341787 46.2089844,66.2275391 C46.0664055,66.4208994 45.9951172,66.7109356 45.9951172,67.0976562 L45.9951172,67.5195312 L47.5771484,67.5195312 L47.5771484,68.5625 Z M50.0556641,74 L48.6787109,74 L48.6787109,67.5195312 L50.0556641,67.5195312 L50.0556641,74 Z M48.5966797,65.8027344 C48.5966797,65.5566394 48.6640618,65.3671882 48.7988281,65.234375 C48.9335944,65.1015618 49.1259753,65.0351562 49.3759766,65.0351562 C49.6181653,65.0351562 49.80664,65.1015618 49.9414062,65.234375 C50.0761725,65.3671882 50.1435547,65.5566394 50.1435547,65.8027344 C50.1435547,66.0371105 50.0761725,66.221679 49.9414062,66.3564453 C49.80664,66.4912116 49.6181653,66.5585938 49.3759766,66.5585938 C49.1259753,66.5585938 48.9335944,66.4912116 48.7988281,66.3564453 C48.6640618,66.221679 48.5966797,66.0371105 48.5966797,65.8027344 Z M52.6415127,74 L51.2645595,74 L51.2645595,64.8828125 L52.6415127,64.8828125 L52.6415127,74 Z M56.6746269,74.1171875 C55.6668093,74.1171875 54.8787313,73.8232451 54.3103691,73.2353516 C53.7420069,72.647458 53.45783,71.8378958 53.45783,70.8066406 C53.45783,69.7480416 53.7214993,68.9160187 54.2488456,68.3105469 C54.776192,67.7050751 55.5007942,67.4023438 56.4226738,67.4023438 C57.2781468,67.4023438 57.9539213,67.6621068 58.4500175,68.1816406 C58.9461137,68.7011745 59.1941581,69.4160111 59.1941581,70.3261719 L59.1941581,71.0703125 L54.8757988,71.0703125 C54.8953301,71.6992219 55.0652503,72.1826155 55.3855644,72.5205078 C55.7058785,72.8584001 56.1570459,73.0273438 56.73908,73.0273438 C57.1218944,73.0273438 57.4783362,72.9912113 57.8084159,72.9189453 C58.1384957,72.8466793 58.4929844,72.7265633 58.8718925,72.5585938 L58.8718925,73.6777344 C58.5359533,73.8378914 58.196113,73.9511715 57.8523613,74.0175781 C57.5086095,74.0839847 57.1160353,74.1171875 56.6746269,74.1171875 Z M56.4226738,68.4453125 C55.9851716,68.4453125 55.6345891,68.583983 55.3709159,68.8613281 C55.1072428,69.1386733 54.9500178,69.5429661 54.8992363,70.0742188 L57.8406425,70.0742188 C57.83283,69.5390598 57.703925,69.1337904 57.4539238,68.8583984 C57.2039225,68.5830064 56.8601759,68.4453125 56.4226738,68.4453125 Z" id="Profile" fill="#224F59"></path>
            </g>
        </g>
    </g>
</svg>