<?xml version="1.0" encoding="UTF-8"?>
<svg width="91px" height="91px" viewBox="0 0 91 91" version="1.1" xmlns="http://www.w3.org/2000/svg" xmlns:xlink="http://www.w3.org/1999/xlink">
    <!-- Generator: Sketch 49 (51002) - http://www.bohemiancoding.com/sketch -->
    <title>Logout Tile</title>
    <desc>Created with Sketch.</desc>
    <defs>
        <filter x="-5.9%" y="-4.7%" width="111.8%" height="111.8%" filterUnits="objectBoundingBox" id="filter-1">
            <feOffset dx="0" dy="1" in="SourceAlpha" result="shadowOffsetOuter1"></feOffset>
            <feGaussianBlur stdDeviation="1.5" in="shadowOffsetOuter1" result="shadowBlurOuter1"></feGaussianBlur>
            <feColorMatrix values="0 0 0 0 0.454901961   0 0 0 0 0.454901961   0 0 0 0 0.454901961  0 0 0 0.5 0" type="matrix" in="shadowBlurOuter1" result="shadowMatrixOuter1"></feColorMatrix>
            <feMerge>
                <feMergeNode in="shadowMatrixOuter1"></feMergeNode>
                <feMergeNode in="SourceGraphic"></feMergeNode>
            </feMerge>
        </filter>
        <rect id="path-2" x="0" y="6.16666667" width="31.4706369" height="4.11111111" rx="2"></rect>
    </defs>
    <g id="Page-1" stroke="none" stroke-width="1" fill="none" fill-rule="evenodd">
        <g id="Tiles" transform="translate(-292.000000, -59.000000)">
            <g id="Logout-Tile" filter="url(#filter-1)" transform="translate(295.000000, 61.000000)">
                <rect id="Rectangle" fill="#FFFFFF" x="0" y="0" width="85" height="85" rx="4"></rect>
                <g id="Logout-Icon" transform="translate(29.000000, 14.000000)">
                    <rect id="Rectangle" fill="#4671AD" x="0" y="0" width="27" height="39" rx="2"></rect>
                    <g id="Arrow" transform="translate(11.000000, 11.000000)">
                        <g id="Rectangle-2">
                            <use fill="#4671AD" fill-rule="evenodd" xlink:href="#path-2"></use>
                            <rect stroke="#FFFFFF" stroke-width="1.5" x="-0.75" y="5.41666667" width="32.9706369" height="5.61111111" rx="2"></rect>
                        </g>
                        <path d="M30.493962,15.5194444 L22.4400941,7.89169904" id="Line-Copy" stroke="#4671AD" stroke-width="4" stroke-linecap="round" transform="translate(26.587262, 11.819444) scale(1, -1) translate(-26.587262, -11.819444) "></path>
                        <path d="M30.493962,8.325 L22.4400941,0.697254593" id="Line" stroke="#4671AD" stroke-width="4" stroke-linecap="round"></path>
                    </g>
                </g>
                <path d="M25.8420636,74 L25.8420636,65.4335938 L27.2424542,65.4335938 L27.2424542,72.7988281 L30.8694073,72.7988281 L30.8694073,74 L25.8420636,74 Z M37.1818184,70.7480469 C37.1818184,71.8066459 36.9103368,72.6328095 36.3673653,73.2265625 C35.8243938,73.8203155 35.068542,74.1171875 34.0997872,74.1171875 C33.4943154,74.1171875 32.9591645,73.9804701 32.4943184,73.7070312 C32.0294724,73.4335924 31.6720541,73.0410182 31.4220528,72.5292969 C31.1720516,72.0175756 31.0470528,71.4238315 31.0470528,70.7480469 C31.0470528,69.6972604 31.3165814,68.8769561 31.8556465,68.2871094 C32.3947117,67.6972627 33.1544698,67.4023438 34.1349434,67.4023438 C35.0724481,67.4023438 35.8146282,67.7040985 36.3615059,68.3076172 C36.9083837,68.9111358 37.1818184,69.7246043 37.1818184,70.7480469 Z M32.4650216,70.7480469 C32.4650216,72.2441481 33.0177504,72.9921875 34.1232247,72.9921875 C35.2169801,72.9921875 35.7638497,72.2441481 35.7638497,70.7480469 C35.7638497,69.2675707 35.2130739,68.5273438 34.1115059,68.5273438 C33.533378,68.5273438 33.1144369,68.7187481 32.85467,69.1015625 C32.5949031,69.4843769 32.4650216,70.0331996 32.4650216,70.7480469 Z M43.470792,67.5195312 L43.470792,68.2753906 L42.3633702,68.4804688 C42.4649332,68.6171882 42.5489167,68.7851553 42.6153233,68.984375 C42.6817299,69.1835947 42.7149327,69.3945301 42.7149327,69.6171875 C42.7149327,70.2851596 42.4844662,70.810545 42.0235264,71.1933594 C41.5625866,71.5761738 40.9278273,71.7675781 40.1192295,71.7675781 C39.9121972,71.7675781 39.7246991,71.7519533 39.5567295,71.7207031 C39.259853,71.9042978 39.111417,72.1191394 39.111417,72.3652344 C39.111417,72.5136726 39.1807523,72.6249996 39.3194248,72.6992188 C39.4580974,72.7734379 39.7129777,72.8105469 40.0840733,72.8105469 L41.2149327,72.8105469 C41.92978,72.8105469 42.4727433,72.9628891 42.8438389,73.2675781 C43.2149345,73.5722671 43.4004795,74.0117159 43.4004795,74.5859375 C43.4004795,75.3203162 43.0977482,75.8867168 42.4922764,76.2851562 C41.8868046,76.6835957 41.0118134,76.8828125 39.8672764,76.8828125 C38.9844595,76.8828125 38.3106381,76.7265641 37.845792,76.4140625 C37.380946,76.1015609 37.1485264,75.6562529 37.1485264,75.078125 C37.1485264,74.6796855 37.2745017,74.3447279 37.5264561,74.0732422 C37.7784105,73.8017565 38.130946,73.6132818 38.5840733,73.5078125 C38.4004786,73.4296871 38.2491129,73.3037118 38.1299717,73.1298828 C38.0108305,72.9560538 37.9512608,72.7734385 37.9512608,72.5820312 C37.9512608,72.3398425 38.0196195,72.1347665 38.1563389,71.9667969 C38.2930583,71.7988273 38.4961813,71.6328133 38.7657139,71.46875 C38.4297747,71.324218 38.1573165,71.0888688 37.9483311,70.7626953 C37.7393457,70.4365218 37.6348545,70.0546897 37.6348545,69.6171875 C37.6348545,68.914059 37.856532,68.3691426 38.2998936,67.9824219 C38.7432552,67.5957012 39.3750848,67.4023438 40.1954014,67.4023438 C40.3789961,67.4023438 40.571377,67.4150389 40.7725498,67.4404297 C40.9737227,67.4658204 41.1250884,67.4921874 41.2266514,67.5195312 L43.470792,67.5195312 Z M38.3789952,75.0078125 C38.3789952,75.304689 38.5127829,75.5332023 38.7803623,75.6933594 C39.0479418,75.8535164 39.4239146,75.9335938 39.908292,75.9335938 C40.6582958,75.9335938 41.2168839,75.8261729 41.5840733,75.6113281 C41.9512626,75.3964833 42.1348545,75.1113299 42.1348545,74.7558594 C42.1348545,74.474608 42.0342696,74.2744147 41.8330967,74.1552734 C41.6319238,74.0361322 41.2579041,73.9765625 40.7110264,73.9765625 L39.6680577,73.9765625 C39.2735244,73.9765625 38.960051,74.069335 38.727628,74.2548828 C38.4952049,74.4404306 38.3789952,74.6914047 38.3789952,75.0078125 Z M38.970792,69.6171875 C38.970792,70.0234395 39.0752832,70.3359364 39.2842686,70.5546875 C39.493254,70.7734386 39.7930557,70.8828125 40.1836827,70.8828125 C40.9805616,70.8828125 41.3789952,70.4570355 41.3789952,69.6054688 C41.3789952,69.1835916 41.2803633,68.8583996 41.0830967,68.6298828 C40.8858301,68.401366 40.5860284,68.2871094 40.1836827,68.2871094 C39.7852432,68.2871094 39.4834884,68.4003895 39.2784092,68.6269531 C39.0733301,68.8535168 38.970792,69.1835916 38.970792,69.6171875 Z M49.6542969,70.7480469 C49.6542969,71.8066459 49.3828152,72.6328095 48.8398438,73.2265625 C48.2968723,73.8203155 47.5410205,74.1171875 46.5722656,74.1171875 C45.9667938,74.1171875 45.4316429,73.9804701 44.9667969,73.7070312 C44.5019508,73.4335924 44.1445325,73.0410182 43.8945312,72.5292969 C43.64453,72.0175756 43.5195312,71.4238315 43.5195312,70.7480469 C43.5195312,69.6972604 43.7890598,68.8769561 44.328125,68.2871094 C44.8671902,67.6972627 45.6269482,67.4023438 46.6074219,67.4023438 C47.5449266,67.4023438 48.2871066,67.7040985 48.8339844,68.3076172 C49.3808621,68.9111358 49.6542969,69.7246043 49.6542969,70.7480469 Z M44.9375,70.7480469 C44.9375,72.2441481 45.4902288,72.9921875 46.5957031,72.9921875 C47.6894586,72.9921875 48.2363281,72.2441481 48.2363281,70.7480469 C48.2363281,69.2675707 47.6855524,68.5273438 46.5839844,68.5273438 C46.0058565,68.5273438 45.5869154,68.7187481 45.3271484,69.1015625 C45.0673815,69.4843769 44.9375,70.0331996 44.9375,70.7480469 Z M55.0409267,74 L54.8475673,73.1503906 L54.7772548,73.1503906 C54.5858476,73.4511734 54.3133894,73.6874991 53.959872,73.859375 C53.6063546,74.0312509 53.2030384,74.1171875 52.7499111,74.1171875 C51.9647509,74.1171875 51.3788193,73.921877 50.9920986,73.53125 C50.6053779,73.140623 50.4120205,72.5488321 50.4120205,71.7558594 L50.4120205,67.5195312 L51.8006923,67.5195312 L51.8006923,71.515625 C51.8006923,72.0117212 51.9022538,72.3837878 52.1053798,72.6318359 C52.3085059,72.8798841 52.6268621,73.0039062 53.060458,73.0039062 C53.6385859,73.0039062 54.0633863,72.8310564 54.334872,72.4853516 C54.6063578,72.1396467 54.7420986,71.5605509 54.7420986,70.7480469 L54.7420986,67.5195312 L56.1249111,67.5195312 L56.1249111,74 L55.0409267,74 Z M59.7361503,73.0039062 C60.0720895,73.0039062 60.4080236,72.9511724 60.7439628,72.8457031 L60.7439628,73.8828125 C60.5916183,73.9492191 60.3953312,74.0048826 60.1550956,74.0498047 C59.9148601,74.0947268 59.6658391,74.1171875 59.4080253,74.1171875 C58.1033313,74.1171875 57.4509941,73.4296944 57.4509941,72.0546875 L57.4509941,68.5625 L56.5662284,68.5625 L56.5662284,67.953125 L57.5154472,67.4492188 L57.9841972,66.078125 L58.8338066,66.078125 L58.8338066,67.5195312 L60.6795097,67.5195312 L60.6795097,68.5625 L58.8338066,68.5625 L58.8338066,72.03125 C58.8338066,72.3632829 58.9168136,72.6083976 59.08283,72.7666016 C59.2488465,72.9248055 59.4666177,73.0039062 59.7361503,73.0039062 Z" id="Logout" fill="#224F59"></path>
            </g>
        </g>
    </g>
</svg>