<?xml version="1.0" encoding="UTF-8"?>
<svg width="91px" height="91px" viewBox="0 0 91 91" version="1.1" xmlns="http://www.w3.org/2000/svg" xmlns:xlink="http://www.w3.org/1999/xlink">
    <!-- Generator: Sketch 49 (51002) - http://www.bohemiancoding.com/sketch -->
    <title>Ask a Question Tile</title>
    <desc>Created with Sketch.</desc>
    <defs>
        <filter x="-5.9%" y="-4.7%" width="111.8%" height="111.8%" filterUnits="objectBoundingBox" id="filter-1">
            <feOffset dx="0" dy="1" in="SourceAlpha" result="shadowOffsetOuter1"></feOffset>
            <feGaussianBlur stdDeviation="1.5" in="shadowOffsetOuter1" result="shadowBlurOuter1"></feGaussianBlur>
            <feColorMatrix values="0 0 0 0 0.454901961   0 0 0 0 0.454901961   0 0 0 0 0.454901961  0 0 0 0.5 0" type="matrix" in="shadowBlurOuter1" result="shadowMatrixOuter1"></feColorMatrix>
            <feMerge>
                <feMergeNode in="shadowMatrixOuter1"></feMergeNode>
                <feMergeNode in="SourceGraphic"></feMergeNode>
            </feMerge>
        </filter>
    </defs>
    <g id="Page-1" stroke="none" stroke-width="1" fill="none" fill-rule="evenodd">
        <g id="Tiles" transform="translate(-492.000000, -59.000000)">
            <g id="Ask-a-Question-Tile" filter="url(#filter-1)" transform="translate(495.000000, 61.000000)">
                <rect id="Rectangle" fill="#FFFFFF" x="0" y="0" width="85" height="85" rx="4"></rect>
                <g id="Question-Icon" transform="translate(15.000000, 14.000000)">
                    <path d="M6.99101228,34.1242173 L6.99101228,41 L13.5045569,34.1242173 L21,34.1242173 C23.209139,34.1242173 25,32.3333563 25,30.1242173 L25,10 C25,7.790861 23.209139,6 21,6 L4,6 C1.790861,6 -2.705415e-16,7.790861 0,10 L0,30.1242173 C2.705415e-16,32.3333563 1.790861,34.1242173 4,34.1242173 L6.99101228,34.1242173 Z" id="Path-7" stroke="#E56841" fill="#E56841"></path>
                    <g id="Group-4" transform="translate(6.500000, 11.000000)" fill="#FFFFFF">
                        <path d="M6,8.48780488 C7.68,8.48780488 8.4,7.24390244 8.4,6.43902439 C8.4,4.63902439 4.155,4.24390244 4.155,1.22926829 L4.155,0 L7.845,0 L7.845,0.790243902 C7.845,2.70731707 12,2.86829268 12,6.87804878 C12,9.70243902 9.675,12 6,12 C2.64,12 0,9.86341463 0,6.43902439 L0.75,6.43902439 L2.85,6.43902439 L3.6,6.43902439 C3.6,7.24390244 4.32,8.48780488 6,8.48780488 Z" id="Path" transform="translate(6.000000, 6.000000) scale(1, -1) translate(-6.000000, -6.000000) "></path>
                        <path d="M6,18 C4.9,18 4,17.1 4,16 C4,14.9 4.9,14 6,14 C7.1,14 8,14.9 8,16 C8,17.1 7.1,18 6,18 Z" id="Path"></path>
                    </g>
                    <path d="M36.9910123,28.1242173 L36.9910123,35 L43.5045569,28.1242173 L51,28.1242173 C53.209139,28.1242173 55,26.3333563 55,24.1242173 L55,4 C55,1.790861 53.209139,-4.05812251e-16 51,0 L34,0 C31.790861,4.05812251e-16 30,1.790861 30,4 L30,24.1242173 C30,26.3333563 31.790861,28.1242173 34,28.1242173 L36.9910123,28.1242173 Z" id="Path-7-Copy" stroke="#E56841" fill="#E56841" transform="translate(42.500000, 17.500000) scale(-1, 1) translate(-42.500000, -17.500000) "></path>
                    <circle id="Oval-7" fill="#FFFFFF" cx="35.5" cy="14.5" r="2"></circle>
                    <circle id="Oval-7-Copy" fill="#FFFFFF" cx="42.5" cy="14.5" r="2"></circle>
                    <circle id="Oval-7-Copy-2" fill="#FFFFFF" cx="49.5" cy="14.5" r="2"></circle>
                </g>
                <path d="M10.9752317,74 L10.1197629,71.6210938 L6.8443723,71.6210938 L6.00648167,74 L4.52991917,74 L7.7349973,65.3984375 L9.2584348,65.3984375 L12.4635129,74 L10.9752317,74 Z M9.7506223,70.4140625 L8.94788792,68.0820312 C8.88929388,67.9257805 8.80824001,67.6796892 8.70472386,67.34375 C8.60120772,67.0078108 8.52991937,66.7617195 8.49085667,66.6054688 C8.3853874,67.0859399 8.23109207,67.6113253 8.02796605,68.1816406 L7.25452855,70.4140625 L9.7506223,70.4140625 Z M17.0356896,72.1542969 C17.0356896,72.7871125 16.8052232,73.2724592 16.3442834,73.6103516 C15.8833436,73.9482439 15.2231939,74.1171875 14.3638146,74.1171875 C13.5005291,74.1171875 12.8071766,73.9863294 12.2837365,73.7246094 L12.2837365,72.5351562 C13.0454591,72.8867205 13.7544364,73.0625 14.4106896,73.0625 C15.2583501,73.0625 15.682174,72.8066432 15.682174,72.2949219 C15.682174,72.1308586 15.6352995,71.9941412 15.541549,71.8847656 C15.4477986,71.7753901 15.2935032,71.66211 15.0786584,71.5449219 C14.8638136,71.4277338 14.5649884,71.2949226 14.182174,71.1464844 C13.4360765,70.8574204 12.9311988,70.5683608 12.6675256,70.2792969 C12.4038524,69.9902329 12.2720178,69.6152367 12.2720178,69.1542969 C12.2720178,68.5996066 12.4956484,68.1689468 12.9429162,67.8623047 C13.3901841,67.5556625 13.9985764,67.4023438 14.7681115,67.4023438 C15.5298341,67.4023438 16.25053,67.5566391 16.9302209,67.8652344 L16.4849084,68.9023438 C15.7856862,68.6132798 15.1978014,68.46875 14.7212365,68.46875 C13.9946704,68.46875 13.6313928,68.6757792 13.6313928,69.0898438 C13.6313928,69.2929698 13.7261184,69.464843 13.9155725,69.6054688 C14.1050265,69.7460945 14.5181083,69.9394519 15.1548303,70.1855469 C15.6899892,70.3925792 16.0786572,70.5820304 16.3208459,70.7539062 C16.5630346,70.9257821 16.7427203,71.1240223 16.8599084,71.3486328 C16.9770965,71.5732433 17.0356896,71.8417953 17.0356896,72.1542969 Z M19.0883351,70.578125 L19.867632,69.6054688 L21.8246632,67.5195312 L23.4125539,67.5195312 L20.805132,70.3027344 L23.5766164,74 L21.9594289,74 L19.8793507,71.1582031 L19.1234914,71.7792969 L19.1234914,74 L17.758257,74 L17.758257,64.8828125 L19.1234914,64.8828125 L19.1234914,69.3300781 L19.0531789,70.578125 L19.0883351,70.578125 Z M30.2600323,74 L29.9846417,73.0976562 L29.9377667,73.0976562 C29.6252651,73.4921895 29.3108152,73.7607415 28.9944073,73.9033203 C28.6779995,74.0458992 28.2717536,74.1171875 27.7756573,74.1171875 C27.1389354,74.1171875 26.64187,73.9453142 26.2844464,73.6015625 C25.9270227,73.2578108 25.7483136,72.7714875 25.7483136,72.1425781 C25.7483136,71.474606 25.996358,70.9707048 26.4924542,70.6308594 C26.9885504,70.2910139 27.7444022,70.1054689 28.7600323,70.0742188 L29.8791729,70.0390625 L29.8791729,69.6933594 C29.8791729,69.2792948 29.7824942,68.9697276 29.5891339,68.7646484 C29.3957735,68.5595693 29.0959719,68.4570312 28.6897198,68.4570312 C28.3576869,68.4570312 28.0393307,68.5058589 27.7346417,68.6035156 C27.4299527,68.7011724 27.1369869,68.8164056 26.8557354,68.9492188 L26.4104229,67.9648438 C26.7619872,67.7812491 27.146749,67.641602 27.5647198,67.5458984 C27.9826907,67.4501948 28.377218,67.4023438 28.7483136,67.4023438 C29.5725364,67.4023438 30.1946005,67.5820295 30.6145245,67.9414062 C31.0344485,68.300783 31.2444073,68.8652305 31.2444073,69.6347656 L31.2444073,74 L30.2600323,74 Z M28.2092511,73.0625 C28.7092536,73.0625 29.1106167,72.922853 29.4133526,72.6435547 C29.7160885,72.3642564 29.8674542,71.9726588 29.8674542,71.46875 L29.8674542,70.90625 L29.0354229,70.9414062 C28.3869822,70.9648439 27.9153072,71.0732412 27.6203839,71.2666016 C27.3254605,71.4599619 27.1780011,71.7558574 27.1780011,72.1542969 C27.1780011,72.4433608 27.2639377,72.6669914 27.4358136,72.8251953 C27.6076894,72.9833992 27.8654994,73.0625 28.2092511,73.0625 Z M42.5039951,69.7050781 C42.5039951,70.7441458 42.3057549,71.6191371 41.9092686,72.3300781 C41.5127822,73.0410192 40.9356396,73.5410142 40.1778233,73.8300781 L42.2286045,76.0390625 L40.3418858,76.0390625 L38.7246983,74.1171875 L38.4961826,74.1171875 C37.2032074,74.1171875 36.2100533,73.7334023 35.5166905,72.9658203 C34.8233276,72.1982383 34.4766514,71.1074289 34.4766514,69.6933594 C34.4766514,68.2792898 34.8252807,67.1933632 35.5225498,66.4355469 C36.2198189,65.6777306 37.2149262,65.2988281 38.5079014,65.2988281 C39.7813453,65.2988281 40.7657104,65.6835899 41.4610264,66.453125 C42.1563424,67.2226601 42.5039951,68.3066336 42.5039951,69.7050781 Z M35.9649326,69.7050781 C35.9649326,70.7597709 36.1778211,71.5595676 36.6036045,72.1044922 C37.0293879,72.6494168 37.660241,72.921875 38.4961826,72.921875 C39.3282181,72.921875 39.9561415,72.6523464 40.3799717,72.1132812 C40.803802,71.5742161 41.0157139,70.7714897 41.0157139,69.7050781 C41.0157139,68.6542916 40.8057551,67.8574246 40.3858311,67.3144531 C39.9659071,66.7714817 39.3399368,66.5 38.5079014,66.5 C37.6680535,66.5 37.0342707,66.7714817 36.6065342,67.3144531 C36.1787977,67.8574246 35.9649326,68.6542916 35.9649326,69.7050781 Z M48.0019531,74 L47.8085937,73.1503906 L47.7382812,73.1503906 C47.546874,73.4511734 47.2744158,73.6874991 46.9208984,73.859375 C46.567381,74.0312509 46.1640648,74.1171875 45.7109375,74.1171875 C44.9257773,74.1171875 44.3398457,73.921877 43.953125,73.53125 C43.5664043,73.140623 43.3730469,72.5488321 43.3730469,71.7558594 L43.3730469,67.5195312 L44.7617187,67.5195312 L44.7617187,71.515625 C44.7617187,72.0117212 44.8632802,72.3837878 45.0664062,72.6318359 C45.2695323,72.8798841 45.5878885,73.0039062 46.0214844,73.0039062 C46.5996123,73.0039062 47.0244127,72.8310564 47.2958984,72.4853516 C47.5673842,72.1396467 47.703125,71.5605509 47.703125,70.7480469 L47.703125,67.5195312 L49.0859375,67.5195312 L49.0859375,74 L48.0019531,74 Z M53.1131923,74.1171875 C52.1053748,74.1171875 51.3172968,73.8232451 50.7489345,73.2353516 C50.1805723,72.647458 49.8963955,71.8378958 49.8963955,70.8066406 C49.8963955,69.7480416 50.1600647,68.9160187 50.6874111,68.3105469 C51.2147575,67.7050751 51.9393596,67.4023438 52.8612392,67.4023438 C53.7167123,67.4023438 54.3924867,67.6621068 54.888583,68.1816406 C55.3846792,68.7011745 55.6327236,69.4160111 55.6327236,70.3261719 L55.6327236,71.0703125 L51.3143642,71.0703125 C51.3338956,71.6992219 51.5038157,72.1826155 51.8241298,72.5205078 C52.144444,72.8584001 52.5956113,73.0273438 53.1776455,73.0273438 C53.5604599,73.0273438 53.9169016,72.9912113 54.2469814,72.9189453 C54.5770612,72.8466793 54.9315498,72.7265633 55.310458,72.5585938 L55.310458,73.6777344 C54.9745188,73.8378914 54.6346784,73.9511715 54.2909267,74.0175781 C53.947175,74.0839847 53.5546008,74.1171875 53.1131923,74.1171875 Z M52.8612392,68.4453125 C52.423737,68.4453125 52.0731546,68.583983 51.8094814,68.8613281 C51.5458082,69.1386733 51.3885832,69.5429661 51.3378017,70.0742188 L54.279208,70.0742188 C54.2713954,69.5390598 54.1424905,69.1337904 53.8924892,68.8583984 C53.642488,68.5830064 53.2987414,68.4453125 52.8612392,68.4453125 Z M60.7849784,72.1542969 C60.7849784,72.7871125 60.554512,73.2724592 60.0935722,73.6103516 C59.6326324,73.9482439 58.9724827,74.1171875 58.1131034,74.1171875 C57.2498179,74.1171875 56.5564654,73.9863294 56.0330253,73.7246094 L56.0330253,72.5351562 C56.7947479,72.8867205 57.5037252,73.0625 58.1599784,73.0625 C59.0076389,73.0625 59.4314628,72.8066432 59.4314628,72.2949219 C59.4314628,72.1308586 59.3845883,71.9941412 59.2908378,71.8847656 C59.1970874,71.7753901 59.042792,71.66211 58.8279472,71.5449219 C58.6131024,71.4277338 58.3142772,71.2949226 57.9314628,71.1464844 C57.1853653,70.8574204 56.6804876,70.5683608 56.4168144,70.2792969 C56.1531412,69.9902329 56.0213066,69.6152367 56.0213066,69.1542969 C56.0213066,68.5996066 56.2449372,68.1689468 56.692205,67.8623047 C57.1394729,67.5556625 57.7478652,67.4023438 58.5174003,67.4023438 C59.2791229,67.4023438 59.9998188,67.5566391 60.6795097,67.8652344 L60.2341972,68.9023438 C59.534975,68.6132798 58.9470902,68.46875 58.4705253,68.46875 C57.7439592,68.46875 57.3806816,68.6757792 57.3806816,69.0898438 C57.3806816,69.2929698 57.4754072,69.464843 57.6648613,69.6054688 C57.8543153,69.7460945 58.2673971,69.9394519 58.9041191,70.1855469 C59.439278,70.3925792 59.827946,70.5820304 60.0701347,70.7539062 C60.3123234,70.9257821 60.4920091,71.1240223 60.6091972,71.3486328 C60.7263853,71.5732433 60.7849784,71.8417953 60.7849784,72.1542969 Z M63.9216083,73.0039062 C64.2575475,73.0039062 64.5934816,72.9511724 64.9294208,72.8457031 L64.9294208,73.8828125 C64.7770763,73.9492191 64.5807892,74.0048826 64.3405536,74.0498047 C64.100318,74.0947268 63.8512971,74.1171875 63.5934833,74.1171875 C62.2887893,74.1171875 61.636452,73.4296944 61.636452,72.0546875 L61.636452,68.5625 L60.7516864,68.5625 L60.7516864,67.953125 L61.7009052,67.4492188 L62.1696552,66.078125 L63.0192645,66.078125 L63.0192645,67.5195312 L64.8649677,67.5195312 L64.8649677,68.5625 L63.0192645,68.5625 L63.0192645,72.03125 C63.0192645,72.3632829 63.1022715,72.6083976 63.268288,72.7666016 C63.4343044,72.9248055 63.6520757,73.0039062 63.9216083,73.0039062 Z M66.8355819,74 L65.4586288,74 L65.4586288,67.5195312 L66.8355819,67.5195312 L66.8355819,74 Z M65.3765975,65.8027344 C65.3765975,65.5566394 65.4439797,65.3671882 65.578746,65.234375 C65.7135123,65.1015618 65.9058931,65.0351562 66.1558944,65.0351562 C66.3980831,65.0351562 66.5865578,65.1015618 66.7213241,65.234375 C66.8560904,65.3671882 66.9234725,65.5566394 66.9234725,65.8027344 C66.9234725,66.0371105 66.8560904,66.221679 66.7213241,66.3564453 C66.5865578,66.4912116 66.3980831,66.5585938 66.1558944,66.5585938 C65.9058931,66.5585938 65.7135123,66.4912116 65.578746,66.3564453 C65.4439797,66.221679 65.3765975,66.0371105 65.3765975,65.8027344 Z M73.7866649,70.7480469 C73.7866649,71.8066459 73.5151832,72.6328095 72.9722117,73.2265625 C72.4292403,73.8203155 71.6733885,74.1171875 70.7046336,74.1171875 C70.0991618,74.1171875 69.5640109,73.9804701 69.0991649,73.7070312 C68.6343188,73.4335924 68.2769005,73.0410182 68.0268992,72.5292969 C67.776898,72.0175756 67.6518992,71.4238315 67.6518992,70.7480469 C67.6518992,69.6972604 67.9214278,68.8769561 68.460493,68.2871094 C68.9995582,67.6972627 69.7593162,67.4023438 70.7397899,67.4023438 C71.6772946,67.4023438 72.4194746,67.7040985 72.9663524,68.3076172 C73.5132301,68.9111358 73.7866649,69.7246043 73.7866649,70.7480469 Z M69.069868,70.7480469 C69.069868,72.2441481 69.6225968,72.9921875 70.7280711,72.9921875 C71.8218266,72.9921875 72.3686961,72.2441481 72.3686961,70.7480469 C72.3686961,69.2675707 71.8179204,68.5273438 70.7163524,68.5273438 C70.1382245,68.5273438 69.7192834,68.7187481 69.4595164,69.1015625 C69.1997495,69.4843769 69.069868,70.0331996 69.069868,70.7480469 Z M80.3041541,74 L78.9213416,74 L78.9213416,70.015625 C78.9213416,69.5156225 78.8207567,69.1425794 78.6195838,68.8964844 C78.4184109,68.6503894 78.0990782,68.5273438 77.661576,68.5273438 C77.0795418,68.5273438 76.6537648,68.699217 76.3842322,69.0429688 C76.1146996,69.3867205 75.9799353,69.9628866 75.9799353,70.7714844 L75.9799353,74 L74.6029822,74 L74.6029822,67.5195312 L75.6811072,67.5195312 L75.8744666,68.3691406 L75.9447791,68.3691406 C76.1400926,68.0605453 76.4174336,67.8222665 76.7768103,67.6542969 C77.1361871,67.4863273 77.5346207,67.4023438 77.9721228,67.4023438 C79.5268181,67.4023438 80.3041541,68.1933515 80.3041541,69.7753906 L80.3041541,74 Z" id="Ask-a-Question" fill="#224F59"></path>
            </g>
        </g>
    </g>
</svg>