<?xml version="1.0" encoding="UTF-8"?>
<svg width="91px" height="91px" viewBox="0 0 91 91" version="1.1" xmlns="http://www.w3.org/2000/svg" xmlns:xlink="http://www.w3.org/1999/xlink">
    <!-- Generator: Sketch 50.2 (55047) - http://www.bohemiancoding.com/sketch -->
    <title>Notifications Tile Copy</title>
    <desc>Created with Sketch.</desc>
    <defs>
        <filter x="-5.9%" y="-4.7%" width="111.8%" height="111.8%" filterUnits="objectBoundingBox" id="filter-1">
            <feOffset dx="0" dy="1" in="SourceAlpha" result="shadowOffsetOuter1"></feOffset>
            <feGaussianBlur stdDeviation="1.5" in="shadowOffsetOuter1" result="shadowBlurOuter1"></feGaussianBlur>
            <feColorMatrix values="0 0 0 0 0.454901961   0 0 0 0 0.454901961   0 0 0 0 0.454901961  0 0 0 0.5 0" type="matrix" in="shadowBlurOuter1" result="shadowMatrixOuter1"></feColorMatrix>
            <feMerge>
                <feMergeNode in="shadowMatrixOuter1"></feMergeNode>
                <feMergeNode in="SourceGraphic"></feMergeNode>
            </feMerge>
        </filter>
    </defs>
    <g id="Page-1" stroke="none" stroke-width="1" fill="none" fill-rule="evenodd">
        <g id="Tiles" transform="translate(-184.000000, -515.000000)">
            <g id="Notifications-Tile-Copy" filter="url(#filter-1)" transform="translate(187.000000, 517.000000)">
                <rect id="Rectangle" fill="#4671AD" x="0" y="0" width="85" height="85" rx="4"></rect>
                <path d="M18.2368615,74 L16.5200646,74 L12.307174,67.1738281 L12.260299,67.1738281 L12.2895959,67.5546875 C12.3442837,68.2812536 12.3716271,68.9453095 12.3716271,69.546875 L12.3716271,74 L11.1001428,74 L11.1001428,65.4335938 L12.7993615,65.4335938 L17.0005334,72.2246094 L17.0356896,72.2246094 C17.0278771,72.1347652 17.0122523,71.80762 16.9888146,71.2431641 C16.965377,70.6787081 16.9536584,70.2382828 16.9536584,69.921875 L16.9536584,65.4335938 L18.2368615,65.4335938 L18.2368615,74 Z M25.3344289,70.7480469 C25.3344289,71.8066459 25.0629472,72.6328095 24.5199757,73.2265625 C23.9770043,73.8203155 23.2211525,74.1171875 22.2523976,74.1171875 C21.6469258,74.1171875 21.1117749,73.9804701 20.6469289,73.7070312 C20.1820828,73.4335924 19.8246645,73.0410182 19.5746632,72.5292969 C19.324662,72.0175756 19.1996632,71.4238315 19.1996632,70.7480469 C19.1996632,69.6972604 19.4691918,68.8769561 20.008257,68.2871094 C20.5473222,67.6972627 21.3070802,67.4023438 22.2875539,67.4023438 C23.2250586,67.4023438 23.9672386,67.7040985 24.5141164,68.3076172 C25.0609941,68.9111358 25.3344289,69.7246043 25.3344289,70.7480469 Z M20.617632,70.7480469 C20.617632,72.2441481 21.1703608,72.9921875 22.2758351,72.9921875 C23.3695906,72.9921875 23.9164601,72.2441481 23.9164601,70.7480469 C23.9164601,69.2675707 23.3656844,68.5273438 22.2641164,68.5273438 C21.6859885,68.5273438 21.2670474,68.7187481 21.0072804,69.1015625 C20.7475135,69.4843769 20.617632,70.0331996 20.617632,70.7480469 Z M28.5648087,73.0039062 C28.9007479,73.0039062 29.236682,72.9511724 29.5726212,72.8457031 L29.5726212,73.8828125 C29.4202767,73.9492191 29.2239896,74.0048826 28.983754,74.0498047 C28.7435185,74.0947268 28.4944975,74.1171875 28.2366837,74.1171875 C26.9319897,74.1171875 26.2796525,73.4296944 26.2796525,72.0546875 L26.2796525,68.5625 L25.3948868,68.5625 L25.3948868,67.953125 L26.3441056,67.4492188 L26.8128556,66.078125 L27.662465,66.078125 L27.662465,67.5195312 L29.5081681,67.5195312 L29.5081681,68.5625 L27.662465,68.5625 L27.662465,72.03125 C27.662465,72.3632829 27.745472,72.6083976 27.9114884,72.7666016 C28.0775049,72.9248055 28.2952761,73.0039062 28.5648087,73.0039062 Z M31.4787823,74 L30.1018292,74 L30.1018292,67.5195312 L31.4787823,67.5195312 L31.4787823,74 Z M30.0197979,65.8027344 C30.0197979,65.5566394 30.0871801,65.3671882 30.2219464,65.234375 C30.3567127,65.1015618 30.5490936,65.0351562 30.7990948,65.0351562 C31.0412835,65.0351562 31.2297582,65.1015618 31.3645245,65.234375 C31.4992908,65.3671882 31.5666729,65.5566394 31.5666729,65.8027344 C31.5666729,66.0371105 31.4992908,66.221679 31.3645245,66.3564453 C31.2297582,66.4912116 31.0412835,66.5585938 30.7990948,66.5585938 C30.5490936,66.5585938 30.3567127,66.4912116 30.2219464,66.3564453 C30.0871801,66.221679 30.0197979,66.0371105 30.0197979,65.8027344 Z M35.9337715,68.5625 L34.3517403,68.5625 L34.3517403,74 L32.9689278,74 L32.9689278,68.5625 L31.9025215,68.5625 L31.9025215,67.9179688 L32.9689278,67.4960938 L32.9689278,67.0742188 C32.9689278,66.3085899 33.1486135,65.7412128 33.5079903,65.3720703 C33.8673671,65.0029278 34.4161897,64.8183594 35.1544747,64.8183594 C35.6388521,64.8183594 36.1154098,64.8984367 36.5841622,65.0585938 L36.2208809,66.1015625 C35.8810355,65.992187 35.55682,65.9375 35.2482247,65.9375 C34.9357231,65.9375 34.7081863,66.0341787 34.5656075,66.2275391 C34.4230286,66.4208994 34.3517403,66.7109356 34.3517403,67.0976562 L34.3517403,67.5195312 L35.9337715,67.5195312 L35.9337715,68.5625 Z M38.4122872,74 L37.035334,74 L37.035334,67.5195312 L38.4122872,67.5195312 L38.4122872,74 Z M36.9533028,65.8027344 C36.9533028,65.5566394 37.0206849,65.3671882 37.1554512,65.234375 C37.2902175,65.1015618 37.4825984,65.0351562 37.7325997,65.0351562 C37.9747884,65.0351562 38.1632631,65.1015618 38.2980294,65.234375 C38.4327957,65.3671882 38.5001778,65.5566394 38.5001778,65.8027344 C38.5001778,66.0371105 38.4327957,66.221679 38.2980294,66.3564453 C38.1632631,66.4912116 37.9747884,66.5585938 37.7325997,66.5585938 C37.4825984,66.5585938 37.2902175,66.4912116 37.1554512,66.3564453 C37.0206849,66.221679 36.9533028,66.0371105 36.9533028,65.8027344 Z M42.2344639,74.1171875 C41.2539902,74.1171875 40.5088805,73.8310575 39.9991123,73.2587891 C39.4893442,72.6865206 39.2344639,71.8652397 39.2344639,70.7949219 C39.2344639,69.7050727 39.5010628,68.8671904 40.0342686,68.28125 C40.5674744,67.6953096 41.3379745,67.4023438 42.345792,67.4023438 C43.0293892,67.4023438 43.6446174,67.5292956 44.1914951,67.7832031 L43.7754795,68.890625 C43.1934454,68.6640614 42.7129814,68.5507812 42.3340733,68.5507812 C41.2129739,68.5507812 40.6524326,69.2949144 40.6524326,70.7832031 C40.6524326,71.5097693 40.7920797,72.0556622 41.071378,72.4208984 C41.3506762,72.7861346 41.7598518,72.96875 42.298917,72.96875 C42.9122013,72.96875 43.4922737,72.8164078 44.0391514,72.5117188 L44.0391514,73.7128906 C43.7930564,73.8574226 43.5303637,73.9609372 43.2510655,74.0234375 C42.9717672,74.0859378 42.6329034,74.1171875 42.2344639,74.1171875 Z M48.8515625,74 L48.5761719,73.0976562 L48.5292969,73.0976562 C48.2167953,73.4921895 47.9023453,73.7607415 47.5859375,73.9033203 C47.2695297,74.0458992 46.8632837,74.1171875 46.3671875,74.1171875 C45.7304656,74.1171875 45.2334002,73.9453142 44.8759766,73.6015625 C44.5185529,73.2578108 44.3398437,72.7714875 44.3398437,72.1425781 C44.3398437,71.474606 44.5878881,70.9707048 45.0839844,70.6308594 C45.5800806,70.2910139 46.3359324,70.1054689 47.3515625,70.0742188 L48.4707031,70.0390625 L48.4707031,69.6933594 C48.4707031,69.2792948 48.3740244,68.9697276 48.1806641,68.7646484 C47.9873037,68.5595693 47.687502,68.4570312 47.28125,68.4570312 C46.9492171,68.4570312 46.6308609,68.5058589 46.3261719,68.6035156 C46.0214829,68.7011724 45.728517,68.8164056 45.4472656,68.9492188 L45.0019531,67.9648438 C45.3535174,67.7812491 45.7382792,67.641602 46.15625,67.5458984 C46.5742208,67.4501948 46.9687481,67.4023438 47.3398437,67.4023438 C48.1640666,67.4023438 48.7861307,67.5820295 49.2060547,67.9414062 C49.6259787,68.300783 49.8359375,68.8652305 49.8359375,69.6347656 L49.8359375,74 L48.8515625,74 Z M46.8007812,73.0625 C47.3007837,73.0625 47.7021469,72.922853 48.0048828,72.6435547 C48.3076187,72.3642564 48.4589844,71.9726588 48.4589844,71.46875 L48.4589844,70.90625 L47.6269531,70.9414062 C46.9785124,70.9648439 46.5068374,71.0732412 46.2119141,71.2666016 C45.9169907,71.4599619 45.7695312,71.7558574 45.7695312,72.1542969 C45.7695312,72.4433608 45.8554679,72.6669914 46.0273437,72.8251953 C46.1992196,72.9833992 46.4570295,73.0625 46.8007812,73.0625 Z M53.4061611,73.0039062 C53.7421003,73.0039062 54.0780344,72.9511724 54.4139736,72.8457031 L54.4139736,73.8828125 C54.2616291,73.9492191 54.065342,74.0048826 53.8251064,74.0498047 C53.5848708,74.0947268 53.3358499,74.1171875 53.0780361,74.1171875 C51.7733421,74.1171875 51.1210048,73.4296944 51.1210048,72.0546875 L51.1210048,68.5625 L50.2362392,68.5625 L50.2362392,67.953125 L51.185458,67.4492188 L51.654208,66.078125 L52.5038173,66.078125 L52.5038173,67.5195312 L54.3495205,67.5195312 L54.3495205,68.5625 L52.5038173,68.5625 L52.5038173,72.03125 C52.5038173,72.3632829 52.5868243,72.6083976 52.7528408,72.7666016 C52.9188572,72.9248055 53.1366285,73.0039062 53.4061611,73.0039062 Z M56.3201347,74 L54.9431816,74 L54.9431816,67.5195312 L56.3201347,67.5195312 L56.3201347,74 Z M54.8611503,65.8027344 C54.8611503,65.5566394 54.9285325,65.3671882 55.0632988,65.234375 C55.1980651,65.1015618 55.3904459,65.0351562 55.6404472,65.0351562 C55.8826359,65.0351562 56.0711106,65.1015618 56.2058769,65.234375 C56.3406432,65.3671882 56.4080253,65.5566394 56.4080253,65.8027344 C56.4080253,66.0371105 56.3406432,66.221679 56.2058769,66.3564453 C56.0711106,66.4912116 55.8826359,66.5585938 55.6404472,66.5585938 C55.3904459,66.5585938 55.1980651,66.4912116 55.0632988,66.3564453 C54.9285325,66.221679 54.8611503,66.0371105 54.8611503,65.8027344 Z M63.2712177,70.7480469 C63.2712177,71.8066459 62.999736,72.6328095 62.4567645,73.2265625 C61.9137931,73.8203155 61.1579413,74.1171875 60.1891864,74.1171875 C59.5837146,74.1171875 59.0485637,73.9804701 58.5837177,73.7070312 C58.1188716,73.4335924 57.7614533,73.0410182 57.511452,72.5292969 C57.2614508,72.0175756 57.136452,71.4238315 57.136452,70.7480469 C57.136452,69.6972604 57.4059806,68.8769561 57.9450458,68.2871094 C58.484111,67.6972627 59.243869,67.4023438 60.2243427,67.4023438 C61.1618474,67.4023438 61.9040274,67.7040985 62.4509052,68.3076172 C62.9977829,68.9111358 63.2712177,69.7246043 63.2712177,70.7480469 Z M58.5544208,70.7480469 C58.5544208,72.2441481 59.1071496,72.9921875 60.2126239,72.9921875 C61.3063794,72.9921875 61.8532489,72.2441481 61.8532489,70.7480469 C61.8532489,69.2675707 61.3024732,68.5273438 60.2009052,68.5273438 C59.6227773,68.5273438 59.2038362,68.7187481 58.9440692,69.1015625 C58.6843023,69.4843769 58.5544208,70.0331996 58.5544208,70.7480469 Z M69.7887069,74 L68.4058944,74 L68.4058944,70.015625 C68.4058944,69.5156225 68.3053095,69.1425794 68.1041366,68.8964844 C67.9029637,68.6503894 67.583631,68.5273438 67.1461288,68.5273438 C66.5640946,68.5273438 66.1383176,68.699217 65.868785,69.0429688 C65.5992524,69.3867205 65.4644881,69.9628866 65.4644881,70.7714844 L65.4644881,74 L64.087535,74 L64.087535,67.5195312 L65.16566,67.5195312 L65.3590194,68.3691406 L65.4293319,68.3691406 C65.6246454,68.0605453 65.9019864,67.8222665 66.2613631,67.6542969 C66.6207399,67.4863273 67.0191735,67.4023438 67.4566756,67.4023438 C69.0113709,67.4023438 69.7887069,68.1933515 69.7887069,69.7753906 L69.7887069,74 Z M75.2925242,72.1542969 C75.2925242,72.7871125 75.0620578,73.2724592 74.601118,73.6103516 C74.1401782,73.9482439 73.4800285,74.1171875 72.6206492,74.1171875 C71.7573637,74.1171875 71.0640112,73.9863294 70.5405711,73.7246094 L70.5405711,72.5351562 C71.3022937,72.8867205 72.011271,73.0625 72.6675242,73.0625 C73.5151847,73.0625 73.9390086,72.8066432 73.9390086,72.2949219 C73.9390086,72.1308586 73.8921341,71.9941412 73.7983836,71.8847656 C73.7046332,71.7753901 73.5503378,71.66211 73.335493,71.5449219 C73.1206482,71.4277338 72.821823,71.2949226 72.4390086,71.1464844 C71.6929111,70.8574204 71.1880334,70.5683608 70.9243602,70.2792969 C70.660687,69.9902329 70.5288524,69.6152367 70.5288524,69.1542969 C70.5288524,68.5996066 70.752483,68.1689468 71.1997508,67.8623047 C71.6470187,67.5556625 72.255411,67.4023438 73.0249461,67.4023438 C73.7866687,67.4023438 74.5073646,67.5566391 75.1870555,67.8652344 L74.741743,68.9023438 C74.0425208,68.6132798 73.454636,68.46875 72.9780711,68.46875 C72.251505,68.46875 71.8882274,68.6757792 71.8882274,69.0898438 C71.8882274,69.2929698 71.982953,69.464843 72.1724071,69.6054688 C72.3618611,69.7460945 72.7749429,69.9394519 73.4116649,70.1855469 C73.9468238,70.3925792 74.3354918,70.5820304 74.5776805,70.7539062 C74.8198692,70.9257821 74.9995549,71.1240223 75.116743,71.3486328 C75.2339311,71.5732433 75.2925242,71.8417953 75.2925242,72.1542969 Z" id="Notifications" fill="#FFFFFF"></path>
            </g>
        </g>
    </g>
</svg>