<?xml version="1.0" encoding="UTF-8"?>
<svg width="91px" height="91px" viewBox="0 0 91 91" version="1.1" xmlns="http://www.w3.org/2000/svg" xmlns:xlink="http://www.w3.org/1999/xlink">
    <!-- Generator: Sketch 47.1 (45422) - http://www.bohemiancoding.com/sketch -->
    <title>Ask Question</title>
    <desc>Created with Sketch.</desc>
    <defs>
        <filter x="-5.9%" y="-4.7%" width="111.8%" height="111.8%" filterUnits="objectBoundingBox" id="filter-1">
            <feOffset dx="0" dy="1" in="SourceAlpha" result="shadowOffsetOuter1"></feOffset>
            <feGaussianBlur stdDeviation="1.5" in="shadowOffsetOuter1" result="shadowBlurOuter1"></feGaussianBlur>
            <feColorMatrix values="0 0 0 0 0.453071854   0 0 0 0 0.453071854   0 0 0 0 0.453071854  0 0 0 0.5 0" type="matrix" in="shadowBlurOuter1" result="shadowMatrixOuter1"></feColorMatrix>
            <feMerge>
                <feMergeNode in="shadowMatrixOuter1"></feMergeNode>
                <feMergeNode in="SourceGraphic"></feMergeNode>
            </feMerge>
        </filter>
    </defs>
    <g id="Symbols" stroke="none" stroke-width="1" fill="none" fill-rule="evenodd">
        <g id="TCWA-Top-Navigation-Bar" transform="translate(-1339.000000, -87.000000)">
            <g id="Group-19">
                <g id="Group-17" transform="translate(0.000000, 75.000000)">
                    <g id="Ask-Question" filter="url(#filter-1)" transform="translate(1342.000000, 14.000000)">
                        <rect id="Rectangle-10" fill="#E56841" x="0" y="0" width="85" height="85" rx="4"></rect>
                        <g id="Group-5-Copy-2" transform="translate(17.000000, 10.000000)">
                            <path d="M6.71137179,32.5171191 L6.71137179,39 L12.9643746,32.5171191 L21,32.5171191 L21,32.5171191 C22.6568542,32.5171191 24,31.1739734 24,29.5171191 L24,9 L24,9 C24,7.34314575 22.6568542,6 21,6 L3,6 L3,6 C1.34314575,6 -2.02906125e-16,7.34314575 0,9 L0,29.5171191 L0,29.5171191 C-2.00446716e-15,31.1739734 1.34314575,32.5171191 3,32.5171191 L6.71137179,32.5171191 Z" id="Path-7" stroke="#FFFFFF" fill="#FFFFFF"></path>
                            <g id="Group-4" transform="translate(6.000000, 11.000000)" fill="#E56841">
                                <path d="M5.73718247,8.21165023 C7.34230895,8.21165023 8.0302203,7.0272187 8.0302203,6.26082183 C8.0302203,4.54687975 3.97440965,4.17064856 3.97440965,1.30014392 L3.97440965,0.129646889 L7.4999553,0.129646889 L7.4999553,0.882109269 C7.4999553,2.70752726 11.469777,2.86080664 11.469777,6.67885649 C11.469777,9.36821277 9.24839664,11.5559275 5.73718247,11.5559275 C2.52692952,11.5559275 0.00458791082,9.52149215 0.00458791082,6.26082183 L0.721162231,6.26082183 L2.72757033,6.26082183 L3.44414465,6.26082183 C3.44414465,7.0272187 4.132056,8.21165023 5.73718247,8.21165023 Z" id="Path" transform="translate(5.737182, 5.842787) scale(1, -1) translate(-5.737182, -5.842787) "></path>
                                <path d="M5.73718247,17.5101322 C4.63365802,17.5101322 3.73077438,16.6322594 3.73077438,15.5593038 C3.73077438,14.4863482 4.63365802,13.6084754 5.73718247,13.6084754 C6.84070693,13.6084754 7.74359057,14.4863482 7.74359057,15.5593038 C7.74359057,16.6322594 6.84070693,17.5101322 5.73718247,17.5101322 Z" id="Path"></path>
                            </g>
                            <path d="M34.7113718,26.5171191 L34.7113718,33 L40.9643746,26.5171191 L48,26.5171191 L48,26.5171191 C50.209139,26.5171191 52,24.7262581 52,22.5171191 L52,4 L52,4 C52,1.790861 50.209139,-4.05812251e-16 48,0 L32,0 L32,-8.8817842e-16 C29.790861,-4.82366169e-16 28,1.790861 28,4 L28,22.5171191 L28,22.5171191 C28,24.7262581 29.790861,26.5171191 32,26.5171191 L34.7113718,26.5171191 Z" id="Path-7-Copy" stroke="#FFFFFF" fill="#FFFFFF" transform="translate(40.000000, 16.500000) scale(-1, 1) translate(-40.000000, -16.500000) "></path>
                            <circle id="Oval-7" fill="#E56841" cx="33.5" cy="13.5" r="1.5"></circle>
                            <circle id="Oval-7-Copy" fill="#E56841" cx="39.5" cy="13.5" r="1.5"></circle>
                            <circle id="Oval-7-Copy-2" fill="#E56841" cx="45.5" cy="13.5" r="1.5"></circle>
                        </g>
                        <path d="M33.3452148,64 L32.418457,61.4228516 L28.8701172,61.4228516 L27.9624023,64 L26.362793,64 L29.8349609,54.6816406 L31.4853516,54.6816406 L34.9575195,64 L33.3452148,64 Z M32.0185547,60.1152344 L31.1489258,57.5888672 C31.0854489,57.4195955 30.9976405,57.1529966 30.885498,56.7890625 C30.7733556,56.4251284 30.6961265,56.1585295 30.6538086,55.9892578 C30.5395502,56.5097682 30.3723969,57.0789357 30.1523438,57.6967773 L29.3144531,60.1152344 L32.0185547,60.1152344 Z M40.7402344,62.0004883 C40.7402344,62.6860386 40.4905624,63.2118309 39.9912109,63.5778809 C39.4918595,63.9439309 38.7766974,64.1269531 37.8457031,64.1269531 C36.9104771,64.1269531 36.1593453,63.9851902 35.5922852,63.7016602 L35.5922852,62.4130859 C36.4174846,62.7939472 37.1855433,62.984375 37.8964844,62.984375 C38.8147832,62.984375 39.2739258,62.7071968 39.2739258,62.152832 C39.2739258,61.9750968 39.223145,61.8269863 39.121582,61.7084961 C39.020019,61.5900059 38.8528657,61.4672858 38.6201172,61.340332 C38.3873686,61.2133783 38.0636414,61.0694995 37.6489258,60.9086914 C36.8406535,60.5955388 36.2937026,60.2823909 36.0080566,59.9692383 C35.7224107,59.6560857 35.5795898,59.2498397 35.5795898,58.7504883 C35.5795898,58.1495738 35.8218563,57.6830257 36.3063965,57.3508301 C36.7909367,57.0186344 37.4500284,56.8525391 38.2836914,56.8525391 C39.1088908,56.8525391 39.8896448,57.0196923 40.6259766,57.3540039 L40.1435547,58.4775391 C39.3860639,58.1643865 38.7491888,58.0078125 38.2329102,58.0078125 C37.4457968,58.0078125 37.0522461,58.2320941 37.0522461,58.6806641 C37.0522461,58.9007172 37.1548655,59.0869133 37.3601074,59.2392578 C37.5653493,59.3916023 38.0128546,59.6010729 38.7026367,59.8676758 C39.2823922,60.0919608 39.7034492,60.2971996 39.9658203,60.4833984 C40.2281914,60.6695973 40.4228509,60.8843575 40.5498047,61.1276855 C40.6767584,61.3710136 40.7402344,61.6619449 40.7402344,62.0004883 Z M43.793457,60.2929688 L44.6376953,59.2392578 L46.7578125,56.9794922 L48.4780273,56.9794922 L45.6533203,59.9946289 L48.6557617,64 L46.9038086,64 L44.6503906,60.9213867 L43.831543,61.5942383 L43.831543,64 L42.3525391,64 L42.3525391,54.1230469 L43.831543,54.1230469 L43.831543,58.940918 L43.7553711,60.2929688 L43.793457,60.2929688 Z M57.5551758,64 L57.2568359,63.0224609 L57.2060547,63.0224609 C56.8675113,63.4498719 56.5268572,63.7408033 56.184082,63.8952637 C55.8413069,64.0497241 55.4012071,64.1269531 54.8637695,64.1269531 C54.1739874,64.1269531 53.6355,63.9407571 53.248291,63.5683594 C52.861082,63.1959617 52.6674805,62.6691115 52.6674805,61.987793 C52.6674805,61.2641565 52.9361952,60.7182636 53.4736328,60.3500977 C54.0110704,59.9819318 54.8299099,59.7809246 55.9301758,59.7470703 L57.1425781,59.7089844 L57.1425781,59.3344727 C57.1425781,58.8859027 57.0378428,58.5505382 56.8283691,58.3283691 C56.6188954,58.1062001 56.2941103,57.9951172 55.8540039,57.9951172 C55.4943016,57.9951172 55.1494157,58.0480138 54.8193359,58.1538086 C54.4892562,58.2596034 54.1718765,58.3844394 53.8671875,58.5283203 L53.3847656,57.4619141 C53.7656269,57.2630198 54.1824522,57.1117355 54.6352539,57.0080566 C55.0880556,56.9043777 55.5154602,56.8525391 55.9174805,56.8525391 C56.8103886,56.8525391 57.4842913,57.0471986 57.939209,57.4365234 C58.3941266,57.8258483 58.621582,58.4373331 58.621582,59.2709961 L58.621582,64 L57.5551758,64 Z M55.3334961,62.984375 C55.8751655,62.984375 56.3099756,62.8330907 56.6379395,62.5305176 C56.9659033,62.2279445 57.1298828,61.8037137 57.1298828,61.2578125 L57.1298828,60.6484375 L56.2285156,60.6865234 C55.5260382,60.7119142 55.0150569,60.8293447 54.6955566,61.0388184 C54.3760563,61.2482921 54.2163086,61.5688455 54.2163086,62.0004883 C54.2163086,62.3136409 54.3094066,62.5559073 54.4956055,62.7272949 C54.6818043,62.8986825 54.9610984,62.984375 55.3334961,62.984375 Z M23.8491211,73.347168 C23.8491211,74.4728246 23.6343609,75.4207318 23.204834,76.190918 C22.7753071,76.9611041 22.1500692,77.5027654 21.3291016,77.815918 L23.5507812,80.2089844 L21.5068359,80.2089844 L19.7548828,78.1269531 L19.5073242,78.1269531 C18.1066011,78.1269531 17.0306841,77.7111858 16.279541,76.8796387 C15.5283979,76.0480915 15.152832,74.8663814 15.152832,73.3344727 C15.152832,71.802564 15.5305138,70.6261434 16.2858887,69.8051758 C17.0412635,68.9842081 18.1192964,68.5737305 19.5200195,68.5737305 C20.8995837,68.5737305 21.9659793,68.9905557 22.7192383,69.8242188 C23.4724973,70.6578818 23.8491211,71.8321864 23.8491211,73.347168 Z M16.7651367,73.347168 C16.7651367,74.4897518 16.9957659,75.3561982 17.4570312,75.9465332 C17.9182966,76.5368682 18.6017207,76.8320312 19.5073242,76.8320312 C20.4086959,76.8320312 21.0889463,76.540042 21.5480957,75.9560547 C22.0072451,75.3720674 22.2368164,74.5024472 22.2368164,73.347168 C22.2368164,72.2088159 22.009361,71.3455433 21.5544434,70.7573242 C21.0995257,70.1691051 20.4213912,69.875 19.5200195,69.875 C18.6101843,69.875 17.9235863,70.1691051 17.4602051,70.7573242 C16.9968239,71.3455433 16.7651367,72.2088159 16.7651367,73.347168 Z M30.6347656,78 L30.425293,77.0795898 L30.3491211,77.0795898 C30.1417633,77.4054378 29.8466002,77.6614574 29.463623,77.8476562 C29.0806459,78.0338551 28.6437199,78.1269531 28.152832,78.1269531 C27.3022418,78.1269531 26.6674826,77.9153667 26.2485352,77.4921875 C25.8295877,77.0690083 25.6201172,76.4279014 25.6201172,75.5688477 L25.6201172,70.9794922 L27.1245117,70.9794922 L27.1245117,75.3085938 C27.1245117,75.8460313 27.2345367,76.2491035 27.4545898,76.5178223 C27.674643,76.7865411 28.0195289,76.9208984 28.4892578,76.9208984 C29.115563,76.9208984 29.5757635,76.7336445 29.869873,76.3591309 C30.1639826,75.9846173 30.3110352,75.3572635 30.3110352,74.4770508 L30.3110352,70.9794922 L31.809082,70.9794922 L31.809082,78 L30.6347656,78 Z M37.0014648,78.1269531 C35.9096625,78.1269531 35.0559113,77.8085156 34.4401855,77.1716309 C33.8244598,76.5347462 33.5166016,75.6577204 33.5166016,74.5405273 C33.5166016,73.3937117 33.8022432,72.4923535 34.3735352,71.8364258 C34.9448271,71.180498 35.7298127,70.8525391 36.7285156,70.8525391 C37.6552781,70.8525391 38.3873671,71.133949 38.9248047,71.6967773 C39.4622423,72.2596057 39.730957,73.034012 39.730957,74.0200195 L39.730957,74.8261719 L35.0527344,74.8261719 C35.0738933,75.5074904 35.2579735,76.0311668 35.6049805,76.3972168 C35.9519874,76.7632668 36.4407521,76.9462891 37.0712891,76.9462891 C37.4860047,76.9462891 37.8721499,76.9071456 38.2297363,76.8288574 C38.5873228,76.7505693 38.9713521,76.6204436 39.3818359,76.4384766 L39.3818359,77.6508789 C39.0179018,77.8243824 38.6497414,77.9471025 38.2773438,78.019043 C37.9049461,78.0909834 37.4796573,78.1269531 37.0014648,78.1269531 Z M36.7285156,71.9824219 C36.2545549,71.9824219 35.8747573,72.1326482 35.5891113,72.4331055 C35.3034654,72.7335627 35.1331383,73.1715466 35.078125,73.7470703 L38.2646484,73.7470703 C38.2561849,73.1673148 38.1165378,72.728273 37.8457031,72.4299316 C37.5748684,72.1315903 37.2024763,71.9824219 36.7285156,71.9824219 Z M46.1420898,76.0004883 C46.1420898,76.6860386 45.8924179,77.2118309 45.3930664,77.5778809 C44.893715,77.9439309 44.1785528,78.1269531 43.2475586,78.1269531 C42.3123326,78.1269531 41.5612008,77.9851902 40.9941406,77.7016602 L40.9941406,76.4130859 C41.8193401,76.7939472 42.5873988,76.984375 43.2983398,76.984375 C44.2166387,76.984375 44.6757812,76.7071968 44.6757812,76.152832 C44.6757812,75.9750968 44.6250005,75.8269863 44.5234375,75.7084961 C44.4218745,75.5900059 44.2547212,75.4672858 44.0219727,75.340332 C43.7892241,75.2133783 43.4654969,75.0694995 43.0507812,74.9086914 C42.242509,74.5955388 41.6955581,74.2823909 41.4099121,73.9692383 C41.1242661,73.6560857 40.9814453,73.2498397 40.9814453,72.7504883 C40.9814453,72.1495738 41.2237118,71.6830257 41.708252,71.3508301 C42.1927921,71.0186344 42.8518839,70.8525391 43.6855469,70.8525391 C44.5107463,70.8525391 45.2915002,71.0196923 46.027832,71.3540039 L45.5454102,72.4775391 C44.7879194,72.1643865 44.1510442,72.0078125 43.6347656,72.0078125 C42.8476523,72.0078125 42.4541016,72.2320941 42.4541016,72.6806641 C42.4541016,72.9007172 42.556721,73.0869133 42.7619629,73.2392578 C42.9672048,73.3916023 43.4147101,73.6010729 44.1044922,73.8676758 C44.6842477,74.0919608 45.1053047,74.2971996 45.3676758,74.4833984 C45.6300469,74.6695973 45.8247064,74.8843575 45.9516602,75.1276855 C46.0786139,75.3710136 46.1420898,75.6619449 46.1420898,76.0004883 Z M50.3696289,76.9208984 C50.733563,76.9208984 51.0974917,76.8637701 51.4614258,76.7495117 L51.4614258,77.8730469 C51.2963859,77.9449873 51.0837415,78.0052895 50.8234863,78.0539551 C50.5632311,78.1026207 50.2934584,78.1269531 50.0141602,78.1269531 C48.6007416,78.1269531 47.894043,77.3821689 47.894043,75.8925781 L47.894043,72.109375 L46.9355469,72.109375 L46.9355469,71.4492188 L47.9638672,70.9033203 L48.4716797,69.4179688 L49.3920898,69.4179688 L49.3920898,70.9794922 L51.3916016,70.9794922 L51.3916016,72.109375 L49.3920898,72.109375 L49.3920898,75.8671875 C49.3920898,76.2268898 49.4820141,76.4924308 49.6618652,76.6638184 C49.8417164,76.8352059 50.0776353,76.9208984 50.3696289,76.9208984 Z M54.355957,78 L52.8642578,78 L52.8642578,70.9794922 L54.355957,70.9794922 L54.355957,78 Z M52.7753906,69.1196289 C52.7753906,68.853026 52.8483879,68.6477872 52.9943848,68.5039062 C53.1403816,68.3600253 53.3487942,68.2880859 53.6196289,68.2880859 C53.882,68.2880859 54.0861809,68.3600253 54.2321777,68.5039062 C54.3781746,68.6477872 54.4511719,68.853026 54.4511719,69.1196289 C54.4511719,69.3735364 54.3781746,69.5734856 54.2321777,69.7194824 C54.0861809,69.8654792 53.882,69.9384766 53.6196289,69.9384766 C53.3487942,69.9384766 53.1403816,69.8654792 52.9943848,69.7194824 C52.8483879,69.5734856 52.7753906,69.3735364 52.7753906,69.1196289 Z M62.7158203,74.4770508 C62.7158203,75.6238664 62.4217152,76.518877 61.8334961,77.1621094 C61.245277,77.8053418 60.4264375,78.1269531 59.3769531,78.1269531 C58.7210254,78.1269531 58.1412786,77.9788426 57.6376953,77.6826172 C57.1341121,77.3863917 56.7469089,76.961103 56.4760742,76.4067383 C56.2052395,75.8523735 56.0698242,75.2091508 56.0698242,74.4770508 C56.0698242,73.3386987 56.3618135,72.4500357 56.9458008,71.8110352 C57.5297881,71.1720346 58.3528593,70.8525391 59.4150391,70.8525391 C60.4306691,70.8525391 61.2346976,71.1794401 61.8271484,71.833252 C62.4195993,72.4870638 62.7158203,73.3683213 62.7158203,74.4770508 Z M57.605957,74.4770508 C57.605957,76.0978271 58.2047466,76.9082031 59.4023438,76.9082031 C60.5872455,76.9082031 61.1796875,76.0978271 61.1796875,74.4770508 C61.1796875,72.8732016 60.5830138,72.0712891 59.3896484,72.0712891 C58.7633432,72.0712891 58.3094903,72.2786438 58.0280762,72.6933594 C57.746662,73.108075 57.605957,73.7026328 57.605957,74.4770508 Z M70.605957,78 L69.1079102,78 L69.1079102,73.6835938 C69.1079102,73.1419244 68.9989431,72.7377943 68.7810059,72.4711914 C68.5630686,72.2045885 68.2171248,72.0712891 67.7431641,72.0712891 C67.1126271,72.0712891 66.6513686,72.2574851 66.359375,72.6298828 C66.0673814,73.0022805 65.9213867,73.6264605 65.9213867,74.5024414 L65.9213867,78 L64.4296875,78 L64.4296875,70.9794922 L65.5976562,70.9794922 L65.8071289,71.8999023 L65.8833008,71.8999023 C66.0948904,71.5655908 66.3953431,71.3074553 66.784668,71.1254883 C67.1739928,70.9435212 67.6056291,70.8525391 68.0795898,70.8525391 C69.7638431,70.8525391 70.605957,71.7094641 70.605957,73.4233398 L70.605957,78 Z" id="Ask-a-Question" fill="#FFFFFF"></path>
                    </g>
                </g>
            </g>
        </g>
    </g>
</svg>