<?xml version="1.0" encoding="UTF-8"?>
<svg width="91px" height="91px" viewBox="0 0 91 91" version="1.1" xmlns="http://www.w3.org/2000/svg" xmlns:xlink="http://www.w3.org/1999/xlink">
    <!-- Generator: Sketch 49 (51002) - http://www.bohemiancoding.com/sketch -->
    <title>Create a Post Tile</title>
    <desc>Created with Sketch.</desc>
    <defs>
        <filter x="-5.9%" y="-4.7%" width="111.8%" height="111.8%" filterUnits="objectBoundingBox" id="filter-1">
            <feOffset dx="0" dy="1" in="SourceAlpha" result="shadowOffsetOuter1"></feOffset>
            <feGaussianBlur stdDeviation="1.5" in="shadowOffsetOuter1" result="shadowBlurOuter1"></feGaussianBlur>
            <feColorMatrix values="0 0 0 0 0.454901961   0 0 0 0 0.454901961   0 0 0 0 0.454901961  0 0 0 0.5 0" type="matrix" in="shadowBlurOuter1" result="shadowMatrixOuter1"></feColorMatrix>
            <feMerge>
                <feMergeNode in="shadowMatrixOuter1"></feMergeNode>
                <feMergeNode in="SourceGraphic"></feMergeNode>
            </feMerge>
        </filter>
    </defs>
    <g id="Page-1" stroke="none" stroke-width="1" fill="none" fill-rule="evenodd">
        <g id="Tiles" transform="translate(-392.000000, -59.000000)">
            <g id="Create-a-Post-Tile" filter="url(#filter-1)" transform="translate(395.000000, 61.000000)">
                <rect id="Rectangle" fill="#FFFFFF" x="0" y="0" width="85" height="85" rx="4"></rect>
                <g id="Post-Icon" transform="translate(23.000000, 13.000000)">
                    <circle id="Oval" fill="#E56841" cx="19.5" cy="20" r="19.5"></circle>
                    <path d="M11,19.6439394 L28.3863636,19.6439394" id="Line-3" stroke="#FFFFFF" stroke-width="3" stroke-linecap="round"></path>
                    <path d="M19.6439394,28.3863636 L19.6439394,11" id="Line-3-Copy" stroke="#FFFFFF" stroke-width="3" stroke-linecap="round"></path>
                </g>
                <path d="M13.9966716,66.5117188 C13.1919801,66.5117188 12.5591739,66.7968721 12.0982341,67.3671875 C11.6372943,67.9375029 11.4068278,68.7246044 11.4068278,69.7285156 C11.4068278,70.7793021 11.6285053,71.5742161 12.0718669,72.1132812 C12.5152285,72.6523464 13.1568237,72.921875 13.9966716,72.921875 C14.3599547,72.921875 14.7115137,72.8857425 15.0513591,72.8134766 C15.3912045,72.7412106 15.7447166,72.6484381 16.111906,72.5351562 L16.111906,73.7363281 C15.4400276,73.9902356 14.6783165,74.1171875 13.8267497,74.1171875 C12.5728372,74.1171875 11.6099562,73.7373085 10.9380778,72.9775391 C10.2661995,72.2177696 9.93026535,71.1308664 9.93026535,69.7167969 C9.93026535,68.8261674 10.0933497,68.0468783 10.4195232,67.3789062 C10.7456967,66.7109342 11.2173716,66.1992205 11.8345622,65.84375 C12.4517528,65.4882795 13.1763549,65.3105469 14.0083903,65.3105469 C14.8833947,65.3105469 15.6919804,65.4941388 16.4341716,65.8613281 L15.9302653,67.0273438 C15.6412014,66.8906243 15.3355404,66.7705083 15.0132732,66.6669922 C14.6910059,66.563476 14.3521421,66.5117188 13.9966716,66.5117188 Z M20.3325202,67.4023438 C20.6098653,67.4023438 20.8383787,67.4218748 21.0180671,67.4609375 L20.8833014,68.7441406 C20.687988,68.6972654 20.484865,68.6738281 20.2739264,68.6738281 C19.7231424,68.6738281 19.2768578,68.8535138 18.9350593,69.2128906 C18.5932607,69.5722674 18.4223639,70.0390596 18.4223639,70.6132812 L18.4223639,74 L17.0454108,74 L17.0454108,67.5195312 L18.1235358,67.5195312 L18.3051764,68.6621094 L18.3754889,68.6621094 C18.5903338,68.2753887 18.8706044,67.9687511 19.2163093,67.7421875 C19.5620141,67.5156239 19.9340807,67.4023438 20.3325202,67.4023438 Z M24.0433688,74.1171875 C23.0355513,74.1171875 22.2474732,73.8232451 21.679111,73.2353516 C21.1107488,72.647458 20.8265719,71.8378958 20.8265719,70.8066406 C20.8265719,69.7480416 21.0902412,68.9160187 21.6175875,68.3105469 C22.1449339,67.7050751 22.8695361,67.4023438 23.7914157,67.4023438 C24.6468887,67.4023438 25.3226632,67.6621068 25.8187594,68.1816406 C26.3148557,68.7011745 26.5629,69.4160111 26.5629,70.3261719 L26.5629,71.0703125 L22.2445407,71.0703125 C22.264072,71.6992219 22.4339922,72.1826155 22.7543063,72.5205078 C23.0746204,72.8584001 23.5257878,73.0273438 24.1078219,73.0273438 C24.4906363,73.0273438 24.8470781,72.9912113 25.1771579,72.9189453 C25.5072376,72.8466793 25.8617263,72.7265633 26.2406344,72.5585938 L26.2406344,73.6777344 C25.9046952,73.8378914 25.5648549,73.9511715 25.2211032,74.0175781 C24.8773515,74.0839847 24.4847773,74.1171875 24.0433688,74.1171875 Z M23.7914157,68.4453125 C23.3539135,68.4453125 23.0033311,68.583983 22.7396579,68.8613281 C22.4759847,69.1386733 22.3187597,69.5429661 22.2679782,70.0742188 L25.2093844,70.0742188 C25.2015719,69.5390598 25.0726669,69.1337904 24.8226657,68.8583984 C24.5726644,68.5830064 24.2289179,68.4453125 23.7914157,68.4453125 Z M31.4163268,74 L31.1409361,73.0976562 L31.0940611,73.0976562 C30.7815596,73.4921895 30.4671096,73.7607415 30.1507018,73.9033203 C29.8342939,74.0458992 29.428048,74.1171875 28.9319518,74.1171875 C28.2952298,74.1171875 27.7981645,73.9453142 27.4407408,73.6015625 C27.0833172,73.2578108 26.904608,72.7714875 26.904608,72.1425781 C26.904608,71.474606 27.1526524,70.9707048 27.6487486,70.6308594 C28.1448449,70.2910139 28.9006967,70.1054689 29.9163268,70.0742188 L31.0354674,70.0390625 L31.0354674,69.6933594 C31.0354674,69.2792948 30.9387887,68.9697276 30.7454283,68.7646484 C30.552068,68.5595693 30.2522663,68.4570312 29.8460143,68.4570312 C29.5139814,68.4570312 29.1956252,68.5058589 28.8909361,68.6035156 C28.5862471,68.7011724 28.2932813,68.8164056 28.0120299,68.9492188 L27.5667174,67.9648438 C27.9182817,67.7812491 28.3030434,67.641602 28.7210143,67.5458984 C29.1389851,67.4501948 29.5335124,67.4023438 29.904608,67.4023438 C30.7288309,67.4023438 31.350895,67.5820295 31.770819,67.9414062 C32.1907429,68.300783 32.4007018,68.8652305 32.4007018,69.6347656 L32.4007018,74 L31.4163268,74 Z M29.3655455,73.0625 C29.865548,73.0625 30.2669112,72.922853 30.5696471,72.6435547 C30.872383,72.3642564 31.0237486,71.9726588 31.0237486,71.46875 L31.0237486,70.90625 L30.1917174,70.9414062 C29.5432767,70.9648439 29.0716017,71.0732412 28.7766783,71.2666016 C28.481755,71.4599619 28.3342955,71.7558574 28.3342955,72.1542969 C28.3342955,72.4433608 28.4202322,72.6669914 28.592108,72.8251953 C28.7639839,72.9833992 29.0217938,73.0625 29.3655455,73.0625 Z M35.9709254,73.0039062 C36.3068646,73.0039062 36.6427987,72.9511724 36.9787379,72.8457031 L36.9787379,73.8828125 C36.8263934,73.9492191 36.6301063,74.0048826 36.3898707,74.0498047 C36.1496351,74.0947268 35.9006142,74.1171875 35.6428004,74.1171875 C34.3381064,74.1171875 33.6857691,73.4296944 33.6857691,72.0546875 L33.6857691,68.5625 L32.8010035,68.5625 L32.8010035,67.953125 L33.7502222,67.4492188 L34.2189722,66.078125 L35.0685816,66.078125 L35.0685816,67.5195312 L36.9142847,67.5195312 L36.9142847,68.5625 L35.0685816,68.5625 L35.0685816,72.03125 C35.0685816,72.3632829 35.1515886,72.6083976 35.3176051,72.7666016 C35.4836215,72.9248055 35.7013928,73.0039062 35.9709254,73.0039062 Z M40.338024,74.1171875 C39.3302064,74.1171875 38.5421284,73.8232451 37.9737662,73.2353516 C37.4054039,72.647458 37.1212271,71.8378958 37.1212271,70.8066406 C37.1212271,69.7480416 37.3848963,68.9160187 37.9122427,68.3105469 C38.4395891,67.7050751 39.1641912,67.4023438 40.0860708,67.4023438 C40.9415439,67.4023438 41.6173184,67.6621068 42.1134146,68.1816406 C42.6095108,68.7011745 42.8575552,69.4160111 42.8575552,70.3261719 L42.8575552,71.0703125 L38.5391958,71.0703125 C38.5587272,71.6992219 38.7286474,72.1826155 39.0489615,72.5205078 C39.3692756,72.8584001 39.8204429,73.0273438 40.4024771,73.0273438 C40.7852915,73.0273438 41.1417333,72.9912113 41.471813,72.9189453 C41.8018928,72.8466793 42.1563815,72.7265633 42.5352896,72.5585938 L42.5352896,73.6777344 C42.1993504,73.8378914 41.8595101,73.9511715 41.5157583,74.0175781 C41.1720066,74.0839847 40.7794324,74.1171875 40.338024,74.1171875 Z M40.0860708,68.4453125 C39.6485687,68.4453125 39.2979862,68.583983 39.034313,68.8613281 C38.7706398,69.1386733 38.6134149,69.5429661 38.5626333,70.0742188 L41.5040396,70.0742188 C41.4962271,69.5390598 41.3673221,69.1337904 41.1173208,68.8583984 C40.8673196,68.5830064 40.523573,68.4453125 40.0860708,68.4453125 Z M50.0624555,74 L49.7870649,73.0976562 L49.7401899,73.0976562 C49.4276884,73.4921895 49.1132384,73.7607415 48.7968305,73.9033203 C48.4804227,74.0458992 48.0741768,74.1171875 47.5780805,74.1171875 C46.9413586,74.1171875 46.4442933,73.9453142 46.0868696,73.6015625 C45.729446,73.2578108 45.5507368,72.7714875 45.5507368,72.1425781 C45.5507368,71.474606 45.7987812,70.9707048 46.2948774,70.6308594 C46.7909737,70.2910139 47.5468255,70.1054689 48.5624555,70.0742188 L49.6815962,70.0390625 L49.6815962,69.6933594 C49.6815962,69.2792948 49.5849175,68.9697276 49.3915571,68.7646484 C49.1981968,68.5595693 48.8983951,68.4570312 48.492143,68.4570312 C48.1601101,68.4570312 47.8417539,68.5058589 47.5370649,68.6035156 C47.2323759,68.7011724 46.9394101,68.8164056 46.6581587,68.9492188 L46.2128462,67.9648438 C46.5644104,67.7812491 46.9491722,67.641602 47.367143,67.5458984 C47.7851139,67.4501948 48.1796412,67.4023438 48.5507368,67.4023438 C49.3749597,67.4023438 49.9970238,67.5820295 50.4169477,67.9414062 C50.8368717,68.300783 51.0468305,68.8652305 51.0468305,69.6347656 L51.0468305,74 L50.0624555,74 Z M48.0116743,73.0625 C48.5116768,73.0625 48.91304,72.922853 49.2157759,72.6435547 C49.5185118,72.3642564 49.6698774,71.9726588 49.6698774,71.46875 L49.6698774,70.90625 L48.8378462,70.9414062 C48.1894054,70.9648439 47.7177305,71.0732412 47.4228071,71.2666016 C47.1278838,71.4599619 46.9804243,71.7558574 46.9804243,72.1542969 C46.9804243,72.4433608 47.0663609,72.6669914 47.2382368,72.8251953 C47.4101127,72.9833992 47.6679226,73.0625 48.0116743,73.0625 Z M60.3728246,68.0234375 C60.3728246,68.9179732 60.0798588,69.6035132 59.4939184,70.0800781 C58.9079779,70.556643 58.0740019,70.7949219 56.9919652,70.7949219 L56.1013402,70.7949219 L56.1013402,74 L54.7009496,74 L54.7009496,65.4335938 L57.1677465,65.4335938 C58.2380644,65.4335938 59.0398141,65.6523416 59.5730199,66.0898438 C60.1062257,66.5273459 60.3728246,67.1718707 60.3728246,68.0234375 Z M56.1013402,69.6171875 L56.8454809,69.6171875 C57.5642345,69.6171875 58.0915729,69.4921887 58.4275121,69.2421875 C58.7634513,68.9921863 58.9314184,68.6015652 58.9314184,68.0703125 C58.9314184,67.5781225 58.7810293,67.2109387 58.4802465,66.96875 C58.1794637,66.7265613 57.7107184,66.6054688 57.0739965,66.6054688 L56.1013402,66.6054688 L56.1013402,69.6171875 Z M66.9196107,70.7480469 C66.9196107,71.8066459 66.6481291,72.6328095 66.1051576,73.2265625 C65.5621861,73.8203155 64.8063343,74.1171875 63.8375795,74.1171875 C63.2321077,74.1171875 62.6969568,73.9804701 62.2321107,73.7070312 C61.7672647,73.4335924 61.4098463,73.0410182 61.1598451,72.5292969 C60.9098438,72.0175756 60.7848451,71.4238315 60.7848451,70.7480469 C60.7848451,69.6972604 61.0543737,68.8769561 61.5934388,68.2871094 C62.132504,67.6972627 62.8922621,67.4023438 63.8727357,67.4023438 C64.8102404,67.4023438 65.5524205,67.7040985 66.0992982,68.3076172 C66.646176,68.9111358 66.9196107,69.7246043 66.9196107,70.7480469 Z M62.2028138,70.7480469 C62.2028138,72.2441481 62.7555427,72.9921875 63.861017,72.9921875 C64.9547724,72.9921875 65.501642,72.2441481 65.501642,70.7480469 C65.501642,69.2675707 64.9508662,68.5273438 63.8492982,68.5273438 C63.2711703,68.5273438 62.8522292,68.7187481 62.5924623,69.1015625 C62.3326954,69.4843769 62.2028138,70.0331996 62.2028138,70.7480469 Z M72.0894437,72.1542969 C72.0894437,72.7871125 71.8589773,73.2724592 71.3980374,73.6103516 C70.9370976,73.9482439 70.276948,74.1171875 69.4175687,74.1171875 C68.5542831,74.1171875 67.8609307,73.9863294 67.3374906,73.7246094 L67.3374906,72.5351562 C68.0992131,72.8867205 68.8081904,73.0625 69.4644437,73.0625 C70.3121042,73.0625 70.7359281,72.8066432 70.7359281,72.2949219 C70.7359281,72.1308586 70.6890535,71.9941412 70.5953031,71.8847656 C70.5015526,71.7753901 70.3472573,71.66211 70.1324124,71.5449219 C69.9175676,71.4277338 69.6187425,71.2949226 69.2359281,71.1464844 C68.4898306,70.8574204 67.9849528,70.5683608 67.7212796,70.2792969 C67.4576064,69.9902329 67.3257718,69.6152367 67.3257718,69.1542969 C67.3257718,68.5996066 67.5494024,68.1689468 67.9966703,67.8623047 C68.4439381,67.5556625 69.0523305,67.4023438 69.8218656,67.4023438 C70.5835881,67.4023438 71.3042841,67.5566391 71.9839749,67.8652344 L71.5386624,68.9023438 C70.8394402,68.6132798 70.2515555,68.46875 69.7749906,68.46875 C69.0484244,68.46875 68.6851468,68.6757792 68.6851468,69.0898438 C68.6851468,69.2929698 68.7798724,69.464843 68.9693265,69.6054688 C69.1587806,69.7460945 69.5718624,69.9394519 70.2085843,70.1855469 C70.7437433,70.3925792 71.1324112,70.5820304 71.3745999,70.7539062 C71.6167887,70.9257821 71.7964744,71.1240223 71.9136624,71.3486328 C72.0308505,71.5732433 72.0894437,71.8417953 72.0894437,72.1542969 Z M75.2260735,73.0039062 C75.5620127,73.0039062 75.8979469,72.9511724 76.233886,72.8457031 L76.233886,73.8828125 C76.0815415,73.9492191 75.8852544,74.0048826 75.6450189,74.0498047 C75.4047833,74.0947268 75.1557623,74.1171875 74.8979485,74.1171875 C73.5932545,74.1171875 72.9409173,73.4296944 72.9409173,72.0546875 L72.9409173,68.5625 L72.0561517,68.5625 L72.0561517,67.953125 L73.0053704,67.4492188 L73.4741204,66.078125 L74.3237298,66.078125 L74.3237298,67.5195312 L76.1694329,67.5195312 L76.1694329,68.5625 L74.3237298,68.5625 L74.3237298,72.03125 C74.3237298,72.3632829 74.4067368,72.6083976 74.5727532,72.7666016 C74.7387697,72.9248055 74.956541,73.0039062 75.2260735,73.0039062 Z" id="Create-a-Post" fill="#224F59"></path>
            </g>
        </g>
    </g>
</svg>