<?xml version="1.0" encoding="UTF-8"?>
<svg width="85px" height="85px" viewBox="0 0 85 85" version="1.1" xmlns="http://www.w3.org/2000/svg" xmlns:xlink="http://www.w3.org/1999/xlink">
    <!-- Generator: Sketch 49 (51002) - http://www.bohemiancoding.com/sketch -->
    <title>Add Tile</title>
    <desc>Created with Sketch.</desc>
    <defs>
        <path d="M5.1277704,-2.07168062e-16 L79.8722296,2.07168062e-16 C81.6552671,-1.2037061e-16 82.3018396,0.185651222 82.9536914,0.534265408 C83.6055433,0.882879593 84.1171204,1.39445674 84.4657346,2.04630859 C84.8143488,2.69816044 85,3.34473292 85,5.1277704 L85,79.8722296 C85,81.6552671 84.8143488,82.3018396 84.4657346,82.9536914 C84.1171204,83.6055433 83.6055433,84.1171204 82.9536914,84.4657346 C82.3018396,84.8143488 81.6552671,85 79.8722296,85 L5.1277704,85 C3.34473292,85 2.69816044,84.8143488 2.04630859,84.4657346 C1.39445674,84.1171204 0.882879593,83.6055433 0.534265408,82.9536914 C0.185651222,82.3018396 8.02470732e-17,81.6552671 -1.38112041e-16,79.8722296 L1.38112041e-16,5.1277704 C-8.02470732e-17,3.34473292 0.185651222,2.69816044 0.534265408,2.04630859 C0.882879593,1.39445674 1.39445674,0.882879593 2.04630859,0.534265408 C2.69816044,0.185651222 3.34473292,1.2037061e-16 5.1277704,-2.07168062e-16 Z" id="path-1"></path>
        <mask id="mask-2" maskContentUnits="userSpaceOnUse" maskUnits="objectBoundingBox" x="0" y="0" width="85" height="85" fill="white">
            <use xlink:href="#path-1"></use>
        </mask>
    </defs>
    <g id="Page-1" stroke="none" stroke-width="1" fill="none" fill-rule="evenodd">
        <g id="New-Menu-(Desktop)-Copy-3" transform="translate(-1225.000000, -609.000000)">
            <g id="Group-8" transform="translate(1095.000000, 75.000000)">
                <g id="Add-Tile" transform="translate(130.000000, 534.000000)">
                    <use id="Rectangle" stroke="#E56841" mask="url(#mask-2)" stroke-width="3" fill="#F2F2F2" stroke-dasharray="5" xlink:href="#path-1"></use>
                    <g id="Post-Icon" transform="translate(23.000000, 13.000000)" stroke="#E56841" stroke-width="2">
                        <circle id="Oval" cx="19.5" cy="20" r="18.5"></circle>
                        <path d="M11,19.6439394 L28.3863636,19.6439394" id="Line-3" stroke-linecap="round"></path>
                        <path d="M19.6439394,28.3863636 L19.6439394,11" id="Line-3-Copy" stroke-linecap="round"></path>
                    </g>
                    <path d="M38.650524,74 L37.7950552,71.6210938 L34.5196646,71.6210938 L33.681774,74 L32.2052115,74 L35.4102896,65.3984375 L36.9337271,65.3984375 L40.1388052,74 L38.650524,74 Z M37.4259146,70.4140625 L36.6231802,68.0820312 C36.5645862,67.9257805 36.4835323,67.6796892 36.3800162,67.34375 C36.2765,67.0078108 36.2052117,66.7617195 36.166149,66.6054688 C36.0606797,67.0859399 35.9063844,67.6113253 35.7032583,68.1816406 L34.9298208,70.4140625 L37.4259146,70.4140625 Z M42.5430132,74.1171875 C41.7344154,74.1171875 41.1035623,73.8242217 40.6504351,73.2382812 C40.1973078,72.6523408 39.9707476,71.8300834 39.9707476,70.7714844 C39.9707476,69.7089791 40.2002375,68.8818389 40.6592241,68.2900391 C41.1182108,67.6982392 41.7539466,67.4023438 42.5664507,67.4023438 C43.4180175,67.4023438 44.0664485,67.7167937 44.5117632,68.3457031 L44.5820757,68.3457031 C44.5156691,67.8808571 44.4824663,67.5136732 44.4824663,67.2441406 L44.4824663,64.8828125 L45.8652788,64.8828125 L45.8652788,74 L44.7871538,74 L44.5469195,73.1503906 L44.4824663,73.1503906 C44.0410579,73.7949251 43.39458,74.1171875 42.5430132,74.1171875 Z M42.9121538,73.0039062 C43.4785629,73.0039062 43.8906682,72.8447282 44.148482,72.5263672 C44.4062957,72.2080062 44.5391069,71.6914098 44.5469195,70.9765625 L44.5469195,70.7832031 C44.5469195,69.9667928 44.4141083,69.3867205 44.148482,69.0429688 C43.8828556,68.699217 43.4668442,68.5273438 42.9004351,68.5273438 C42.4160577,68.5273438 42.0430145,68.7236308 41.7812945,69.1162109 C41.5195744,69.508791 41.3887163,70.0683557 41.3887163,70.7949219 C41.3887163,71.5136755 41.5156682,72.0615216 41.7695757,72.4384766 C42.0234832,72.8154316 42.4043388,73.0039062 42.9121538,73.0039062 Z M49.2538618,74.1171875 C48.445264,74.1171875 47.8144109,73.8242217 47.3612837,73.2382812 C46.9081564,72.6523408 46.6815962,71.8300834 46.6815962,70.7714844 C46.6815962,69.7089791 46.9110861,68.8818389 47.3700727,68.2900391 C47.8290594,67.6982392 48.4647952,67.4023438 49.2772993,67.4023438 C50.1288661,67.4023438 50.7772971,67.7167937 51.2226118,68.3457031 L51.2929243,68.3457031 C51.2265177,67.8808571 51.1933149,67.5136732 51.1933149,67.2441406 L51.1933149,64.8828125 L52.5761274,64.8828125 L52.5761274,74 L51.4980024,74 L51.257768,73.1503906 L51.1933149,73.1503906 C50.7519065,73.7949251 50.1054286,74.1171875 49.2538618,74.1171875 Z M49.6230024,73.0039062 C50.1894115,73.0039062 50.6015168,72.8447282 50.8593305,72.5263672 C51.1171443,72.2080062 51.2499555,71.6914098 51.257768,70.9765625 L51.257768,70.7832031 C51.257768,69.9667928 51.1249569,69.3867205 50.8593305,69.0429688 C50.5937042,68.699217 50.1776928,68.5273438 49.6112837,68.5273438 C49.1269063,68.5273438 48.7538631,68.7236308 48.492143,69.1162109 C48.230423,69.508791 48.0995649,70.0683557 48.0995649,70.7949219 C48.0995649,71.5136755 48.2265168,72.0615216 48.4804243,72.4384766 C48.7343318,72.8154316 49.1151874,73.0039062 49.6230024,73.0039062 Z" id="Add" fill="#E56841"></path>
                </g>
            </g>
        </g>
    </g>
</svg>