<?xml version="1.0" encoding="UTF-8"?>
<svg width="91px" height="91px" viewBox="0 0 91 91" version="1.1" xmlns="http://www.w3.org/2000/svg" xmlns:xlink="http://www.w3.org/1999/xlink">
    <!-- Generator: Sketch 47.1 (45422) - http://www.bohemiancoding.com/sketch -->
    <title>Create Post Tile</title>
    <desc>Created with Sketch.</desc>
    <defs>
        <filter x="-5.9%" y="-4.7%" width="111.8%" height="111.8%" filterUnits="objectBoundingBox" id="filter-1">
            <feOffset dx="0" dy="1" in="SourceAlpha" result="shadowOffsetOuter1"></feOffset>
            <feGaussianBlur stdDeviation="1.5" in="shadowOffsetOuter1" result="shadowBlurOuter1"></feGaussianBlur>
            <feColorMatrix values="0 0 0 0 0.453071854   0 0 0 0 0.453071854   0 0 0 0 0.453071854  0 0 0 0.5 0" type="matrix" in="shadowBlurOuter1" result="shadowMatrixOuter1"></feColorMatrix>
            <feMerge>
                <feMergeNode in="shadowMatrixOuter1"></feMergeNode>
                <feMergeNode in="SourceGraphic"></feMergeNode>
            </feMerge>
        </filter>
    </defs>
    <g id="Symbols" stroke="none" stroke-width="1" fill="none" fill-rule="evenodd">
        <g id="TCWA-Top-Navigation-Bar" transform="translate(-1234.000000, -87.000000)">
            <g id="Group-19">
                <g id="Group-17" transform="translate(0.000000, 75.000000)">
                    <g id="Create-Post-Tile" filter="url(#filter-1)" transform="translate(1237.000000, 14.000000)">
                        <rect id="Rectangle-10" fill="#E56841" x="0" y="0" width="85" height="85" rx="4"></rect>
                        <path d="M27.0656738,55.8876953 C26.1939247,55.8876953 25.5083847,56.1966115 25.0090332,56.8144531 C24.5096817,57.4322948 24.2600098,58.2849881 24.2600098,59.3725586 C24.2600098,60.5109106 24.5001604,61.3720674 24.9804688,61.9560547 C25.4607771,62.540042 26.1558385,62.8320312 27.0656738,62.8320312 C27.4592305,62.8320312 27.840086,62.7928878 28.208252,62.7145996 C28.5764179,62.6363115 28.9593893,62.5358079 29.3571777,62.4130859 L29.3571777,63.7143555 C28.6293095,63.9894219 27.8041225,64.1269531 26.8815918,64.1269531 C25.5231866,64.1269531 24.4800655,63.7154175 23.7521973,62.892334 C23.024329,62.0692504 22.6604004,60.891772 22.6604004,59.3598633 C22.6604004,58.3950147 22.8370751,57.5507849 23.1904297,56.8271484 C23.5437843,56.103512 24.0547655,55.5491556 24.7233887,55.1640625 C25.3920118,54.7789694 26.1769974,54.5864258 27.0783691,54.5864258 C28.0262905,54.5864258 28.9022583,54.785317 29.7062988,55.1831055 L29.1604004,56.4462891 C28.8472478,56.2981763 28.516115,56.1680507 28.1669922,56.0559082 C27.8178693,55.9437657 27.4507669,55.8876953 27.0656738,55.8876953 Z M34.7590332,56.8525391 C35.0594904,56.8525391 35.3070466,56.8736977 35.501709,56.9160156 L35.3557129,58.3061523 C35.1441233,58.2553708 34.9240734,58.2299805 34.6955566,58.2299805 C34.098874,58.2299805 33.615399,58.42464 33.2451172,58.8139648 C32.8748354,59.2032897 32.6896973,59.7089813 32.6896973,60.3310547 L32.6896973,64 L31.197998,64 L31.197998,56.9794922 L32.3659668,56.9794922 L32.5627441,58.2172852 L32.638916,58.2172852 C32.8716646,57.7983377 33.1752911,57.4661471 33.5498047,57.2207031 C33.9243183,56.9752592 34.3273904,56.8525391 34.7590332,56.8525391 Z M39.6086426,64.1269531 C38.5168402,64.1269531 37.663089,63.8085156 37.0473633,63.1716309 C36.4316375,62.5347462 36.1237793,61.6577204 36.1237793,60.5405273 C36.1237793,59.3937117 36.409421,58.4923535 36.9807129,57.8364258 C37.5520048,57.180498 38.3369904,56.8525391 39.3356934,56.8525391 C40.2624558,56.8525391 40.9945448,57.133949 41.5319824,57.6967773 C42.06942,58.2596057 42.3381348,59.034012 42.3381348,60.0200195 L42.3381348,60.8261719 L37.6599121,60.8261719 C37.6810711,61.5074904 37.8651513,62.0311668 38.2121582,62.3972168 C38.5591651,62.7632668 39.0479298,62.9462891 39.6784668,62.9462891 C40.0931824,62.9462891 40.4793276,62.9071456 40.8369141,62.8288574 C41.1945005,62.7505693 41.5785298,62.6204436 41.9890137,62.4384766 L41.9890137,63.6508789 C41.6250796,63.8243824 41.2569192,63.9471025 40.8845215,64.019043 C40.5121238,64.0909834 40.0868351,64.1269531 39.6086426,64.1269531 Z M39.3356934,57.9824219 C38.8617327,57.9824219 38.481935,58.1326482 38.1962891,58.4331055 C37.9106431,58.7335627 37.740316,59.1715466 37.6853027,59.7470703 L40.8718262,59.7470703 C40.8633626,59.1673148 40.7237155,58.728273 40.4528809,58.4299316 C40.1820462,58.1315903 39.8096541,57.9824219 39.3356934,57.9824219 Z M48.4255371,64 L48.1271973,63.0224609 L48.076416,63.0224609 C47.7378727,63.4498719 47.3972185,63.7408033 47.0544434,63.8952637 C46.7116682,64.0497241 46.2715684,64.1269531 45.7341309,64.1269531 C45.0443488,64.1269531 44.5058613,63.9407571 44.1186523,63.5683594 C43.7314434,63.1959617 43.5378418,62.6691115 43.5378418,61.987793 C43.5378418,61.2641565 43.8065566,60.7182636 44.3439941,60.3500977 C44.8814317,59.9819318 45.7002712,59.7809246 46.8005371,59.7470703 L48.0129395,59.7089844 L48.0129395,59.3344727 C48.0129395,58.8859027 47.9082042,58.5505382 47.6987305,58.3283691 C47.4892568,58.1062001 47.1644716,57.9951172 46.7243652,57.9951172 C46.3646629,57.9951172 46.019777,58.0480138 45.6896973,58.1538086 C45.3596175,58.2596034 45.0422379,58.3844394 44.7375488,58.5283203 L44.255127,57.4619141 C44.6359882,57.2630198 45.0528135,57.1117355 45.5056152,57.0080566 C45.958417,56.9043777 46.3858216,56.8525391 46.7878418,56.8525391 C47.6807499,56.8525391 48.3546527,57.0471986 48.8095703,57.4365234 C49.264488,57.8258483 49.4919434,58.4373331 49.4919434,59.2709961 L49.4919434,64 L48.4255371,64 Z M46.2038574,62.984375 C46.7455268,62.984375 47.1803369,62.8330907 47.5083008,62.5305176 C47.8362647,62.2279445 48.0002441,61.8037137 48.0002441,61.2578125 L48.0002441,60.6484375 L47.098877,60.6865234 C46.3963995,60.7119142 45.8854183,60.8293447 45.565918,61.0388184 C45.2464177,61.2482921 45.0866699,61.5688455 45.0866699,62.0004883 C45.0866699,62.3136409 45.1797679,62.5559073 45.3659668,62.7272949 C45.5521656,62.8986825 45.8314597,62.984375 46.2038574,62.984375 Z M54.189209,62.9208984 C54.5531431,62.9208984 54.9170717,62.8637701 55.2810059,62.7495117 L55.2810059,63.8730469 C55.115966,63.9449873 54.9033216,64.0052895 54.6430664,64.0539551 C54.3828112,64.1026207 54.1130385,64.1269531 53.8337402,64.1269531 C52.4203217,64.1269531 51.713623,63.3821689 51.713623,61.8925781 L51.713623,58.109375 L50.755127,58.109375 L50.755127,57.4492188 L51.7834473,56.9033203 L52.2912598,55.4179688 L53.2116699,55.4179688 L53.2116699,56.9794922 L55.2111816,56.9794922 L55.2111816,58.109375 L53.2116699,58.109375 L53.2116699,61.8671875 C53.2116699,62.2268898 53.3015942,62.4924308 53.4814453,62.6638184 C53.6612965,62.8352059 53.8972153,62.9208984 54.189209,62.9208984 Z M59.7497559,64.1269531 C58.6579535,64.1269531 57.8042023,63.8085156 57.1884766,63.1716309 C56.5727508,62.5347462 56.2648926,61.6577204 56.2648926,60.5405273 C56.2648926,59.3937117 56.5505343,58.4923535 57.1218262,57.8364258 C57.6931181,57.180498 58.4781037,56.8525391 59.4768066,56.8525391 C60.4035691,56.8525391 61.1356581,57.133949 61.6730957,57.6967773 C62.2105333,58.2596057 62.479248,59.034012 62.479248,60.0200195 L62.479248,60.8261719 L57.8010254,60.8261719 C57.8221844,61.5074904 58.0062645,62.0311668 58.3532715,62.3972168 C58.7002784,62.7632668 59.1890431,62.9462891 59.8195801,62.9462891 C60.2342957,62.9462891 60.6204409,62.9071456 60.9780273,62.8288574 C61.3356138,62.7505693 61.7196431,62.6204436 62.130127,62.4384766 L62.130127,63.6508789 C61.7661928,63.8243824 61.3980325,63.9471025 61.0256348,64.019043 C60.6532371,64.0909834 60.2279484,64.1269531 59.7497559,64.1269531 Z M59.4768066,57.9824219 C59.0028459,57.9824219 58.6230483,58.1326482 58.3374023,58.4331055 C58.0517564,58.7335627 57.8814293,59.1715466 57.826416,59.7470703 L61.0129395,59.7470703 C61.0044759,59.1673148 60.8648288,58.728273 60.5939941,58.4299316 C60.3231595,58.1315903 59.9507673,57.9824219 59.4768066,57.9824219 Z M28.8112793,78 L28.5129395,77.0224609 L28.4621582,77.0224609 C28.1236148,77.4498719 27.7829607,77.7408033 27.4401855,77.8952637 C27.0974104,78.0497241 26.6573106,78.1269531 26.119873,78.1269531 C25.430091,78.1269531 24.8916035,77.9407571 24.5043945,77.5683594 C24.1171856,77.1959617 23.923584,76.6691115 23.923584,75.987793 C23.923584,75.2641565 24.1922987,74.7182636 24.7297363,74.3500977 C25.2671739,73.9819318 26.0860134,73.7809246 27.1862793,73.7470703 L28.3986816,73.7089844 L28.3986816,73.3344727 C28.3986816,72.8859027 28.2939464,72.5505382 28.0844727,72.3283691 C27.874999,72.1062001 27.5502138,71.9951172 27.1101074,71.9951172 C26.7504051,71.9951172 26.4055192,72.0480138 26.0754395,72.1538086 C25.7453597,72.2596034 25.42798,72.3844394 25.123291,72.5283203 L24.6408691,71.4619141 C25.0217304,71.2630198 25.4385557,71.1117355 25.8913574,71.0080566 C26.3441592,70.9043777 26.7715637,70.8525391 27.173584,70.8525391 C28.0664921,70.8525391 28.7403949,71.0471986 29.1953125,71.4365234 C29.6502301,71.8258483 29.8776855,72.4373331 29.8776855,73.2709961 L29.8776855,78 L28.8112793,78 Z M26.5895996,76.984375 C27.131269,76.984375 27.5660791,76.8330907 27.894043,76.5305176 C28.2220068,76.2279445 28.3859863,75.8037137 28.3859863,75.2578125 L28.3859863,74.6484375 L27.4846191,74.6865234 C26.7821417,74.7119142 26.2711605,74.8293447 25.9516602,75.0388184 C25.6321599,75.2482921 25.4724121,75.5688455 25.4724121,76.0004883 C25.4724121,76.3136409 25.5655101,76.5559073 25.751709,76.7272949 C25.9379078,76.8986825 26.2172019,76.984375 26.5895996,76.984375 Z M41.6398926,71.5253906 C41.6398926,72.494471 41.3225129,73.2371393 40.6877441,73.753418 C40.0529753,74.2696966 39.1495013,74.527832 37.9772949,74.527832 L37.0124512,74.527832 L37.0124512,78 L35.4953613,78 L35.4953613,68.7197266 L38.1677246,68.7197266 C39.3272356,68.7197266 40.1957979,68.9567034 40.7734375,69.4306641 C41.3510771,69.9046248 41.6398926,70.60286 41.6398926,71.5253906 Z M37.0124512,73.2519531 L37.8186035,73.2519531 C38.5972532,73.2519531 39.1685366,73.1165378 39.5324707,72.8457031 C39.8964048,72.5748684 40.0783691,72.1516956 40.0783691,71.5761719 C40.0783691,71.0429661 39.9154476,70.6451836 39.5895996,70.3828125 C39.2637516,70.1204414 38.7559442,69.9892578 38.0661621,69.9892578 L37.0124512,69.9892578 L37.0124512,73.2519531 Z M49.5617676,74.4770508 C49.5617676,75.6238664 49.2676624,76.518877 48.6794434,77.1621094 C48.0912243,77.8053418 47.2723848,78.1269531 46.2229004,78.1269531 C45.5669726,78.1269531 44.9872258,77.9788426 44.4836426,77.6826172 C43.9800593,77.3863917 43.5928562,76.961103 43.3220215,76.4067383 C43.0511868,75.8523735 42.9157715,75.2091508 42.9157715,74.4770508 C42.9157715,73.3386987 43.2077608,72.4500357 43.791748,71.8110352 C44.3757353,71.1720346 45.1988065,70.8525391 46.2609863,70.8525391 C47.2766164,70.8525391 48.0806448,71.1794401 48.6730957,71.833252 C49.2655466,72.4870638 49.5617676,73.3683213 49.5617676,74.4770508 Z M44.4519043,74.4770508 C44.4519043,76.0978271 45.0506939,76.9082031 46.248291,76.9082031 C47.4331928,76.9082031 48.0256348,76.0978271 48.0256348,74.4770508 C48.0256348,72.8732016 47.428961,72.0712891 46.2355957,72.0712891 C45.6092905,72.0712891 45.1554376,72.2786438 44.8740234,72.6933594 C44.5926093,73.108075 44.4519043,73.7026328 44.4519043,74.4770508 Z M55.9919434,76.0004883 C55.9919434,76.6860386 55.7422714,77.2118309 55.2429199,77.5778809 C54.7435685,77.9439309 54.0284063,78.1269531 53.0974121,78.1269531 C52.1621861,78.1269531 51.4110543,77.9851902 50.8439941,77.7016602 L50.8439941,76.4130859 C51.6691936,76.7939472 52.4372523,76.984375 53.1481934,76.984375 C54.0664922,76.984375 54.5256348,76.7071968 54.5256348,76.152832 C54.5256348,75.9750968 54.474854,75.8269863 54.373291,75.7084961 C54.271728,75.5900059 54.1045747,75.4672858 53.8718262,75.340332 C53.6390776,75.2133783 53.3153504,75.0694995 52.9006348,74.9086914 C52.0923625,74.5955388 51.5454116,74.2823909 51.2597656,73.9692383 C50.9741197,73.6560857 50.8312988,73.2498397 50.8312988,72.7504883 C50.8312988,72.1495738 51.0735653,71.6830257 51.5581055,71.3508301 C52.0426457,71.0186344 52.7017374,70.8525391 53.5354004,70.8525391 C54.3605998,70.8525391 55.1413537,71.0196923 55.8776855,71.3540039 L55.3952637,72.4775391 C54.6377729,72.1643865 54.0008978,72.0078125 53.4846191,72.0078125 C52.6975058,72.0078125 52.3039551,72.2320941 52.3039551,72.6806641 C52.3039551,72.9007172 52.4065745,73.0869133 52.6118164,73.2392578 C52.8170583,73.3916023 53.2645636,73.6010729 53.9543457,73.8676758 C54.5341012,74.0919608 54.9551582,74.2971996 55.2175293,74.4833984 C55.4799004,74.6695973 55.6745599,74.8843575 55.8015137,75.1276855 C55.9284674,75.3710136 55.9919434,75.6619449 55.9919434,76.0004883 Z M60.2194824,76.9208984 C60.5834165,76.9208984 60.9473452,76.8637701 61.3112793,76.7495117 L61.3112793,77.8730469 C61.1462394,77.9449873 60.9335951,78.0052895 60.6733398,78.0539551 C60.4130846,78.1026207 60.1433119,78.1269531 59.8640137,78.1269531 C58.4505951,78.1269531 57.7438965,77.3821689 57.7438965,75.8925781 L57.7438965,72.109375 L56.7854004,72.109375 L56.7854004,71.4492188 L57.8137207,70.9033203 L58.3215332,69.4179688 L59.2419434,69.4179688 L59.2419434,70.9794922 L61.2414551,70.9794922 L61.2414551,72.109375 L59.2419434,72.109375 L59.2419434,75.8671875 C59.2419434,76.2268898 59.3318676,76.4924308 59.5117188,76.6638184 C59.6915699,76.8352059 59.9274888,76.9208984 60.2194824,76.9208984 Z" id="Create-a-Post" fill="#FFFFFF"></path>
                        <circle id="Oval" fill="#FFFFFF" cx="43" cy="30" r="20"></circle>
                        <path d="M34.5,29.5 L51.5,29.5" id="Line-3" stroke="#E56841" stroke-width="3" stroke-linecap="round"></path>
                        <path d="M43,38 L43,21" id="Line-3-Copy" stroke="#E56841" stroke-width="3" stroke-linecap="round"></path>
                    </g>
                </g>
            </g>
        </g>
    </g>
</svg>