<?xml version="1.0" encoding="UTF-8"?>
<svg width="91px" height="91px" viewBox="0 0 91 91" version="1.1" xmlns="http://www.w3.org/2000/svg" xmlns:xlink="http://www.w3.org/1999/xlink">
    <!-- Generator: Sketch 49.2 (51160) - http://www.bohemiancoding.com/sketch -->
    <title>People You Follow Tile</title>
    <desc>Created with Sketch.</desc>
    <defs>
        <rect id="path-1" x="0" y="0" width="85" height="85" rx="4"></rect>
        <filter x="-5.9%" y="-4.7%" width="111.8%" height="111.8%" filterUnits="objectBoundingBox" id="filter-2">
            <feOffset dx="0" dy="1" in="SourceAlpha" result="shadowOffsetOuter1"></feOffset>
            <feGaussianBlur stdDeviation="1.5" in="shadowOffsetOuter1" result="shadowBlurOuter1"></feGaussianBlur>
            <feColorMatrix values="0 0 0 0 0.454901961   0 0 0 0 0.454901961   0 0 0 0 0.454901961  0 0 0 0.5 0" type="matrix" in="shadowBlurOuter1"></feColorMatrix>
        </filter>
    </defs>
    <g id="Page-1" stroke="none" stroke-width="1" fill="none" fill-rule="evenodd">
        <g id="Tiles" transform="translate(-592.000000, -59.000000)">
            <g id="People-You-Follow-Tile" transform="translate(595.000000, 61.000000)">
                <g id="Posts-from-People-I-Follow-Tile">
                    <use fill="black" fill-opacity="1" filter="url(#filter-2)" xlink:href="#path-1"></use>
                    <use fill="#FFFFFF" fill-rule="evenodd" xlink:href="#path-1"></use>
                </g>
                <g id="Group-7-Copy-2" transform="translate(22.000000, 8.000000)">
                    <g id="Group-5-Copy-2" transform="translate(21.000000, 0.000000)" stroke="#224F59" stroke-width="1.5">
                        <ellipse id="Oval-2" cx="6.66619067" cy="6.47732894" rx="5.84866833" ry="6.46868872"></ellipse>
                        <path d="M2.27653102,15.133438 C13.3119309,14.1718491 18.8296309,17.5886173 18.8296309,25.3837424" id="Path-2"></path>
                        <path d="M19.9029183,25.6497075 C17.0279869,25.8761691 14.8798617,26.0604893 13.4585429,26.2026681 C11.330396,26.4155531 9.07210763,26.5636185 6.68367776,26.6468643" id="Path-3"></path>
                    </g>
                    <g id="Group-5-Copy" transform="translate(0.000000, 8.000000)" fill="#224F59">
                        <path d="M0.582104725,28.5930323 C0.582104725,28.5930323 -1.90874536,16.1538462 13.7674147,16.1538462 C29.4435747,16.1538462 27.8336755,28.6161152 27.8336755,28.6161152 C27.8336755,28.6161152 21.6015082,29.9165672 13.7674147,29.9165672 C5.93332115,29.9165672 0.582104725,28.5930323 0.582104725,28.5930323 Z" id="Path-4"></path>
                        <ellipse id="Oval-2" cx="14.2025561" cy="7.50488237" rx="6.35212356" ry="7.49511763"></ellipse>
                    </g>
                </g>
                <path d="M34.269709,58.3417969 L36.2970527,54.4335938 L37.8204902,54.4335938 L34.9669746,59.6777344 L34.9669746,63 L33.5607246,63 L33.5607246,59.7246094 L30.7189277,54.4335938 L32.2423652,54.4335938 L34.269709,58.3417969 Z M43.189542,59.7480469 C43.189542,60.8066459 42.9180603,61.6328095 42.3750889,62.2265625 C41.8321174,62.8203155 41.0762656,63.1171875 40.1075107,63.1171875 C39.502039,63.1171875 38.9668881,62.9804701 38.502042,62.7070312 C38.0371959,62.4335924 37.6797776,62.0410182 37.4297764,61.5292969 C37.1797751,61.0175756 37.0547764,60.4238315 37.0547764,59.7480469 C37.0547764,58.6972604 37.3243049,57.8769561 37.8633701,57.2871094 C38.4024353,56.6972627 39.1621933,56.4023438 40.142667,56.4023438 C41.0801717,56.4023438 41.8223518,56.7040985 42.3692295,57.3076172 C42.9161072,57.9111358 43.189542,58.7246043 43.189542,59.7480469 Z M38.4727451,59.7480469 C38.4727451,61.2441481 39.025474,61.9921875 40.1309482,61.9921875 C41.2247037,61.9921875 41.7715732,61.2441481 41.7715732,59.7480469 C41.7715732,58.2675707 41.2207975,57.5273438 40.1192295,57.5273438 C39.5411016,57.5273438 39.1221605,57.7187481 38.8623936,58.1015625 C38.6026266,58.4843769 38.4727451,59.0331996 38.4727451,59.7480469 Z M48.5761719,63 L48.3828125,62.1503906 L48.3125,62.1503906 C48.1210928,62.4511734 47.8486346,62.6874991 47.4951172,62.859375 C47.1415998,63.0312509 46.7382835,63.1171875 46.2851562,63.1171875 C45.4999961,63.1171875 44.9140644,62.921877 44.5273437,62.53125 C44.1406231,62.140623 43.9472656,61.5488321 43.9472656,60.7558594 L43.9472656,56.5195312 L45.3359375,56.5195312 L45.3359375,60.515625 C45.3359375,61.0117212 45.437499,61.3837878 45.640625,61.6318359 C45.843751,61.8798841 46.1621072,62.0039062 46.5957031,62.0039062 C47.173831,62.0039062 47.5986315,61.8310564 47.8701172,61.4853516 C48.1416029,61.1396467 48.2773437,60.5605509 48.2773437,59.7480469 L48.2773437,56.5195312 L49.6601562,56.5195312 L49.6601562,63 L48.5761719,63 Z M54.1444424,56.4023438 C54.4217875,56.4023438 54.6503009,56.4218748 54.8299893,56.4609375 L54.6952236,57.7441406 C54.4999102,57.6972654 54.2967872,57.6738281 54.0858486,57.6738281 C53.5350646,57.6738281 53.08878,57.8535138 52.7469814,58.2128906 C52.4051829,58.5722674 52.2342861,59.0390596 52.2342861,59.6132812 L52.2342861,63 L50.857333,63 L50.857333,56.5195312 L51.935458,56.5195312 L52.1170986,57.6621094 L52.1874111,57.6621094 C52.402256,57.2753887 52.6825266,56.9687511 53.0282314,56.7421875 C53.3739363,56.5156239 53.7460029,56.4023438 54.1444424,56.4023438 Z M15.5483404,69.5117188 C14.7436488,69.5117188 14.1108427,69.7968721 13.6499029,70.3671875 C13.188963,70.9375029 12.9584966,71.7246044 12.9584966,72.7285156 C12.9584966,73.7793021 13.1801741,74.5742161 13.6235357,75.1132812 C14.0668973,75.6523464 14.7084924,75.921875 15.5483404,75.921875 C15.9116234,75.921875 16.2631824,75.8857425 16.6030279,75.8134766 C16.9428733,75.7412106 17.2963854,75.6484381 17.6635747,75.5351562 L17.6635747,76.7363281 C16.9916964,76.9902356 16.2299852,77.1171875 15.3784185,77.1171875 C14.124506,77.1171875 13.161625,76.7373085 12.4897466,75.9775391 C11.8178682,75.2177696 11.4819341,74.1308664 11.4819341,72.7167969 C11.4819341,71.8261674 11.6450184,71.0468783 11.9711919,70.3789062 C12.2973654,69.7109342 12.7690404,69.1992205 13.386231,68.84375 C14.0034216,68.4882795 14.7280237,68.3105469 15.5600591,68.3105469 C16.4350635,68.3105469 17.2436491,68.4941388 17.9858404,68.8613281 L17.4819341,70.0273438 C17.1928702,69.8906243 16.8872091,69.7705083 16.5649419,69.6669922 C16.2426747,69.563476 15.9038109,69.5117188 15.5483404,69.5117188 Z M24.3451265,73.7480469 C24.3451265,74.8066459 24.0736448,75.6328095 23.5306734,76.2265625 C22.9877019,76.8203155 22.2318501,77.1171875 21.2630952,77.1171875 C20.6576235,77.1171875 20.1224726,76.9804701 19.6576265,76.7070312 C19.1927804,76.4335924 18.8353621,76.0410182 18.5853609,75.5292969 C18.3353596,75.0175756 18.2103609,74.4238315 18.2103609,73.7480469 C18.2103609,72.6972604 18.4798894,71.8769561 19.0189546,71.2871094 C19.5580198,70.6972627 20.3177778,70.4023438 21.2982515,70.4023438 C22.2357562,70.4023438 22.9779362,70.7040985 23.524814,71.3076172 C24.0716917,71.9111358 24.3451265,72.7246043 24.3451265,73.7480469 Z M19.6283296,73.7480469 C19.6283296,75.2441481 20.1810585,75.9921875 21.2865327,75.9921875 C22.3802882,75.9921875 22.9271577,75.2441481 22.9271577,73.7480469 C22.9271577,72.2675707 22.376382,71.5273438 21.274814,71.5273438 C20.6966861,71.5273438 20.277745,71.7187481 20.017978,72.1015625 C19.7582111,72.4843769 19.6283296,73.0331996 19.6283296,73.7480469 Z M30.8626157,77 L29.4798032,77 L29.4798032,73.015625 C29.4798032,72.5156225 29.3792183,72.1425794 29.1780454,71.8964844 C28.9768725,71.6503894 28.6575398,71.5273438 28.2200376,71.5273438 C27.6380034,71.5273438 27.2122265,71.699217 26.9426939,72.0429688 C26.6731613,72.3867205 26.538397,72.9628866 26.538397,73.7714844 L26.538397,77 L25.1614439,77 L25.1614439,70.5195312 L26.2395689,70.5195312 L26.4329282,71.3691406 L26.5032407,71.3691406 C26.6985542,71.0605453 26.9758952,70.8222665 27.335272,70.6542969 C27.6946488,70.4863273 28.0930823,70.4023438 28.5305845,70.4023438 C30.0852798,70.4023438 30.8626157,71.1933515 30.8626157,72.7753906 L30.8626157,77 Z M37.7140894,77 L36.3312769,77 L36.3312769,73.015625 C36.3312769,72.5156225 36.2306919,72.1425794 36.0295191,71.8964844 C35.8283462,71.6503894 35.5090134,71.5273438 35.0715112,71.5273438 C34.4894771,71.5273438 34.0637001,71.699217 33.7941675,72.0429688 C33.5246349,72.3867205 33.3898706,72.9628866 33.3898706,73.7714844 L33.3898706,77 L32.0129175,77 L32.0129175,70.5195312 L33.0910425,70.5195312 L33.2844019,71.3691406 L33.3547144,71.3691406 C33.5500278,71.0605453 33.8273688,70.8222665 34.1867456,70.6542969 C34.5461224,70.4863273 34.9445559,70.4023438 35.3820581,70.4023438 C36.9367534,70.4023438 37.7140894,71.1933515 37.7140894,72.7753906 L37.7140894,77 Z M41.6944692,77.1171875 C40.6866517,77.1171875 39.8985736,76.8232451 39.3302114,76.2353516 C38.7618492,75.647458 38.4776724,74.8378958 38.4776724,73.8066406 C38.4776724,72.7480416 38.7413416,71.9160187 39.268688,71.3105469 C39.7960344,70.7050751 40.5206365,70.4023438 41.4425161,70.4023438 C42.2979891,70.4023438 42.9737636,70.6621068 43.4698599,71.1816406 C43.9659561,71.7011745 44.2140005,72.4160111 44.2140005,73.3261719 L44.2140005,74.0703125 L39.8956411,74.0703125 C39.9151725,74.6992219 40.0850926,75.1826155 40.4054067,75.5205078 C40.7257208,75.8584001 41.1768882,76.0273438 41.7589224,76.0273438 C42.1417368,76.0273438 42.4981785,75.9912113 42.8282583,75.9189453 C43.1583381,75.8466793 43.5128267,75.7265633 43.8917349,75.5585938 L43.8917349,76.6777344 C43.5557957,76.8378914 43.2159553,76.9511715 42.8722036,77.0175781 C42.5284519,77.0839847 42.1358777,77.1171875 41.6944692,77.1171875 Z M41.4425161,71.4453125 C41.0050139,71.4453125 40.6544315,71.583983 40.3907583,71.8613281 C40.1270851,72.1386733 39.9698601,72.5429661 39.9190786,73.0742188 L42.8604849,73.0742188 C42.8526723,72.5390598 42.7237674,72.1337904 42.4737661,71.8583984 C42.2237649,71.5830064 41.8800183,71.4453125 41.4425161,71.4453125 Z M47.626021,77.1171875 C46.6455473,77.1171875 45.9004376,76.8310575 45.3906694,76.2587891 C44.8809013,75.6865206 44.626021,74.8652397 44.626021,73.7949219 C44.626021,72.7050727 44.8926199,71.8671904 45.4258257,71.28125 C45.9590315,70.6953096 46.7295316,70.4023438 47.7373491,70.4023438 C48.4209463,70.4023438 49.0361745,70.5292956 49.5830522,70.7832031 L49.1670366,71.890625 C48.5850025,71.6640614 48.1045385,71.5507812 47.7256304,71.5507812 C46.604531,71.5507812 46.0439897,72.2949144 46.0439897,73.7832031 C46.0439897,74.5097693 46.1836368,75.0556622 46.4629351,75.4208984 C46.7422333,75.7861346 47.1514089,75.96875 47.6904741,75.96875 C48.3037584,75.96875 48.8838308,75.8164078 49.4307085,75.5117188 L49.4307085,76.7128906 C49.1846135,76.8574226 48.9219208,76.9609372 48.6426226,77.0234375 C48.3633243,77.0859378 48.0244605,77.1171875 47.626021,77.1171875 Z M52.6024946,76.0039062 C52.9384338,76.0039062 53.2743679,75.9511724 53.6103071,75.8457031 L53.6103071,76.8828125 C53.4579626,76.9492191 53.2616755,77.0048826 53.0214399,77.0498047 C52.7812044,77.0947268 52.5321834,77.1171875 52.2743696,77.1171875 C50.9696756,77.1171875 50.3173384,76.4296944 50.3173384,75.0546875 L50.3173384,71.5625 L49.4325728,71.5625 L49.4325728,70.953125 L50.3817915,70.4492188 L50.8505415,69.078125 L51.7001509,69.078125 L51.7001509,70.5195312 L53.545854,70.5195312 L53.545854,71.5625 L51.7001509,71.5625 L51.7001509,75.03125 C51.7001509,75.3632829 51.7831579,75.6083976 51.9491743,75.7666016 C52.1151908,75.9248055 52.332962,76.0039062 52.6024946,76.0039062 Z M55.5164683,77 L54.1395151,77 L54.1395151,70.5195312 L55.5164683,70.5195312 L55.5164683,77 Z M54.0574839,68.8027344 C54.0574839,68.5566394 54.124866,68.3671882 54.2596323,68.234375 C54.3943986,68.1015618 54.5867795,68.0351562 54.8367808,68.0351562 C55.0789695,68.0351562 55.2674441,68.1015618 55.4022104,68.234375 C55.5369767,68.3671882 55.6043589,68.5566394 55.6043589,68.8027344 C55.6043589,69.0371105 55.5369767,69.221679 55.4022104,69.3564453 C55.2674441,69.4912116 55.0789695,69.5585938 54.8367808,69.5585938 C54.5867795,69.5585938 54.3943986,69.4912116 54.2596323,69.3564453 C54.124866,69.221679 54.0574839,69.0371105 54.0574839,68.8027344 Z M62.4675513,73.7480469 C62.4675513,74.8066459 62.1960696,75.6328095 61.6530981,76.2265625 C61.1101267,76.8203155 60.3542749,77.1171875 59.38552,77.1171875 C58.7800482,77.1171875 58.2448973,76.9804701 57.7800513,76.7070312 C57.3152052,76.4335924 56.9577869,76.0410182 56.7077856,75.5292969 C56.4577844,75.0175756 56.3327856,74.4238315 56.3327856,73.7480469 C56.3327856,72.6972604 56.6023142,71.8769561 57.1413794,71.2871094 C57.6804446,70.6972627 58.4402026,70.4023438 59.4206763,70.4023438 C60.3581809,70.4023438 61.100361,70.7040985 61.6472388,71.3076172 C62.1941165,71.9111358 62.4675513,72.7246043 62.4675513,73.7480469 Z M57.7507544,73.7480469 C57.7507544,75.2441481 58.3034832,75.9921875 59.4089575,75.9921875 C60.502713,75.9921875 61.0495825,75.2441481 61.0495825,73.7480469 C61.0495825,72.2675707 60.4988068,71.5273438 59.3972388,71.5273438 C58.8191109,71.5273438 58.4001697,71.7187481 58.1404028,72.1015625 C57.8806359,72.4843769 57.7507544,73.0331996 57.7507544,73.7480469 Z M68.9850405,77 L67.602228,77 L67.602228,73.015625 C67.602228,72.5156225 67.5016431,72.1425794 67.3004702,71.8964844 C67.0992973,71.6503894 66.7799646,71.5273438 66.3424624,71.5273438 C65.7604282,71.5273438 65.3346512,71.699217 65.0651186,72.0429688 C64.795586,72.3867205 64.6608218,72.9628866 64.6608218,73.7714844 L64.6608218,77 L63.2838686,77 L63.2838686,70.5195312 L64.3619936,70.5195312 L64.555353,71.3691406 L64.6256655,71.3691406 C64.820979,71.0605453 65.09832,70.8222665 65.4576968,70.6542969 C65.8170736,70.4863273 66.2155071,70.4023438 66.6530093,70.4023438 C68.2077045,70.4023438 68.9850405,71.1933515 68.9850405,72.7753906 L68.9850405,77 Z M74.4888579,75.1542969 C74.4888579,75.7871125 74.2583914,76.2724592 73.7974516,76.6103516 C73.3365118,76.9482439 72.6763622,77.1171875 71.8169829,77.1171875 C70.9536973,77.1171875 70.2603449,76.9863294 69.7369048,76.7246094 L69.7369048,75.5351562 C70.4986273,75.8867205 71.2076046,76.0625 71.8638579,76.0625 C72.7115184,76.0625 73.1353423,75.8066432 73.1353423,75.2949219 C73.1353423,75.1308586 73.0884677,74.9941412 72.9947173,74.8847656 C72.9009668,74.7753901 72.7466715,74.66211 72.5318266,74.5449219 C72.3169818,74.4277338 72.0181567,74.2949226 71.6353423,74.1464844 C70.8892448,73.8574204 70.384367,73.5683608 70.1206938,73.2792969 C69.8570206,72.9902329 69.725186,72.6152367 69.725186,72.1542969 C69.725186,71.5996066 69.9488166,71.1689468 70.3960845,70.8623047 C70.8433523,70.5556625 71.4517447,70.4023438 72.2212798,70.4023438 C72.9830023,70.4023438 73.7036982,70.5566391 74.3833891,70.8652344 L73.9380766,71.9023438 C73.2388544,71.6132798 72.6509697,71.46875 72.1744048,71.46875 C71.4478386,71.46875 71.084561,71.6757792 71.084561,72.0898438 C71.084561,72.2929698 71.1792866,72.464843 71.3687407,72.6054688 C71.5581948,72.7460945 71.9712766,72.9394519 72.6079985,73.1855469 C73.1431574,73.3925792 73.5318254,73.5820304 73.7740141,73.7539062 C74.0162029,73.9257821 74.1958886,74.1240223 74.3130766,74.3486328 C74.4302647,74.5732433 74.4888579,74.8417953 74.4888579,75.1542969 Z" id="Your-Connections" fill="#123B45"></path>
            </g>
        </g>
    </g>
</svg>